<svg width="32" height="32" viewBox="0 0 32 32" fill="none" xmlns="http://www.w3.org/2000/svg">
<path d="M16 32C24.8366 32 32 24.8366 32 16C32 7.16344 24.8366 0 16 0C7.16344 0 0 7.16344 0 16C0 24.8366 7.16344 32 16 32Z" fill="#5E3C16"/>
<path d="M19.985 21.9477H17.5804L16.6245 19.4609H12.2485L11.3449 21.9477H9L13.264 11H15.6014L19.985 21.9477ZM15.9151 17.6163L14.4066 13.5539L12.928 17.6163H15.9151Z" fill="#DF871E"/>
<path d="M20.3781 12.9416V11H22.4765V12.9416H20.3781ZM20.3781 21.9477V14.0169H22.4765V21.9476H20.3781V21.9477Z" fill="#DF871E"/>
</svg>
