<svg width="32" height="32" viewBox="0 0 32 32" fill="none" xmlns="http://www.w3.org/2000/svg">
<path d="M16 32C24.8366 32 32 24.8366 32 16C32 7.16344 24.8366 0 16 0C7.16344 0 0 7.16344 0 16C0 24.8366 7.16344 32 16 32Z" fill="#001E36"/>
<path d="M9 21.0857V11.1639C9 11.0964 9.02908 11.0579 9.09695 11.0579C9.26176 11.0579 9.41688 11.0579 9.63986 11.0482C9.87254 11.0386 10.1149 11.0386 10.3767 11.0289C10.6384 11.0193 10.9196 11.0193 11.2201 11.0096C11.5207 11 11.8115 11 12.1024 11C12.8973 11 13.5566 11.0964 14.0995 11.2989C14.5842 11.4628 15.0302 11.7328 15.3986 12.0896C15.7088 12.3981 15.9512 12.7741 16.1063 13.1888C16.2517 13.5937 16.3293 14.0083 16.3293 14.4422C16.3293 15.2715 16.1354 15.956 15.7476 16.496C15.3598 17.036 14.8169 17.4409 14.1867 17.6723C13.5275 17.9134 12.8004 18.0002 12.0054 18.0002C11.7727 18.0002 11.6176 18.0002 11.5207 17.9905C11.4237 17.9809 11.288 17.9809 11.1038 17.9809V21.076C11.1135 21.1435 11.065 21.2014 10.9971 21.211C10.9874 21.211 10.9777 21.211 10.9584 21.211H9.11634C9.03878 21.211 9 21.1724 9 21.0857ZM11.1135 12.9188V16.1585C11.2492 16.1682 11.3752 16.1778 11.4916 16.1778H12.0054C12.3835 16.1778 12.7616 16.12 13.1203 16.0043C13.4305 15.9175 13.702 15.7343 13.9153 15.4932C14.1189 15.2522 14.2158 14.9243 14.2158 14.5001C14.2255 14.2012 14.148 13.9023 13.9928 13.6419C13.828 13.3912 13.5954 13.1984 13.3142 13.0923C12.9555 12.9477 12.5677 12.8899 12.1702 12.8995C11.9181 12.8995 11.6952 12.8995 11.511 12.9091C11.3171 12.8995 11.1813 12.9091 11.1135 12.9188Z" fill="#31A8FF"/>
<path d="M22.3789 15.5704C22.088 15.4161 21.7778 15.3101 21.4482 15.2426C21.0895 15.1654 20.7308 15.1172 20.3624 15.1172C20.1685 15.1076 19.9649 15.1365 19.7807 15.1847C19.6546 15.2137 19.548 15.2812 19.4801 15.3776C19.4317 15.4547 19.4026 15.5511 19.4026 15.6379C19.4026 15.7247 19.4414 15.8115 19.4995 15.8886C19.5868 15.9947 19.7031 16.0814 19.8291 16.1489C20.0521 16.2646 20.2848 16.3707 20.5175 16.4671C21.041 16.6407 21.5451 16.8817 22.0105 17.171C22.3304 17.3735 22.5922 17.6435 22.7764 17.9713C22.9315 18.2799 23.0091 18.6173 22.9994 18.9644C23.0091 19.4176 22.8733 19.8708 22.6213 20.2468C22.3498 20.6325 21.9717 20.9314 21.5354 21.105C21.0604 21.3075 20.4787 21.4135 19.7807 21.4135C19.3347 21.4135 18.8984 21.375 18.4622 21.2882C18.1229 21.2303 17.7835 21.1243 17.4733 20.9796C17.4054 20.9411 17.357 20.8736 17.3667 20.7964V19.1187C17.3667 19.0898 17.3763 19.0512 17.4054 19.0319C17.4345 19.0127 17.4636 19.0223 17.4927 19.0416C17.8708 19.2633 18.2683 19.4176 18.6948 19.514C19.0633 19.6105 19.451 19.6587 19.8388 19.6587C20.2072 19.6587 20.469 19.6105 20.6435 19.5237C20.7986 19.4562 20.9053 19.2923 20.9053 19.1187C20.9053 18.9837 20.8277 18.8584 20.6726 18.733C20.5175 18.6077 20.1975 18.463 19.7225 18.2798C19.2281 18.1063 18.7724 17.8749 18.3458 17.5856C18.0453 17.3735 17.7932 17.0939 17.609 16.766C17.4539 16.4575 17.3763 16.12 17.386 15.7825C17.386 15.3679 17.5024 14.9726 17.7157 14.6158C17.958 14.2302 18.3167 13.9216 18.7336 13.7288C19.1893 13.4974 19.7613 13.3913 20.4496 13.3913C20.8471 13.3913 21.2543 13.4202 21.6518 13.4781C21.9426 13.5166 22.2238 13.5938 22.4855 13.6998C22.5243 13.7095 22.5631 13.7481 22.5825 13.7866C22.5922 13.8252 22.6019 13.8638 22.6019 13.9023V15.474C22.6019 15.5126 22.5825 15.5511 22.5534 15.5704C22.4661 15.5897 22.4177 15.5897 22.3789 15.5704Z" fill="#31A8FF"/>
</svg>
