<svg width="32" height="32" viewBox="0 0 32 32" fill="none" xmlns="http://www.w3.org/2000/svg">
<circle cx="16" cy="16" r="16" fill="#FF6B93"/>
<path d="M22.9498 17.8746C22.3318 17.8781 21.7967 18.0273 21.3478 18.2496C21.1821 17.9197 21.0163 17.6315 20.9888 17.4162C20.9577 17.1662 20.9197 17.0134 20.9577 16.7148C20.9956 16.4162 21.1683 15.9925 21.1683 15.9578C21.1648 15.9266 21.1302 15.7738 20.7747 15.7703C20.4191 15.7668 20.1117 15.8398 20.0772 15.9335C20.0427 16.0273 19.9736 16.2426 19.9288 16.4648C19.8666 16.7912 19.2175 17.9475 18.8481 18.5551C18.7272 18.319 18.6236 18.1107 18.6029 17.944C18.5718 17.694 18.5338 17.5412 18.5718 17.2426C18.6098 16.9439 18.7825 16.5203 18.7825 16.4856C18.779 16.4544 18.7445 16.3016 18.3889 16.2981C18.0332 16.2946 17.726 16.3676 17.6914 16.4613C17.6569 16.5551 17.6189 16.7773 17.543 16.9926C17.4704 17.2079 16.6073 19.1385 16.3828 19.642C16.2689 19.8989 16.1688 20.1038 16.0963 20.2427C16.0238 20.3816 16.0928 20.2531 16.0859 20.267C16.0238 20.3851 15.9892 20.451 15.9892 20.451V20.4546C15.9409 20.5414 15.8891 20.6247 15.8649 20.6247C15.8476 20.6247 15.8131 20.392 15.8718 20.0726C15.9996 19.4024 16.3103 18.3573 16.3069 18.3191C16.3069 18.3017 16.3655 18.1176 16.1066 18.0239C15.8546 17.9302 15.7648 18.0864 15.7441 18.0864C15.7233 18.0864 15.7061 18.142 15.7061 18.142C15.7061 18.142 15.9858 16.9649 15.1709 16.9649C14.6599 16.9649 13.9556 17.5239 13.6069 18.0344C13.3859 18.1559 12.9163 18.4128 12.4191 18.6872C12.2292 18.7913 12.0324 18.9024 11.846 19.0031L11.808 18.9614C10.8206 17.9023 8.99411 17.1523 9.07007 15.7286C9.09769 15.2113 9.27723 13.8466 12.578 12.1938C15.2815 10.8396 17.4463 11.2111 17.8226 12.0375C18.3578 13.2181 16.666 15.4127 13.8555 15.7286C12.7852 15.8502 12.2224 15.4335 12.0808 15.2772C11.9324 15.114 11.9117 15.1071 11.8564 15.1383C11.7666 15.187 11.8219 15.3328 11.8564 15.4196C11.9393 15.6384 12.2845 16.0273 12.8715 16.2217C13.3859 16.3919 14.6427 16.4856 16.1619 15.8953C17.8641 15.2321 19.1934 13.3918 18.8032 11.8535C18.4062 10.2875 15.8235 9.77356 13.3825 10.6451C11.9289 11.166 10.3545 11.9785 9.22198 13.0445C7.87544 14.3085 7.66137 15.4127 7.75114 15.871C8.06537 17.5065 10.3061 18.5725 11.2038 19.3607C11.1589 19.385 11.1175 19.4093 11.0795 19.4302C10.6307 19.6524 8.9216 20.5517 8.49347 21.5031C8.01009 22.5796 8.56943 23.3539 8.94232 23.4581C10.0955 23.781 11.2763 23.2012 11.9151 22.2463C12.5503 21.2914 12.4744 20.0517 12.1809 19.4857L12.1705 19.4649L12.5227 19.2566C12.7506 19.1211 12.975 18.9961 13.1718 18.8885C13.0614 19.1905 12.9819 19.5482 12.9405 20.0691C12.8922 20.6802 13.1408 21.4719 13.4688 21.7844C13.6138 21.9198 13.7864 21.9233 13.8935 21.9233C14.2733 21.9233 14.4459 21.6073 14.6358 21.2288C14.8706 20.767 15.0777 20.2323 15.0777 20.2323C15.0777 20.2323 14.8188 21.6802 15.5266 21.6802C15.7855 21.6802 16.0445 21.3434 16.1619 21.1698V21.1733C16.1619 21.1733 16.1688 21.1628 16.1826 21.1385C16.1971 21.117 16.2109 21.095 16.224 21.0726V21.0657C16.3276 20.8851 16.5589 20.4719 16.9042 19.7878C17.3496 18.9059 17.7777 17.8016 17.7777 17.8016C17.7777 17.8016 17.8192 18.0725 17.9469 18.5169C18.0228 18.7809 18.1886 19.0691 18.3163 19.3503C18.2127 19.4962 18.1506 19.5795 18.1506 19.5795L18.154 19.583C18.0712 19.6941 17.978 19.8122 17.8813 19.9302C17.5291 20.3539 17.1079 20.8366 17.0527 20.9754C16.9871 21.1386 17.0009 21.2601 17.1286 21.3574C17.2218 21.4269 17.3876 21.4407 17.5637 21.4269C17.8813 21.406 18.1023 21.3262 18.2128 21.2775C18.3854 21.215 18.5822 21.1213 18.7721 20.9824C19.1174 20.7254 19.328 20.3608 19.3073 19.8747C19.2969 19.6073 19.2106 19.3434 19.1036 19.0934C19.1346 19.0483 19.1657 19.0031 19.1968 18.9545C19.7423 18.1524 20.1635 17.2704 20.1635 17.2704C20.1635 17.2704 20.205 17.5413 20.3327 17.9857C20.3983 18.2115 20.5295 18.458 20.6469 18.7011C20.1359 19.1212 19.8148 19.6074 19.7043 19.9268C19.5006 20.5171 19.6594 20.7845 19.9598 20.847C20.0944 20.8748 20.2878 20.8123 20.4328 20.7498C20.6123 20.6907 20.8299 20.59 21.0302 20.4407C21.3754 20.1838 21.7069 19.8261 21.6896 19.3435C21.6793 19.1212 21.6206 18.9025 21.5412 18.6941C21.9762 18.5136 22.5389 18.4094 23.2537 18.4962C24.7901 18.6768 25.094 19.6421 25.0353 20.0449C24.9766 20.4477 24.6555 20.6699 24.5484 20.7394C24.4414 20.8053 24.4069 20.8297 24.4172 20.8783C24.431 20.9512 24.4794 20.9477 24.5726 20.9338C24.7004 20.913 25.3805 20.604 25.4082 19.8609C25.4496 18.9059 24.5484 17.8642 22.9498 17.8746ZM11.1002 21.8921C10.5927 22.4511 9.87799 22.6629 9.57416 22.4824C9.24615 22.2914 9.37387 21.4685 9.99884 20.8747C10.3786 20.5136 10.8724 20.1802 11.1969 19.9753C11.2694 19.9302 11.3799 19.8643 11.5111 19.7844C11.5318 19.7705 11.5456 19.7635 11.5456 19.7635C11.5698 19.7496 11.5974 19.7323 11.6251 19.7149C11.8564 20.5622 11.6354 21.3053 11.1002 21.8921ZM14.8119 19.3538C14.6358 19.7878 14.2629 20.9025 14.0385 20.84C13.8451 20.7879 13.7277 19.9441 14.0005 19.1107C14.1386 18.6905 14.432 18.1905 14.6047 17.9961C14.8844 17.6835 15.1882 17.5794 15.2642 17.7079C15.3539 17.8746 14.9224 19.0829 14.8119 19.3538ZM17.8744 20.8261C17.7984 20.8643 17.7294 20.892 17.6983 20.8712C17.6741 20.8574 17.7294 20.8053 17.7294 20.8053C17.7294 20.8053 18.1126 20.3921 18.2645 20.2011C18.3508 20.09 18.4544 19.9615 18.5649 19.8156V19.8573C18.5649 20.3573 18.0885 20.6906 17.8744 20.8261ZM20.236 20.2844C20.1808 20.2427 20.1877 20.1142 20.3741 19.7114C20.4467 19.5517 20.6123 19.2843 20.8989 19.0309C20.9334 19.135 20.9542 19.2357 20.9507 19.3295C20.9473 19.9545 20.5053 20.1872 20.236 20.2844Z" fill="white"/>
</svg>
