<svg width="32" height="32" viewBox="0 0 32 32" fill="none" xmlns="http://www.w3.org/2000/svg">
<path d="M16 32C24.8366 32 32 24.8366 32 16C32 7.16344 24.8366 0 16 0C7.16344 0 0 7.16344 0 16C0 24.8366 7.16344 32 16 32Z" fill="#2B2A50"/>
<path d="M10.9194 9.52652L15.9819 9L21.0444 9.52652L24.9637 14.7025L15.9819 24.992L7 14.7025L10.9194 9.52652Z" fill="#FDB300"/>
<path d="M10.6381 14.7027L15.9819 24.9922L7 14.7027H10.6381Z" fill="#EA6C00"/>
<path d="M21.3255 14.7027L15.9818 24.9922L24.9636 14.7027H21.3255Z" fill="#EA6C00"/>
<path d="M10.6384 14.7027H21.3259L15.9822 24.9922L10.6384 14.7027Z" fill="#FDAD00"/>
<path d="M15.9822 9L10.9197 9.52652L10.6384 14.7025L15.9822 9Z" fill="#FDD231"/>
<path d="M15.982 9L21.0446 9.52652L21.3258 14.7025L15.982 9Z" fill="#FDD231"/>
<path d="M24.9635 14.7026L21.0441 9.52661L21.3254 14.7026H24.9635Z" fill="#FDAD00"/>
<path d="M7 14.7026L10.9193 9.52661L10.6381 14.7026H7Z" fill="#FDAD00"/>
<path d="M15.9822 9L10.6384 14.7025H21.3259L15.9822 9Z" fill="#FEEEB7"/>
</svg>
