<svg width="73" height="73" viewBox="0 0 73 73" fill="none" xmlns="http://www.w3.org/2000/svg">
<circle cx="36.357" cy="36.357" r="36.357" fill="white"/>
<path d="M36.5547 21C29.4365 21 24.9876 24.5094 23.208 31.5281C25.8774 28.0187 28.9916 26.7027 32.5507 27.58C34.5814 28.0806 36.0328 29.5332 37.6394 31.1412C40.2565 33.7605 43.2855 36.7921 49.9014 36.7921C57.0196 36.7921 61.4685 33.2828 63.2481 26.264C60.5788 29.7734 57.4645 31.0894 53.9054 30.2121C51.8747 29.7115 50.4233 28.2589 48.8168 26.6509C46.1996 24.0316 43.1706 21 36.5547 21ZM23.208 36.7921C16.0898 36.7921 11.6409 40.3015 9.86133 47.3202C12.5307 43.8108 15.6449 42.4948 19.204 43.3722C21.2347 43.8727 22.6861 45.3253 24.2927 46.9333C26.9098 49.5526 29.9388 52.5842 36.5547 52.5842C43.673 52.5842 48.1219 49.0749 49.9014 42.0562C47.2321 45.5655 44.1178 46.8815 40.5587 46.0042C38.528 45.5036 37.0766 44.051 35.4701 42.4431C32.8529 39.8237 29.8239 36.7921 23.208 36.7921Z" fill="url(#paint0_linear_3154:12972)"/>
<defs>
<linearGradient id="paint0_linear_3154:12972" x1="8.37836" y1="31.107" x2="54.1604" y2="57.8781" gradientUnits="userSpaceOnUse">
<stop stop-color="#2298BD"/>
<stop offset="1" stop-color="#0ED7B5"/>
</linearGradient>
</defs>
</svg>
