<svg width="55" height="32" viewBox="0 0 55 32" fill="none" xmlns="http://www.w3.org/2000/svg">
<path d="M27.5547 0C20.4365 0 15.9876 3.50936 14.208 10.5281C16.8774 7.01872 19.9916 5.70271 23.5507 6.58005C25.5814 7.08062 27.0328 8.5332 28.6394 10.1412C31.2565 12.7605 34.2855 15.7921 40.9014 15.7921C48.0196 15.7921 52.4685 12.2828 54.2481 5.26404C51.5788 8.7734 48.4645 10.0894 44.9054 9.21207C42.8747 8.7115 41.4233 7.25892 39.8168 5.65095C37.1996 3.0316 34.1706 0 27.5547 0ZM14.208 15.7921C7.08979 15.7921 2.64089 19.3015 0.861328 26.3202C3.53067 22.8108 6.6449 21.4948 10.204 22.3722C12.2347 22.8727 13.6861 24.3253 15.2927 25.9333C17.9098 28.5526 20.9388 31.5842 27.5547 31.5842C34.673 31.5842 39.1219 28.0749 40.9014 21.0562C38.2321 24.5655 35.1178 25.8815 31.5587 25.0042C29.528 24.5036 28.0766 23.051 26.4701 21.4431C23.8529 18.8237 20.8239 15.7921 14.208 15.7921Z" fill="url(#paint0_linear_1921:8192)"/>
<defs>
<linearGradient id="paint0_linear_1921:8192" x1="-0.621638" y1="10.107" x2="45.1604" y2="36.8781" gradientUnits="userSpaceOnUse">
<stop stop-color="#2298BD"/>
<stop offset="1" stop-color="#0ED7B5"/>
</linearGradient>
</defs>
</svg>
