<svg id="Layer_1" data-name="Layer 1" xmlns="http://www.w3.org/2000/svg" viewBox="0 0 24 24"><title>settings_outlined</title><path d="M20.21,14.07a2,2,0,0,1-.72-1.64c0-.14,0-.29,0-.43s0-.29,0-.43a2,2,0,0,1,.72-1.64l.8-.66A1,1,0,0,0,21.24,8L20.08,6a1,1,0,0,0-.86-.5.84.84,0,0,0-.35.07l-1,.36a1.89,1.89,0,0,1-.7.13,2,2,0,0,1-1.08-.32,5.48,5.48,0,0,0-.74-.43,2,2,0,0,1-1.06-1.45l-.17-1a1,1,0,0,0-1-.84h-2.3a1,1,0,0,0-1,.84l-.17,1A2,2,0,0,1,8.63,5.31a5.48,5.48,0,0,0-.74.43,2,2,0,0,1-1.08.32,1.89,1.89,0,0,1-.7-.13l-1-.36a.84.84,0,0,0-.35-.07,1,1,0,0,0-.86.5L2.76,8A1,1,0,0,0,3,9.27l.8.66a2,2,0,0,1,.72,1.64c0,.14,0,.29,0,.43s0,.29,0,.43a2,2,0,0,1-.72,1.64l-.8.66A1,1,0,0,0,2.76,16l1.16,2a1,1,0,0,0,.86.5.84.84,0,0,0,.35-.07l1-.36a1.89,1.89,0,0,1,.7-.13,2,2,0,0,1,1.08.32,5.48,5.48,0,0,0,.74.43,2,2,0,0,1,1.06,1.45l.17,1a1,1,0,0,0,1,.84h2.3a1,1,0,0,0,1-.84l.17-1a2,2,0,0,1,1.06-1.45,5.48,5.48,0,0,0,.74-.43,2,2,0,0,1,1.08-.32,1.89,1.89,0,0,1,.7.13l1,.36a.84.84,0,0,0,.35.07,1,1,0,0,0,.86-.5l1.16-2A1,1,0,0,0,21,14.73ZM12,17.5A5.5,5.5,0,1,1,17.5,12,5.5,5.5,0,0,1,12,17.5ZM12,10a2,2,0,1,0,2,2A2,2,0,0,0,12,10Z"/></svg>