<?xml version="1.0" encoding="iso-8859-1"?>
<!-- Generator: Adobe Illustrator 19.0.0, SVG Export Plug-In . SVG Version: 6.00 Build 0)  -->
<svg version="1.1" id="Capa_1" xmlns="http://www.w3.org/2000/svg" xmlns:xlink="http://www.w3.org/1999/xlink" x="0px" y="0px"
	 viewBox="0 0 511.999 511.999" style="enable-background:new 0 0 511.999 511.999;" xml:space="preserve">
<path style="fill:#E3AA75;" d="M417.441,378.645l-86.402-25.412c-10.467-3.078-17.654-12.685-17.654-23.595v-38.983H198.613v38.983
	c0,10.91-7.188,20.516-17.654,23.595l-86.402,25.412c-20.933,6.157-35.309,25.369-35.309,47.189v61.571
	c0,13.583,11.011,24.594,24.594,24.594h344.314c13.583,0,24.594-11.011,24.594-24.594v-61.571
	C452.75,404.014,438.375,384.802,417.441,378.645z"/>
<path style="fill:#E6646E;" d="M417.441,378.645l-86.402-25.412c-1.461-0.43-2.84-1.014-4.162-1.684l-70.882,12.887l-70.874-12.887
	c-1.322,0.67-2.701,1.254-4.162,1.684l-86.402,25.412c-20.934,6.157-35.309,25.369-35.309,47.189v61.572
	c0,13.582,11.011,24.593,24.594,24.593h344.314c13.583,0,24.594-11.011,24.594-24.594v-61.572
	C452.75,404.014,438.375,384.802,417.441,378.645z"/>
<path style="fill:#DC4655;" d="M159.039,372.018l40.62,34.818c5.94,5.091,13.515,7.895,21.331,7.895
	c10.022,0,19.359-4.486,25.616-12.307l9.393-11.742l9.393,11.741c6.257,7.822,15.593,12.307,25.616,12.307
	c7.816,0,15.391-2.804,21.331-7.895l40.62-34.817c3.294-2.824,5.562-6.428,6.834-10.329l-28.754-8.457
	c-1.461-0.43-2.84-1.014-4.162-1.684l-70.882,12.887l-70.874-12.887c-1.322,0.67-2.701,1.254-4.162,1.684l-28.754,8.457
	C153.477,365.591,155.745,369.195,159.039,372.018z"/>
<path style="fill:#D29B6E;" d="M198.613,308.949c17.223,9.2,36.755,14.498,57.386,14.498s40.163-5.298,57.386-14.498v-18.294
	H198.613V308.949z"/>
<path style="fill:#F5B97D;" d="M366.671,167.685h-4.099V77.507H149.426v90.177h-4.099c-11.319,0-20.495,9.176-20.495,20.495
	s9.176,20.495,20.495,20.495h4.513c4.199,55.015,50.068,98.375,106.159,98.375s101.96-43.36,106.159-98.375h4.513
	c11.319,0,20.495-9.176,20.495-20.495C387.166,176.861,377.991,167.685,366.671,167.685z"/>
<path style="fill:#E3AA75;" d="M329.781,93.903V77.507H149.426v90.177h-2.929c-10.721,0-20.49,7.713-21.558,18.38
	c-1.229,12.268,8.372,22.609,20.389,22.609h4.513c4.199,55.015,50.068,98.375,106.159,98.375c5.608,0,11.076-0.546,16.447-1.382
	c-51.079-7.883-90.229-51.906-90.229-105.192v-57.386c0-18.11,14.681-32.792,32.792-32.792h98.375
	C322.44,110.299,329.781,102.959,329.781,93.903z"/>
<g>
	<path style="fill:#E6646E;" d="M255.999,364.436l-66.297-36.832c-4.08-2.267-9.226-0.675-11.314,3.5l-10.277,20.554
		c-1.346,2.692-0.687,5.954,1.598,7.912l40.62,34.817c7.041,6.035,17.681,5.035,23.473-2.206L255.999,364.436z"/>
	<path style="fill:#E6646E;" d="M255.999,364.436l66.297-36.832c4.08-2.267,9.226-0.675,11.314,3.5l10.277,20.554
		c1.346,2.692,0.687,5.954-1.598,7.912l-40.62,34.817c-7.041,6.035-17.681,5.035-23.473-2.206L255.999,364.436z"/>
</g>
<g>
	<path style="fill:#5A4650;" d="M206.811,192.991c-4.531,0-8.198-3.671-8.198-8.198v-8.198c0-4.527,3.667-8.198,8.198-8.198
		c4.531,0,8.198,3.671,8.198,8.198v8.198C215.009,189.321,211.343,192.991,206.811,192.991z"/>
	<path style="fill:#5A4650;" d="M305.187,192.991c-4.531,0-8.198-3.671-8.198-8.198v-8.198c0-4.527,3.667-8.198,8.198-8.198
		s8.198,3.671,8.198,8.198v8.198C313.385,189.321,309.718,192.991,305.187,192.991z"/>
</g>
<g>
	<path style="fill:#6E5A64;" d="M215.009,159.487h-16.396c-4.531,0-8.198-3.671-8.198-8.198s3.667-8.198,8.198-8.198h16.396
		c4.531,0,8.198,3.671,8.198,8.198S219.541,159.487,215.009,159.487z"/>
	<path style="fill:#6E5A64;" d="M313.385,159.487h-16.396c-4.531,0-8.198-3.671-8.198-8.198s3.667-8.198,8.198-8.198h16.396
		c4.531,0,8.198,3.671,8.198,8.198C321.583,155.816,317.916,159.487,313.385,159.487z"/>
</g>
<path style="fill:#FFFFFF;" d="M223.588,221.655c-2.581,0-4.499,2.359-4.07,4.904c2.663,15.784,17.982,27.888,36.481,27.888
	c18.499,0,33.818-12.104,36.481-27.888c0.429-2.545-1.489-4.904-4.07-4.904H223.588z"/>
<g>
	<circle style="fill:#FFC350;" cx="255.999" cy="430.019" r="8.198"/>
	<circle style="fill:#FFC350;" cx="255.999" cy="479.209" r="8.198"/>
</g>
<path style="fill:#5A4650;" d="M347.851,61.112H164.147c-25.031,0-44.217,22.239-40.547,46.999l9.43,63.625l18.406-2.274
	c8.215-1.015,14.386-7.994,14.386-16.272v-42.891c0-9.056,7.341-16.396,16.396-16.396h147.563c9.055,0,16.396,7.34,16.396,16.396
	v42.89c0,8.278,6.171,15.258,14.386,16.272l18.406,2.274l9.43-63.625C392.068,83.35,372.882,61.112,347.851,61.112z"/>
<path style="fill:#64505A;" d="M366.421,5.766c-1.576-4.882-7.246-7.252-11.726-4.753c-8.54,4.766-24.416,10.91-49.509,10.91h-81.98
	c-31.693,0-57.386,25.692-57.386,57.386l0,0c0,13.583,11.011,24.594,24.594,24.594h131.167
	C352.389,93.903,383.195,57.727,366.421,5.766z"/>
<g>
	<path style="fill:#DC4655;" d="M133.03,438.217L133.03,438.217v73.782h-24.594v-49.188
		C108.436,449.228,119.447,438.217,133.03,438.217z"/>
	<path style="fill:#DC4655;" d="M378.968,438.217L378.968,438.217v73.782h24.594v-49.188
		C403.562,449.228,392.551,438.217,378.968,438.217z"/>
</g>
<g>
	<polygon style="fill:#FFE17D;" points="133.03,511.999 165.822,511.999 165.822,357.684 133.03,367.329 	"/>
	<polygon style="fill:#FFE17D;" points="378.968,511.999 346.176,511.999 346.176,357.684 378.968,367.329 	"/>
</g>
<g>
	<path style="fill:#FFD164;" d="M133.03,511.999h16.396v-57.386c0-9.055-7.341-16.396-16.396-16.396l0,0V511.999z"/>
	<path style="fill:#FFD164;" d="M378.968,511.999h-16.396v-57.386c0-9.055,7.341-16.396,16.396-16.396l0,0V511.999z"/>
</g>
<path style="fill:#6E5A64;" d="M214.622,40.502c0.124,11.624,10.419,20.61,22.043,20.61h111.186c5.899,0,11.454,1.272,16.481,3.485
	c7.468-15.159,9.672-35.364,2.079-58.862c-1.57-4.858-7.236-7.223-11.693-4.733c-8.535,4.768-24.417,10.923-49.532,10.923h-81.98
	c-0.512,0.301-1.092,0.641-1.604,0.942c-4.433,8.139-6.983,17.45-6.983,27.371C214.62,40.325,214.621,40.413,214.622,40.502z"/>
<g>
</g>
<g>
</g>
<g>
</g>
<g>
</g>
<g>
</g>
<g>
</g>
<g>
</g>
<g>
</g>
<g>
</g>
<g>
</g>
<g>
</g>
<g>
</g>
<g>
</g>
<g>
</g>
<g>
</g>
</svg>
