<?xml version="1.0" encoding="iso-8859-1"?>
<!-- Generator: Adobe Illustrator 19.0.0, SVG Export Plug-In . SVG Version: 6.00 Build 0)  -->
<svg version="1.1" id="Capa_1" xmlns="http://www.w3.org/2000/svg" xmlns:xlink="http://www.w3.org/1999/xlink" x="0px" y="0px"
	 viewBox="0 0 512 512" style="enable-background:new 0 0 512 512;" xml:space="preserve">
<g>
	<path style="fill:#FF8250;" d="M346.839,323.551c0-8.228,2.812-15.733,7.469-21.618c2.794-3.53,2.794-8.591,0-12.121
		c-4.657-5.885-7.469-13.389-7.469-21.617c0-3.936,0.138-61.743,0.138-61.743h28.766c12.096,5.416,20.645,18.474,20.645,33.777
		c0,8.737-2.812,16.706-7.469,22.955c-2.794,3.75-2.794,9.124,0,12.872c4.657,6.249,7.469,14.219,7.469,22.957
		c0,9.044-3.005,17.276-7.955,23.621c-3.24,4.153-3.24,9.988,0,14.142c4.951,6.346,7.955,14.578,7.955,23.623
		c0,19.471-16.516,35.987-16.516,35.987l-33.032-8.258c0,0,0-16.516,7.955-29.017c2.727-4.285,3.24-9.406,0-13.317
		C349.842,339.82,346.839,332.068,346.839,323.551z"/>
	<path style="fill:#FF8250;" d="M165.161,323.551c0-8.228-2.812-15.733-7.469-21.618c-2.794-3.53-2.794-8.591,0-12.121
		c4.657-5.885,7.469-13.389,7.469-21.617c0-3.936-0.138-61.743-0.138-61.743h-28.766c-12.096,5.416-20.645,18.474-20.645,33.777
		c0,8.737,2.812,16.706,7.469,22.955c2.794,3.75,2.794,9.124,0,12.872c-4.657,6.249-7.469,14.219-7.469,22.957
		c0,9.044,3.005,17.276,7.955,23.621c3.24,4.153,3.24,9.988,0,14.142c-4.951,6.346-7.955,14.578-7.955,23.623
		c0,19.471,16.516,35.987,16.516,35.987l33.032-8.258c0,0,0-16.516-7.955-29.017c-2.727-4.285-3.24-9.406,0-13.317
		C162.157,339.82,165.161,332.068,165.161,323.551z"/>
	<path style="fill:#FF8250;" d="M256,0L256,0c-72.973,0-132.129,59.156-132.129,132.129v61.984h264.258v-61.984
		C388.129,59.156,328.973,0,256,0z"/>
</g>
<path style="fill:#F7D291;" d="M412.878,401.236l-85.291-30.103c-13.207-4.661-22.039-17.144-22.039-31.149v-67.468H206.45v67.468
	c0,14.005-8.832,26.488-22.038,31.149l-85.291,30.103c-19.81,6.992-33.057,25.716-33.057,46.723v39.267
	c0,13.682,11.092,24.774,24.774,24.774h330.323c13.682,0,24.774-11.092,24.774-24.774v-39.267
	C445.935,426.952,432.688,408.228,412.878,401.236z"/>
<path style="fill:#E3AA75;" d="M412.878,401.236l-66.352-23.418c-3.202,47.262-42.452,84.634-90.526,84.634
	s-87.324-37.372-90.526-84.634l-66.352,23.418c-19.81,6.991-33.057,25.716-33.057,46.723v39.267
	c0,13.682,11.092,24.774,24.774,24.774h330.323c13.682,0,24.774-11.092,24.774-24.774v-39.267
	C445.935,426.952,432.688,408.227,412.878,401.236z"/>
<path style="fill:#F0C382;" d="M206.452,320.103c15.198,6.584,31.957,10.219,49.548,10.219s34.35-3.636,49.548-10.219v-31.071
	h-99.097L206.452,320.103L206.452,320.103z"/>
<path style="fill:#FFE1A0;" d="M367.484,173.419c0,0-11.058-1.332-14.441-2.268c-18.762-5.195-59.382-21.416-90.152-68.842
	c-3.242-4.997-10.54-4.997-13.782,0c-30.77,47.425-71.39,63.647-90.152,68.842c-3.383,0.936-14.441,2.268-14.441,2.268
	c-12.104,0-21.775,10.416-20.538,22.774c1.076,10.745,10.916,18.516,21.715,18.516h3.369c4.23,55.419,50.435,99.097,106.938,99.097
	s102.708-43.678,106.938-99.097h3.369c10.799,0,20.64-7.771,21.715-18.516C389.259,183.835,379.588,173.419,367.484,173.419z"/>
<path style="fill:#F7D291;" d="M353.043,171.151c-18.742-5.191-59.297-21.383-90.055-68.694c-3.29-5.061-10.681-5.069-13.971-0.008
	c-21.246,32.684-47.161,50.508-67.339,60.124c-9.034,4.304-16.924,6.973-22.72,8.578c-3.383,0.936-14.441,2.268-14.441,2.268
	c-12.104,0-21.774,10.415-20.538,22.773c1.075,10.746,10.915,18.518,21.715,18.518h3.369c4.23,55.419,50.435,99.097,106.938,99.097
	c5.632,0,11.118-0.564,16.516-1.4c-47.149-7.3-84.197-45.17-90.036-92.77c-0.867-7.071-0.671-14.248,0.207-21.319
	c0.715-5.761,2.424-11.468,5.766-16.215c2.938-4.173,6.759-7.697,11.276-10.259c18.064-10.246,38.285-26.081,56.271-50.479
	c21.545,29.226,46.297,46.164,66.709,55.929c14.56,6.966,31.704,5.594,44.775-3.876
	C367.484,173.419,356.424,172.088,353.043,171.151z"/>
<g>
	<path style="fill:#6E5A64;" d="M206.46,198.911c-4.565,0-8.258-3.698-8.258-8.258v-8.258c0-4.56,3.694-8.258,8.258-8.258
		c4.565,0,8.258,3.698,8.258,8.258v8.258C214.718,195.214,211.024,198.911,206.46,198.911z"/>
	<path style="fill:#6E5A64;" d="M305.556,198.911c-4.565,0-8.258-3.698-8.258-8.258v-8.258c0-4.56,3.694-8.258,8.258-8.258
		s8.258,3.698,8.258,8.258v8.258C313.815,195.214,310.121,198.911,305.556,198.911z"/>
</g>
<g>
	<polygon style="fill:#FFD164;" points="305.54,330.323 305.548,330.325 305.548,330.057 	"/>
	<polygon style="fill:#FFD164;" points="206.452,330.057 206.452,330.325 206.46,330.323 	"/>
</g>
<path style="fill:#FF9664;" d="M279.939,2.274c-4.731,12.106-7.422,25.235-7.422,39.017c0,59.29,48.065,107.355,107.355,107.355
	c2.788,0,5.524-0.209,8.258-0.417V132.13C388.129,67.342,341.466,13.551,279.939,2.274z"/>
<path style="fill:#FFFFFF;" d="M223.351,227.785c-2.6,0-4.532,2.376-4.1,4.94c2.682,15.9,18.114,28.092,36.749,28.092
	s34.066-12.192,36.749-28.092c0.432-2.564-1.5-4.94-4.1-4.94L223.351,227.785L223.351,227.785z"/>
<path style="fill:#D29B6E;" d="M256,503.742c66.057,0,120.633-48.528,130.413-111.846l-39.888-14.078
	c-3.202,47.262-42.452,84.634-90.526,84.634s-87.324-37.372-90.526-84.634l-39.888,14.078
	C135.367,455.214,189.943,503.742,256,503.742z"/>
<path style="fill:#EDEBED;" d="M256,487.226c58.862,0,107.344-44.023,114.578-100.919l-40.279-14.216
	c-0.26,40.825-33.412,73.845-74.298,73.845s-74.039-33.021-74.298-73.845l-40.279,14.216
	C148.656,443.203,197.138,487.226,256,487.226z"/>
<g>
</g>
<g>
</g>
<g>
</g>
<g>
</g>
<g>
</g>
<g>
</g>
<g>
</g>
<g>
</g>
<g>
</g>
<g>
</g>
<g>
</g>
<g>
</g>
<g>
</g>
<g>
</g>
<g>
</g>
</svg>
