<?xml version="1.0" encoding="iso-8859-1"?>
<!-- Generator: Adobe Illustrator 19.0.0, SVG Export Plug-In . SVG Version: 6.00 Build 0)  -->
<svg version="1.1" id="Capa_1" xmlns="http://www.w3.org/2000/svg" xmlns:xlink="http://www.w3.org/1999/xlink" x="0px" y="0px"
	 viewBox="0 0 512 512" style="enable-background:new 0 0 512 512;" xml:space="preserve">
<path style="fill:#8CB4EB;" d="M341.003,334.768L256,406.349l-85.002-71.581c-44.009-37.06-69.41-91.66-69.41-149.194v-23.035
	C101.587,77.26,170.72,8.127,256,8.127l0,0c85.28,0,154.412,69.133,154.412,154.412v23.035
	C410.413,243.109,385.011,297.708,341.003,334.768z"/>
<path style="fill:#E3AA75;" d="M416.046,379.8l-85.654-25.192c-10.376-3.052-17.502-12.575-17.502-23.39v-38.646H199.111v38.646
	c0,10.816-7.125,20.339-17.502,23.39L95.955,379.8c-20.752,6.104-35.003,25.149-35.003,46.781v61.038
	c0,13.465,10.916,24.381,24.381,24.381h341.333c13.465,0,24.381-10.916,24.381-24.381v-61.038
	C451.048,404.949,436.797,385.904,416.046,379.8z"/>
<path style="fill:#8CB4EB;" d="M416.046,379.8l-85.654-25.192c-1.448-0.426-2.815-1.005-4.126-1.669l-70.268,53.41l-70.26-53.41
	c-1.311,0.664-2.678,1.243-4.126,1.669L95.955,379.8c-20.752,6.104-35.003,25.149-35.003,46.78v61.039
	c0,13.465,10.916,24.381,24.381,24.381h341.333c13.465,0,24.381-10.916,24.381-24.381V426.58
	C451.048,404.949,436.797,385.904,416.046,379.8z"/>
<path style="fill:#D29B6E;" d="M199.111,310.707c17.074,9.12,36.436,14.372,56.889,14.372s39.815-5.252,56.889-14.372v-18.136
	H199.111V310.707z"/>
<path style="fill:#F5B97D;" d="M365.714,170.667h-4.063V81.27H150.349v89.397h-4.063c-11.221,0-20.317,9.096-20.317,20.317
	c0,11.221,9.096,20.317,20.317,20.317h4.474c4.163,54.539,49.634,97.524,105.24,97.524s101.077-42.985,105.24-97.524h4.474
	c11.221,0,20.317-9.097,20.317-20.317C386.033,179.763,376.935,170.667,365.714,170.667z"/>
<path style="fill:#E3AA75;" d="M361.651,81.27H150.349v89.397h-2.903c-10.628,0-20.313,7.647-21.372,18.221
	c-1.218,12.162,8.299,22.414,20.212,22.414h4.474c4.163,54.539,49.634,97.524,105.24,97.524c5.559,0,10.98-0.542,16.305-1.37
	c-50.637-7.814-89.448-51.456-89.448-104.281V144.79c0-10.594,9.922-18.263,20.208-15.728c13.18,3.248,26.971,5.97,41.135,7.835
	c0.975,0.128,1.938,0.189,2.883,0.189c7.275,0,14.067-3.623,18.167-9.691c3.069-4.543,4.305-9.982,3.596-15.279
	c24.582,6.393,61.551,20.391,92.803,49.451V81.27H361.651z"/>
<g>
	<path style="fill:#5A4650;" d="M207.238,195.754c-4.492,0-8.127-3.639-8.127-8.127V179.5c0-4.488,3.635-8.127,8.127-8.127
		s8.127,3.639,8.127,8.127v8.127C215.365,192.115,211.73,195.754,207.238,195.754z"/>
	<path style="fill:#5A4650;" d="M304.762,195.754c-4.492,0-8.127-3.639-8.127-8.127V179.5c0-4.488,3.635-8.127,8.127-8.127
		s8.127,3.639,8.127,8.127v8.127C312.889,192.115,309.254,195.754,304.762,195.754z"/>
</g>
<g>
	<path style="fill:#6E5A64;" d="M215.365,162.54h-16.254c-4.492,0-8.127-3.639-8.127-8.127s3.635-8.127,8.127-8.127h16.254
		c4.492,0,8.127,3.639,8.127,8.127S219.857,162.54,215.365,162.54z"/>
	<path style="fill:#6E5A64;" d="M312.889,162.54h-16.254c-4.492,0-8.127-3.639-8.127-8.127s3.635-8.127,8.127-8.127h16.254
		c4.492,0,8.127,3.639,8.127,8.127S317.382,162.54,312.889,162.54z"/>
</g>
<path style="fill:#B67F5F;" d="M256,251.936c-12.19,0-23.444-3.913-30.087-10.468c-3.198-3.151-3.23-8.298-0.079-11.492
	s8.31-3.23,11.492-0.079c2.706,2.671,9.222,5.786,18.675,5.786c9.452,0,15.968-3.115,18.675-5.786
	c3.183-3.151,8.341-3.115,11.492,0.079s3.119,8.341-0.079,11.492C279.444,248.024,268.19,251.936,256,251.936z"/>
<g>
	<path style="fill:#5A4650;" d="M134.095,174.491l18.153-2.136c8.186-0.963,14.355-7.9,14.355-16.143V81.27h-32.508V174.491z"/>
	<path style="fill:#5A4650;" d="M377.905,174.491l-18.153-2.136c-8.186-0.963-14.355-7.9-14.355-16.143V81.27h32.508V174.491z"/>
</g>
<path style="fill:#6E5A64;" d="M389.454,85.116C362.714,39.128,313.03,8.127,256,8.127c-55.725,0-104.407,29.618-131.56,73.87v2.382
	c26.19,11.892,71.978,29.831,121.883,36.403c4.347,0.572,7.68-3.843,6.044-7.911l-5.171-12.859
	c-1.692-4.207,1.879-8.611,6.348-7.841c22.813,3.928,79.896,17.776,124.361,62.241L389.454,85.116z"/>
<path style="fill:#64505A;" d="M256,8.127c-55.725,0-104.407,29.618-131.56,73.87v2.382c6.143,2.789,13.448,5.924,21.549,9.154
	C169.023,56.946,209.664,32.508,256,32.508c60.64,0,111.569,41.784,125.883,98.032l7.571-45.424
	C362.714,39.128,313.03,8.127,256,8.127z"/>
<path style="fill:#A5CDFF;" d="M256,0C166.373,0,93.46,72.917,93.46,162.54v23.036c0,60.067,26.357,116.71,72.302,155.413
	l82.111,69.147V512h16.254V410.135l82.111-69.147v-0.004c45.944-38.698,72.302-95.341,72.302-155.409V162.54
	C418.54,72.917,345.628,0,256,0z M402.286,185.575c0,55.262-24.246,107.373-66.524,142.976L256,395.726l-79.762-67.171
	c-42.278-35.607-66.524-87.718-66.524-142.98V162.54c0-80.663,65.627-146.286,146.286-146.286S402.286,81.877,402.286,162.54
	V185.575z"/>
<path style="fill:#6E5A64;" d="M256,406.349L256,406.349c-8.94,0-16.254,7.314-16.254,16.254v16.254
	c0,8.94,7.314,16.254,16.254,16.254l0,0c8.94,0,16.254-7.314,16.254-16.254v-16.254C272.254,413.663,264.94,406.349,256,406.349z"/>
<g>
	<path style="fill:#A5CDFF;" d="M128.579,439.337l-53.216-47.305c-3.891,3.872-7.051,8.398-9.449,13.346l51.872,46.11
		c5.198,4.623,8.183,11.262,8.183,18.222V512h16.254v-42.29C142.222,458.111,137.254,447.039,128.579,439.337z"/>
	<path style="fill:#A5CDFF;" d="M383.421,439.337l53.216-47.305c3.891,3.872,7.051,8.398,9.449,13.346l-51.871,46.11
		c-5.198,4.623-8.183,11.262-8.183,18.222V512h-16.254v-42.29C369.779,458.111,374.746,447.039,383.421,439.337z"/>
</g>
<g>
</g>
<g>
</g>
<g>
</g>
<g>
</g>
<g>
</g>
<g>
</g>
<g>
</g>
<g>
</g>
<g>
</g>
<g>
</g>
<g>
</g>
<g>
</g>
<g>
</g>
<g>
</g>
<g>
</g>
</svg>
