<?xml version="1.0" encoding="iso-8859-1"?>
<!-- Generator: Adobe Illustrator 19.0.0, SVG Export Plug-In . SVG Version: 6.00 Build 0)  -->
<svg version="1.1" id="Capa_1" xmlns="http://www.w3.org/2000/svg" xmlns:xlink="http://www.w3.org/1999/xlink" x="0px" y="0px"
	 viewBox="0 0 512 512" style="enable-background:new 0 0 512 512;" xml:space="preserve">
<path style="fill:#A06E50;" d="M410.724,275.498c-14.337-24.158-14.337-54.767-14.337-68.53H115.614c0,13.763,0,44.372-14.337,68.53
	c-4.22,7.111-0.899,16.245,7.12,18.26c28.614,7.19,88.109,20.048,147.603,20.048s118.989-12.859,147.603-20.048
	C411.623,291.743,414.945,282.609,410.724,275.498z"/>
<path style="fill:#F7D291;" d="M409.599,373.594l-66.77-26.708c-12.541-5.016-20.764-17.162-20.764-30.669v-10.668H189.936v10.668
	c0,13.507-8.223,25.653-20.764,30.669l-66.77,26.708c-21.947,8.779-36.337,30.035-36.337,53.672v59.96
	c0,13.682,11.092,24.774,24.774,24.774h330.323c13.682,0,24.774-11.092,24.774-24.774v-59.96
	C445.935,403.628,431.546,382.373,409.599,373.594z"/>
<path style="fill:#FF8087;" d="M409.599,373.594l-45.779-18.312C347.135,398.616,305.214,429.42,256,429.42
	s-91.133-30.804-107.819-74.138l-45.779,18.312c-21.947,8.779-36.338,30.035-36.338,53.672v59.96
	c0,13.682,11.092,24.774,24.774,24.774h330.323c13.682,0,24.774-11.092,24.774-24.774v-59.96
	C445.935,403.629,431.546,382.372,409.599,373.594z"/>
<path style="fill:#E6646E;" d="M256,470.71c66.596,0,123.359-41.559,146.136-100.101l-38.318-15.327
	c-16.685,43.334-58.605,74.138-107.819,74.138s-91.133-30.804-107.819-74.138l-38.318,15.327
	C132.642,429.15,189.405,470.71,256,470.71z"/>
<path style="fill:#F0C382;" d="M189.936,305.548v10.668c0,4.382-0.944,8.584-2.542,12.482c20.364,11.507,43.77,18.14,68.606,18.14
	s48.242-6.633,68.606-18.14c-1.598-3.899-2.542-8.101-2.542-12.482v-10.668H189.936z"/>
<path style="fill:#FFE1A0;" d="M384,173.419h-4.129v-41.29H132.13v41.29h-4.129c-11.402,0-20.645,9.243-20.645,20.645
	c0,11.402,9.243,20.645,20.645,20.645h4.546c4.268,64.543,57.83,115.613,123.454,115.613s119.186-51.07,123.454-115.613H384
	c11.402,0,20.645-9.243,20.645-20.645S395.403,173.419,384,173.419z"/>
<path style="fill:#F7D291;" d="M173.42,206.452v-16.516c0-22.804,18.486-41.29,41.29-41.29h99.097
	c9.122,0,16.516-7.395,16.516-16.516l0,0H132.13v41.29h-2.951c-10.799,0-20.64,7.77-21.716,18.515
	c-1.238,12.358,8.434,22.775,20.538,22.775h4.546c4.268,64.543,57.83,115.613,123.454,115.613c7.077,0,13.976-0.705,20.726-1.845
	C218.124,318.663,173.42,267.842,173.42,206.452z"/>
<g>
	<path style="fill:#6E5A64;" d="M206.316,198.931c-4.565,0-8.258-3.698-8.258-8.258v-8.258c0-4.56,3.694-8.258,8.258-8.258
		s8.258,3.698,8.258,8.258v8.258C214.574,195.234,210.88,198.931,206.316,198.931z"/>
	<path style="fill:#6E5A64;" d="M305.411,198.931c-4.565,0-8.258-3.698-8.258-8.258v-8.258c0-4.56,3.694-8.258,8.258-8.258
		c4.564,0,8.258,3.698,8.258,8.258v8.258C313.669,195.234,309.977,198.931,305.411,198.931z"/>
</g>
<polygon style="fill:#FFD164;" points="272.516,445.935 239.484,445.935 231.227,512 280.774,512 "/>
<path style="fill:#FFFFFF;" d="M221.174,235.814c-3.64,0-6.496,3.355-5.732,6.914c3.638,16.965,20.414,29.789,40.559,29.789
	c20.145,0,36.921-12.824,40.559-29.789c0.763-3.559-2.092-6.914-5.732-6.914H221.174z"/>
<path style="fill:#FFE17D;" d="M256,454.194c59.643,0,110.469-37.257,130.809-89.715l-38.318-15.328
	c-14.247,37.251-50.23,63.753-92.491,63.753s-78.243-26.502-92.491-63.753l-38.318,15.328
	C145.532,416.937,196.357,454.194,256,454.194z"/>
<path style="fill:#B67F5F;" d="M256,0L256,0c-77.534,0-140.387,62.853-140.387,140.387v37.032l18.461-2.235
	c8.986-1.088,16.663-6.99,20.025-15.394l11.063-27.66h181.677l11.065,27.661c3.362,8.404,11.038,14.306,20.024,15.394l18.46,2.235
	v-37.032C396.388,62.853,333.534,0,256,0z"/>
<path style="fill:#A06E50;" d="M289.033,4.071C278.422,1.507,267.399,0,256,0c-77.534,0-140.387,62.853-140.387,140.387v37.033
	l18.461-2.235c8.986-1.088,16.663-6.99,20.025-15.395l11.063-27.66h16.933C185.736,69.696,230.063,18.32,289.033,4.071z"/>
<g>
</g>
<g>
</g>
<g>
</g>
<g>
</g>
<g>
</g>
<g>
</g>
<g>
</g>
<g>
</g>
<g>
</g>
<g>
</g>
<g>
</g>
<g>
</g>
<g>
</g>
<g>
</g>
<g>
</g>
</svg>
