<?xml version="1.0" encoding="iso-8859-1"?>
<!-- Generator: Adobe Illustrator 19.0.0, SVG Export Plug-In . SVG Version: 6.00 Build 0)  -->
<svg version="1.1" id="Capa_1" xmlns="http://www.w3.org/2000/svg" xmlns:xlink="http://www.w3.org/1999/xlink" x="0px" y="0px"
	 viewBox="0 0 512 512" style="enable-background:new 0 0 512 512;" xml:space="preserve">
<path style="fill:#EDEBED;" d="M418.626,394.184l-104.82-30.829H198.195l-104.82,30.829c-21.087,6.202-35.568,25.555-35.568,47.535
	v45.507c0,13.682,11.092,24.774,24.774,24.774h346.839c13.682,0,24.774-11.092,24.774-24.774v-45.507
	C454.194,419.739,439.714,400.386,418.626,394.184z"/>
<path style="fill:#DBD9DC;" d="M256,429.419c42.03,0,79.179-21.087,101.585-53.189l-43.779-12.876H198.195l-43.779,12.876
	C176.822,408.333,213.971,429.419,256,429.419z"/>
<polygon style="fill:#FF8250;" points="123.872,385.214 123.872,512 181.678,512 181.678,368.212 "/>
<path style="fill:#DC7346;" d="M181.678,404.457v-36.245l-27.263,8.019C161.951,387.026,171.184,396.536,181.678,404.457z"/>
<polygon style="fill:#FF8250;" points="388.129,385.214 388.129,512 330.323,512 330.323,368.212 "/>
<path style="fill:#DC7346;" d="M357.585,376.231l-27.263-8.019v36.245C340.817,396.536,350.05,387.026,357.585,376.231z"/>
<rect x="148.65" y="107.36" style="fill:#EDEBED;" width="214.71" height="49.548"/>
<path style="fill:#CD916E;" d="M367.484,198.194h-4.129v-41.29h-214.71v41.29h-4.129c-11.402,0-20.645,9.243-20.645,20.645
	c0,11.402,9.243,20.645,20.645,20.645h4.129v24.774h214.71v-24.774h4.129c11.402,0,20.645-9.243,20.645-20.645
	C388.129,207.436,378.886,198.194,367.484,198.194z"/>
<path style="fill:#B67F5F;" d="M363.355,156.903h-214.71v41.29h-2.951c-10.799,0-20.64,7.77-21.716,18.515
	c-1.238,12.358,8.434,22.775,20.538,22.775h4.129v24.774h33.032v-41.29c0-27.365,22.184-49.548,49.548-49.548h132.129v-16.516
	H363.355z"/>
<path style="fill:#64505A;" d="M256,412.903L256,412.903c-59.291,0-107.355-48.064-107.355-107.355v-57.807h214.71v57.807
	C363.355,364.839,315.29,412.903,256,412.903z"/>
<g>
	<path style="fill:#5A4650;" d="M206.452,222.968c-4.565,0-8.258-3.698-8.258-8.258v-8.258c0-4.56,3.694-8.258,8.258-8.258
		s8.258,3.698,8.258,8.258v8.258C214.711,219.27,211.017,222.968,206.452,222.968z"/>
	<path style="fill:#5A4650;" d="M305.548,222.968c-4.565,0-8.258-3.698-8.258-8.258v-8.258c0-4.56,3.694-8.258,8.258-8.258
		c4.565,0,8.258,3.698,8.258,8.258v8.258C313.806,219.27,310.113,222.968,305.548,222.968z"/>
</g>
<path style="fill:#CD916E;" d="M256,297.29c-12.387,0-23.823-3.976-30.573-10.637c-3.25-3.202-3.282-8.431-0.081-11.677
	c3.202-3.25,8.444-3.282,11.677-0.081c2.75,2.714,9.371,5.879,18.976,5.879c9.605,0,16.226-3.165,18.976-5.879
	c3.234-3.202,8.476-3.169,11.677,0.081c3.202,3.246,3.169,8.476-0.081,11.677C279.823,293.315,268.387,297.29,256,297.29z"/>
<path style="fill:#FF9664;" d="M363.227,198.194c-17.903-8.769-109.951-60.824-189.807-177.371C197.019,7.684,225.361,0,255.872,0
	c82.094,0,148.645,55.459,148.645,123.871c0,27.893-11.063,55.002-29.731,75.707C374.785,199.578,367.987,200.525,363.227,198.194z"
	/>
<path style="fill:#FF8250;" d="M148.646,198.194c17.903-8.769,109.951-60.824,189.807-177.371C314.854,7.684,286.511,0,256,0
	c-82.094,0-148.645,55.459-148.645,123.871c0,27.893,11.063,55.002,29.731,75.707C137.087,199.578,143.885,200.525,148.646,198.194z
	"/>
<path style="fill:#5A4650;" d="M181.678,305.548v-57.806h-33.032v57.806c0,59.29,48.065,107.355,107.355,107.355
	c5.632,0,11.118-0.564,16.516-1.4C221.089,403.541,181.678,359.207,181.678,305.548z"/>
<g>
	<circle style="fill:#FFFFFF;" cx="256" cy="445.94" r="8.258"/>
	<circle style="fill:#FFFFFF;" cx="256" cy="487.23" r="8.258"/>
</g>
<path style="fill:#DBD9DC;" d="M123.872,437.677L123.872,437.677V512H99.098v-49.548C99.098,448.769,110.19,437.677,123.872,437.677
	z"/>
<path style="fill:#DC7346;" d="M123.872,512h16.516v-57.806c0-9.122-7.395-16.516-16.516-16.516l0,0
	C123.872,437.678,123.872,512,123.872,512z"/>
<path style="fill:#DBD9DC;" d="M388.129,437.677L388.129,437.677V512h24.774v-49.548
	C412.904,448.769,401.811,437.677,388.129,437.677z"/>
<path style="fill:#DC7346;" d="M388.129,512h-16.516v-57.806c0-9.122,7.395-16.516,16.516-16.516l0,0V512z"/>
<g>
</g>
<g>
</g>
<g>
</g>
<g>
</g>
<g>
</g>
<g>
</g>
<g>
</g>
<g>
</g>
<g>
</g>
<g>
</g>
<g>
</g>
<g>
</g>
<g>
</g>
<g>
</g>
<g>
</g>
</svg>
