<?xml version="1.0" encoding="iso-8859-1"?>
<!-- Generator: Adobe Illustrator 19.0.0, SVG Export Plug-In . SVG Version: 6.00 Build 0)  -->
<svg version="1.1" id="Capa_1" xmlns="http://www.w3.org/2000/svg" xmlns:xlink="http://www.w3.org/1999/xlink" x="0px" y="0px"
	 viewBox="0 0 512 512" style="enable-background:new 0 0 512 512;" xml:space="preserve">
<path style="fill:#B67F5F;" d="M399.357,416.416L297.29,379.871h-82.58l-102.067,36.545c-22.984,8.229-38.32,30.01-38.32,54.423
	v16.387c0,13.682,11.092,24.774,24.774,24.774h313.806c13.682,0,24.774-11.092,24.774-24.774v-16.387
	C437.677,446.427,422.341,424.646,399.357,416.416z"/>
<path style="fill:#A06E50;" d="M214.984,495.082l39.146-9.102c0.612-0.143,1.242-0.215,1.87-0.215c0.629,0,1.258,0.072,1.87,0.215
	l39.146,9.102c4.075,0.948,8.261,1.428,12.442,1.428c20.744,0,39.412-11.606,47.558-29.567c6.273-13.83,13.12-34.706,14.312-60.563
	l-74.038-26.51h-82.58l-74.038,26.51c1.193,25.856,8.039,46.732,14.312,60.563c8.146,17.961,26.814,29.567,47.558,29.567
	C206.723,496.51,210.909,496.029,214.984,495.082z"/>
<path style="fill:#EDEBED;" d="M354.783,388.977c-0.424-6.689-5.134-12.531-11.936-14.737l-0.002-0.001
	c-19.252-6.089-39.324-9.187-59.516-9.187h-54.657c-20.192,0-40.264,3.098-59.515,9.187l-0.003,0.001
	c-6.802,2.206-11.513,8.048-11.936,14.737c-1.916,30.207,5.271,54.524,12.808,71.144c6.756,14.895,24.355,22.795,41.218,18.874
	l39.146-9.102c3.691-0.858,7.53-0.858,11.222,0l39.146,9.102c16.863,3.921,34.463-3.979,41.218-18.874
	C349.513,443.502,356.699,419.184,354.783,388.977z"/>
<path style="fill:#DBD9DC;" d="M283.329,365.052h-54.657c-15.857,0-31.624,1.979-46.994,5.749v17.328
	c0,36.428,33.341,66.065,74.323,66.065s74.323-29.637,74.323-66.065v-17.328C314.952,367.031,299.185,365.052,283.329,365.052z"/>
<path style="fill:#E3AA75;" d="M198.194,346.839v41.29c0,27.365,25.881,49.548,57.806,49.548c31.926,0,57.806-22.183,57.806-49.548
	v-41.29H198.194z"/>
<path style="fill:#D29B6E;" d="M256,388.129c20.784,0,40.457-5.342,57.806-14.609v-26.681H198.194v26.681
	C215.543,382.787,235.216,388.129,256,388.129z"/>
<path style="fill:#DBD9DC;" d="M268.387,132.129h-24.774c-36.486,0-66.064-29.578-66.064-66.064l0,0
	C177.548,29.578,207.126,0,243.613,0h24.774c36.486,0,66.064,29.578,66.064,66.064l0,0
	C334.452,102.551,304.874,132.129,268.387,132.129z"/>
<path style="fill:#C9C6CA;" d="M385.792,256c16.899-20.1,27.111-46.008,27.111-74.323c0-63.851-51.762-115.613-115.613-115.613
	h-82.58c-63.851,0-115.613,51.762-115.613,115.613c0,28.315,10.213,54.222,27.111,74.323H385.792z"/>
<path style="fill:#B7B2B8;" d="M317.936,264.258H194.064c-34.206,0-61.935-27.729-61.935-61.935l0,0
	c0-34.206,27.729-61.935,61.935-61.935h123.871c34.206,0,61.935,27.729,61.935,61.935l0,0
	C379.871,236.529,352.142,264.258,317.936,264.258z"/>
<path style="fill:#F5B97D;" d="M366.306,231.226L366.306,231.226c-6.191,0-11.209-5.018-11.209-11.209v-30.081
	c0-13.682-11.092-24.774-24.774-24.774H181.677c-13.682,0-24.774,11.092-24.774,24.774v30.081c0,6.191-5.018,11.209-11.209,11.209
	l0,0c-10.799,0-20.64,7.77-21.716,18.515c-1.238,12.358,8.433,22.775,20.538,22.775h4.546c4.23,55.419,50.435,99.097,106.938,99.097
	s102.708-43.678,106.938-99.097h4.546c12.105,0,21.776-10.417,20.538-22.775C386.946,238.996,377.105,231.226,366.306,231.226z"/>
<path style="fill:#E3AA75;" d="M330.323,165.161L330.323,165.161H181.678c-13.682,0-24.774,11.092-24.774,24.774v30.081
	c0,6.276-5.14,11.153-11.416,11.21c-10.718,0.098-20.441,7.837-21.51,18.514c-1.237,12.358,8.433,22.775,20.538,22.775h4.546
	c4.23,55.419,50.435,99.097,106.938,99.097c5.649,0,11.157-0.55,16.568-1.392c-51.454-7.941-90.891-52.286-90.891-105.963V214.71
	c0-18.243,14.789-33.032,33.032-33.032h99.097C322.928,181.677,330.323,174.283,330.323,165.161z"/>
<path style="fill:#B67F5F;" d="M256.008,322.065c-12.387,0-23.823-3.976-30.573-10.637c-3.25-3.202-3.282-8.431-0.081-11.677
	c3.202-3.25,8.444-3.282,11.677-0.081c2.75,2.714,9.371,5.879,18.976,5.879s16.226-3.165,18.976-5.879
	c3.234-3.202,8.476-3.169,11.677,0.081c3.202,3.246,3.169,8.476-0.081,11.677C279.831,318.089,268.395,322.065,256.008,322.065z"/>
<g>
	<path style="fill:#DBD9DC;" d="M280.508,253.19c-1.355,0-2.726-0.331-3.992-1.036c-10.024-5.544-30.54-5.625-40.798-0.129
		c-4.024,2.161-9.016,0.645-11.177-3.367c-2.161-4.02-0.653-9.028,3.371-11.181c7.5-4.032,17.484-6.25,28.089-6.25
		c10.847,0,20.976,2.302,28.516,6.484c3.992,2.21,5.435,7.234,3.226,11.226C286.234,251.653,283.411,253.19,280.508,253.19z"/>
	<path style="fill:#DBD9DC;" d="M206.452,239.492h-57.806c-4.565,0-8.258-3.698-8.258-8.258s3.694-8.258,8.258-8.258h57.806
		c4.565,0,8.258,3.698,8.258,8.258S211.016,239.492,206.452,239.492z"/>
	<path style="fill:#DBD9DC;" d="M363.355,239.484h-57.806c-4.565,0-8.258-3.698-8.258-8.258s3.694-8.258,8.258-8.258h57.806
		c4.565,0,8.258,3.698,8.258,8.258S367.919,239.484,363.355,239.484z"/>
</g>
<path style="fill:#FFFFFF;" d="M309.677,280.774h-8.258c-15.935,0-28.903-12.968-28.903-28.903s12.968-28.903,28.903-28.903h8.258
	c15.935,0,28.903,12.968,28.903,28.903S325.613,280.774,309.677,280.774z"/>
<path style="fill:#E3AA75;" d="M301.419,239.484c-6.831,0-12.387,5.556-12.387,12.387c0,6.831,5.556,12.387,12.387,12.387h8.258
	c6.831,0,12.387-5.556,12.387-12.387s-5.556-12.387-12.387-12.387L301.419,239.484L301.419,239.484z"/>
<path style="fill:#64505A;" d="M309.677,239.484h-8.258c-1.455,0-2.831,0.298-4.129,0.761v7.497c0,4.56,3.697,8.258,8.258,8.258
	s8.258-3.698,8.258-8.258v-7.497C312.509,239.782,311.132,239.484,309.677,239.484z"/>
<g>
	<path style="fill:#A06E50;" d="M134.339,471.81l-45.402-39.197c-3.698,4.181-6.79,8.845-9.148,13.918l43.76,37.779
		c5.452,4.71,8.581,11.544,8.581,18.754V512h16.516v-8.935C148.645,491.052,143.427,479.661,134.339,471.81z"/>
	<path style="fill:#A06E50;" d="M377.661,471.81l45.402-39.197c3.698,4.181,6.79,8.845,9.148,13.918l-43.76,37.779
		c-5.452,4.71-8.581,11.544-8.581,18.754V512h-16.516v-8.935C363.355,491.052,368.573,479.661,377.661,471.81z"/>
</g>
<path style="fill:#FFFFFF;" d="M210.581,280.774h-8.258c-15.935,0-28.903-12.968-28.903-28.903s12.968-28.903,28.903-28.903h8.258
	c15.935,0,28.903,12.968,28.903,28.903S226.516,280.774,210.581,280.774z"/>
<path style="fill:#E3AA75;" d="M202.323,239.484c-6.831,0-12.387,5.556-12.387,12.387c0,6.831,5.556,12.387,12.387,12.387h8.258
	c6.831,0,12.387-5.556,12.387-12.387s-5.556-12.387-12.387-12.387L202.323,239.484L202.323,239.484z"/>
<path style="fill:#64505A;" d="M210.581,239.484h-8.258c-1.455,0-2.831,0.298-4.129,0.761v7.497c0,4.56,3.697,8.258,8.258,8.258
	s8.258-3.698,8.258-8.258v-7.497C213.412,239.782,212.035,239.484,210.581,239.484z"/>
<g>
</g>
<g>
</g>
<g>
</g>
<g>
</g>
<g>
</g>
<g>
</g>
<g>
</g>
<g>
</g>
<g>
</g>
<g>
</g>
<g>
</g>
<g>
</g>
<g>
</g>
<g>
</g>
<g>
</g>
</svg>
