<?xml version="1.0" encoding="iso-8859-1"?>
<!-- Generator: Adobe Illustrator 19.0.0, SVG Export Plug-In . SVG Version: 6.00 Build 0)  -->
<svg version="1.1" id="Capa_1" xmlns="http://www.w3.org/2000/svg" xmlns:xlink="http://www.w3.org/1999/xlink" x="0px" y="0px"
	 viewBox="0 0 512 512" style="enable-background:new 0 0 512 512;" xml:space="preserve">
<path style="fill:#FFE17D;" d="M407.139,357.955l-126.4-44.588H231.26l-126.4,44.588c-23.084,8.143-38.522,29.96-38.522,54.438
	v74.867c0,13.663,11.076,24.74,24.74,24.74h329.844c13.663,0,24.74-11.076,24.74-24.74v-74.867
	C445.662,387.915,430.223,366.098,407.139,357.955z"/>
<path style="fill:#FFD164;" d="M386.081,350.527l-105.341-37.16h-49.48l-105.341,37.16c9.973,64.017,64.328,111.277,130.081,111.277
	C321.753,461.804,376.108,414.544,386.081,350.527z"/>
<path style="fill:#A5CDFF;" d="M256,313.367h-24.74l-126.399,44.588c-23.084,8.143-38.523,29.96-38.523,54.438v74.867
	c0,13.663,11.076,24.74,24.74,24.74H256V313.367z"/>
<path style="fill:#8CB4EB;" d="M231.26,313.367l-105.341,37.16c9.973,64.017,64.328,111.277,130.081,111.277V313.367H231.26z"/>
<path style="fill:#CDF5A0;" d="M256,445.311c60.283,0,109.652-46.234,114.865-105.162c0.33-3.731-2.085-7.242-5.64-8.419
	C309.762,313.367,256,313.367,256,313.367s-53.762,0-109.224,18.363c-3.556,1.177-5.97,4.688-5.64,8.419
	C146.348,399.077,195.717,445.311,256,445.311z"/>
<path style="fill:#E3AA75;" d="M256,379.339L256,379.339c-27.327,0-49.479-22.152-49.479-49.479v-41.233h98.958v41.233
	C305.479,357.187,283.327,379.339,256,379.339z"/>
<path style="fill:#D29B6E;" d="M206.521,319.415c15.173,6.656,31.877,10.445,49.479,10.445s34.306-3.789,49.479-10.445v-30.788
	h-98.958V319.415z"/>
<g>
	<path style="fill:#E6646E;" d="M156.763,184.196c0.063-0.934,0.279-1.823,0.279-2.773c0-10.767-4.224-20.485-10.983-27.829
		c13.428-6.194,22.045-21.043,18.383-37.467c-2.674-11.994-12.361-21.776-24.34-24.52c-21.608-4.95-40.787,11.331-40.787,32.092
		c0,2.527,0.288,4.986,0.83,7.348c1.474,6.417-1.943,12.705-7.405,16.381c-10.946,7.369-18.165,19.797-18.165,33.996
		c0,11.589,4.803,22.028,12.509,29.505c3.744,3.633,4.929,9.018,4.321,14.199c-0.4,3.407-0.452,6.921-0.113,10.508
		c2.342,24.82,24.025,44.597,48.955,44.745c27.465,0.163,49.779-22.051,49.779-49.478
		C190.028,209.262,176.114,190.916,156.763,184.196z"/>
	<path style="fill:#E6646E;" d="M355.237,184.196c-0.063-0.934-0.279-1.823-0.279-2.773c0-10.767,4.224-20.485,10.983-27.829
		c-13.428-6.194-22.045-21.043-18.383-37.467c2.674-11.994,12.361-21.776,24.34-24.52c21.608-4.95,40.787,11.331,40.787,32.092
		c0,2.527-0.288,4.986-0.83,7.348c-1.474,6.417,1.943,12.705,7.405,16.381c10.946,7.369,18.165,19.797,18.165,33.996
		c0,11.589-4.803,22.028-12.509,29.505c-3.744,3.633-4.929,9.018-4.321,14.199c0.4,3.407,0.452,6.921,0.113,10.508
		c-2.342,24.82-24.025,44.597-48.955,44.745c-27.465,0.163-49.779-22.051-49.779-49.478
		C321.972,209.262,335.886,190.916,355.237,184.196z"/>
</g>
<path style="fill:#F5B97D;" d="M367.328,156.683h-4.123V140.19c0-59.208-47.997-107.205-107.205-107.205
	S148.795,80.983,148.795,140.19v16.493h-4.123c-11.386,0-20.616,9.23-20.616,20.616s9.23,20.616,20.616,20.616h4.123v8.247
	c0,59.207,47.997,107.205,107.205,107.205s107.205-47.997,107.205-107.205v-8.247h4.123c11.386,0,20.616-9.23,20.616-20.616
	C387.944,165.913,378.714,156.683,367.328,156.683z"/>
<path style="fill:#E3AA75;" d="M181.781,206.162V62.943c-20.298,19.506-32.986,46.872-32.986,77.247v16.493h-4.123
	c-11.386,0-20.616,9.23-20.616,20.616s9.23,20.616,20.616,20.616h4.123v8.247c0,59.207,47.997,107.205,107.205,107.205
	c5.624,0,11.103-0.563,16.493-1.398C221.137,304.018,181.781,259.746,181.781,206.162z"/>
<g>
	<path style="fill:#5A4650;" d="M206.529,182.14c-4.558,0-8.247-3.692-8.247-8.247v-8.247c0-4.554,3.688-8.247,8.247-8.247
		c4.558,0,8.247,3.692,8.247,8.247v8.247C214.776,178.447,211.087,182.14,206.529,182.14z"/>
	<path style="fill:#5A4650;" d="M305.487,182.14c-4.558,0-8.246-3.692-8.246-8.247v-8.247c0-4.554,3.688-8.247,8.246-8.247
		s8.247,3.692,8.247,8.247v8.247C313.734,178.447,310.045,182.14,305.487,182.14z"/>
</g>
<path style="fill:#FFFFFF;" d="M220.097,222.655c-3.03,0-5.353,2.708-4.938,5.71c2.78,20.07,20.006,35.523,40.84,35.523
	c20.834,0,38.06-15.453,40.84-35.523c0.416-3.001-1.908-5.71-4.938-5.71H220.097z"/>
<g>
	<path style="fill:#FFE17D;" d="M198.283,148.437c-3.028,0-5.935-1.667-7.385-4.558c-2.037-4.075-0.387-9.028,3.688-11.065
		l16.493-8.247c4.083-2.037,9.02-0.391,11.065,3.688c2.037,4.075,0.387,9.028-3.688,11.065l-16.493,8.247
		C200.779,148.159,199.523,148.437,198.283,148.437z"/>
	<path style="fill:#FFE17D;" d="M313.721,148.437c3.028,0,5.935-1.667,7.385-4.558c2.037-4.075,0.387-9.028-3.688-11.065
		l-16.493-8.247c-4.083-2.037-9.02-0.391-11.065,3.688c-2.037,4.075-0.387,9.028,3.688,11.065l16.493,8.247
		C311.224,148.159,312.48,148.437,313.721,148.437z"/>
</g>
<circle style="fill:#FF8087;" cx="256" cy="197.92" r="28.863"/>
<g>
	<path style="fill:#E6646E;" d="M268.37,214.409c-15.94,0-28.863-12.922-28.863-28.863c0-4.773,1.269-9.207,3.32-13.173
		c-9.279,4.799-15.69,14.376-15.69,25.543c0,15.94,12.922,28.863,28.863,28.863c11.167,0,20.744-6.41,25.543-15.69
		C277.577,213.14,273.143,214.409,268.37,214.409z"/>
	<path style="fill:#E6646E;" d="M250.021,16.634c-66.532,3.132-117.719,60.444-117.719,127.05v17.107l19.615-2.442
		c7.638-0.951,13.371-7.442,13.371-15.139v-0.01c0-49.946,39.075-92.791,89.012-93.704c50.876-0.931,92.411,40.032,92.411,90.696
		v3.019c0,7.697,5.733,14.188,13.371,15.139l19.615,2.442v-20.6C379.698,69.891,321.056,13.289,250.021,16.634z"/>
</g>
<path style="fill:#FF8087;" d="M346.464,52.826c-2.461-25.025-23.559-44.579-49.231-44.579c-6.489,0-12.669,1.283-18.347,3.554
	C272.115,4.576,262.559,0,251.877,0c-20.495,0-37.109,16.614-37.109,37.109c0,19.513,15.111,35.332,34.242,36.82
	c-0.737,2.739-1.256,5.564-1.256,8.535c0,18.217,14.768,32.986,32.986,32.986c5.169,0,9.997-1.294,14.351-3.413
	c7.234,11.889,20.193,19.906,35.128,19.906c22.772,0,41.233-18.461,41.233-41.233C371.451,73.712,361.153,59.133,346.464,52.826z"/>
<path style="fill:#B4E6A0;" d="M365.224,331.73c-3.456-1.144-6.905-2.216-10.335-3.222c0.006,0.455,0.068,0.896,0.068,1.352
	c0,54.653-44.305,98.958-98.958,98.958s-98.958-44.305-98.958-98.958c0-0.457,0.062-0.897,0.068-1.352
	c-3.43,1.006-6.879,2.078-10.335,3.222c-3.555,1.177-5.97,4.688-5.64,8.419c5.212,58.927,54.582,105.162,114.865,105.162
	s109.652-46.235,114.865-105.162C371.194,336.418,368.78,332.907,365.224,331.73z"/>
<g>
</g>
<g>
</g>
<g>
</g>
<g>
</g>
<g>
</g>
<g>
</g>
<g>
</g>
<g>
</g>
<g>
</g>
<g>
</g>
<g>
</g>
<g>
</g>
<g>
</g>
<g>
</g>
<g>
</g>
</svg>
