<?xml version="1.0" encoding="iso-8859-1"?>
<!-- Generator: Adobe Illustrator 19.0.0, SVG Export Plug-In . SVG Version: 6.00 Build 0)  -->
<svg version="1.1" id="Capa_1" xmlns="http://www.w3.org/2000/svg" xmlns:xlink="http://www.w3.org/1999/xlink" x="0px" y="0px"
	 viewBox="0 0 512 512" style="enable-background:new 0 0 512 512;" xml:space="preserve">
<path style="fill:#E6646E;" d="M412.574,384.251L256,338.581l-156.574,45.67c-24.664,7.194-41.62,29.803-41.62,55.494v47.48
	c0,13.682,11.092,24.774,24.774,24.774h346.839c13.682,0,24.774-11.092,24.774-24.774v-47.48
	C454.194,414.054,437.238,391.446,412.574,384.251z"/>
<rect x="198.191" y="289.03" style="fill:#E3AA75;" width="115.61" height="222.97"/>
<path style="fill:#D29B6E;" d="M198.195,315.871c17.28,9.167,36.92,14.452,57.806,14.452s40.527-5.285,57.806-14.452v-26.839
	H198.195V315.871z"/>
<g>
	<path style="fill:#DC4655;" d="M396.698,320.604l-82.892-48.088V512h33.032v-90.402c0-5.625,1.915-11.083,5.429-15.476
		l48.83-61.038C407.345,337.275,405.274,325.749,396.698,320.604z"/>
	<path style="fill:#DC4655;" d="M115.303,320.604l82.892-48.088V512h-33.032v-90.402c0-5.625-1.915-11.083-5.429-15.476
		l-48.83-61.038C104.656,337.275,106.727,325.749,115.303,320.604z"/>
</g>
<path style="fill:#FFC350;" d="M256,396.387c-23.362,0-44.182-10.8-57.806-27.656V512h115.613V368.731
	C300.182,385.587,279.362,396.387,256,396.387z"/>
<g>
	<path style="fill:#FFD164;" d="M256,396.387c-23.362,0-44.182-10.8-57.806-27.656v43.701
		c16.697,10.704,36.501,16.988,57.806,16.988s41.109-6.284,57.806-16.988v-43.701C300.182,385.587,279.362,396.387,256,396.387z"/>
	<path style="fill:#FFD164;" d="M256,8.258L256,8.258c-72.973,0-132.129,59.156-132.129,132.129v49.549h264.258v-49.549
		C388.129,67.414,328.973,8.258,256,8.258z"/>
</g>
<path style="fill:#FFC350;" d="M276.645,10.029C269.902,8.968,263.041,8.258,256,8.258c-72.973,0-132.129,59.156-132.129,132.129
	v49.549h41.29v-49.549C165.161,74.455,213.506,19.962,276.645,10.029z"/>
<path style="fill:#FFE17D;" d="M371.613,247.742H140.387c-36.486,0-66.064-29.578-66.064-66.064l0,0
	c0-36.486,29.578-66.064,66.064-66.064h231.226c36.486,0,66.064,29.578,66.064,66.064l0,0
	C437.677,218.164,408.099,247.742,371.613,247.742z"/>
<path style="fill:#FFC350;" d="M371.613,264.258H140.387c-36.486,0-66.064-29.578-66.064-66.064l0,0
	c0-36.486,29.578-66.064,66.064-66.064h231.226c36.486,0,66.064,29.578,66.064,66.064l0,0
	C437.677,234.68,408.099,264.258,371.613,264.258z"/>
<path style="fill:#F5B97D;" d="M371.613,173.419h-8.258v-41.29h-214.71v41.29h-8.258c-9.121,0-16.516,7.394-16.516,16.516
	c0,9.121,7.395,16.516,16.516,16.516h8.258c0,59.29,48.065,107.355,107.355,107.355s107.355-48.065,107.355-107.355h8.258
	c9.121,0,16.516-7.395,16.516-16.516C388.129,180.814,380.734,173.419,371.613,173.419z"/>
<path style="fill:#E3AA75;" d="M330.323,132.129L330.323,132.129H148.646v41.29h-7.374c-8.227,0-15.853,5.622-17.174,13.742
	c-1.683,10.347,6.259,19.29,16.29,19.29h8.258c0,59.29,48.065,107.355,107.355,107.355c5.632,0,11.118-0.564,16.516-1.4
	c-51.428-7.963-90.839-52.296-90.839-105.955v-8.258c0-27.365,22.184-49.548,49.548-49.548h82.581
	C322.928,148.645,330.323,141.251,330.323,132.129z"/>
<path style="fill:#FF8087;" d="M289.033,8.258v35.065c0,9.376-3.191,18.473-9.048,25.794l-17.536,21.92
	c-3.306,4.132-9.591,4.132-12.897,0l-17.536-21.92c-5.857-7.321-9.048-16.418-9.048-25.794V8.258c0-4.561,3.697-8.258,8.258-8.258
	h49.548C285.335,0,289.033,3.697,289.033,8.258z"/>
<path style="fill:#E6646E;" d="M256,0h-24.774c-4.561,0-8.258,3.697-8.258,8.258v35.065c0,9.376,3.191,18.472,9.048,25.794
	l17.536,21.92c1.653,2.066,4.05,3.099,6.449,3.099V0H256z"/>
<g>
	<path style="fill:#5A4650;" d="M206.452,198.198c-4.565,0-8.258-3.698-8.258-8.258v-8.258c0-4.56,3.694-8.258,8.258-8.258
		s8.258,3.698,8.258,8.258v8.258C214.711,194.5,211.017,198.198,206.452,198.198z"/>
	<path style="fill:#5A4650;" d="M305.548,198.198c-4.565,0-8.258-3.698-8.258-8.258v-8.258c0-4.56,3.694-8.258,8.258-8.258
		c4.565,0,8.258,3.698,8.258,8.258v8.258C313.806,194.5,310.113,198.198,305.548,198.198z"/>
</g>
<path style="fill:#6E5A64;" d="M214.711,165.165h-16.516c-4.565,0-8.258-3.698-8.258-8.258s3.694-8.258,8.258-8.258h16.516
	c4.565,0,8.258,3.698,8.258,8.258S219.275,165.165,214.711,165.165z"/>
<path style="fill:#B67F5F;" d="M256,256.004c-12.387,0-23.823-3.976-30.573-10.637c-3.25-3.202-3.282-8.431-0.081-11.677
	c3.202-3.25,8.444-3.282,11.677-0.081c2.75,2.714,9.371,5.879,18.976,5.879c9.605,0,16.226-3.165,18.976-5.879
	c3.234-3.202,8.476-3.169,11.677,0.081c3.202,3.246,3.169,8.476-0.081,11.677C279.823,252.028,268.387,256.004,256,256.004z"/>
<path style="fill:#6E5A64;" d="M313.806,165.165H297.29c-4.565,0-8.258-3.698-8.258-8.258s3.694-8.258,8.258-8.258h16.516
	c4.565,0,8.258,3.698,8.258,8.258S318.371,165.165,313.806,165.165z"/>
<g>
	<path style="fill:#5A4650;" d="M132.13,175.742l17.675-1.243c8.651-0.608,15.358-7.803,15.358-16.476v-25.895h-24.774
		c-2.799,0-5.551,0.194-8.258,0.532v43.082H132.13z"/>
	<path style="fill:#5A4650;" d="M362.197,174.499l17.675,1.243v-43.081c-2.707-0.338-5.459-0.532-8.258-0.532H346.84v25.895
		C346.839,166.696,353.546,173.891,362.197,174.499z"/>
</g>
<g>
</g>
<g>
</g>
<g>
</g>
<g>
</g>
<g>
</g>
<g>
</g>
<g>
</g>
<g>
</g>
<g>
</g>
<g>
</g>
<g>
</g>
<g>
</g>
<g>
</g>
<g>
</g>
<g>
</g>
</svg>
