<?xml version="1.0" encoding="iso-8859-1"?>
<!-- Generator: Adobe Illustrator 19.0.0, SVG Export Plug-In . SVG Version: 6.00 Build 0)  -->
<svg version="1.1" id="Capa_1" xmlns="http://www.w3.org/2000/svg" xmlns:xlink="http://www.w3.org/1999/xlink" x="0px" y="0px"
	 viewBox="0 0 512 512" style="enable-background:new 0 0 512 512;" xml:space="preserve">
<path style="fill:#FFD164;" d="M256,0c-77.534,0-140.387,62.853-140.387,140.387v63.312c0,110.796,68.8,167.434,68.8,167.434
	h211.974V140.387C396.387,62.853,333.534,0,256,0z"/>
<path style="fill:#FFC350;" d="M115.613,140.387v63.312c0,110.796,68.8,167.434,68.8,167.434H256V0
	C178.466,0,115.613,62.853,115.613,140.387z"/>
<path style="fill:#F7D291;" d="M412.878,401.236l-85.291-30.103c-13.207-4.661-22.039-17.144-22.039-31.149v-50.952H206.45v50.952
	c0,14.005-8.832,26.488-22.038,31.149l-85.291,30.103c-19.81,6.992-33.057,25.716-33.057,46.723v39.267
	c0,13.682,11.092,24.774,24.774,24.774h330.323c13.682,0,24.774-11.092,24.774-24.774v-39.267
	C445.935,426.952,432.688,408.228,412.878,401.236z"/>
<path style="fill:#A5CDFF;" d="M412.878,401.236l-70.977-25.051c-12.214,35.749-46.015,61.492-85.901,61.492
	s-73.686-25.744-85.9-61.492l-70.978,25.051c-19.81,6.991-33.057,25.716-33.057,46.723v39.267c0,13.682,11.092,24.774,24.774,24.774
	h330.323c13.682,0,24.774-11.092,24.774-24.774v-39.267C445.935,426.952,432.688,408.227,412.878,401.236z"/>
<path style="fill:#EDEBED;" d="M256,470.71c54.272,0,100.276-34.958,117.023-83.54l-31.122-10.984
	c-12.214,35.749-46.015,61.492-85.901,61.492s-73.686-25.744-85.9-61.492l-31.122,10.984C155.724,435.752,201.728,470.71,256,470.71
	z"/>
<path style="fill:#8CB4EB;" d="M125.968,454.552L79.2,414.467c-3.786,4.119-6.793,8.871-9.006,14.029l45.031,38.597
	c5.492,4.71,8.645,11.565,8.645,18.81V512h16.516v-26.097C140.387,473.831,135.129,462.403,125.968,454.552z"/>
<path style="fill:#F0C382;" d="M206.452,319.758c13.436,5.983,28.091,9.695,43.582,10.424c1.998,0.094,3.989,0.141,5.967,0.141
	c17.619,0,34.359-3.755,49.548-10.415v-30.876h-99.097L206.452,319.758L206.452,319.758z"/>
<path style="fill:#FFE1A0;" d="M366.306,173.419L366.306,173.419c-10.752,0-19.468-8.716-19.468-19.468v-13.565
	c0-22.804-18.486-41.29-41.29-41.29h-99.097c-22.804,0-41.29,18.486-41.29,41.29v13.565c0,10.752-8.716,19.468-19.468,19.468l0,0
	c-10.799,0-20.64,7.77-21.716,18.515c-1.238,12.358,8.434,22.775,20.538,22.775h4.546c4.23,55.419,50.435,99.097,106.938,99.097
	s102.708-43.678,106.938-99.097h4.546c12.105,0,21.776-10.417,20.538-22.775C386.946,181.189,377.105,173.419,366.306,173.419z"/>
<path style="fill:#F7D291;" d="M206.464,127.408c8.093-1.156,16.369,1.09,22.555,6.433c40.911,35.335,93.885,56.094,150.852,56.094
	c2.462,0,5.04-0.066,7.705-0.168c-2.121-9.664-11.37-16.456-21.51-16.347c-10.663,0.114-19.228-8.805-19.228-19.469v-13.565
	c0-22.804-18.486-41.29-41.29-41.29h-99.097c-9.328,0-17.862,3.183-24.774,8.4v0.045c-9.974,7.537-16.516,19.381-16.516,32.845
	v14.409c0,10.709-8.982,18.518-19.69,18.624c-10.711,0.106-20.424,7.842-21.493,18.514c-1.237,12.358,8.433,22.775,20.538,22.775
	h4.546c4.23,55.419,50.435,99.097,106.938,99.097c5.649,0,11.157-0.55,16.568-1.392c-51.454-7.941-90.891-52.286-90.891-105.963
	v-50.465C181.677,141.62,192.241,129.44,206.464,127.408L206.464,127.408z"/>
<g>
	<path style="fill:#6E5A64;" d="M206.452,198.194c-4.565,0-8.258-3.698-8.258-8.258v-8.258c0-4.56,3.694-8.258,8.258-8.258
		s8.258,3.698,8.258,8.258v8.258C214.71,194.496,211.016,198.194,206.452,198.194z"/>
	<path style="fill:#6E5A64;" d="M305.548,198.194c-4.565,0-8.258-3.698-8.258-8.258v-8.258c0-4.56,3.694-8.258,8.258-8.258
		c4.565,0,8.258,3.698,8.258,8.258v8.258C313.806,194.496,310.113,198.194,305.548,198.194z"/>
</g>
<path style="fill:#E3AA75;" d="M256,256c-12.387,0-23.823-3.976-30.573-10.637c-3.25-3.202-3.282-8.431-0.081-11.677
	c3.202-3.25,8.444-3.282,11.677-0.081c2.75,2.714,9.371,5.879,18.976,5.879s16.226-3.165,18.976-5.879
	c3.234-3.202,8.476-3.169,11.677,0.081c3.202,3.246,3.169,8.476-0.081,11.677C279.823,252.024,268.387,256,256,256z"/>
<path style="fill:#8CB4EB;" d="M386.032,454.552l46.768-40.086c3.786,4.119,6.793,8.871,9.006,14.029l-45.031,38.597
	c-5.492,4.71-8.645,11.565-8.645,18.81V512h-16.516v-26.097C371.613,473.831,376.871,462.403,386.032,454.552z"/>
<path style="fill:#E3AA75;" d="M189.935,165.165c-3.46,0-6.677-2.19-7.831-5.649c-1.444-4.327,0.895-9.004,5.218-10.448
	l24.774-8.258c4.363-1.456,9,0.895,10.444,5.222s-0.895,9.004-5.218,10.448l-24.774,8.258
	C191.677,165.028,190.798,165.165,189.935,165.165z"/>
<path style="fill:#FFE17D;" d="M256,0c-29.867,0-57.503,9.397-80.259,25.297c28.029,85.974,108.801,148.122,204.13,148.122
	c5.564,0,11.059-0.279,16.516-0.695v-32.338C396.387,62.853,333.534,0,256,0z"/>
<path style="fill:#FFD164;" d="M305.548,313.806v33.032c0,72.919,57.806,99.097,57.806,165.161h33.032V313.806H305.548z"/>
<g>
</g>
<g>
</g>
<g>
</g>
<g>
</g>
<g>
</g>
<g>
</g>
<g>
</g>
<g>
</g>
<g>
</g>
<g>
</g>
<g>
</g>
<g>
</g>
<g>
</g>
<g>
</g>
<g>
</g>
</svg>
