<?xml version="1.0" encoding="iso-8859-1"?>
<!-- Generator: Adobe Illustrator 19.0.0, SVG Export Plug-In . SVG Version: 6.00 Build 0)  -->
<svg version="1.1" id="Capa_1" xmlns="http://www.w3.org/2000/svg" xmlns:xlink="http://www.w3.org/1999/xlink" x="0px" y="0px"
	 viewBox="0 0 512 512" style="enable-background:new 0 0 512 512;" xml:space="preserve">
<path style="fill:#6E5A64;" d="M347.336,15.751C322.144,5.895,290.473,0,256.001,0s-66.143,5.895-91.335,15.751
	c-9.609,3.76-16.02,12.891-16.02,23.209v43.621h214.71V38.96C363.356,28.642,356.946,19.51,347.336,15.751z"/>
<ellipse style="fill:#64505A;" cx="256.001" cy="123.87" rx="148.65" ry="74.32"/>
<g>
	<path style="fill:#FFD164;" d="M148.646,218.839c0,6.841-5.546,12.387-12.387,12.387c-6.841,0-12.387-5.546-12.387-12.387
		c0-12.387,12.387-20.645,12.387-20.645S148.646,206.452,148.646,218.839z"/>
	<path style="fill:#FFD164;" d="M388.13,218.839c0,6.841-5.546,12.387-12.387,12.387s-12.387-5.546-12.387-12.387
		c0-12.387,12.387-20.645,12.387-20.645S388.13,206.452,388.13,218.839z"/>
</g>
<path style="fill:#E3AA75;" d="M418.627,377.668l-87.036-25.599c-10.544-3.101-17.784-12.778-17.784-23.768v-39.269H198.195v39.269
	c0,10.99-7.24,20.667-17.784,23.768l-87.036,25.599c-21.087,6.202-35.568,25.555-35.568,47.535v62.023
	c0,13.682,11.092,24.774,24.774,24.774H429.42c13.682,0,24.774-11.092,24.774-24.774v-62.023
	C454.195,403.223,439.714,383.87,418.627,377.668z"/>
<path style="fill:#D29B6E;" d="M198.195,307.461c17.349,9.267,37.024,14.604,57.806,14.604s40.457-5.337,57.806-14.604v-18.428
	H198.195V307.461z"/>
<path style="fill:#F5B97D;" d="M367.485,165.161h-4.129c-9.121,0-16.516-7.395-16.516-16.516v-33.032
	c0-18.243-40.67-33.032-90.839-33.032s-90.839,14.789-90.839,33.032v33.032c0,9.121-7.395,16.516-16.516,16.516h-4.129
	c-11.402,0-20.645,9.243-20.645,20.645s9.243,20.645,20.645,20.645h4.546c4.23,55.419,50.435,99.097,106.938,99.097
	s102.708-43.678,106.938-99.097h4.546c11.402,0,20.645-9.243,20.645-20.645C388.13,174.404,378.887,165.161,367.485,165.161z"/>
<path style="fill:#E3AA75;" d="M256.001,82.581c-48.132,0-87.414,13.622-90.534,30.838c-0.198,0.579-0.304,1.291-0.304,2.195v33.032
	c0,9.122-7.395,16.516-16.516,16.516h-2.95c-10.799,0-20.64,7.77-21.717,18.515c-1.238,12.358,8.433,22.775,20.538,22.775h4.546
	c4.23,55.419,50.435,99.097,106.938,99.097c5.649,0,11.157-0.55,16.568-1.392c-51.454-7.941-90.891-52.286-90.891-105.963v-47.921
	c0-24.882,18.418-45.869,43.081-49.165c9.737-1.301,20.258-2.012,31.242-2.012c50.169,0,90.839,14.789,90.839,33.032v-16.516
	C346.84,97.369,306.17,82.581,256.001,82.581z"/>
<g>
	<path style="fill:#5A4650;" d="M206.453,189.935c-4.565,0-8.258-3.698-8.258-8.258v-8.258c0-4.56,3.694-8.258,8.258-8.258
		s8.258,3.698,8.258,8.258v8.258C214.711,186.238,211.017,189.935,206.453,189.935z"/>
	<path style="fill:#5A4650;" d="M305.549,189.935c-4.565,0-8.258-3.698-8.258-8.258v-8.258c0-4.56,3.694-8.258,8.258-8.258
		c4.565,0,8.258,3.698,8.258,8.258v8.258C313.807,186.238,310.114,189.935,305.549,189.935z"/>
</g>
<path style="fill:#B67F5F;" d="M256.001,247.742c-12.387,0-23.823-3.976-30.573-10.637c-3.25-3.202-3.282-8.431-0.081-11.677
	c3.202-3.25,8.444-3.282,11.677-0.081c2.75,2.714,9.371,5.879,18.976,5.879c9.605,0,16.226-3.165,18.976-5.879
	c3.234-3.202,8.476-3.169,11.677,0.081c3.202,3.246,3.169,8.476-0.081,11.677C279.824,243.766,268.388,247.742,256.001,247.742z"/>
<g>
	<path style="fill:#6E5A64;" d="M214.711,156.903h-16.516c-4.565,0-8.258-3.698-8.258-8.258s3.694-8.258,8.258-8.258h16.516
		c4.565,0,8.258,3.698,8.258,8.258S219.275,156.903,214.711,156.903z"/>
	<path style="fill:#6E5A64;" d="M313.807,156.903h-16.516c-4.565,0-8.258-3.698-8.258-8.258s3.694-8.258,8.258-8.258h16.516
		c4.565,0,8.258,3.698,8.258,8.258S318.372,156.903,313.807,156.903z"/>
</g>
<path style="fill:#64505A;" d="M267.716,278.087l-1.456-5.822c-1.176-4.706-5.404-8.007-10.255-8.007h-0.01
	c-4.85,0-9.078,3.301-10.255,8.007l-1.456,5.822c-1.286,5.145-4.965,9.359-9.889,11.329l-19.686,7.874l23.772,23.772
	c9.675,9.675,25.361,9.675,35.036,0l23.772-23.772l-19.686-7.874C272.681,287.446,269.003,283.232,267.716,278.087z"/>
<path style="fill:#6E5A64;" d="M418.627,377.668l-30.725-9.037c-14.464,17.154-63.241,72.134-119.605,103.861
	c-7.637,4.299-16.956,4.299-24.593,0c-56.364-31.727-105.141-86.707-119.605-103.861l-30.725,9.037
	c-21.087,6.202-35.568,25.555-35.568,47.535v62.023C57.806,500.908,68.898,512,82.58,512h346.839
	c13.682,0,24.774-11.092,24.774-24.774v-62.023C454.195,403.223,439.714,383.87,418.627,377.668z"/>
<g>
</g>
<g>
</g>
<g>
</g>
<g>
</g>
<g>
</g>
<g>
</g>
<g>
</g>
<g>
</g>
<g>
</g>
<g>
</g>
<g>
</g>
<g>
</g>
<g>
</g>
<g>
</g>
<g>
</g>
</svg>
