<?xml version="1.0" encoding="iso-8859-1"?>
<!-- Generator: Adobe Illustrator 19.0.0, SVG Export Plug-In . SVG Version: 6.00 Build 0)  -->
<svg version="1.1" id="Capa_1" xmlns="http://www.w3.org/2000/svg" xmlns:xlink="http://www.w3.org/1999/xlink" x="0px" y="0px"
	 viewBox="0 0 511.999 511.999" style="enable-background:new 0 0 511.999 511.999;" xml:space="preserve">
<path style="fill:#FFE17D;" d="M255.999,0c-59.29,0-107.355,18.486-107.355,41.29v41.29h214.71V41.29
	C363.354,18.486,315.289,0,255.999,0z"/>
<ellipse style="fill:#FFD164;" cx="255.999" cy="156.9" rx="173.42" ry="107.36"/>
<path style="fill:#B67F5F;" d="M408.365,352.59c-4.889-12.995-11.979-36.503-11.979-63.557c0-37.161,0-132.129,0-132.129
	c0-41.047-62.853-74.323-140.387-74.323s-140.387,33.275-140.387,74.323c0,0,0,94.968,0,132.129c0,27.055-7.09,50.563-11.979,63.557
	c-2.618,6.958-0.368,14.72,5.59,19.167c9.598,7.163,26.115,17.808,49.954,27.485c61.894,25.125,131.752,25.125,193.645,0
	c23.839-9.677,40.356-20.322,49.954-27.485C408.734,367.31,410.984,359.547,408.365,352.59z"/>
<path style="fill:#F7D291;" d="M412.877,417.752l-85.291-30.103c-13.207-4.661-22.039-17.144-22.039-31.149v-50.952H206.45V356.5
	c0,14.005-8.832,26.488-22.038,31.149l-85.291,30.103c-19.81,6.992-33.057,25.716-33.057,46.723v22.75
	c0,13.682,11.092,24.774,24.774,24.774h330.323c13.682,0,24.774-11.092,24.774-24.774v-22.75
	C445.934,443.468,432.687,424.744,412.877,417.752z"/>
<path style="fill:#F0C382;" d="M206.451,336.274c13.436,5.983,28.091,9.695,43.582,10.424c1.998,0.094,3.989,0.141,5.967,0.141
	c17.619,0,34.359-3.755,49.548-10.415v-30.875h-99.097L206.451,336.274L206.451,336.274z"/>
<path style="fill:#FFE1A0;" d="M330.322,156.903h-13.096c-2.19,0-4.291-0.87-5.839-2.419l-30.413-30.413
	c-3.121-3.121-8.458-0.911-8.458,3.504v21.07c0,4.561-3.697,8.258-8.258,8.258h-82.581c-18.243,0-33.032,14.789-33.032,33.032v30
	c0,57.806,44.423,107.546,102.165,110.265c61.65,2.903,112.545-46.221,112.545-107.232v-33.032
	C363.354,171.692,348.565,156.903,330.322,156.903z"/>
<path style="fill:#F7D291;" d="M330.322,156.903L330.322,156.903h-13.095c-2.19,0-4.291-0.87-5.84-2.419l-30.413-30.413
	c-3.121-3.121-8.459-0.911-8.459,3.504v21.071c0,4.561-3.697,8.258-8.258,8.258h-82.581c-18.243,0-33.032,14.789-33.032,33.032
	v29.723c0,48.481,30.824,92.82,77.369,106.384c16.156,4.708,31.806,5.251,46.52,2.975c-52.128-8.209-90.856-55.115-90.856-109.082
	v-13.483c0-18.243,14.789-33.032,33.032-33.032h99.097C322.927,173.419,330.322,166.025,330.322,156.903z"/>
<g>
	<path style="fill:#6E5A64;" d="M206.451,222.968c-4.565,0-8.258-3.698-8.258-8.258v-8.258c0-4.56,3.694-8.258,8.258-8.258
		s8.258,3.698,8.258,8.258v8.258C214.709,219.27,211.015,222.968,206.451,222.968z"/>
	<path style="fill:#6E5A64;" d="M305.547,222.968c-4.565,0-8.258-3.698-8.258-8.258v-8.258c0-4.56,3.694-8.258,8.258-8.258
		c4.565,0,8.258,3.698,8.258,8.258v8.258C313.805,219.27,310.112,222.968,305.547,222.968z"/>
</g>
<path style="fill:#E3AA75;" d="M255.999,280.774c-12.387,0-23.823-3.976-30.573-10.637c-3.25-3.202-3.282-8.431-0.081-11.677
	s8.444-3.282,11.677-0.081c2.75,2.714,9.371,5.879,18.976,5.879s16.226-3.165,18.976-5.879c3.234-3.202,8.476-3.165,11.677,0.081
	c3.202,3.246,3.169,8.476-0.081,11.677C279.822,276.798,268.386,280.774,255.999,280.774z"/>
<g>
	<path style="fill:#A06E50;" d="M198.184,190.968c-3.798,0-7.218-2.633-8.056-6.492c-0.976-4.456,1.847-8.859,6.298-9.835
		l16.516-3.613c4.444-0.968,8.863,1.843,9.831,6.302c0.976,4.456-1.847,8.859-6.298,9.835l-16.516,3.613
		C199.362,190.907,198.773,190.968,198.184,190.968z"/>
	<path style="fill:#A06E50;" d="M313.814,190.968c-0.589,0-1.177-0.06-1.774-0.19l-16.516-3.613
		c-4.452-0.976-7.274-5.379-6.298-9.835c0.968-4.46,5.379-7.278,9.831-6.302l16.516,3.613c4.452,0.976,7.274,5.379,6.298,9.835
		C321.031,188.335,317.612,190.968,313.814,190.968z"/>
</g>
<path style="fill:#C9C6CA;" d="M412.877,417.752l-47.636-16.813c-15.613,45.375-58.568,78.028-109.242,78.028
	s-93.629-32.654-109.242-78.028l-47.636,16.813c-19.81,6.991-33.057,25.716-33.057,46.723v22.75
	c0,13.682,11.092,24.774,24.774,24.774h330.323c13.682,0,24.774-11.092,24.774-24.774v-22.75
	C445.934,443.468,432.687,424.743,412.877,417.752z"/>
<path style="fill:#B7B2B8;" d="M131.196,406.431c17.88,51.792,66.935,89.052,124.803,89.052s106.923-37.261,124.803-89.052
	l-15.561-5.492c-15.613,45.375-58.568,78.028-109.242,78.028s-93.629-32.654-109.242-78.028L131.196,406.431z"/>
<path style="fill:#A06E50;" d="M255.999,102.172c77.534,0,140.387,33.275,140.387,74.323c0-11.876,0-19.592,0-19.592
	c0-41.047-62.853-74.323-140.387-74.323s-140.387,33.275-140.387,74.323c0,0,0,7.716,0,19.592
	C115.612,135.448,178.465,102.172,255.999,102.172z"/>
<g>
</g>
<g>
</g>
<g>
</g>
<g>
</g>
<g>
</g>
<g>
</g>
<g>
</g>
<g>
</g>
<g>
</g>
<g>
</g>
<g>
</g>
<g>
</g>
<g>
</g>
<g>
</g>
<g>
</g>
</svg>
