<?xml version="1.0" encoding="iso-8859-1"?>
<!-- Generator: Adobe Illustrator 19.0.0, SVG Export Plug-In . SVG Version: 6.00 Build 0)  -->
<svg version="1.1" id="Capa_1" xmlns="http://www.w3.org/2000/svg" xmlns:xlink="http://www.w3.org/1999/xlink" x="0px" y="0px"
	 viewBox="0 0 512 512" style="enable-background:new 0 0 512 512;" xml:space="preserve">
<g>
	<circle style="fill:#5A4650;" cx="165.16" cy="222.97" r="90.84"/>
	<circle style="fill:#5A4650;" cx="346.84" cy="222.97" r="90.84"/>
</g>
<path style="fill:#64505A;" d="M256,0c-72.973,0-132.129,59.156-132.129,132.129v64.065h264.258v-64.065
	C388.129,59.156,328.973,0,256,0z"/>
<path style="fill:#E3AA75;" d="M412.878,400.86l-85.291-30.103c-13.207-4.661-22.039-17.144-22.039-31.149v-67.092H206.45v67.092
	c0,14.005-8.832,26.488-22.038,31.149L99.122,400.86c-19.81,6.992-33.057,25.716-33.057,46.723v39.642
	c0,13.682,11.092,24.774,24.774,24.774h330.323c13.682,0,24.774-11.092,24.774-24.774v-39.642
	C445.935,426.576,432.688,407.852,412.878,400.86z"/>
<path style="fill:#FF8087;" d="M412.878,400.86l-74.448-26.276c-1.578,44.22-37.826,79.609-82.43,79.609s-80.853-35.39-82.43-79.609
	L99.122,400.86c-19.81,6.991-33.057,25.716-33.057,46.723v39.643c0,13.682,11.092,24.774,24.774,24.774h330.323
	c13.682,0,24.774-11.092,24.774-24.774v-39.643C445.935,426.576,432.688,407.851,412.878,400.86z"/>
<path style="fill:#D29B6E;" d="M206.452,320.103c15.198,6.584,31.957,10.219,49.548,10.219s34.35-3.636,49.548-10.219v-31.071
	h-99.097L206.452,320.103L206.452,320.103z"/>
<path style="fill:#F5B97D;" d="M367.484,173.419c0,0-11.058-1.332-14.441-2.268c-18.762-5.195-59.382-21.416-90.152-68.842
	c-3.242-4.997-10.54-4.997-13.782,0c-30.77,47.425-71.39,63.647-90.152,68.842c-3.383,0.936-14.441,2.268-14.441,2.268
	c-12.104,0-21.775,10.416-20.538,22.774c1.076,10.745,10.916,18.516,21.715,18.516h3.369c4.23,55.419,50.435,99.097,106.938,99.097
	s102.708-43.678,106.938-99.097h3.369c10.799,0,20.64-7.771,21.715-18.516C389.259,183.835,379.588,173.419,367.484,173.419z"/>
<path style="fill:#E3AA75;" d="M353.043,171.151c-18.742-5.191-59.297-21.383-90.055-68.694c-3.29-5.061-10.681-5.069-13.971-0.008
	c-21.246,32.684-47.161,50.508-67.339,60.124c-9.034,4.304-16.924,6.973-22.72,8.578c-3.383,0.936-14.441,2.268-14.441,2.268
	c-12.104,0-21.774,10.415-20.538,22.773c1.075,10.746,10.915,18.518,21.715,18.518h3.369c4.23,55.419,50.435,99.097,106.938,99.097
	c5.632,0,11.118-0.564,16.516-1.4c-47.149-7.3-84.197-45.17-90.036-92.77c-0.867-7.071-0.671-14.248,0.207-21.319
	c0.715-5.761,2.424-11.468,5.766-16.215c2.938-4.173,6.759-7.697,11.276-10.259c18.064-10.246,38.285-26.081,56.271-50.479
	c21.545,29.226,46.297,46.164,66.709,55.929c14.56,6.966,31.704,5.594,44.775-3.876
	C367.484,173.419,356.424,172.088,353.043,171.151z"/>
<g>
	<path style="fill:#5A4650;" d="M206.46,198.911c-4.565,0-8.258-3.698-8.258-8.258v-8.258c0-4.56,3.694-8.258,8.258-8.258
		c4.565,0,8.258,3.698,8.258,8.258v8.258C214.718,195.214,211.024,198.911,206.46,198.911z"/>
	<path style="fill:#5A4650;" d="M305.556,198.911c-4.565,0-8.258-3.698-8.258-8.258v-8.258c0-4.56,3.694-8.258,8.258-8.258
		s8.258,3.698,8.258,8.258v8.258C313.815,195.214,310.121,198.911,305.556,198.911z"/>
</g>
<g>
	<polygon style="fill:#FFD164;" points="305.54,330.323 305.548,330.325 305.548,330.057 	"/>
	<polygon style="fill:#FFD164;" points="206.452,330.057 206.452,330.325 206.46,330.323 	"/>
</g>
<path style="fill:#6E5A64;" d="M281.911,2.575c-5.976,13.064-9.395,27.54-9.395,42.844c0,57.01,46.216,103.226,103.226,103.226
	c4.2,0,8.319-0.325,12.387-0.813v-15.704C388.129,68.028,342.471,14.622,281.911,2.575z"/>
<path style="fill:#FFFFFF;" d="M223.351,231.226c-2.6,0-4.532,2.376-4.1,4.94c2.682,15.9,18.114,28.092,36.749,28.092
	s34.066-12.192,36.749-28.092c0.432-2.564-1.5-4.94-4.1-4.94H223.351z"/>
<g>
	<path style="fill:#A5CDFF;" d="M445.935,487.226H66.065c0,13.682,11.092,24.774,24.774,24.774h330.323
		C434.844,512,445.935,500.908,445.935,487.226z"/>
	<path style="fill:#A5CDFF;" d="M66.194,445.935h154.002c-11.915-5.764-22.214-14.285-30.091-24.774H73.848
		C69.229,428.461,66.494,436.94,66.194,445.935z"/>
	<path style="fill:#A5CDFF;" d="M438.151,421.161H321.896c-7.878,10.489-18.176,19.01-30.091,24.774h154.002
		C445.506,436.94,442.77,428.461,438.151,421.161z"/>
</g>
<g>
</g>
<g>
</g>
<g>
</g>
<g>
</g>
<g>
</g>
<g>
</g>
<g>
</g>
<g>
</g>
<g>
</g>
<g>
</g>
<g>
</g>
<g>
</g>
<g>
</g>
<g>
</g>
<g>
</g>
</svg>
