<?xml version="1.0" encoding="iso-8859-1"?>
<!-- Generator: Adobe Illustrator 19.0.0, SVG Export Plug-In . SVG Version: 6.00 Build 0)  -->
<svg version="1.1" id="Capa_1" xmlns="http://www.w3.org/2000/svg" xmlns:xlink="http://www.w3.org/1999/xlink" x="0px" y="0px"
	 viewBox="0 0 512.01 512.01" style="enable-background:new 0 0 512.01 512.01;" xml:space="preserve">
<path style="fill:#F7D291;" d="M418.633,361.152l-87.036-25.599c-10.544-3.101-17.784-12.778-17.784-23.768v-39.269H198.201v39.269
	c0,10.99-7.24,20.667-17.784,23.768l-87.036,25.599c-21.087,6.202-35.568,25.555-35.568,47.535v62.023
	c0,13.682,11.092,41.29,24.774,41.29h346.839c13.682,0,24.774-27.608,24.774-41.29v-62.023
	C454.201,386.707,439.72,367.354,418.633,361.152z"/>
<path style="fill:#6E5A64;" d="M418.633,361.152l-87.036-25.599c-1.472-0.433,8.323,3.703,6.99,3.028l-82.585,24.774l-82.577-24.774
	c-1.332,0.675,8.462-3.461,6.99-3.028l-87.036,25.599c-21.087,6.202-35.568,25.555-35.568,47.535v78.539
	c0,13.682,11.092,24.774,24.774,24.774h346.839c13.682,0,24.774-11.092,24.774-24.774v-78.539
	C454.201,386.707,439.72,367.354,418.633,361.152z"/>
<path style="fill:#EDEBED;" d="M335.754,352.263l-9.847-9.847l-69.9,20.939l-69.9-20.939l-9.847,9.847
	c-12.39,12.389-19.35,29.193-19.35,46.715V512h198.194V398.978C355.103,381.456,348.143,364.652,335.754,352.263z"/>
<rect x="235.357" y="363.36" style="fill:#FFFFFF;" width="41.29" height="148.65"/>
<path style="fill:#F0C382;" d="M198.201,290.945c17.349,9.267,37.024,14.604,57.806,14.604s40.457-5.337,57.806-14.604v-18.428
	H198.201V290.945z"/>
<path style="fill:#FFE1A0;" d="M371.62,149.061V66.065L222.975,41.29l-82.581,24.774v82.997
	c-9.423,1.913-16.516,10.241-16.516,20.229c0,11.402,9.243,20.645,20.645,20.645h4.546c4.23,55.419,50.435,99.097,106.938,99.097
	s102.708-43.678,106.938-99.097h4.546c11.402,0,20.645-9.243,20.645-20.645C388.135,159.302,381.043,150.975,371.62,149.061z"/>
<path style="fill:#F7D291;" d="M227.441,74.743c27.854,13.772,83.105,36.649,144.177,40.311v-48.99L222.975,41.29l-82.581,24.774
	v83.291c-8.53,2.061-15.514,8.867-16.409,17.805c-1.238,12.358,8.433,22.775,20.538,22.775h4.546
	c4.23,55.419,50.435,99.097,106.938,99.097c5.649,0,11.157-0.55,16.568-1.392c-51.454-7.941-90.891-52.286-90.891-105.963v-65.622
	c0-9.641,5.539-18.443,14.32-22.424C206.122,89.044,216.837,82.922,227.441,74.743z"/>
<g>
	<path style="fill:#6E5A64;" d="M206.458,174.137c-4.565,0-8.258-3.698-8.258-8.258v-8.258c0-4.56,3.694-8.258,8.258-8.258
		s8.258,3.698,8.258,8.258v8.258C214.717,170.44,211.023,174.137,206.458,174.137z"/>
	<path style="fill:#6E5A64;" d="M305.555,174.137c-4.565,0-8.258-3.698-8.258-8.258v-8.258c0-4.56,3.694-8.258,8.258-8.258
		c4.565,0,8.258,3.698,8.258,8.258v8.258C313.813,170.44,310.12,174.137,305.555,174.137z"/>
</g>
<g>
	<path style="fill:#A06E50;" d="M214.717,140.387h-16.516c-4.565,0-8.258-3.698-8.258-8.258s3.694-8.258,8.258-8.258h16.516
		c4.565,0,8.258,3.698,8.258,8.258C222.975,136.69,219.281,140.387,214.717,140.387z"/>
	<path style="fill:#A06E50;" d="M313.813,140.387h-16.516c-4.565,0-8.258-3.698-8.258-8.258s3.694-8.258,8.258-8.258h16.516
		c4.565,0,8.258,3.698,8.258,8.258C322.072,136.69,318.378,140.387,313.813,140.387z"/>
</g>
<path style="fill:#64505A;" d="M115.62,512l-14.549-65.472c-1.225-5.512,0.451-11.269,4.444-15.262l26.621-26.621l-12.248-18.372
	c-2.883-4.325-3.501-9.755-1.86-14.688c19.691-59.175,80.172-74.295,80.172-74.295v15.929c0,10.951-4.35,21.453-12.094,29.197
	l-9.847,9.847c-12.39,12.389-19.35,29.193-19.35,46.715V512"/>
<path style="fill:#E3AA75;" d="M256.007,231.226c-12.387,0-23.823-3.976-30.573-10.637c-3.25-3.202-3.282-8.431-0.081-11.677
	c3.202-3.25,8.444-3.282,11.677-0.081c2.75,2.714,9.371,5.879,18.976,5.879c9.605,0,16.226-3.165,18.976-5.879
	c3.234-3.202,8.476-3.169,11.677,0.081c3.202,3.246,3.169,8.476-0.081,11.677C279.829,227.25,268.393,231.226,256.007,231.226z"/>
<path style="fill:#A06E50;" d="M388.135,82.581C388.135,36.973,351.163,0,305.555,0h-99.097c-36.486,0-66.065,29.578-66.065,66.065
	v24.774c0,0,39.226-0.069,76.962-29.174c4.896-3.776,11.494-4.418,17.051-1.708c28.472,13.887,84.469,36.99,145.29,38.999
	c4.626,0.153,8.44-3.664,8.44-8.293L388.135,82.581L388.135,82.581z"/>
<path style="fill:#B67F5F;" d="M388.063,81.143C387.289,36.206,350.677,0,305.555,0h-94.828
	C233.04,25.517,287.172,72.476,388.063,81.143z"/>
<path style="fill:#64505A;" d="M396.393,512l14.549-65.472c1.225-5.512-0.451-11.269-4.444-15.262l-26.621-26.621l12.248-18.372
	c2.883-4.325,3.501-9.755,1.86-14.688c-19.691-59.175-80.172-74.295-80.172-74.295v15.929c0,10.951,4.35,21.453,12.094,29.197
	l9.847,9.847c12.389,12.389,19.35,29.193,19.35,46.715V512"/>
<g>
	<path style="fill:#E6646E;" d="M313.714,392.208l-57.707-28.853l57.707-28.853c5.855-2.928,12.745,1.33,12.745,7.877v41.953
		C326.458,390.878,319.569,395.136,313.714,392.208z"/>
	<path style="fill:#E6646E;" d="M198.299,392.208l57.707-28.853l-57.707-28.853c-5.855-2.928-12.745,1.33-12.745,7.877v41.953
		C185.555,390.878,192.445,395.136,198.299,392.208z"/>
</g>
<path style="fill:#DC4655;" d="M260.135,375.742h-8.258c-4.561,0-8.258-3.697-8.258-8.258v-8.258c0-4.561,3.697-8.258,8.258-8.258
	h8.258c4.561,0,8.258,3.697,8.258,8.258v8.258C268.393,372.045,264.697,375.742,260.135,375.742z"/>
<g>
	<circle style="fill:#EDEBED;" cx="256.007" cy="412.9" r="8.258"/>
	<circle style="fill:#EDEBED;" cx="256.007" cy="478.97" r="8.258"/>
</g>
<g>
</g>
<g>
</g>
<g>
</g>
<g>
</g>
<g>
</g>
<g>
</g>
<g>
</g>
<g>
</g>
<g>
</g>
<g>
</g>
<g>
</g>
<g>
</g>
<g>
</g>
<g>
</g>
<g>
</g>
</svg>
