<?xml version="1.0" encoding="iso-8859-1"?>
<!-- Generator: Adobe Illustrator 19.0.0, SVG Export Plug-In . SVG Version: 6.00 Build 0)  -->
<svg version="1.1" id="Capa_1" xmlns="http://www.w3.org/2000/svg" xmlns:xlink="http://www.w3.org/1999/xlink" x="0px" y="0px"
	 viewBox="0 0 512 512" style="enable-background:new 0 0 512 512;" xml:space="preserve">
<path style="fill:#5A4650;" d="M398.951,284.288c-14.033-17.216-36.924-40.679-52.112-53.063H165.161
	c-15.188,12.383-38.079,35.847-52.112,53.063c-9.207,11.294-6.319,27.234,6.25,35.411c19.631,12.773,51.186,31.095,87.152,43.568
	h99.097c35.966-12.473,67.521-30.795,87.152-43.568C405.27,311.522,408.157,295.583,398.951,284.288z"/>
<path style="fill:#B67F5F;" d="M412.878,401.236l-85.291-30.103c-13.207-4.661-22.039-17.144-22.039-31.149v-50.952h-99.097v50.952
	c0,14.005-8.832,26.488-22.038,31.149l-85.291,30.103c-19.81,6.992-33.057,25.716-33.057,46.723v39.267
	c0,13.682,11.092,24.774,24.774,24.774h330.323c13.682,0,24.774-11.092,24.774-24.774v-39.267
	C445.935,426.952,432.688,408.228,412.878,401.236z"/>
<path style="fill:#FFE17D;" d="M412.878,401.236l-66.039-23.308v34.975c0,13.682-11.092,24.774-24.774,24.774h-132.13
	c-13.682,0-24.774-11.092-24.774-24.774v-34.975l-66.039,23.308c-19.81,6.991-33.057,25.716-33.057,46.723v39.267
	c0,13.682,11.092,24.774,24.774,24.774h330.323c13.682,0,24.774-11.092,24.774-24.774v-39.267
	C445.935,426.952,432.688,408.227,412.878,401.236z"/>
<path style="fill:#A06E50;" d="M206.452,319.908c15.189,6.66,31.929,10.415,49.548,10.415s34.359-3.755,49.548-10.415v-30.876
	h-99.097L206.452,319.908L206.452,319.908z"/>
<circle style="fill:#5A4650;" cx="256" cy="140.39" r="140.39"/>
<path style="fill:#CD916E;" d="M256,313.806L256,313.806c-59.291,0-107.355-48.064-107.355-107.355V165.16
	c0-59.29,48.064-107.355,107.355-107.355h107.355V206.45C363.355,265.742,315.29,313.806,256,313.806z"/>
<g>
	<path style="fill:#B67F5F;" d="M181.677,206.452V87.806c-20.327,19.534-33.032,46.938-33.032,77.355v41.29
		c0,59.29,48.065,107.355,107.355,107.355c5.632,0,11.118-0.564,16.516-1.4C221.088,304.444,181.677,260.11,181.677,206.452z"/>
	<path style="fill:#B67F5F;" d="M206.452,181.677c10.752,0,19.833,6.924,23.253,16.516c0.925-2.596,1.522-5.348,1.522-8.258
		c0-13.661-11.113-24.774-24.774-24.774s-24.774,11.113-24.774,24.774c0,2.91,0.596,5.662,1.522,8.258
		C186.619,188.602,195.7,181.677,206.452,181.677z"/>
	<path style="fill:#B67F5F;" d="M305.548,181.677c10.751,0,19.833,6.924,23.253,16.516c0.925-2.596,1.522-5.348,1.522-8.258
		c0-13.661-11.113-24.774-24.774-24.774c-13.661,0-24.774,11.113-24.774,24.774c0,2.91,0.596,5.662,1.522,8.258
		C285.716,188.602,294.797,181.677,305.548,181.677z"/>
</g>
<rect x="239.48" y="173.42" style="fill:#FFC350;" width="33.03" height="16.516"/>
<g>
	<path style="fill:#5A4650;" d="M206.452,198.911c-4.565,0-8.258-3.698-8.258-8.258v-8.258c0-4.56,3.694-8.258,8.258-8.258
		s8.258,3.698,8.258,8.258v8.258C214.71,195.214,211.016,198.911,206.452,198.911z"/>
	<path style="fill:#5A4650;" d="M305.548,198.911c-4.565,0-8.258-3.698-8.258-8.258v-8.258c0-4.56,3.694-8.258,8.258-8.258
		c4.565,0,8.258,3.698,8.258,8.258v8.258C313.806,195.214,310.113,198.911,305.548,198.911z"/>
</g>
<path style="fill:#A06E50;" d="M256,264.258c-12.387,0-23.823-3.976-30.573-10.637c-3.25-3.202-3.282-8.431-0.081-11.677
	c3.202-3.246,8.444-3.282,11.677-0.081c2.75,2.714,9.371,5.879,18.976,5.879c9.605,0,16.226-3.165,18.976-5.879
	c3.234-3.202,8.476-3.165,11.677,0.081c3.202,3.246,3.169,8.476-0.081,11.677C279.823,260.282,268.387,264.258,256,264.258z"/>
<path style="fill:#B67F5F;" d="M256,57.806c-27.94,0-53.303,10.763-72.403,28.255c48.469,44.967,112.623,70.842,179.758,70.842
	V57.806H256z"/>
<path style="fill:#64505A;" d="M396.273,138.144C395.063,61.656,332.776,0,256,0c-36.324,0-69.317,13.913-94.243,36.551
	c44.936,62.838,118.456,103.836,201.598,103.836C374.523,140.387,385.496,139.576,396.273,138.144z"/>
<g>
	<path style="fill:#FFC350;" d="M181.677,173.419h-33.032c-4.561,0-8.258-3.697-8.258-8.258l0,0c0-4.561,3.697-8.258,8.258-8.258
		h41.29L181.677,173.419z"/>
	<path style="fill:#FFC350;" d="M330.323,173.419h33.032c4.561,0,8.258-3.697,8.258-8.258l0,0c0-4.561-3.697-8.258-8.258-8.258
		h-41.29L330.323,173.419z"/>
</g>
<g>
	<path style="fill:#FFE17D;" d="M206.452,231.226c-22.766,0-41.29-18.524-41.29-41.29s18.524-41.29,41.29-41.29
		s41.29,18.524,41.29,41.29S229.218,231.226,206.452,231.226z M206.452,165.161c-13.661,0-24.774,11.113-24.774,24.774
		s11.113,24.774,24.774,24.774s24.774-11.113,24.774-24.774S220.113,165.161,206.452,165.161z"/>
	<path style="fill:#FFE17D;" d="M305.548,231.226c-22.766,0-41.29-18.524-41.29-41.29s18.524-41.29,41.29-41.29
		c22.766,0,41.29,18.524,41.29,41.29S328.315,231.226,305.548,231.226z M305.548,165.161c-13.661,0-24.774,11.113-24.774,24.774
		s11.113,24.774,24.774,24.774c13.661,0,24.774-11.113,24.774-24.774S319.21,165.161,305.548,165.161z"/>
</g>
<rect x="189.94" y="437.68" style="fill:#FFC350;" width="16.516" height="74.32"/>
<circle style="fill:#FFFFFF;" cx="235.35" cy="466.58" r="12.387"/>
<g>
</g>
<g>
</g>
<g>
</g>
<g>
</g>
<g>
</g>
<g>
</g>
<g>
</g>
<g>
</g>
<g>
</g>
<g>
</g>
<g>
</g>
<g>
</g>
<g>
</g>
<g>
</g>
<g>
</g>
</svg>
