<?xml version="1.0" encoding="iso-8859-1"?>
<!-- Generator: Adobe Illustrator 19.0.0, SVG Export Plug-In . SVG Version: 6.00 Build 0)  -->
<svg version="1.1" id="Capa_1" xmlns="http://www.w3.org/2000/svg" xmlns:xlink="http://www.w3.org/1999/xlink" x="0px" y="0px"
	 viewBox="0 0 512 512" style="enable-background:new 0 0 512 512;" xml:space="preserve">
<path style="fill:#E3AA75;" d="M418.626,377.668l-87.036-25.599c-10.544-3.101-17.784-12.778-17.784-23.768v-39.269H198.195v39.269
	c0,10.99-7.24,20.667-17.784,23.768l-87.036,25.599c-21.087,6.202-35.568,25.555-35.568,47.535v62.023
	c0,13.682,11.092,24.774,24.774,24.774h346.839c13.682,0,24.774-11.092,24.774-24.774v-62.023
	C454.194,403.223,439.714,383.87,418.626,377.668z"/>
<path style="fill:#9BDC9B;" d="M418.626,377.668l-65.519-19.27c-9.182,45.233-49.165,79.28-97.107,79.28
	s-87.925-34.047-97.107-79.28l-65.519,19.27c-21.087,6.202-35.568,25.555-35.568,47.535v62.023
	c0,13.682,11.092,24.774,24.774,24.774h346.839c13.682,0,24.774-11.092,24.774-24.774v-62.023
	C454.194,403.223,439.714,383.87,418.626,377.668z"/>
<path style="fill:#D29B6E;" d="M198.195,307.461c17.349,9.267,37.024,14.604,57.806,14.604s40.457-5.337,57.806-14.604v-18.428
	H198.195V307.461z"/>
<path style="fill:#F5B97D;" d="M367.484,165.161h-4.129V74.323h-214.71v90.839h-4.129c-11.402,0-20.645,9.243-20.645,20.645
	c0,11.402,9.243,20.645,20.645,20.645h4.546c4.23,55.419,50.435,99.097,106.938,99.097s102.708-43.678,106.938-99.097h4.546
	c11.402,0,20.645-9.243,20.645-20.645C388.129,174.404,378.886,165.161,367.484,165.161z"/>
<path style="fill:#E3AA75;" d="M148.646,74.323v90.839h-2.95c-10.799-0.001-20.641,7.77-21.717,18.515
	c-1.238,12.358,8.433,22.775,20.538,22.775h4.546c4.23,55.419,50.435,99.097,106.938,99.097c5.649,0,11.157-0.55,16.568-1.392
	c-51.454-7.941-90.891-52.286-90.891-105.963v-66.065c0-18.243,14.789-33.032,33.032-33.032h49.775
	c6.877,5.121,15.314,8.258,24.547,8.258c6.781,0,13.084-1.791,18.728-4.687c10.937,8.101,24.417,12.945,39.078,12.945
	c5.714,0,11.228-0.801,16.516-2.165V74.323H148.646z"/>
<path style="fill:#A06E50;" d="M377.931,75.665L346.839,0H196.872c-39.085,0-69.626,33.747-65.736,72.638l9.253,92.523h8.257
	c9.122,0,16.516-7.394,16.516-16.516l0.001-36.474c0-18.243,14.789-33.032,33.032-33.032h148.646l-0.001,69.505
	c0,9.122,7.395,16.517,16.516,16.517h8.259l6.872-89.333L377.931,75.665z"/>
<path style="fill:#8C5F4B;" d="M231.227,0h-34.355c-39.085,0-69.626,33.747-65.736,72.638l9.253,92.523h8.257
	c9.121,0,16.516-7.394,16.516-16.516l0.001-41.291v-41.29C165.161,29.578,194.74,0,231.227,0z"/>
<g>
	<path style="fill:#5A4650;" d="M206.452,189.935c-4.565,0-8.258-3.698-8.258-8.258v-8.258c0-4.56,3.694-8.258,8.258-8.258
		s8.258,3.698,8.258,8.258v8.258C214.711,186.238,211.017,189.935,206.452,189.935z"/>
	<path style="fill:#5A4650;" d="M305.548,189.935c-4.565,0-8.258-3.698-8.258-8.258v-8.258c0-4.56,3.694-8.258,8.258-8.258
		c4.565,0,8.258,3.698,8.258,8.258v8.258C313.806,186.238,310.113,189.935,305.548,189.935z"/>
</g>
<path style="fill:#B67F5F;" d="M256,247.742c-12.387,0-23.823-3.976-30.573-10.637c-3.25-3.202-3.282-8.431-0.081-11.677
	c3.202-3.25,8.444-3.282,11.677-0.081c2.75,2.714,9.371,5.879,18.976,5.879c9.605,0,16.226-3.165,18.976-5.879
	c3.234-3.202,8.476-3.169,11.677,0.081c3.202,3.246,3.169,8.476-0.081,11.677C279.823,243.766,268.387,247.742,256,247.742z"/>
<g>
	<path style="fill:#A06E50;" d="M214.711,156.903h-16.516c-4.565,0-8.258-3.698-8.258-8.258s3.694-8.258,8.258-8.258h16.516
		c4.565,0,8.258,3.698,8.258,8.258S219.275,156.903,214.711,156.903z"/>
	<path style="fill:#A06E50;" d="M313.806,156.903H297.29c-4.565,0-8.258-3.698-8.258-8.258s3.694-8.258,8.258-8.258h16.516
		c4.565,0,8.258,3.698,8.258,8.258S318.371,156.903,313.806,156.903z"/>
	<circle style="fill:#A06E50;" cx="346.84" cy="49.548" r="49.548"/>
	<circle style="fill:#A06E50;" cx="289.03" cy="66.06" r="24.774"/>
</g>
<path style="fill:#B67F5F;" d="M127.201,367.719C140.484,426.653,193.053,470.71,256,470.71s115.516-44.057,128.799-102.991
	l-31.692-9.321c-9.182,45.233-49.165,79.28-97.107,79.28s-87.925-34.047-97.107-79.28L127.201,367.719z"/>
<g>
</g>
<g>
</g>
<g>
</g>
<g>
</g>
<g>
</g>
<g>
</g>
<g>
</g>
<g>
</g>
<g>
</g>
<g>
</g>
<g>
</g>
<g>
</g>
<g>
</g>
<g>
</g>
<g>
</g>
</svg>
