<?xml version="1.0" encoding="iso-8859-1"?>
<!-- Generator: Adobe Illustrator 19.0.0, SVG Export Plug-In . SVG Version: 6.00 Build 0)  -->
<svg version="1.1" id="Capa_1" xmlns="http://www.w3.org/2000/svg" xmlns:xlink="http://www.w3.org/1999/xlink" x="0px" y="0px"
	 viewBox="0 0 512 512" style="enable-background:new 0 0 512 512;" xml:space="preserve">
<path style="fill:#FF8250;" d="M397.417,317.42c4.017-2.009,5.602-6.829,3.749-10.92c-21.295-46.997-21.295-91.791-21.295-91.791
	v-82.581L256,115.617l-123.871,16.512v82.581c0,0,0,44.794-21.295,91.791c-1.854,4.091-0.268,8.912,3.749,10.92l25.804,12.902
	l-27.283,34.104c-3.07,3.837-2.179,9.579,2,12.164c86.31,53.372,195.482,53.372,281.792,0c4.179-2.584,5.069-8.327,2-12.164
	l-27.283-34.104L397.417,317.42z"/>
<path style="fill:#F7D291;" d="M412.878,401.236l-85.291-30.103c-13.207-4.661-22.039-17.144-22.039-31.149V297.29H206.45v42.694
	c0,14.005-8.832,26.488-22.038,31.149l-85.291,30.103c-19.81,6.992-33.057,25.716-33.057,46.723v39.267
	c0,13.682,11.092,24.774,24.774,24.774h330.323c13.682,0,24.774-11.092,24.774-24.774v-39.267
	C445.935,426.952,432.688,408.228,412.878,401.236z"/>
<path style="fill:#EDEBED;" d="M412.878,401.236l-84.417-29.794c-7.455,33.173-37.037,57.978-72.461,57.978
	s-65.007-24.804-72.461-57.978l-84.417,29.794c-19.81,6.991-33.057,25.716-33.057,46.723v39.267
	c0,13.682,11.092,24.774,24.774,24.774h330.323c13.682,0,24.774-11.092,24.774-24.774v-39.267
	C445.935,426.952,432.688,408.227,412.878,401.236z"/>
<path style="fill:#A5CDFF;" d="M256,462.452c49.814,0,91.581-33.977,103.699-79.985l-31.238-11.025
	c-7.455,33.173-37.037,57.978-72.461,57.978s-65.007-24.804-72.461-57.978l-31.238,11.025
	C164.419,428.475,206.186,462.452,256,462.452z"/>
<path style="fill:#F0C382;" d="M206.452,319.756c15.247,6.742,32.001,10.567,49.548,10.567c17.619,0,34.359-3.755,49.548-10.415
	V297.29h-99.097L206.452,319.756L206.452,319.756z"/>
<path style="fill:#A5CDFF;" d="M264.258,16.516h-16.516c-4.565,0-8.258-3.698-8.258-8.258S243.177,0,247.742,0h16.516
	c4.565,0,8.258,3.698,8.258,8.258S268.823,16.516,264.258,16.516z"/>
<path style="fill:#FFE1A0;" d="M148.645,115.613v57.806h-4.129c-11.402,0-20.645,9.243-20.645,20.645
	c0,11.402,9.243,20.645,20.645,20.645h4.546c4.23,55.419,50.435,99.097,106.938,99.097c59.29,0,107.355-48.065,107.355-107.355
	v-90.839L148.645,115.613L148.645,115.613z"/>
<path style="fill:#F7D291;" d="M148.645,115.613v57.806h-2.951c-10.799,0-20.64,7.77-21.716,18.515
	c-1.238,12.358,8.434,22.775,20.538,22.775h4.546c4.23,55.419,50.435,99.097,106.938,99.097c5.632,0,11.118-0.564,16.516-1.4
	c-51.428-7.963-90.839-52.296-90.839-105.955v-23.375c0-21.667,16.731-39.524,38.332-41.217c7.238-0.567,14.638-0.965,22.167-1.184
	c52.652,24.226,97.863,61.076,120.013,80.758c0.687-4.908,1.165-9.883,1.165-14.981v-90.839L148.645,115.613L148.645,115.613z"/>
<g>
	<path style="fill:#6E5A64;" d="M206.452,198.911c-4.565,0-8.258-3.698-8.258-8.258v-8.258c0-4.56,3.694-8.258,8.258-8.258
		s8.258,3.698,8.258,8.258v8.258C214.71,195.214,211.016,198.911,206.452,198.911z"/>
	<path style="fill:#6E5A64;" d="M305.548,198.911c-4.565,0-8.258-3.698-8.258-8.258v-8.258c0-4.56,3.694-8.258,8.258-8.258
		c4.565,0,8.258,3.698,8.258,8.258v8.258C313.806,195.214,310.113,198.911,305.548,198.911z"/>
</g>
<g>
	<path style="fill:#FF8250;" d="M214.71,165.161h-16.516c-4.565,0-8.258-3.698-8.258-8.258s3.694-8.258,8.258-8.258h16.516
		c4.565,0,8.258,3.698,8.258,8.258S219.274,165.161,214.71,165.161z"/>
	<path style="fill:#FF8250;" d="M313.806,165.161H297.29c-4.565,0-8.258-3.698-8.258-8.258s3.694-8.258,8.258-8.258h16.516
		c4.565,0,8.258,3.698,8.258,8.258S318.371,165.161,313.806,165.161z"/>
</g>
<path style="fill:#FFFFFF;" d="M223.351,227.067c-2.6,0-4.532,2.376-4.1,4.94c2.682,15.9,18.114,28.092,36.749,28.092
	s34.066-12.192,36.749-28.092c0.432-2.564-1.5-4.94-4.1-4.94H223.351z"/>
<path style="fill:#FF8250;" d="M143.448,176.123l-11.319,1.409v-45.403l33.032-8.258v27.668
	C165.161,164.037,155.851,174.579,143.448,176.123z"/>
<path style="fill:#FF9664;" d="M198.194,107.355c81.414,20.353,157.208,85.26,181.681,107.789c-0.003-0.243-0.004-0.434-0.004-0.434
	v-82.581L198.194,107.355z"/>
<path style="fill:#A5CDFF;" d="M256,115.617c77.137,0,123.871,16.512,123.871,16.512C379.871,63.717,324.411,8.258,256,8.258
	S132.129,63.717,132.129,132.129C132.129,132.129,178.863,115.617,256,115.617z"/>
<path style="fill:#8CB4EB;" d="M379.871,132.129c0-8.606-0.885-17.004-2.555-25.115C342.923,96.569,300.829,90.839,256,90.839
	c-13.886,0-27.47,0.585-40.65,1.686c-13.527,1.13-22.258-13.789-15.141-25.347c17.622-28.616,46.517-49.52,80.564-56.432
	C272.768,9.12,264.484,8.258,256,8.258c-68.412,0-123.871,55.459-123.871,123.871c0,0,17.824-6.27,49.521-11.084
	c19.711-2.995,44.765-5.428,74.35-5.428C333.137,115.617,379.871,132.129,379.871,132.129z"/>
<path style="fill:#A5CDFF;" d="M256,107.355c-52.04,0-100.995,8.036-136.076,22.194c-4.29,1.731-6.162,6.794-4.237,11l0.014,0.031
	c1.861,4.068,6.589,5.812,10.74,4.144c33.095-13.302,79.693-20.853,129.559-20.853s96.463,7.552,129.559,20.853
	c4.151,1.668,8.879-0.076,10.74-4.144l0.014-0.031c1.925-4.207,0.052-9.269-4.237-11C356.995,115.391,308.04,107.355,256,107.355z"
	/>
<g>
</g>
<g>
</g>
<g>
</g>
<g>
</g>
<g>
</g>
<g>
</g>
<g>
</g>
<g>
</g>
<g>
</g>
<g>
</g>
<g>
</g>
<g>
</g>
<g>
</g>
<g>
</g>
<g>
</g>
</svg>
