<?xml version="1.0" encoding="iso-8859-1"?>
<!-- Generator: Adobe Illustrator 19.0.0, SVG Export Plug-In . SVG Version: 6.00 Build 0)  -->
<svg version="1.1" id="Capa_1" xmlns="http://www.w3.org/2000/svg" xmlns:xlink="http://www.w3.org/1999/xlink" x="0px" y="0px"
	 viewBox="0 0 512 512" style="enable-background:new 0 0 512 512;" xml:space="preserve">
<path style="fill:#B67F5F;" d="M418.626,361.152l-87.036-25.599c-10.544-3.101-17.784-12.778-17.784-23.768v-47.527H198.194v47.527
	c0,10.99-7.24,20.667-17.784,23.768l-87.035,25.599c-21.087,6.202-35.568,25.555-35.568,47.535v78.539
	c0,13.682,11.092,24.774,24.774,24.774H429.42c13.682,0,24.774-11.092,24.774-24.774v-78.539
	C454.194,386.707,439.713,367.354,418.626,361.152z"/>
<path style="fill:#E6646E;" d="M418.626,361.152l-73.505-21.619c-8.149,41.805-44.931,73.37-89.121,73.37
	s-80.972-31.566-89.121-73.37l-73.505,21.619c-21.087,6.202-35.568,25.555-35.568,47.535v78.539
	C57.806,500.908,68.898,512,82.58,512h346.839c13.682,0,24.774-11.092,24.774-24.774v-78.539
	C454.194,386.707,439.714,367.354,418.626,361.152z"/>
<path style="fill:#A06E50;" d="M198.194,290.94c17.35,9.267,37.023,14.609,57.806,14.609c20.783,0,40.457-5.342,57.806-14.609
	v-26.681H198.194V290.94z"/>
<path style="fill:#CD916E;" d="M367.484,148.645h-4.129V99.097h-214.71v49.548h-4.129c-11.402,0-20.645,9.243-20.645,20.645
	s9.243,20.645,20.645,20.645h4.546c4.23,55.419,50.435,99.097,106.938,99.097s102.708-43.678,106.938-99.097h4.546
	c11.402,0,20.645-9.243,20.645-20.645C388.129,157.888,378.886,148.645,367.484,148.645z"/>
<path style="fill:#B67F5F;" d="M346.839,132.129v-16.516H148.645v33.032h-2.951c-10.799,0-20.64,7.77-21.716,18.515
	c-1.238,12.358,8.434,22.775,20.538,22.775h4.546c4.23,55.419,50.435,99.097,106.938,99.097c5.649,0,11.157-0.55,16.568-1.392
	c-51.454-7.941-90.891-52.286-90.891-105.963l0,0c0-18.243,14.789-33.032,33.032-33.032h115.613
	C339.444,148.645,346.839,141.251,346.839,132.129z"/>
<g>
	<path style="fill:#5A4650;" d="M206.452,173.419c-4.565,0-8.258-3.698-8.258-8.258v-8.258c0-4.56,3.694-8.258,8.258-8.258
		s8.258,3.698,8.258,8.258v8.258C214.71,169.722,211.016,173.419,206.452,173.419z"/>
	<path style="fill:#5A4650;" d="M305.548,173.419c-4.565,0-8.258-3.698-8.258-8.258v-8.258c0-4.56,3.694-8.258,8.258-8.258
		c4.565,0,8.258,3.698,8.258,8.258v8.258C313.806,169.722,310.113,173.419,305.548,173.419z"/>
</g>
<path style="fill:#FFE17D;" d="M267.097,461.935c-4.234,0-7.839-3.234-8.218-7.528c-0.403-4.544,2.952-8.552,7.5-8.956
	c5.121-0.456,10.266-1.238,15.29-2.327c4.468-0.94,8.855,1.863,9.823,6.323c0.968,4.46-1.863,8.855-6.323,9.823
	c-5.694,1.23-11.524,2.117-17.339,2.633C267.589,461.923,267.339,461.935,267.097,461.935z M234.202,460.774
	c-0.435,0-0.879-0.032-1.323-0.105c-5.766-0.927-11.524-2.23-17.105-3.867c-4.379-1.282-6.887-5.871-5.605-10.246
	c1.29-4.371,5.879-6.887,10.25-5.601c4.919,1.44,10,2.589,15.089,3.407c4.5,0.726,7.565,4.964,6.839,9.468
	C241.694,457.887,238.185,460.774,234.202,460.774z M314.492,448.492c-3.032,0-5.944-1.669-7.395-4.56
	c-2.04-4.077-0.387-9.04,3.685-11.081c4.581-2.294,9.073-4.911,13.363-7.782c3.774-2.552,8.911-1.532,11.46,2.262
	c2.532,3.79,1.524,8.919-2.266,11.456c-4.863,3.258-9.96,6.23-15.153,8.831C316.992,448.214,315.734,448.492,314.492,448.492z
	 M187.887,443.984c-1.435,0-2.887-0.371-4.21-1.161c-5.016-2.98-9.895-6.306-14.492-9.879c-3.597-2.802-4.242-7.992-1.444-11.589
	c2.806-3.589,7.984-4.242,11.589-1.452c4.056,3.157,8.355,6.093,12.782,8.726c3.919,2.327,5.21,7.395,2.879,11.315
	C193.452,442.544,190.702,443.984,187.887,443.984z M353.613,418.597c-1.968,0-3.944-0.698-5.524-2.117
	c-3.387-3.052-3.669-8.274-0.613-11.665c3.444-3.831,6.677-7.911,9.605-12.125c2.605-3.746,7.742-4.673,11.492-2.073
	s4.677,7.746,2.073,11.492c-3.323,4.778-6.984,9.407-10.895,13.754C358.121,417.673,355.871,418.597,353.613,418.597z
	 M150.976,411.391c-2.468,0-4.895-1.097-6.524-3.19c-3.556-4.573-6.879-9.44-9.879-14.46c-2.339-3.915-1.056-8.988,2.855-11.327
	c3.919-2.335,8.992-1.065,11.323,2.859c2.653,4.448,5.597,8.75,8.734,12.79c2.806,3.601,2.153,8.786-1.444,11.589
	C154.532,410.823,152.742,411.391,150.976,411.391z M379.153,376.48c-0.96,0-1.927-0.169-2.871-0.52
	c-4.282-1.589-6.46-6.343-4.871-10.617c1.798-4.851,3.315-9.835,4.484-14.823c1.04-4.44,5.5-7.218,9.935-6.141
	c4.435,1.044,7.185,5.492,6.145,9.931c-1.339,5.649-3.04,11.294-5.081,16.782C385.661,374.419,382.508,376.48,379.153,376.48z
	 M128.5,367.573c-3.573,0-6.871-2.339-7.927-5.94c-0.71-2.431-1.363-4.891-1.944-7.375c-1.024-4.444,1.742-8.883,6.185-9.911
	c4.444-0.996,8.879,1.738,9.911,6.177c0.5,2.177,1.073,4.331,1.702,6.464c1.282,4.375-1.226,8.964-5.605,10.246
	C130.048,367.464,129.266,367.573,128.5,367.573z"/>
<path style="fill:#FFC350;" d="M74.323,82.581c-4.565,0-8.258,3.698-8.258,8.258c0,4.56,3.694,8.258,8.258,8.258h82.581V82.581
	H74.323z"/>
<path style="fill:#A06E50;" d="M272.516,222.968H256c-4.565,0-8.258-3.698-8.258-8.258s3.694-8.258,8.258-8.258h16.516
	c4.565,0,8.258,3.698,8.258,8.258S277.081,222.968,272.516,222.968z"/>
<path style="fill:#DC4655;" d="M150.959,344.215c10.212,48.658,53.348,85.204,105.041,85.204s94.83-36.546,105.041-85.204
	l-15.92-4.682c-8.149,41.805-44.931,73.37-89.121,73.37s-80.972-31.566-89.121-73.37L150.959,344.215z"/>
<rect x="148.65" y="99.1" style="fill:#E6646E;" width="214.71" height="33.03"/>
<path style="fill:#FFE17D;" d="M330.323,61.935L330.323,61.935c0-6.841,5.546-12.387,12.387-12.387h7.705
	c3.521,0,5.484-3.963,3.477-6.856C336.009,16.915,306.267,0,272.516,0h-33.032c-51.66,0-94.087,39.529-98.684,89.991
	c-0.444,4.87,3.375,9.106,8.265,9.106h213.869c4.867,0,8.707-4.207,8.27-9.054c-0.234-2.595-0.589-5.154-1.041-7.679
	c-0.831-4.64-4.846-8.041-9.561-8.041H342.71C335.868,74.323,330.323,68.777,330.323,61.935z"/>
<path style="fill:#FFD164;" d="M198.984,89.99c4.217-46.29,40.298-83.286,86.108-89.102C280.964,0.364,276.787,0,272.516,0h-33.032
	c-51.66,0-94.087,39.529-98.684,89.99c-0.444,4.87,3.376,9.106,8.266,9.106h58.184C202.359,99.097,198.54,94.86,198.984,89.99z"/>
<path style="fill:#CD916E;" d="M342.71,49.548c-6.841,0-12.387,5.546-12.387,12.387s5.546,12.387,12.387,12.387h17.428
	c-2.267-8.796-5.706-17.102-10.15-24.774C349.988,49.548,342.71,49.548,342.71,49.548z"/>
<g>
</g>
<g>
</g>
<g>
</g>
<g>
</g>
<g>
</g>
<g>
</g>
<g>
</g>
<g>
</g>
<g>
</g>
<g>
</g>
<g>
</g>
<g>
</g>
<g>
</g>
<g>
</g>
<g>
</g>
</svg>
