<?xml version="1.0" encoding="iso-8859-1"?>
<!-- Generator: Adobe Illustrator 19.0.0, SVG Export Plug-In . SVG Version: 6.00 Build 0)  -->
<svg version="1.1" id="Capa_1" xmlns="http://www.w3.org/2000/svg" xmlns:xlink="http://www.w3.org/1999/xlink" x="0px" y="0px"
	 viewBox="0 0 512.001 512.001" style="enable-background:new 0 0 512.001 512.001;" xml:space="preserve">
<path style="fill:#5A4650;" d="M148.645,396.387c0,0-57.807-108.982-57.807-220.896l0,0c0-62.386,33.032-117.684,90.839-150.717
	h49.548v371.613L148.645,396.387L148.645,396.387z"/>
<path style="fill:#64505A;" d="M363.355,388.129c0,0,66.065-107.355,66.065-214.71l0,0C429.419,77.642,351.777,0,256,0h-16.516
	c-41.29,0-74.323,25.881-74.323,57.806l0,0c0,18.243,14.789,33.032,33.032,33.032h33.032v297.29h132.13V388.129z"/>
<path style="fill:#FFE17D;" d="M156.903,256c0,9.122-7.395,16.516-16.516,16.516c-9.122,0-16.516-7.395-16.516-16.516
	c0-16.516,16.516-49.548,16.516-49.548S156.903,239.484,156.903,256z"/>
<path style="fill:#FFD164;" d="M140.387,206.452c0,0-16.516,33.032-16.516,49.548c0,9.121,7.395,16.516,16.516,16.516V206.452z"/>
<path style="fill:#FFE17D;" d="M388.129,256c0,9.122-7.395,16.516-16.516,16.516c-9.122,0-16.516-7.395-16.516-16.516
	c0-16.516,16.516-49.548,16.516-49.548S388.129,239.484,388.129,256z"/>
<path style="fill:#FFD164;" d="M371.613,206.452c0,0-16.516,33.032-16.516,49.548c0,9.121,7.395,16.516,16.516,16.516V206.452z"/>
<path style="fill:#E3AA75;" d="M412.878,401.236l-85.291-30.103c-13.207-4.661-22.039-17.144-22.039-31.149V297.29h-99.097v42.694
	c0,14.005-8.832,26.488-22.038,31.149l-85.291,30.103c-19.81,6.992-33.057,25.716-33.057,46.723v39.267
	c0,13.682,11.092,24.774,24.774,24.774h330.323c13.682,0,24.774-11.092,24.774-24.774V447.96
	C445.935,426.952,432.688,408.228,412.878,401.236z"/>
<path style="fill:#D29B6E;" d="M256,330.323c17.548,0,34.301-3.824,49.548-10.567V297.29h-99.097v22.466
	C221.699,326.498,238.452,330.323,256,330.323z"/>
<path style="fill:#F5B97D;" d="M367.484,173.419h-4.129v-33.032c0-27.365-22.183-49.548-49.548-49.548H198.194
	c-27.365,0-49.548,22.183-49.548,49.548v33.032h-4.129c-11.402,0-20.645,9.243-20.645,20.645c0,11.402,9.243,20.645,20.645,20.645
	h4.546c4.23,55.419,50.435,99.097,106.938,99.097s102.708-43.678,106.938-99.097h4.546c11.402,0,20.645-9.243,20.645-20.645
	C388.129,182.662,378.886,173.419,367.484,173.419z"/>
<g>
	<path style="fill:#5A4650;" d="M206.452,198.911c-4.565,0-8.258-3.694-8.258-8.258v-8.258c0-4.565,3.694-8.258,8.258-8.258
		s8.258,3.694,8.258,8.258v8.258C214.71,195.218,211.016,198.911,206.452,198.911z"/>
	<path style="fill:#5A4650;" d="M305.548,198.911c-4.565,0-8.258-3.694-8.258-8.258v-8.258c0-4.565,3.694-8.258,8.258-8.258
		c4.565,0,8.258,3.694,8.258,8.258v8.258C313.806,195.218,310.113,198.911,305.548,198.911z"/>
</g>
<path style="fill:#B67F5F;" d="M256,264.258c-12.395,0-23.823-3.976-30.573-10.637c-3.25-3.21-3.282-8.435-0.081-11.677
	c3.218-3.258,8.444-3.282,11.677-0.081c2.75,2.71,9.363,5.879,18.976,5.879c9.613,0,16.226-3.169,18.976-5.879
	c3.234-3.202,8.46-3.177,11.677,0.081c3.202,3.242,3.169,8.468-0.081,11.677C279.823,260.282,268.395,264.258,256,264.258z"/>
<g>
	<path style="fill:#A06E50;" d="M198.202,165.677c-3.097,0-6.056-1.742-7.468-4.722c-1.96-4.121-0.194-9.048,3.927-11l9.806-4.645
		c4.105-1.956,9.04-0.194,10.992,3.927c1.96,4.121,0.194,9.048-3.927,11l-9.806,4.645
		C200.589,165.419,199.387,165.677,198.202,165.677z"/>
	<path style="fill:#A06E50;" d="M313.798,165.677c-1.185,0-2.387-0.258-3.524-0.794l-9.806-4.645c-4.121-1.952-5.887-6.879-3.927-11
		c1.952-4.117,6.895-5.875,10.992-3.927l9.806,4.645c4.121,1.952,5.887,6.879,3.927,11
		C319.855,163.935,316.895,165.677,313.798,165.677z"/>
</g>
<path style="fill:#FF8250;" d="M412.878,401.236l-19.364-6.834c-31.699,41.305-81.423,68.05-137.514,68.05
	s-105.816-26.745-137.514-68.05l-19.364,6.835c-19.81,6.991-33.057,25.716-33.057,46.723v39.267
	c0,13.682,11.092,24.774,24.774,24.774h330.323c13.682,0,24.774-11.092,24.774-24.774V447.96
	C445.935,426.952,432.688,408.228,412.878,401.236z"/>
<path style="fill:#DC7346;" d="M256,462.452c-56.09,0-105.816-26.745-137.514-68.05l-16.443,5.804
	c34.504,47.699,90.587,78.763,153.957,78.763s119.453-31.064,153.957-78.763l-16.444-5.803
	C361.815,435.707,312.09,462.452,256,462.452z"/>
<path style="fill:#E3AA75;" d="M148.645,140.387v33.032h-2.951c-10.799,0-20.64,7.77-21.716,18.515
	c-1.238,12.358,8.434,22.775,20.538,22.775h4.546c4.23,55.419,50.435,99.097,106.938,99.097c5.649,0,11.157-0.55,16.568-1.392
	c-51.454-7.941-90.891-52.286-90.891-105.963v-66.065c0-18.243,14.789-33.032,33.032-33.032h90.839
	c9.121,0,16.516-7.395,16.516-16.516h-123.87C170.829,90.839,148.645,113.022,148.645,140.387z"/>
<g>
</g>
<g>
</g>
<g>
</g>
<g>
</g>
<g>
</g>
<g>
</g>
<g>
</g>
<g>
</g>
<g>
</g>
<g>
</g>
<g>
</g>
<g>
</g>
<g>
</g>
<g>
</g>
<g>
</g>
</svg>
