<?xml version="1.0" encoding="iso-8859-1"?>
<!-- Generator: Adobe Illustrator 19.0.0, SVG Export Plug-In . SVG Version: 6.00 Build 0)  -->
<svg version="1.1" id="Capa_1" xmlns="http://www.w3.org/2000/svg" xmlns:xlink="http://www.w3.org/1999/xlink" x="0px" y="0px"
	 viewBox="0 0 512 512" style="enable-background:new 0 0 512 512;" xml:space="preserve">
<path style="fill:#F7D291;" d="M418.628,361.152l-87.036-25.599c-10.544-3.101-17.784-12.778-17.784-23.768v-39.269H198.195v39.269
	c0,10.99-7.24,20.667-17.784,23.768l-87.036,25.599c-21.087,6.202-35.568,25.555-35.568,47.535v62.023
	c0,13.682,11.092,41.29,24.774,41.29h346.839c13.682,0,24.774-27.608,24.774-41.29v-62.023
	C454.195,386.707,439.715,367.354,418.628,361.152z"/>
<path style="fill:#CD916E;" d="M418.628,361.152l-87.036-25.599c-1.472-0.433,8.323,3.703,6.99,3.028l-82.585,24.774l-82.577-24.774
	c-1.332,0.675,8.462-3.461,6.99-3.028l-87.036,25.599c-21.087,6.202-35.568,25.555-35.568,47.535v78.539
	C57.806,500.908,68.898,512,82.58,512h346.839c13.682,0,24.774-11.092,24.774-24.774v-78.539
	C454.195,386.707,439.715,367.354,418.628,361.152z"/>
<path style="fill:#EDEBED;" d="M335.749,352.263l-9.847-9.847l-69.9,12.68l-69.9-12.68l-9.847,9.847
	c-12.39,12.389-19.35,29.193-19.35,46.715V512h198.194V398.978C355.098,381.456,348.138,364.652,335.749,352.263z"/>
<path style="fill:#DBD9DC;" d="M335.749,352.263l-9.847-9.847l-69.9,12.68l-69.9-12.68l-9.847,9.847
	c-4.054,4.053-7.461,8.615-10.298,13.485l30.513,34.872c4.704,5.376,11.5,8.46,18.646,8.46c6.616,0,12.837-2.577,17.517-7.257
	l23.369-23.369l23.37,23.37c4.678,4.679,10.899,7.256,17.516,7.256c7.146,0,13.943-3.084,18.647-8.461l30.513-34.871
	C343.21,360.879,339.802,356.317,335.749,352.263z"/>
<polygon style="fill:#E3AA75;" points="244.074,396.387 231.227,512 280.775,512 267.93,396.387 "/>
<path style="fill:#D29B6E;" d="M266.565,404.645h-21.128c-3.555,0-6.71-2.275-7.834-5.647l-14.634-43.902h66.065L274.4,398.998
	C273.275,402.371,270.12,404.645,266.565,404.645z"/>
<path style="fill:#F0C382;" d="M198.195,290.945c17.349,9.267,37.024,14.604,57.806,14.604s40.457-5.337,57.806-14.604v-18.428
	H198.195V290.945z"/>
<g>
	<path style="fill:#B7B2B8;" d="M87.076,171.154l18.311,24.415c1.378,1.838,1.986,4.147,1.549,6.402
		c-0.509,2.631-1.43,5.595-2.466,8.45c-2.868,7.903,0.824,16.62,8.368,20.331c12.854,6.323,34.036,14.574,60.582,16.99V41.29
		c-61.722,20.574-83.577,92.407-89.213,116.171C83.075,162.24,84.131,167.225,87.076,171.154z"/>
	<path style="fill:#B7B2B8;" d="M424.926,171.154l-18.311,24.415c-1.378,1.838-1.986,4.147-1.549,6.402
		c0.509,2.631,1.43,5.595,2.466,8.45c2.868,7.903-0.824,16.62-8.368,20.331c-12.854,6.323-34.036,14.574-60.582,16.99V41.29
		c61.722,20.574,83.577,92.407,89.213,116.171C428.928,162.24,427.872,167.225,424.926,171.154z"/>
</g>
<path style="fill:#FFE1A0;" d="M371.615,149.061v-33.449C371.615,51.762,319.853,0,256.001,0S140.388,51.762,140.388,115.613v33.449
	c-9.423,1.913-16.516,10.241-16.516,20.229c0,11.402,9.243,20.645,20.645,20.645h4.546c4.23,55.419,50.435,99.097,106.938,99.097
	s102.708-43.678,106.938-99.097h4.546c11.402,0,20.645-9.243,20.645-20.645C388.13,159.302,381.038,150.975,371.615,149.061z"/>
<g>
	<rect x="189.941" y="140.39" style="fill:#F7D291;" width="41.29" height="20.465"/>
	<rect x="280.771" y="140.39" style="fill:#F7D291;" width="41.29" height="20.465"/>
	<path style="fill:#F7D291;" d="M189.936,181.677v-74.323c0-52.322,37.448-95.846,86.992-105.368C270.133,0.742,263.159,0,256.001,0
		C192.15,0,140.388,51.762,140.388,115.613v33.449c-9.423,1.913-16.516,10.241-16.516,20.229c0,11.402,9.243,20.645,20.645,20.645
		h4.546c4.23,55.419,50.435,99.097,106.938,99.097c7.103,0,14.042-0.696,20.757-2.013
		C227.298,277.432,189.936,233.94,189.936,181.677z"/>
</g>
<path style="fill:#6E5A64;" d="M210.582,165.161c-4.565,0-8.258-3.698-8.258-8.258v-8.258c0-4.56,3.694-8.258,8.258-8.258
	s8.258,3.698,8.258,8.258v8.258C218.84,161.464,215.146,165.161,210.582,165.161z"/>
<path style="fill:#E3AA75;" d="M256.001,231.226c-12.395,0-23.823-3.976-30.573-10.637c-3.25-3.21-3.282-8.435-0.081-11.677
	c3.218-3.242,8.444-3.282,11.677-0.081c2.75,2.71,9.363,5.879,18.976,5.879c9.613,0,16.226-3.169,18.976-5.879
	c3.234-3.202,8.46-3.161,11.677,0.081c3.202,3.242,3.169,8.468-0.081,11.677C279.824,227.25,268.396,231.226,256.001,231.226z"/>
<path style="fill:#9C969E;" d="M222.969,123.871h-24.774c-4.565,0-8.258-3.698-8.258-8.258c0-4.56,3.694-8.258,8.258-8.258h24.774
	c4.565,0,8.258,3.698,8.258,8.258C231.227,120.173,227.533,123.871,222.969,123.871z"/>
<path style="fill:#6E5A64;" d="M301.421,165.161c-4.565,0-8.258-3.698-8.258-8.258v-8.258c0-4.56,3.694-8.258,8.258-8.258
	s8.258,3.698,8.258,8.258v8.258C309.678,161.464,305.986,165.161,301.421,165.161z"/>
<path style="fill:#9C969E;" d="M313.807,123.871h-24.774c-4.565,0-8.258-3.698-8.258-8.258c0-4.56,3.694-8.258,8.258-8.258h24.774
	c4.565,0,8.258,3.698,8.258,8.258C322.066,120.173,318.372,123.871,313.807,123.871z"/>
<g>
	<path style="fill:#5D5360;" d="M181.678,156.903h-41.29c-4.565,0-8.258-3.698-8.258-8.258s3.694-8.258,8.258-8.258h41.29
		c4.565,0,8.258,3.698,8.258,8.258S186.243,156.903,181.678,156.903z"/>
	<path style="fill:#5D5360;" d="M371.615,156.903h-41.29c-4.565,0-8.258-3.698-8.258-8.258s3.694-8.258,8.258-8.258h41.29
		c4.565,0,8.258,3.698,8.258,8.258S376.178,156.903,371.615,156.903z"/>
	<path style="fill:#5D5360;" d="M272.517,173.419c-4.565,0-8.258-3.694-8.258-8.258c0-4.552-3.702-8.258-8.258-8.258
		s-8.258,3.706-8.258,8.258c0,4.565-3.694,8.258-8.258,8.258s-8.258-3.694-8.258-8.258c0-13.661,11.113-24.774,24.774-24.774
		s24.774,11.113,24.774,24.774C280.775,169.726,277.082,173.419,272.517,173.419z"/>
</g>
<path style="fill:#9C969E;" d="M256.001,305.548L256.001,305.548c-13.682,0-24.774-11.092-24.774-24.774v-16.516
	c0-4.561,3.697-8.258,8.258-8.258h33.032c4.561,0,8.258,3.697,8.258,8.258v16.516C280.775,294.457,269.684,305.548,256.001,305.548z
	"/>
<g>
	<path style="fill:#FFFFFF;" d="M192.678,319.917l-21.76,26.421l37.98,43.405c3.146,3.595,8.676,3.779,12.054,0.401l35.049-35.047
		L192.678,319.917z"/>
	<path style="fill:#FFFFFF;" d="M319.324,319.917l21.76,26.421l-37.98,43.405c-3.146,3.595-8.676,3.779-12.054,0.401l-35.049-35.047
		L319.324,319.917z"/>
</g>
<g>
	<path style="fill:#B67F5F;" d="M115.615,512l-14.549-65.472c-1.225-5.512,0.451-11.269,4.444-15.262l26.621-26.621l-12.248-18.372
		c-2.883-4.325-3.501-9.755-1.86-14.688c19.691-59.175,80.172-74.295,80.172-74.295v15.929c0,10.951-4.35,21.453-12.094,29.197
		l-9.847,9.847c-12.39,12.389-19.35,29.193-19.35,46.715V512"/>
	<path style="fill:#B67F5F;" d="M396.388,512l14.549-65.472c1.225-5.512-0.451-11.269-4.444-15.262l-26.621-26.621l12.248-18.372
		c2.883-4.325,3.501-9.755,1.86-14.688c-19.691-59.175-80.172-74.295-80.172-74.295v15.929c0,10.951,4.35,21.453,12.094,29.197
		l9.847,9.847c12.389,12.389,19.35,29.193,19.35,46.715V512"/>
</g>
<g>
	<path style="fill:#6F6571;" d="M222.969,189.935h-24.774c-13.661,0-24.774-11.113-24.774-24.774v-24.774
		c0-4.56,3.694-8.258,8.258-8.258h57.806c4.565,0,8.258,3.698,8.258,8.258v24.774C247.743,178.823,236.63,189.935,222.969,189.935z
		 M189.936,148.645v16.516c0,4.556,3.702,8.258,8.258,8.258h24.774c4.556,0,8.258-3.702,8.258-8.258v-16.516H189.936z"/>
	<path style="fill:#6F6571;" d="M313.807,189.935h-24.774c-13.661,0-24.774-11.113-24.774-24.774v-24.774
		c0-4.56,3.694-8.258,8.258-8.258h57.806c4.565,0,8.258,3.698,8.258,8.258v24.774C338.582,178.823,327.469,189.935,313.807,189.935z
		 M280.775,148.645v16.516c0,4.556,3.702,8.258,8.258,8.258h24.774c4.556,0,8.258-3.702,8.258-8.258v-16.516H280.775z"/>
</g>
<g>
</g>
<g>
</g>
<g>
</g>
<g>
</g>
<g>
</g>
<g>
</g>
<g>
</g>
<g>
</g>
<g>
</g>
<g>
</g>
<g>
</g>
<g>
</g>
<g>
</g>
<g>
</g>
<g>
</g>
</svg>
