<?xml version="1.0" encoding="iso-8859-1"?>
<!-- Generator: Adobe Illustrator 19.0.0, SVG Export Plug-In . SVG Version: 6.00 Build 0)  -->
<svg version="1.1" id="Capa_1" xmlns="http://www.w3.org/2000/svg" xmlns:xlink="http://www.w3.org/1999/xlink" x="0px" y="0px"
	 viewBox="0 0 512 512" style="enable-background:new 0 0 512 512;" xml:space="preserve">
<g>
	<circle style="fill:#E6646E;" cx="132.13" cy="57.806" r="57.806"/>
	<circle style="fill:#E6646E;" cx="379.87" cy="57.806" r="57.806"/>
</g>
<path style="fill:#DC4655;" d="M383.832,206.452c7.993-17.645,12.555-37.175,12.555-57.806C396.387,71.111,333.534,8.258,256,8.258
	S115.613,71.111,115.613,148.645c0,20.632,4.561,40.161,12.555,57.806L383.832,206.452L383.832,206.452z"/>
<path style="fill:#E3AA75;" d="M412.878,409.494l-85.291-30.103c-13.207-4.661-22.039-17.144-22.039-31.149v-42.694h-99.097v42.694
	c0,14.005-8.832,26.488-22.039,31.149l-85.291,30.103c-19.81,6.992-33.057,25.716-33.057,46.723v31.009
	c0,13.682,11.092,24.774,24.774,24.774h330.323c13.682,0,24.774-11.092,24.774-24.774v-31.009
	C445.935,435.21,432.688,416.486,412.878,409.494z"/>
<path style="fill:#E6646E;" d="M412.878,409.494l-32.883-11.606c-30.269,34.45-74.532,56.305-123.995,56.305
	s-93.726-21.855-123.995-56.305l-32.883,11.606c-19.81,6.991-33.057,25.716-33.057,46.723v31.009
	c0,13.682,11.092,24.774,24.774,24.774h330.323c13.682,0,24.774-11.092,24.774-24.774v-31.009
	C445.935,435.21,432.688,416.485,412.878,409.494z"/>
<path style="fill:#D29B6E;" d="M206.452,328.014c15.247,6.742,32.001,10.567,49.548,10.567s34.301-3.824,49.548-10.567v-22.466
	h-99.097L206.452,328.014L206.452,328.014z"/>
<path style="fill:#F5B97D;" d="M367.484,181.677h-4.129v-8.258c0-59.291-48.065-107.355-107.355-107.355
	s-107.355,48.064-107.355,107.355v8.258h-4.129c-11.402,0-20.645,9.243-20.645,20.645c0,11.402,9.243,20.645,20.645,20.645h4.546
	c4.23,55.419,50.435,99.097,106.938,99.097s102.708-43.678,106.938-99.097h4.546c11.402,0,20.645-9.243,20.645-20.645
	C388.129,190.92,378.886,181.677,367.484,181.677z"/>
<path style="fill:#E3AA75;" d="M181.677,214.71v-41.29c0-8.185,0.923-16.149,2.667-23.798c4.958-21.744,29.663-31.787,49.062-20.783
	c39.032,22.14,83.214,34.677,129.519,36.075c-4.478-56.965-53.319-101.457-112.04-98.73c-57.816,2.684-102.24,48.042-102.24,109.128
	v6.366h-2.951c-12.107,0-20.64,7.77-21.716,18.515c-1.238,12.358,8.434,22.775,20.538,22.775h4.546
	c4.23,55.419,50.435,99.097,106.938,99.097c5.649,0,11.157-0.55,16.568-1.392C221.114,312.732,181.677,268.387,181.677,214.71z"/>
<path style="fill:#B67F5F;" d="M256,272.516c-12.395,0-23.823-3.976-30.573-10.637c-3.25-3.21-3.282-8.435-0.081-11.677
	c3.218-3.25,8.444-3.282,11.677-0.081c2.75,2.71,9.363,5.879,18.976,5.879s16.226-3.169,18.976-5.879
	c3.234-3.202,8.46-3.169,11.677,0.081c3.202,3.242,3.169,8.468-0.081,11.677C279.823,268.54,268.395,272.516,256,272.516z"/>
<g>
	<path style="fill:#5A4650;" d="M206.452,206.452c-4.565,0-8.258-3.694-8.258-8.258v-8.258c0-4.565,3.694-8.258,8.258-8.258
		s8.258,3.694,8.258,8.258v8.258C214.71,202.758,211.016,206.452,206.452,206.452z"/>
	<path style="fill:#5A4650;" d="M305.548,206.452c-4.565,0-8.258-3.694-8.258-8.258v-8.258c0-4.565,3.694-8.258,8.258-8.258
		c4.565,0,8.258,3.694,8.258,8.258v8.258C313.806,202.758,310.113,206.452,305.548,206.452z"/>
</g>
<g>
	<path style="fill:#6E5A64;" d="M206.452,173.419c-0.065,0-0.129,0-0.202,0l-8.258-0.202c-4.556-0.113-8.161-3.903-8.056-8.46
		c0.113-4.492,3.79-8.056,8.258-8.056c0.065,0,0.129,0,0.202,0.004l8.258,0.202c4.556,0.109,8.161,3.895,8.056,8.456
		C214.597,169.855,210.919,173.419,206.452,173.419z"/>
	<path style="fill:#6E5A64;" d="M305.548,173.419c-4.468,0-8.145-3.565-8.258-8.056c-0.105-4.56,3.5-8.347,8.056-8.456l8.258-0.202
		c4.887-0.206,8.347,3.496,8.46,8.052c0.105,4.556-3.5,8.347-8.056,8.46l-8.258,0.202
		C305.685,173.419,305.613,173.419,305.548,173.419z"/>
</g>
<path style="fill:#E6646E;" d="M256,8.258c-36.349,0-69.361,13.932-94.293,36.597c48.294,63.077,124.328,103.79,209.906,103.79
	c8.338,0,16.573-0.433,24.714-1.189C395.681,70.476,333.133,8.258,256,8.258z"/>
<path style="fill:#DC4655;" d="M256,470.71c56.794,0,107.486-26.074,140.801-66.89l-16.806-5.931
	c-30.269,34.45-74.532,56.305-123.995,56.305s-93.726-21.855-123.995-56.305l-16.806,5.931
	C148.514,444.636,199.206,470.71,256,470.71z"/>
<g>
	<path style="fill:#FFE17D;" d="M182.679,413.905l-25.058-25.058l-58.499,20.647c-19.81,6.991-33.057,25.716-33.057,46.723v31.009
		c0,13.682,11.092,24.774,24.774,24.774h99.097v-80.577C189.935,424.852,187.325,418.551,182.679,413.905z"/>
	<path style="fill:#FFE17D;" d="M329.321,413.905l25.058-25.058l58.499,20.647c19.81,6.991,33.057,25.716,33.057,46.723v31.009
		c0,13.682-11.092,24.774-24.774,24.774h-99.097v-80.577C322.065,424.852,324.675,418.551,329.321,413.905z"/>
</g>
<g>
</g>
<g>
</g>
<g>
</g>
<g>
</g>
<g>
</g>
<g>
</g>
<g>
</g>
<g>
</g>
<g>
</g>
<g>
</g>
<g>
</g>
<g>
</g>
<g>
</g>
<g>
</g>
<g>
</g>
</svg>
