<?xml version="1.0" encoding="iso-8859-1"?>
<!-- Generator: Adobe Illustrator 19.0.0, SVG Export Plug-In . SVG Version: 6.00 Build 0)  -->
<svg version="1.1" id="Capa_1" xmlns="http://www.w3.org/2000/svg" xmlns:xlink="http://www.w3.org/1999/xlink" x="0px" y="0px"
	 viewBox="0 0 512 512" style="enable-background:new 0 0 512 512;" xml:space="preserve">
<path style="fill:#F7D291;" d="M418.626,361.152l-87.035-25.599c-10.544-3.101-17.784-12.778-17.784-23.768v-47.527H198.195v47.527
	c0,10.99-7.24,20.667-17.784,23.768l-87.036,25.599c-21.087,6.202-35.568,25.555-35.568,47.535v78.539
	c0,13.682,11.092,24.774,24.774,24.774h346.839c13.682,0,24.774-11.092,24.774-24.774v-78.539
	C454.194,386.707,439.714,367.354,418.626,361.152z"/>
<path style="fill:#F0C382;" d="M198.195,290.94c17.35,9.267,37.023,14.609,57.806,14.609c20.783,0,40.457-5.342,57.806-14.609
	v-26.681H198.195V290.94z"/>
<path style="fill:#FFE1A0;" d="M371.613,149.061v-33.449C371.613,51.762,319.852,0,256,0S140.387,51.762,140.387,115.613v33.449
	c-9.423,1.913-16.516,10.241-16.516,20.229c0,11.402,9.243,20.645,20.645,20.645h4.546c4.23,55.419,50.435,99.097,106.938,99.097
	s102.708-43.678,106.938-99.097h4.546c11.402,0,20.645-9.243,20.645-20.645C388.129,159.302,381.036,150.975,371.613,149.061z"/>
<path style="fill:#F7D291;" d="M189.936,181.677V61.008c0-16.302-21.234-22.832-30.269-9.262
	c-12.177,18.29-19.279,40.24-19.279,63.867v33.449c-10.555,2.143-18.185,12.333-16.201,23.889
	c1.72,10.017,11.025,16.985,21.189,16.985h3.688c4.23,55.419,50.435,99.097,106.938,99.097c7.103,0,14.042-0.696,20.757-2.013
	C227.298,277.432,189.936,233.94,189.936,181.677z"/>
<path style="fill:#5A4650;" d="M210.581,173.419c-4.565,0-8.258-3.694-8.258-8.258v-8.258c0-4.56,3.694-8.258,8.258-8.258
	s8.258,3.698,8.258,8.258v8.258C218.84,169.726,215.146,173.419,210.581,173.419z"/>
<path style="fill:#8C5F4B;" d="M189.928,140.387c-3.702,0-7.065-2.504-8-6.254c-1.113-4.427,1.581-8.911,6.008-10.016l33.032-8.258
	c4.419-1.117,8.903,1.585,10.008,6.008c1.113,4.427-1.581,8.911-6.008,10.016l-33.032,8.258
	C191.267,140.31,190.59,140.387,189.928,140.387z"/>
<path style="fill:#5A4650;" d="M301.419,173.419c-4.565,0-8.258-3.694-8.258-8.258v-8.258c0-4.56,3.694-8.258,8.258-8.258
	s8.258,3.698,8.258,8.258v8.258C309.677,169.726,305.984,173.419,301.419,173.419z"/>
<path style="fill:#8C5F4B;" d="M322.073,140.387c-0.661,0-1.339-0.077-2.008-0.246l-33.032-8.258
	c-4.427-1.105-7.121-5.589-6.008-10.016c1.105-4.423,5.573-7.133,10.008-6.008l33.032,8.258c4.427,1.105,7.121,5.589,6.008,10.016
	C329.137,137.883,325.774,140.387,322.073,140.387z"/>
<g>
	<path style="fill:#CBA274;" d="M256,470.71c-4.565,0-8.258-3.694-8.258-8.258v-49.548c0-4.565,3.694-8.258,8.258-8.258
		c4.564,0,8.258,3.694,8.258,8.258v49.548C264.258,467.016,260.565,470.71,256,470.71z"/>
	<path style="fill:#CBA274;" d="M289.033,462.452c-4.565,0-8.258-3.694-8.258-8.258v-33.032c0-4.565,3.694-8.258,8.258-8.258
		s8.258,3.694,8.258,8.258v33.032C297.29,458.758,293.597,462.452,289.033,462.452z"/>
	<path style="fill:#CBA274;" d="M222.969,462.452c-4.565,0-8.258-3.694-8.258-8.258v-33.032c0-4.565,3.694-8.258,8.258-8.258
		s8.258,3.694,8.258,8.258v33.032C231.227,458.758,227.533,462.452,222.969,462.452z"/>
	<path style="fill:#CBA274;" d="M280.783,44.802c-0.75,0-1.508-0.105-2.258-0.319c-14.968-4.234-30.081-4.234-45.048,0
		c-4.347,1.234-8.96-1.294-10.194-5.694c-1.242-4.387,1.306-8.952,5.694-10.194c17.903-5.073,36.145-5.073,54.048,0
		c4.387,1.242,6.935,5.806,5.694,10.194C287.694,42.427,284.379,44.802,280.783,44.802z"/>
</g>
<g>
	<path style="fill:#A06E50;" d="M144.517,148.645L144.517,148.645c6.841,0,12.387-5.546,12.387-12.387v-28.02
		c0-8.227-5.622-15.852-13.742-17.173c-10.348-1.683-19.29,6.259-19.29,16.29v61.935
		C123.872,157.888,133.115,148.645,144.517,148.645z"/>
	<path style="fill:#A06E50;" d="M367.484,148.645L367.484,148.645c-6.841,0-12.387-5.546-12.387-12.387v-28.02
		c0-8.227,5.622-15.852,13.742-17.173c10.348-1.683,19.29,6.259,19.29,16.29v61.935
		C388.129,157.888,378.886,148.645,367.484,148.645z"/>
</g>
<path style="fill:#F0C382;" d="M272.516,231.226h-33.032c-9.122,0-16.516-7.395-16.516-16.516v-8.258L256,198.194l33.032,8.258
	v8.258C289.033,223.831,281.638,231.226,272.516,231.226z"/>
<g>
	<path style="fill:#A06E50;" d="M206.452,222.968h24.774c13.682,0,24.774-11.092,24.774-24.774h-24.774
		C217.544,198.194,206.452,209.285,206.452,222.968z"/>
	<path style="fill:#A06E50;" d="M280.774,198.194H256c0,13.682,11.092,24.774,24.774,24.774h24.774
		C305.548,209.285,294.457,198.194,280.774,198.194z"/>
</g>
<path style="fill:#EDEBED;" d="M165.161,363.355v-23.317l-41.29,12.144V512h264.258V352.182l-41.29-12.144v23.317
	c0,50.169-40.67,90.839-90.839,90.839S165.161,413.524,165.161,363.355z"/>
<path style="fill:#FFFFFF;" d="M346.839,340.038v23.317c0,50.169-40.67,90.839-90.839,90.839s-90.839-40.67-90.839-90.839v-23.317
	l-16.516,4.858v18.459c0,59.29,48.065,107.355,107.355,107.355s107.355-48.065,107.355-107.355v-18.459L346.839,340.038z"/>
<g>
</g>
<g>
</g>
<g>
</g>
<g>
</g>
<g>
</g>
<g>
</g>
<g>
</g>
<g>
</g>
<g>
</g>
<g>
</g>
<g>
</g>
<g>
</g>
<g>
</g>
<g>
</g>
<g>
</g>
</svg>
