<?xml version="1.0" encoding="iso-8859-1"?>
<!-- Generator: Adobe Illustrator 19.0.0, SVG Export Plug-In . SVG Version: 6.00 Build 0)  -->
<svg version="1.1" id="Capa_1" xmlns="http://www.w3.org/2000/svg" xmlns:xlink="http://www.w3.org/1999/xlink" x="0px" y="0px"
	 viewBox="0 0 512 512" style="enable-background:new 0 0 512 512;" xml:space="preserve">
<path style="fill:#F7D291;" d="M418.627,385.926l-87.036-25.599c-10.544-3.101-17.784-12.778-17.784-23.768v-64.043H198.195v64.043
	c0,10.99-7.24,20.667-17.784,23.768l-87.036,25.599c-21.087,6.202-35.568,25.555-35.568,47.535v53.765
	c0,13.682,11.092,24.774,24.774,24.774H429.42c13.682,0,24.774-11.092,24.774-24.774v-53.765
	C454.195,411.481,439.714,392.128,418.627,385.926z"/>
<path style="fill:#F0C382;" d="M256.001,346.839c21.289,0,41.099-6.305,57.806-17.037v-57.286H198.195v57.286
	C214.902,340.533,234.712,346.839,256.001,346.839z"/>
<path style="fill:#B67F5F;" d="M418.627,385.926l-87.036-25.599c-0.827-0.243-1.594-0.595-2.378-0.916l-73.212,12.202
	l-73.212-12.202c-0.784,0.322-1.551,0.673-2.378,0.916l-87.036,25.599c-21.087,6.202-35.568,25.555-35.568,47.535v53.765
	C57.806,500.908,68.898,512,82.58,512h346.839c13.682,0,24.774-11.092,24.774-24.774v-53.765
	C454.195,411.481,439.714,392.128,418.627,385.926z"/>
<path style="fill:#FFE1A0;" d="M367.485,156.903h-4.129V66.065h-214.71v90.839h-4.129c-11.402,0-20.645,9.243-20.645,20.645
	c0,11.402,9.243,20.645,20.645,20.645h4.546c4.23,55.419,50.435,99.097,106.938,99.097s102.708-43.678,106.938-99.097h4.546
	c11.402,0,20.645-9.243,20.645-20.645C388.13,166.146,378.887,156.903,367.485,156.903z"/>
<path style="fill:#F7D291;" d="M148.646,66.065v90.839h-2.951c-10.799-0.001-20.64,7.77-21.716,18.515
	c-1.238,12.358,8.433,22.775,20.538,22.775h4.546c2.067,27.078,14.201,51.306,32.615,69.052V132.129
	c0-18.243,14.789-33.032,33.032-33.032h99.097c9.121,0,16.516-7.395,16.516-16.516V66.065H148.646z"/>
<path style="fill:#FF8250;" d="M322.066,206.452h-132.13c-13.682,0-24.774,11.092-24.774,24.774v8.258
	c0,50.169,40.67,90.839,90.839,90.839l0,0c50.169,0,90.839-40.67,90.839-90.839v-8.258
	C346.84,217.543,335.748,206.452,322.066,206.452z"/>
<g>
	<path style="fill:#6E5A64;" d="M206.452,181.677c-4.565,0-8.258-3.698-8.258-8.258v-8.258c0-4.56,3.694-8.258,8.258-8.258
		s8.258,3.698,8.258,8.258v8.258C214.711,177.98,211.017,181.677,206.452,181.677z"/>
	<path style="fill:#6E5A64;" d="M305.549,181.677c-4.565,0-8.258-3.698-8.258-8.258v-8.258c0-4.56,3.694-8.258,8.258-8.258
		c4.565,0,8.258,3.698,8.258,8.258v8.258C313.807,177.98,310.114,181.677,305.549,181.677z"/>
</g>
<path style="fill:#F7D291;" d="M256.001,256c-12.387,0-23.823-3.976-30.573-10.637c-3.25-3.202-3.282-8.431-0.081-11.677
	s8.444-3.282,11.677-0.081c2.75,2.714,9.371,5.879,18.976,5.879c9.605,0,16.226-3.165,18.976-5.879
	c3.234-3.202,8.476-3.165,11.677,0.081c3.202,3.246,3.169,8.476-0.081,11.677C279.824,252.024,268.388,256,256.001,256z"/>
<path style="fill:#FF8250;" d="M296.4,0H215.6c-49.028,0-87.259,42.467-82.127,91.225l6.913,66.115l8.549-0.151
	c9.007-0.159,16.225-7.506,16.225-16.514V99.097c0-9.122,7.395-16.516,16.516-16.516h107.355h33.033h8.257
	c9.122,0,16.516,7.395,16.516,16.516v41.579c0,9.008,7.218,16.355,16.225,16.514l8.549,0.151l6.913-66.115
	C383.66,42.467,345.428,0,296.4,0z"/>
<g>
	<path style="fill:#DC7346;" d="M214.711,148.645h-16.516c-4.565,0-8.258-3.698-8.258-8.258s3.694-8.258,8.258-8.258h16.516
		c4.565,0,8.258,3.698,8.258,8.258S219.275,148.645,214.711,148.645z"/>
	<path style="fill:#DC7346;" d="M313.807,148.645h-16.516c-4.565,0-8.258-3.698-8.258-8.258s3.694-8.258,8.258-8.258h16.516
		c4.565,0,8.258,3.698,8.258,8.258S318.372,148.645,313.807,148.645z"/>
</g>
<path style="fill:#A06E50;" d="M153.014,375.384l25.884,45.296c4.401,7.701,12.647,12.484,21.522,12.484
	c5.901,0,11.623-2.118,16.111-5.965l39.47-33.833l39.471,33.832c4.488,3.847,10.21,5.966,16.111,5.966
	c8.875,0,17.121-4.783,21.522-12.483l25.883-45.294c1.139-1.992,1.912-4.112,2.456-6.279l-29.852-8.78
	c-0.827-0.243-1.594-0.595-2.378-0.916l-73.213,12.201l-73.212-12.202c-0.784,0.322-1.551,0.673-2.378,0.916l-29.852,8.78
	C151.103,371.273,151.874,373.392,153.014,375.384z"/>
<g>
	<path style="fill:#B67F5F;" d="M205.781,414.658l50.22-43.045l-66.783-37.102c-4.11-2.283-9.294-0.679-11.397,3.526l-10.682,21.365
		c-1.235,2.47-1.154,5.393,0.216,7.79l25.882,45.293C195.809,416.987,201.844,418.032,205.781,414.658z"/>
	<path style="fill:#B67F5F;" d="M306.221,414.658l-50.22-43.045l66.783-37.102c4.11-2.283,9.294-0.679,11.397,3.526l10.682,21.365
		c1.235,2.47,1.154,5.393-0.216,7.79l-25.882,45.293C316.193,416.987,310.157,418.032,306.221,414.658z"/>
</g>
<g>
	<path style="fill:#A06E50;" d="M126.525,438.165L77.19,394.31c-4.415,3.405-8.171,7.51-11.198,12.143l49.565,44.059
		c5.282,4.698,8.315,11.444,8.315,18.516V512h16.516v-42.972C140.387,457.242,135.34,445.992,126.525,438.165z"/>
	<path style="fill:#A06E50;" d="M385.477,438.165l49.335-43.855c4.415,3.405,8.171,7.51,11.198,12.143l-49.565,44.059
		c-5.282,4.698-8.315,11.444-8.315,18.516V512h-16.516v-42.972C371.614,457.242,376.662,445.992,385.477,438.165z"/>
</g>
<g>
	<circle style="fill:#5A4650;" cx="256.001" cy="437.68" r="8.258"/>
	<circle style="fill:#5A4650;" cx="256.001" cy="487.23" r="8.258"/>
</g>
<path style="fill:#DC7346;" d="M289.033,313.806c-50.169,0-90.839-40.67-90.839-90.839v-16.516h-8.258
	c-13.682,0-24.774,11.092-24.774,24.774v8.258c0,50.169,40.67,90.839,90.839,90.839c21.287,0,40.82-7.376,56.305-19.639
	C304.866,312.654,297.093,313.806,289.033,313.806z"/>
<path style="fill:#FF9664;" d="M296.4,0h-80.798c-5.985,0-11.803,0.653-17.407,1.853v14.663c0,27.365,22.183,49.548,49.548,49.548
	h129.539C369.681,28.741,336.721,0,296.4,0z"/>
<g>
</g>
<g>
</g>
<g>
</g>
<g>
</g>
<g>
</g>
<g>
</g>
<g>
</g>
<g>
</g>
<g>
</g>
<g>
</g>
<g>
</g>
<g>
</g>
<g>
</g>
<g>
</g>
<g>
</g>
</svg>
