<?xml version="1.0" encoding="iso-8859-1"?>
<!-- Generator: Adobe Illustrator 19.0.0, SVG Export Plug-In . SVG Version: 6.00 Build 0)  -->
<svg version="1.1" id="Capa_1" xmlns="http://www.w3.org/2000/svg" xmlns:xlink="http://www.w3.org/1999/xlink" x="0px" y="0px"
	 viewBox="0 0 512 512" style="enable-background:new 0 0 512 512;" xml:space="preserve">
<path style="fill:#8C5F4B;" d="M396.042,135.727C391.597,59.487,330.219,0,256,0S120.403,59.487,115.958,135.727l-7.049,116.051
	c-5.303,87.313,62.08,161.125,147.091,161.125l0,0c85.011,0,152.395-73.812,147.091-161.125L396.042,135.727z"/>
<path style="fill:#E3AA75;" d="M412.878,401.236l-85.291-30.103c-13.207-4.661-22.039-17.144-22.039-31.149V297.29h-99.097v42.694
	c0,14.005-8.832,26.488-22.039,31.149l-85.291,30.103c-19.81,6.992-33.057,25.716-33.057,46.723v39.267
	c0,13.682,11.092,24.774,24.774,24.774h330.323c13.682,0,24.774-11.092,24.774-24.774v-39.267
	C445.935,426.952,432.688,408.228,412.878,401.236z"/>
<path style="fill:#D29B6E;" d="M206.452,319.756c15.247,6.742,32.001,10.567,49.548,10.567s34.301-3.824,49.548-10.567V297.29
	h-99.097L206.452,319.756L206.452,319.756z"/>
<path style="fill:#F5B97D;" d="M322.065,99.097h-132.13c-22.804,0-41.29,18.486-41.29,41.29v63.032
	c0,57.806,44.423,107.545,102.165,110.265c61.65,2.903,112.545-46.221,112.545-107.232v-66.065
	C363.355,117.583,344.868,99.097,322.065,99.097z"/>
<g>
	<rect x="181.68" y="173.42" style="fill:#E3AA75;" width="49.548" height="16.516"/>
	<rect x="280.77" y="173.42" style="fill:#E3AA75;" width="49.548" height="16.516"/>
	<path style="fill:#E3AA75;" d="M181.677,203.419v-46.516c0-22.804,18.486-41.29,41.29-41.29h82.581
		c9.122,0,16.516-7.395,16.516-16.516l0,0H189.935c-22.804,0-41.29,18.486-41.29,41.29v62.798c0,48.453,30.805,92.763,77.32,106.33
		c16.169,4.716,31.84,5.265,46.569,2.986C220.407,304.292,181.677,257.386,181.677,203.419z"/>
</g>
<g>
	<path style="fill:#5A4650;" d="M198.194,165.161v17.234c0,4.565,3.694,8.258,8.258,8.258s8.258-3.694,8.258-8.258v-17.234H198.194z
		"/>
	<path style="fill:#5A4650;" d="M297.29,165.161v17.234c0,4.565,3.694,8.258,8.258,8.258c4.565,0,8.258-3.694,8.258-8.258v-17.234
		H297.29z"/>
</g>
<path style="fill:#B67F5F;" d="M256,264.258c-12.395,0-23.823-3.976-30.573-10.637c-3.25-3.21-3.282-8.435-0.081-11.677
	c3.218-3.258,8.444-3.282,11.677-0.081c2.75,2.71,9.363,5.879,18.976,5.879s16.226-3.169,18.976-5.879
	c3.234-3.202,8.46-3.177,11.677,0.081c3.202,3.242,3.169,8.468-0.081,11.677C279.823,260.282,268.395,264.258,256,264.258z"/>
<g>
	<path style="fill:#5A4650;" d="M173.419,173.419h-24.774c-4.565,0-8.258-3.694-8.258-8.258c0-4.56,3.694-8.258,8.258-8.258h24.774
		c4.565,0,8.258,3.698,8.258,8.258C181.677,169.726,177.984,173.419,173.419,173.419z"/>
	<path style="fill:#5A4650;" d="M363.355,173.419h-24.774c-4.565,0-8.258-3.694-8.258-8.258c0-4.56,3.694-8.258,8.258-8.258h24.774
		c4.565,0,8.258,3.698,8.258,8.258C371.613,169.726,367.919,173.419,363.355,173.419z"/>
	<path style="fill:#5A4650;" d="M272.516,181.677h-33.032c-4.565,0-8.258-3.694-8.258-8.258s3.694-8.258,8.258-8.258h33.032
		c4.565,0,8.258,3.694,8.258,8.258S277.081,181.677,272.516,181.677z"/>
</g>
<g>
	<path style="fill:#8C5F4B;" d="M198.185,148.645c-3.702,0-7.065-2.504-8-6.254c-1.113-4.427,1.581-8.911,6.008-10.016l16.516-4.129
		c4.403-1.133,8.903,1.585,10.008,6.008c1.113,4.427-1.581,8.911-6.008,10.016l-16.516,4.129
		C199.524,148.569,198.847,148.645,198.185,148.645z"/>
	<path style="fill:#8C5F4B;" d="M313.815,148.645c-0.661,0-1.339-0.077-2.008-0.246l-16.516-4.129
		c-4.427-1.105-7.121-5.589-6.008-10.016c1.097-4.423,5.589-7.149,10.008-6.008l16.516,4.129c4.427,1.105,7.121,5.589,6.008,10.016
		C320.879,146.141,317.516,148.645,313.815,148.645z"/>
</g>
<path style="fill:#A06E50;" d="M289.032,82.581h93.782C360.24,33.567,311.747,0,256,0c-17.229,0-33.712,3.325-49.006,9.202
	C211.576,50.474,246.539,82.581,289.032,82.581z"/>
<path style="fill:#B4F09B;" d="M90.839,512h330.323c13.682,0,24.774-11.092,24.774-24.774v-39.267
	c0-21.008-13.248-39.732-33.057-46.723l-42.398-14.964c-13.162,15.4-50.673,55.379-104.664,80.345
	c-3.113,1.44-6.464,2.159-9.817,2.159c-3.351,0-6.701-0.72-9.814-2.159c-53.992-24.966-91.502-64.945-104.665-80.345l-42.398,14.964
	c-19.81,6.991-33.057,25.716-33.057,46.723v39.267C66.065,500.908,77.156,512,90.839,512z"/>
<path style="fill:#9BDC9B;" d="M128.359,396.251l0.292,0.385l0.314,0.367c14.281,16.709,53.615,58.4,110.287,84.605
	c5.287,2.445,10.921,3.685,16.746,3.685c5.828,0,11.463-1.24,16.749-3.684c56.675-26.207,96.008-67.898,110.288-84.605l0.314-0.367
	l0.291-0.385l3.191-4.208l-16.351-5.771c-13.162,15.4-50.673,55.379-104.664,80.345c-3.113,1.44-6.464,2.159-9.817,2.159
	c-3.351,0-6.701-0.72-9.814-2.159c-53.992-24.966-91.502-64.945-104.665-80.345l-16.351,5.771L128.359,396.251z"/>
<g>
	<path style="fill:#64505A;" d="M305.548,222.968c-22.766,0-41.29-18.524-41.29-41.29v-16.516c0-4.56,3.694-8.258,8.258-8.258
		h66.065c4.565,0,8.258,3.698,8.258,8.258v16.516C346.839,204.444,328.315,222.968,305.548,222.968z M280.774,173.419v8.258
		c0,13.661,11.113,24.774,24.774,24.774c13.661,0,24.774-11.113,24.774-24.774v-8.258H280.774z"/>
	<path style="fill:#64505A;" d="M206.452,222.968c-22.766,0-41.29-18.524-41.29-41.29v-16.516c0-4.56,3.694-8.258,8.258-8.258
		h66.065c4.565,0,8.258,3.698,8.258,8.258v16.516C247.742,204.444,229.218,222.968,206.452,222.968z M181.677,173.419v8.258
		c0,13.661,11.113,24.774,24.774,24.774s24.774-11.113,24.774-24.774v-8.258H181.677z"/>
</g>
<g>
</g>
<g>
</g>
<g>
</g>
<g>
</g>
<g>
</g>
<g>
</g>
<g>
</g>
<g>
</g>
<g>
</g>
<g>
</g>
<g>
</g>
<g>
</g>
<g>
</g>
<g>
</g>
<g>
</g>
</svg>
