<?xml version="1.0" encoding="iso-8859-1"?>
<!-- Generator: Adobe Illustrator 19.0.0, SVG Export Plug-In . SVG Version: 6.00 Build 0)  -->
<svg version="1.1" id="Capa_1" xmlns="http://www.w3.org/2000/svg" xmlns:xlink="http://www.w3.org/1999/xlink" x="0px" y="0px"
	 viewBox="0 0 512.001 512.001" style="enable-background:new 0 0 512.001 512.001;" xml:space="preserve">
<path style="fill:#F7D291;" d="M418.627,377.669l-87.036-25.599c-10.544-3.101-17.784-12.778-17.784-23.768v-39.269H198.193v39.269
	c0,10.99-7.24,20.667-17.784,23.768l-87.036,25.599c-21.087,6.202-35.567,25.555-35.567,47.535v62.023
	c0,13.682,11.092,24.774,24.774,24.774h346.84c13.682,0,24.774-11.092,24.774-24.774v-62.023
	C454.194,403.224,439.714,383.871,418.627,377.669z"/>
<path style="fill:#E6646E;" d="M418.627,377.669l-81.492-23.968c-7.111,38.377-40.699,67.461-81.135,67.461
	s-74.024-29.084-81.135-67.461l-81.492,23.968c-21.087,6.202-35.567,25.554-35.567,47.534v62.023
	c0,13.683,11.092,24.775,24.774,24.775h346.84c13.682,0,24.774-11.092,24.774-24.774v-62.023
	C454.194,403.224,439.714,383.871,418.627,377.669z"/>
<path style="fill:#F0C382;" d="M198.193,307.461c17.349,9.267,37.024,14.604,57.807,14.604s40.457-5.337,57.807-14.604v-18.428
	H198.193V307.461z"/>
<g>
	<path style="fill:#DC4655;" d="M158.892,358.398c9.182,45.232,49.165,79.28,97.108,79.28s87.926-34.047,97.108-79.28l-15.972-4.698
		c-7.111,38.377-40.699,67.461-81.135,67.461s-74.024-29.084-81.135-67.461L158.892,358.398z"/>
	<path style="fill:#DC4655;" d="M126.524,438.17L72.447,390.1c-3.953,3.934-7.162,8.531-9.598,13.557l52.707,46.859
		c5.282,4.685,8.315,11.435,8.315,18.508v42.977h16.516v-42.976C140.387,457.235,135.33,445.985,126.524,438.17z"/>
	<path style="fill:#DC4655;" d="M385.476,438.17l54.077-48.07c3.953,3.934,7.162,8.531,9.598,13.557l-52.707,46.859
		c-5.282,4.685-8.315,11.435-8.315,18.508v42.977h-16.516v-42.976C371.613,457.235,376.67,445.985,385.476,438.17z"/>
</g>
<path style="fill:#6E5A64;" d="M256,462.453c-27.365,0-49.549,22.184-49.549,49.548h99.097
	C305.548,484.636,283.365,462.453,256,462.453z"/>
<path style="fill:#5A4650;" d="M258.682,0.025c-78.676-1.474-143.069,65.352-143.069,144.041v0.013
	c0,21.44,16.048,39.487,37.341,41.992l243.434-4.394v-41.291C396.387,63.749,334.978,1.454,258.682,0.025z"/>
<path style="fill:#FFE1A0;" d="M189.935,82.581c-7.09,6.853-24.774,27.442-24.774,57.807v8.258c0,9.122-7.395,16.516-16.516,16.516
	h-3.405c-9.402,0-18.183,5.958-20.619,15.039c-3.684,13.734,6.715,26.251,19.895,26.251h4.546
	c4.23,55.419,50.435,99.097,106.938,99.097l0,0c59.29,0,107.355-48.064,107.355-107.355V82.581H189.935z"/>
<path style="fill:#F7D291;" d="M189.935,82.581c-2.078,2.009-24.774,23.355-24.774,57.807v8.258c0,9.122-7.395,16.516-16.516,16.516
	h-3.405c-9.402,0-18.183,5.958-20.619,15.039c-3.684,13.734,6.715,26.251,19.895,26.251h4.546
	c4.23,55.419,50.435,99.097,106.938,99.097c5.649,0,11.157-0.55,16.568-1.392c-51.454-7.941-90.891-52.286-90.891-105.963v-15.263
	c0-28.789,33.103-45.17,55.802-27.464c33.613,26.22,74.768,50.836,123.137,66.532c1.738-7.667,2.739-15.612,2.739-23.806V82.581
	H189.935z"/>
<path style="fill:#6E5A64;" d="M206.451,190.654c-4.565,0-8.258-3.698-8.258-8.258v-8.258c0-4.561,3.694-8.258,8.258-8.258
	s8.258,3.698,8.258,8.258v8.258C214.71,186.956,211.016,190.654,206.451,190.654z"/>
<path style="fill:#A06E50;" d="M214.71,156.904h-16.516c-4.565,0-8.258-3.698-8.258-8.258s3.694-8.258,8.258-8.258h16.516
	c4.565,0,8.258,3.698,8.258,8.258S219.274,156.904,214.71,156.904z"/>
<path style="fill:#E3AA75;" d="M256,247.743c-12.387,0-23.823-3.976-30.573-10.637c-3.25-3.202-3.282-8.431-0.081-11.677
	c3.202-3.25,8.444-3.282,11.677-0.081c2.75,2.714,9.371,5.879,18.976,5.879s16.226-3.165,18.976-5.879
	c3.234-3.202,8.476-3.169,11.677,0.081c3.202,3.246,3.169,8.476-0.081,11.677C279.823,243.767,268.387,247.743,256,247.743z"/>
<path style="fill:#64505A;" d="M396.387,140.387c0-76.638-61.409-138.933-137.705-140.362
	c-41.089-0.77-78.173,17.192-104.332,45.641c30.127,41.865,108.749,134.876,231.293,166.514c5.169,1.335,10.234-2.664,10.273-8.003
	L396.387,140.387z"/>
<path style="fill:#6E5A64;" d="M396.044,186.82l0.343-46.434c0-76.638-61.409-138.933-137.705-140.362
	c-26.921-0.505-52.048,7.145-73.584,20.404C219.473,66.533,296.025,155.17,396.044,186.82z"/>
<g>
</g>
<g>
</g>
<g>
</g>
<g>
</g>
<g>
</g>
<g>
</g>
<g>
</g>
<g>
</g>
<g>
</g>
<g>
</g>
<g>
</g>
<g>
</g>
<g>
</g>
<g>
</g>
<g>
</g>
</svg>
