<?xml version="1.0" encoding="iso-8859-1"?>
<!-- Generator: Adobe Illustrator 19.0.0, SVG Export Plug-In . SVG Version: 6.00 Build 0)  -->
<svg version="1.1" id="Capa_1" xmlns="http://www.w3.org/2000/svg" xmlns:xlink="http://www.w3.org/1999/xlink" x="0px" y="0px"
	 viewBox="0 0 512 512" style="enable-background:new 0 0 512 512;" xml:space="preserve">
<path style="fill:#B4F09B;" d="M413.098,401.08l-85.411-30.145c-13.225-4.668-22.07-17.168-22.07-31.193v-51.023h-99.236v51.023
	c0,14.025-8.844,26.525-22.069,31.193l-85.41,30.145c-19.838,7.002-33.104,25.752-33.104,46.789v39.322
	c0,13.702,11.107,24.809,24.809,24.809h330.786c13.702,0,24.809-11.107,24.809-24.809v-39.322
	C446.202,426.832,432.936,408.082,413.098,401.08z"/>
<path style="fill:#739BD7;" d="M256,346.607c49.618,0,128.576-25.633,149.143-33.82c8.503-3.385,12.686-13.094,9.159-21.539
	c-7.332-17.554-17.717-49.972-17.717-92.776v-57.888C396.584,62.942,333.642,0,256,0l0,0l0,0l0,0l0,0l0,0l0,0l0,0l0,0
	c-77.642,0-140.584,62.942-140.584,140.584v57.888c0,42.804-10.385,75.222-17.717,92.776c-3.527,8.445,0.655,18.154,9.159,21.539
	C127.424,320.974,206.382,346.607,256,346.607z"/>
<path style="fill:#9C969E;" d="M346.966,296.989H165.034c-27.403,0-49.618,22.215-49.618,49.618
	c0,54.806,44.429,99.236,99.236,99.236h82.697c54.807,0,99.236-44.43,99.236-99.236C396.584,319.204,374.37,296.989,346.966,296.989
	z"/>
<path style="fill:#6F6571;" d="M344.766,321.798c18.001,0,25.069,23.346,10.092,33.331l-85.096,56.731
	c-8.333,5.556-19.19,5.556-27.523,0l-85.096-56.731c-14.977-9.985-7.909-33.331,10.092-33.331H344.766z"/>
<path style="fill:#8CB4EB;" d="M256,0c-23.926,0-46.435,6.014-66.157,16.556v7.534c0,54.806,44.429,99.236,99.236,99.236h106.34
	C386.895,53.843,327.788,0,256,0z"/>
<path style="fill:#E3AA75;" d="M242.238,411.859c8.334,5.556,19.19,5.556,27.523,0l60.188-40.125l-2.262-0.799
	c-13.226-4.668-22.07-17.168-22.07-31.193v-51.023h-99.236v51.023c0,14.025-8.844,26.525-22.069,31.193l-2.263,0.799
	L242.238,411.859z"/>
<path style="fill:#D29B6E;" d="M206.382,319.488c13.455,5.992,28.13,9.708,43.643,10.439c2.001,0.094,3.995,0.141,5.975,0.141
	c17.644,0,34.408-3.76,49.618-10.429V288.72h-99.236L206.382,319.488L206.382,319.488z"/>
<path style="fill:#F5B97D;" d="M330.427,139.865h-13.114c-2.193,0-4.297-0.871-5.848-2.422l-30.456-30.456
	c-3.126-3.126-8.47-0.912-8.47,3.509v21.1c0,4.567-3.702,8.27-8.27,8.27h-82.697c-18.269,0-33.079,14.81-33.079,33.079v30.042
	c0,57.887,44.485,107.696,102.308,110.419c61.736,2.907,112.703-46.286,112.703-107.383v-33.079
	C363.506,154.675,348.696,139.865,330.427,139.865z"/>
<path style="fill:#E3AA75;" d="M330.427,139.865L330.427,139.865h-13.114c-2.193,0-4.297-0.871-5.848-2.422l-30.456-30.456
	c-3.126-3.126-8.47-0.912-8.47,3.509v21.1c0,4.567-3.702,8.27-8.27,8.27h-82.697c-18.269,0-33.079,14.81-33.079,33.079v29.765
	c0,48.549,30.867,92.95,77.478,106.533c16.178,4.714,31.851,5.258,46.585,2.979c-52.201-8.221-90.984-55.193-90.984-109.235v-13.502
	c0-18.269,14.81-33.079,33.079-33.079h99.236C323.022,156.405,330.427,149,330.427,139.865z"/>
<g>
	<path style="fill:#6E5A64;" d="M214.652,172.944h-16.539c-4.571,0-8.27-3.703-8.27-8.27s3.699-8.27,8.27-8.27h16.539
		c4.571,0,8.27,3.703,8.27,8.27C222.921,169.241,219.223,172.944,214.652,172.944z"/>
	<path style="fill:#6E5A64;" d="M313.888,172.944h-16.539c-4.571,0-8.27-3.703-8.27-8.27s3.699-8.27,8.27-8.27h16.539
		c4.571,0,8.27,3.703,8.27,8.27C322.157,169.241,318.459,172.944,313.888,172.944z"/>
</g>
<g>
	<path style="fill:#5A4650;" d="M206.382,206.741c-4.571,0-8.27-3.703-8.27-8.27v-8.27c0-4.567,3.699-8.27,8.27-8.27
		s8.27,3.703,8.27,8.27v8.27C214.652,203.039,210.953,206.741,206.382,206.741z"/>
	<path style="fill:#5A4650;" d="M305.618,206.741c-4.571,0-8.27-3.703-8.27-8.27v-8.27c0-4.567,3.699-8.27,8.27-8.27
		s8.27,3.703,8.27,8.27v8.27C313.888,203.039,310.189,206.741,305.618,206.741z"/>
</g>
<g>
	<path style="fill:#9BDC9B;" d="M140.225,512v-25.883c0-11.71-4.999-22.919-13.713-30.753l-46.745-42.001
		c-3.897,4.027-7.004,8.731-9.349,13.828l45.038,40.472c5.233,4.7,8.229,11.427,8.229,18.453V512H140.225z"/>
	<path style="fill:#9BDC9B;" d="M371.775,512v-25.883c0-11.71,4.999-22.919,13.713-30.753l46.745-42.001
		c3.897,4.027,7.004,8.731,9.349,13.828l-45.038,40.472c-5.233,4.7-8.229,11.427-8.229,18.453V512H371.775z"/>
</g>
<path style="fill:#FFFFFF;" d="M223.406,235.656c-2.656,0-4.64,2.429-4.189,5.046c2.733,15.874,18.161,28.033,36.783,28.033
	s34.05-12.159,36.783-28.033c0.451-2.617-1.533-5.046-4.189-5.046H223.406z"/>
<g>
	<path style="fill:#9BDC9B;" d="M214.652,421.034L214.652,421.034c-4.567,0-8.27,3.702-8.27,8.27V512h16.539v-82.697
		C222.921,424.736,219.219,421.034,214.652,421.034z"/>
	<path style="fill:#9BDC9B;" d="M297.348,421.034L297.348,421.034c-4.567,0-8.27,3.702-8.27,8.27V512h16.539v-82.697
		C305.618,424.736,301.915,421.034,297.348,421.034z"/>
</g>
<g>
</g>
<g>
</g>
<g>
</g>
<g>
</g>
<g>
</g>
<g>
</g>
<g>
</g>
<g>
</g>
<g>
</g>
<g>
</g>
<g>
</g>
<g>
</g>
<g>
</g>
<g>
</g>
<g>
</g>
</svg>
