<?xml version="1.0" encoding="iso-8859-1"?>
<!-- Generator: Adobe Illustrator 19.0.0, SVG Export Plug-In . SVG Version: 6.00 Build 0)  -->
<svg version="1.1" id="Capa_1" xmlns="http://www.w3.org/2000/svg" xmlns:xlink="http://www.w3.org/1999/xlink" x="0px" y="0px"
	 viewBox="0 0 512 512" style="enable-background:new 0 0 512 512;" xml:space="preserve">
<path style="fill:#5A4650;" d="M136.577,189.935h238.849l10.193-66.257C395.622,58.648,345.307,0,279.511,0h-47.022
	c-65.796,0-116.111,58.648-106.106,123.679L136.577,189.935z"/>
<path style="fill:#B67F5F;" d="M418.626,369.41l-87.036-25.599c-10.544-3.101-17.784-12.778-17.784-23.768v-39.269H198.195v39.269
	c0,10.99-7.24,20.667-17.784,23.768L93.375,369.41c-21.087,6.202-35.568,25.555-35.568,47.535v70.281
	c0,13.682,11.092,24.774,24.774,24.774h346.839c13.682,0,24.774-11.092,24.774-24.774v-70.281
	C454.194,394.965,439.714,375.612,418.626,369.41z"/>
<path style="fill:#5A4650;" d="M418.626,369.41l-87.036-25.599c-1.472-0.433,8.323,3.703,6.99,3.028l-82.585,24.774l-82.577-24.774
	c-1.332,0.675,8.462-3.461,6.99-3.028L93.375,369.41c-21.087,6.202-35.568,25.555-35.568,47.535v70.281
	c0,13.682,11.092,24.774,24.774,24.774h346.839c13.682,0,24.774-11.092,24.774-24.774v-70.281
	C454.194,394.965,439.714,375.612,418.626,369.41z"/>
<path style="fill:#A5CDFF;" d="M335.747,360.521l-9.847-9.847l-69.9,12.68l-69.9-12.68l-9.847,9.847
	c-12.39,12.389-19.35,29.193-19.35,46.715V512h198.194V407.236C355.097,389.714,348.137,372.91,335.747,360.521z"/>
<path style="fill:#8CB4EB;" d="M335.747,360.521l-9.847-9.847l-69.9,12.68l-69.9-12.68l-9.847,9.847
	c-4.054,4.053-7.461,8.615-10.298,13.485l30.513,34.872c4.704,5.377,11.5,8.46,18.646,8.46c6.616,0,12.837-2.577,17.517-7.257
	L256,386.712l23.37,23.37c4.678,4.679,10.899,7.256,17.516,7.256c7.146,0,13.943-3.084,18.647-8.461l30.513-34.871
	C343.208,369.137,339.801,364.575,335.747,360.521z"/>
<polygon style="fill:#5A4650;" points="244.073,404.645 231.227,512 280.774,512 267.928,404.645 "/>
<path style="fill:#64505A;" d="M266.564,412.903h-21.128c-3.555,0-6.71-2.275-7.834-5.647l-14.634-43.902h66.065l-14.634,43.902
	C273.274,410.629,270.119,412.903,266.564,412.903z"/>
<path style="fill:#A06E50;" d="M198.195,299.203c17.349,9.267,37.024,14.604,57.806,14.604s40.457-5.337,57.806-14.604v-18.428
	H198.195V299.203z"/>
<g>
	<path style="fill:#A5CDFF;" d="M192.678,328.175l-21.76,26.421l37.98,43.405c3.146,3.595,8.676,3.779,12.054,0.401L256,363.355
		L192.678,328.175z"/>
	<path style="fill:#A5CDFF;" d="M319.323,328.175l21.76,26.421l-37.98,43.405c-3.146,3.595-8.676,3.779-12.054,0.401L256,363.355
		L319.323,328.175z"/>
</g>
<g>
	<path style="fill:#64505A;" d="M115.614,512l-14.549-57.214c-1.225-5.512,0.451-11.269,4.444-15.262l26.621-26.621l-12.248-18.372
		c-2.883-4.325-3.501-9.755-1.86-14.688c19.691-59.175,80.172-74.295,80.172-74.295v15.929c0,10.951-4.35,21.453-12.094,29.197
		l-9.847,9.847c-12.39,12.389-19.35,29.193-19.35,46.715V512"/>
	<path style="fill:#64505A;" d="M396.387,512l14.549-57.214c1.225-5.512-0.451-11.269-4.444-15.262l-26.621-26.621l12.248-18.372
		c2.883-4.325,3.501-9.755,1.86-14.688c-19.691-59.175-80.172-74.295-80.172-74.295v15.929c0,10.951,4.35,21.453,12.094,29.197
		l9.847,9.847c12.389,12.389,19.35,29.193,19.35,46.715V512"/>
</g>
<path style="fill:#CD916E;" d="M366.76,156.903h-0.356c-10.041,0-17.499-9.298-15.321-19.099l0,0
	c6.298-28.34-15.267-55.223-44.299-55.223H205.217c-29.031,0-50.596,26.883-44.299,55.223l0,0
	c2.178,9.801-5.28,19.099-15.321,19.099h-0.356c-9.402,0-18.183,5.958-20.619,15.039c-3.684,13.734,6.715,26.251,19.895,26.251
	h4.546c4.23,55.419,50.435,99.097,106.938,99.097s102.708-43.678,106.938-99.097h4.546c13.18,0,23.579-12.517,19.895-26.251
	C384.943,162.861,376.162,156.903,366.76,156.903z"/>
<path style="fill:#B67F5F;" d="M181.678,189.935v-49.548c0-22.804,18.486-41.29,41.29-41.29h66.065
	c9.121,0,16.515-7.395,16.513-16.516l0,0H205.217c-29.054,0-50.63,26.925-44.284,55.29c2.187,9.775-5.319,19.033-15.336,19.033
	h-0.355c-9.402,0-18.183,5.958-20.619,15.039c-3.684,13.734,6.714,26.252,19.894,26.252h4.546
	c4.23,55.419,50.435,99.097,106.938,99.097c5.649,0,11.157-0.55,16.568-1.392C221.115,287.958,181.678,243.612,181.678,189.935z"/>
<path style="fill:#64505A;" d="M279.511,0h-47.022c-9.022,0-17.713,1.196-26.037,3.267v4.991c0,31.925,25.881,57.806,57.806,57.806
	h114.381C362.582,27.668,324.701,0,279.511,0z"/>
<g>
	<path style="fill:#5A4650;" d="M206.452,181.677c-4.565,0-8.258-3.694-8.258-8.258v-8.258c0-4.565,3.694-8.258,8.258-8.258
		s8.258,3.694,8.258,8.258v8.258C214.711,177.984,211.017,181.677,206.452,181.677z"/>
	<path style="fill:#5A4650;" d="M305.548,181.677c-4.565,0-8.258-3.694-8.258-8.258v-8.258c0-4.565,3.694-8.258,8.258-8.258
		c4.565,0,8.258,3.694,8.258,8.258v8.258C313.806,177.984,310.113,181.677,305.548,181.677z"/>
</g>
<path style="fill:#A06E50;" d="M256,239.484c-12.395,0-23.823-3.976-30.573-10.637c-3.25-3.21-3.282-8.435-0.081-11.677
	c3.218-3.25,8.444-3.282,11.677-0.081c2.75,2.71,9.363,5.879,18.976,5.879c9.613,0,16.226-3.169,18.976-5.879
	c3.234-3.202,8.46-3.169,11.677,0.081c3.202,3.242,3.169,8.468-0.081,11.677C279.823,235.508,268.395,239.484,256,239.484z"/>
<g>
	<path style="fill:#64505A;" d="M214.711,148.645h-16.516c-4.565,0-8.258-3.694-8.258-8.258s3.694-8.258,8.258-8.258h16.516
		c4.565,0,8.258,3.694,8.258,8.258S219.275,148.645,214.711,148.645z"/>
	<path style="fill:#64505A;" d="M313.806,148.645H297.29c-4.565,0-8.258-3.694-8.258-8.258s3.694-8.258,8.258-8.258h16.516
		c4.565,0,8.258,3.694,8.258,8.258S318.371,148.645,313.806,148.645z"/>
</g>
<g>
</g>
<g>
</g>
<g>
</g>
<g>
</g>
<g>
</g>
<g>
</g>
<g>
</g>
<g>
</g>
<g>
</g>
<g>
</g>
<g>
</g>
<g>
</g>
<g>
</g>
<g>
</g>
<g>
</g>
</svg>
