<?xml version="1.0" encoding="iso-8859-1"?>
<!-- Generator: Adobe Illustrator 19.0.0, SVG Export Plug-In . SVG Version: 6.00 Build 0)  -->
<svg version="1.1" id="Capa_1" xmlns="http://www.w3.org/2000/svg" xmlns:xlink="http://www.w3.org/1999/xlink" x="0px" y="0px"
	 viewBox="0 0 512 512" style="enable-background:new 0 0 512 512;" xml:space="preserve">
<path style="fill:#FFD164;" d="M403.541,256.343l-7.465-124.42C391.63,57.82,330.237,0,256,0S120.37,57.82,115.924,131.923
	l-7.465,124.42c-2.927,48.775,18.083,93.18,52.614,122.156l190.19-0.282C385.594,349.235,406.458,304.96,403.541,256.343z"/>
<path style="fill:#FFC350;" d="M115.924,131.923l-7.465,124.42c-2.927,48.775,18.083,93.18,52.614,122.156L256,378.358V0
	C181.763,0,120.37,57.82,115.924,131.923z"/>
<path style="fill:#F7D291;" d="M412.916,384.689l-85.311-30.11c-13.21-4.662-22.044-17.148-22.044-31.157v-50.964h-99.12v50.964
	c0,14.008-8.834,26.494-22.044,31.156l-85.312,30.11C79.27,391.681,66.02,410.41,66.02,431.422v55.796
	c0,13.686,11.094,24.78,24.78,24.78h330.401c13.686,0,24.78-11.094,24.78-24.78v-55.796
	C445.981,410.411,432.73,391.683,412.916,384.689z"/>
<path style="fill:#FF8087;" d="M412.915,384.689l-85.311-30.11c-5.473-1.931-10.13-5.257-13.784-9.426v14.036
	c0,34.214-27.736,61.95-61.95,61.95s-61.95-27.736-61.95-61.95v-7.219c-1.748,1.011-3.57,1.919-5.523,2.609l-85.312,30.11
	c-19.815,6.993-33.065,25.722-33.065,46.734v55.796c0,13.686,11.094,24.78,24.78,24.78h330.401c13.686,0,24.78-11.094,24.78-24.78
	v-55.796C445.981,410.411,432.73,391.682,412.915,384.689z"/>
<path style="fill:#E6646E;" d="M160.543,432.612c7.748,18.579,25.72,30.583,45.784,30.583c4.046,0,8.098-0.5,12.044-1.486L256,452.3
	l37.628,9.407c3.947,0.987,7.999,1.487,12.045,1.487c20.064,0,38.036-12.004,45.784-30.583c8.428-20.208,12.875-42.44,13.168-64.965
	l-37.021-13.067c-5.473-1.931-10.13-5.257-13.784-9.426v14.036c0,34.214-27.736,61.95-61.95,61.95s-61.95-27.736-61.95-61.95v-7.219
	c-1.748,1.011-3.57,1.919-5.523,2.609l-37.022,13.067C147.668,390.171,152.114,412.403,160.543,432.612z"/>
<path style="fill:#F0C382;" d="M206.44,320.057c15.202,6.585,31.964,10.222,49.56,10.222s34.359-3.636,49.56-10.222v-31.078h-99.12
	V320.057z"/>
<path style="fill:#FFE1A0;" d="M256,313.759L256,313.759c-59.305,0-107.381-48.076-107.381-107.38V90.738H363.38v115.641
	C363.38,265.683,315.305,313.759,256,313.759z"/>
<path style="fill:#F7D291;" d="M148.62,90.738v115.641c0,59.305,48.076,107.38,107.38,107.38c5.633,0,11.121-0.564,16.52-1.4
	c-51.44-7.965-90.86-52.309-90.86-105.98v-28.251c0-14.749,9.75-27.72,23.941-31.737c22.907-6.484,46.768-14.83,66.92-25.351v1.101
	c0,13.053,9.518,24.837,22.521,25.969c1.268,0.11,2.561,0.127,3.873,0.038c9.075-0.617,41.653-6.607,64.466-11.878V90.738H148.62z"
	/>
<g>
	<path style="fill:#E6646E;" d="M140.368,512v-42.091c0-12.144-5.308-23.61-14.552-31.463l-47.07-40.025
		c-3.737,4.173-6.703,8.957-8.85,14.156l45.224,38.457c5.55,4.711,8.728,11.591,8.728,18.875V512H140.368z"/>
	<path style="fill:#E6646E;" d="M371.641,512v-42.091c0-12.144,5.308-23.61,14.552-31.463l47.07-40.025
		c3.737,4.173,6.703,8.957,8.85,14.156l-45.224,38.457c-5.55,4.711-8.728,11.591-8.728,18.875V512H371.641z"/>
</g>
<path style="fill:#FFFFFF;" d="M305.552,330.279l31.238,10.622c6.328,2.206,10.71,8.05,11.104,14.74
	c1.763,29.882-4.757,54.002-11.684,70.61c-6.314,15.138-22.663,23.407-38.575,19.429L256,435.272l-41.635,10.409
	c-15.912,3.978-32.261-4.291-38.575-19.429c-6.927-16.608-13.447-40.728-11.684-70.61c0.394-6.69,4.776-12.534,11.104-14.74
	l31.238-10.622l-0.008-0.266v24.78c0,27.371,22.189,49.56,49.56,49.56c27.371,0,49.56-22.189,49.56-49.56v-24.78"/>
<g>
	<polygon style="fill:#FFD164;" points="305.552,330.279 305.56,330.282 305.56,330.013 	"/>
	<polygon style="fill:#FFD164;" points="206.44,330.013 206.44,330.282 206.448,330.279 	"/>
</g>
<path style="fill:#EDEBED;" d="M256,421.14c36.495,0,66.08-29.585,66.08-66.08V335.9l-16.52-5.618v24.512
	c0,27.371-22.189,49.56-49.56,49.56s-49.56-22.189-49.56-49.56v-24.512l-16.52,5.618v19.16
	C189.92,391.554,219.505,421.14,256,421.14z"/>
<path style="fill:#E3AA75;" d="M256,264.32c-12.398,0-23.828-3.977-30.58-10.64c-3.251-3.21-3.283-8.438-0.081-11.68
	c3.219-3.251,8.446-3.283,11.68-0.081c2.751,2.71,9.365,5.88,18.98,5.88s16.23-3.17,18.98-5.88c3.235-3.202,8.462-3.17,11.68,0.081
	c3.202,3.243,3.17,8.47-0.081,11.68C279.828,260.343,268.398,264.32,256,264.32z"/>
<g>
	<path style="fill:#6E5A64;" d="M206.44,206.379c-4.566,0-8.26-3.694-8.26-8.26v-8.26c0-4.566,3.694-8.26,8.26-8.26
		s8.26,3.694,8.26,8.26v8.26C214.7,202.684,211.005,206.379,206.44,206.379z"/>
	<path style="fill:#6E5A64;" d="M305.56,206.379c-4.566,0-8.26-3.694-8.26-8.26v-8.26c0-4.566,3.694-8.26,8.26-8.26
		s8.26,3.694,8.26,8.26v8.26C313.82,202.684,310.126,206.379,305.56,206.379z"/>
</g>
<g>
	<path style="fill:#E3AA75;" d="M214.7,173.338h-16.52c-4.566,0-8.26-3.694-8.26-8.26s3.694-8.26,8.26-8.26h16.52
		c4.566,0,8.26,3.694,8.26,8.26C222.96,169.644,219.265,173.338,214.7,173.338z"/>
	<path style="fill:#E3AA75;" d="M313.82,173.338H297.3c-4.566,0-8.26-3.694-8.26-8.26s3.694-8.26,8.26-8.26h16.52
		c4.566,0,8.26,3.694,8.26,8.26S318.386,173.338,313.82,173.338z"/>
</g>
<path style="fill:#FFE17D;" d="M247.715,0.239c-71.671,4.133-127.72,63.844-132.02,135.505l-0.576,9.594l0.46,3.221
	c0,0,105.782-14.104,160.959-48.829c5.441-3.424,12.502,0.633,12.502,7.062v16.625c0,4.774,3.993,8.573,8.756,8.25
	c9.881-0.672,26.873-2.557,44.392-7.851c10.559-3.191,21.192,4.784,21.192,15.815l0,0c20.249-4.773,31.956-26.064,25.085-45.701
	C368.371,36.496,312.17-3.478,247.715,0.239z"/>
<g>
</g>
<g>
</g>
<g>
</g>
<g>
</g>
<g>
</g>
<g>
</g>
<g>
</g>
<g>
</g>
<g>
</g>
<g>
</g>
<g>
</g>
<g>
</g>
<g>
</g>
<g>
</g>
<g>
</g>
</svg>
