<?xml version="1.0" encoding="iso-8859-1"?>
<!-- Generator: Adobe Illustrator 19.0.0, SVG Export Plug-In . SVG Version: 6.00 Build 0)  -->
<svg version="1.1" id="Capa_1" xmlns="http://www.w3.org/2000/svg" xmlns:xlink="http://www.w3.org/1999/xlink" x="0px" y="0px"
	 viewBox="0 0 512 512" style="enable-background:new 0 0 512 512;" xml:space="preserve">
<path style="fill:#A06E50;" d="M256.001,297.29c74.323,0,129.498-27.783,145.573-39.98c6.225-4.724,8.332-13.025,5.05-20.117
	c-4.67-10.092-10.237-27.911-10.237-55.516v-41.29C396.388,62.853,333.535,0,256.001,0l0,0l0,0l0,0l0,0
	c-77.534,0-140.387,62.853-140.387,140.387v41.29c0,27.605-5.567,45.424-10.237,55.516c-3.282,7.092-1.175,15.393,5.05,20.117
	C126.503,269.507,181.678,297.29,256.001,297.29z"/>
<rect x="198.191" y="264.26" style="fill:#F7D291;" width="115.61" height="99.1"/>
<path style="fill:#F0C382;" d="M198.195,299.198c17.35,9.267,37.023,14.609,57.806,14.609s40.457-5.342,57.806-14.609v-34.94
	H198.195V299.198z"/>
<path style="fill:#FFE1A0;" d="M367.485,156.903h-0.105c-7.128,0-12.578-5.998-12.34-13.121
	c1.162-34.724-15.573-65.565-41.668-84.118c-7.396-5.259-17.894-3.304-22.876,4.281c-7.373,11.222-20.061,18.636-34.495,18.636
	c-14.434,0-27.122-7.413-34.495-18.637c-4.983-7.585-15.48-9.539-22.877-4.281c-26.095,18.554-42.83,49.395-41.668,84.118
	c0.238,7.123-5.212,13.121-12.339,13.121h-0.105c-11.402,0-20.645,9.243-20.645,20.645c0,11.402,9.243,20.645,20.645,20.645h4.546
	c4.23,55.419,50.435,99.097,106.938,99.097s102.708-43.678,106.938-99.097h4.546c11.402,0,20.645-9.243,20.645-20.645
	C388.13,166.146,378.887,156.903,367.485,156.903z"/>
<path style="fill:#F7D291;" d="M181.678,189.935V75c-16.081,18.223-25.601,42.358-24.717,68.782
	c0.238,7.123-5.212,13.121-12.339,13.121h-0.105c-11.402,0-20.645,9.243-20.645,20.645s9.243,20.645,20.645,20.645h4.546
	c4.23,55.419,50.435,99.097,106.938,99.097c5.649,0,11.157-0.55,16.568-1.392C221.115,287.958,181.678,243.612,181.678,189.935z"/>
<g>
	<path style="fill:#5A4650;" d="M206.453,181.677c-4.565,0-8.258-3.694-8.258-8.258v-8.258c0-4.565,3.694-8.258,8.258-8.258
		s8.258,3.694,8.258,8.258v8.258C214.711,177.984,211.017,181.677,206.453,181.677z"/>
	<path style="fill:#5A4650;" d="M305.549,181.677c-4.565,0-8.258-3.694-8.258-8.258v-8.258c0-4.565,3.694-8.258,8.258-8.258
		c4.565,0,8.258,3.694,8.258,8.258v8.258C313.807,177.984,310.114,181.677,305.549,181.677z"/>
</g>
<g>
	<path style="fill:#8C5F4B;" d="M214.711,148.645h-16.516c-4.565,0-8.258-3.694-8.258-8.258s3.694-8.258,8.258-8.258h16.516
		c4.565,0,8.258,3.694,8.258,8.258S219.275,148.645,214.711,148.645z"/>
	<path style="fill:#8C5F4B;" d="M313.807,148.645h-16.516c-4.565,0-8.258-3.694-8.258-8.258s3.694-8.258,8.258-8.258h16.516
		c4.565,0,8.258,3.694,8.258,8.258S318.372,148.645,313.807,148.645z"/>
</g>
<path style="fill:#B67F5F;" d="M407.558,365.522l-60.724-18.683l-90.833,8.258l-90.842-8.255l-60.715,18.68
	c-27.721,8.529-46.637,34.14-46.637,63.143v58.56c0,13.682,11.092,24.774,24.774,24.774h346.839
	c13.682,0,24.774-11.092,24.774-24.774v-58.56C454.195,399.662,435.278,374.051,407.558,365.522z"/>
<path style="fill:#A06E50;" d="M256.001,313.806L256.001,313.806c-4.988,0-9.473-3.037-11.325-7.667l-10.278-25.695
	c-1.519-3.797,1.278-7.928,5.367-7.928h32.472c4.09,0,6.886,4.13,5.367,7.928l-10.278,25.695
	C265.474,310.77,260.989,313.806,256.001,313.806z"/>
<path style="fill:#F0C382;" d="M272.517,247.742h-33.032c-9.122,0-16.516-7.395-16.516-16.516v-8.258h66.065v8.258
	C289.033,240.347,281.639,247.742,272.517,247.742z"/>
<path style="fill:#A06E50;" d="M289.033,214.71h-66.065c-13.682,0-24.774,11.092-24.774,24.774v8.258
	c0,4.56,3.697,8.258,8.258,8.258c4.595,0,8.313-3.753,8.257-8.36c-0.054-4.524,3.734-8.157,8.259-8.157h8.258
	c5.474,0,10.496-1.809,14.577-4.833c2.961-2.193,6.512-3.426,10.197-3.426l0,0c3.685,0,7.236,1.232,10.197,3.426
	c4.081,3.023,9.103,4.833,14.577,4.833h8.258c4.525,0,8.313,3.632,8.259,8.157c-0.055,4.607,3.663,8.36,8.257,8.36
	c4.561,0,8.258-3.698,8.258-8.258v-8.258C313.807,225.801,302.716,214.71,289.033,214.71z"/>
<g>
	<path style="fill:#CD916E;" d="M125.969,421.524l-47.511-40.723c-4.021,3.818-7.432,8.17-10.372,12.853l47.142,40.41
		c5.492,4.702,8.645,11.565,8.645,18.806V512h16.516v-59.129C140.388,440.798,135.13,429.371,125.969,421.524z"/>
	<path style="fill:#CD916E;" d="M386.033,421.524l47.511-40.723c4.021,3.818,7.432,8.17,10.372,12.853l-47.142,40.41
		c-5.492,4.702-8.645,11.565-8.645,18.806V512h-16.516v-59.129C371.614,440.798,376.872,429.371,386.033,421.524z"/>
</g>
<g>
	<circle style="fill:#5A4650;" cx="256.001" cy="412.9" r="8.258"/>
	<circle style="fill:#5A4650;" cx="256.001" cy="470.71" r="8.258"/>
</g>
<path style="fill:#A06E50;" d="M200.419,416.647c5.901,0,11.622-2.118,16.11-5.965l39.472-33.832l39.471,33.832
	c4.488,3.847,10.21,5.965,16.111,5.965c8.875,0,17.121-4.783,21.522-12.483l28.075-49.131l1.838-3.215l-16.183-4.979l-90.834,8.258
	l-90.842-8.256l-16.174,4.976l1.837,3.216l28.075,49.131C183.298,411.864,191.544,416.647,200.419,416.647z"/>
<g>
	<path style="fill:#CD916E;" d="M189.218,317.995c-4.11-2.283-9.294-0.679-11.397,3.526l-12.659,25.318l28.075,49.131
		c2.573,4.501,8.608,5.547,12.544,2.173l50.22-43.046L189.218,317.995z"/>
	<path style="fill:#CD916E;" d="M322.784,317.995c4.11-2.283,9.294-0.679,11.397,3.526l12.659,25.318l-28.075,49.131
		c-2.573,4.501-8.608,5.547-12.544,2.173l-50.22-43.046L322.784,317.995z"/>
</g>
<g>
</g>
<g>
</g>
<g>
</g>
<g>
</g>
<g>
</g>
<g>
</g>
<g>
</g>
<g>
</g>
<g>
</g>
<g>
</g>
<g>
</g>
<g>
</g>
<g>
</g>
<g>
</g>
<g>
</g>
</svg>
