<?xml version="1.0" encoding="iso-8859-1"?>
<!-- Generator: Adobe Illustrator 19.0.0, SVG Export Plug-In . SVG Version: 6.00 Build 0)  -->
<svg version="1.1" id="Capa_1" xmlns="http://www.w3.org/2000/svg" xmlns:xlink="http://www.w3.org/1999/xlink" x="0px" y="0px"
	 viewBox="0 0 512 512" style="enable-background:new 0 0 512 512;" xml:space="preserve">
<path style="fill:#8CB4EB;" d="M370.497,29.085L266.669,1.398c-6.991-1.864-14.348-1.864-21.338,0L141.503,29.085
	c-6.237,1.663-11.581,5.688-14.902,11.223l-37.857,63.095c-3.91,6.517-2.883,14.859,2.491,20.233l40.544,40.544h248.442
	l40.544-40.544c5.374-5.374,6.401-13.716,2.491-20.233L385.4,40.308C382.078,34.774,376.733,30.749,370.497,29.085z"/>
<path style="fill:#5A4650;" d="M98.679,420.905c0,0,0-8.281,0-34.368c0-78.259,33.1-95.65,33.1-147.823h82.814v182.191
	L98.679,420.905L98.679,420.905z"/>
<path style="fill:#E3AA75;" d="M413.322,417.449l-85.532-30.188c-13.244-4.674-22.101-17.193-22.101-31.237v-26.215h-99.377v26.215
	c0,14.045-8.857,26.563-22.101,31.237l-85.532,30.188c-19.866,7.012-33.151,25.788-33.151,46.855v22.851
	c0,13.721,11.123,24.844,24.844,24.844h331.256c13.721,0,24.844-11.123,24.844-24.844v-22.85
	C446.472,443.238,433.188,424.461,413.322,417.449z"/>
<path style="fill:#8CB4EB;" d="M413.322,417.449l-85.532-30.188c-1.213-0.428-2.345-0.99-3.481-1.544L256,429.186l-68.308-43.469
	c-1.136,0.555-2.268,1.116-3.481,1.544l-85.532,30.188c-19.866,7.012-33.151,25.788-33.151,46.855v22.851
	c0,13.721,11.123,24.844,24.844,24.844h331.256c13.721,0,24.844-11.123,24.844-24.844v-22.85
	C446.472,443.238,433.188,424.461,413.322,417.449z"/>
<path style="fill:#739BD7;" d="M160.361,399.703l26.365,59.321c3.985,8.964,12.902,14.757,22.72,14.757
	c5.787,0,11.429-2.046,15.887-5.761L256,442.465l30.667,25.555c4.458,3.715,10.1,5.761,15.888,5.761
	c9.818,0,18.736-5.793,22.72-14.756l26.365-59.321c0.519-1.168,0.94-2.364,1.267-3.577l-25.117-8.865
	c-1.213-0.428-2.345-0.99-3.481-1.544L256,429.186l-68.308-43.469c-1.136,0.555-2.268,1.116-3.481,1.544l-25.117,8.865
	C159.421,397.339,159.841,398.535,160.361,399.703z"/>
<path style="fill:#D29B6E;" d="M256,362.935c17.597,0,34.398-3.835,49.688-10.596V329.81h-99.377v22.529
	C221.602,359.1,238.403,362.935,256,362.935z"/>
<path style="fill:#F5B97D;" d="M367.799,205.588h-4.141v-33.126c0-27.442-22.246-49.688-49.688-49.688H198.03
	c-27.442,0-49.688,22.246-49.688,49.688v33.126h-4.141c-11.434,0-20.704,9.269-20.704,20.704c0,11.434,9.269,20.704,20.704,20.704
	h4.559c4.242,55.575,50.578,99.377,107.24,99.377s102.998-43.801,107.24-99.377h4.559c11.434,0,20.703-9.27,20.703-20.704
	C388.503,214.857,379.233,205.588,367.799,205.588z"/>
<g>
	<path style="fill:#5A4650;" d="M206.312,231.152c-4.577,0-8.281-3.704-8.281-8.281v-8.281c0-4.577,3.704-8.281,8.281-8.281
		c4.577,0,8.281,3.704,8.281,8.281v8.281C214.593,227.448,210.889,231.152,206.312,231.152z"/>
	<path style="fill:#5A4650;" d="M305.688,231.152c-4.577,0-8.281-3.704-8.281-8.281v-8.281c0-4.577,3.704-8.281,8.281-8.281
		s8.281,3.704,8.281,8.281v8.281C313.97,227.448,310.266,231.152,305.688,231.152z"/>
</g>
<path style="fill:#B67F5F;" d="M256,296.684c-12.43,0-23.89-3.987-30.659-10.667c-3.259-3.219-3.292-8.459-0.081-11.71
	c3.227-3.267,8.467-3.292,11.71-0.081c2.758,2.717,9.389,5.896,19.029,5.896s16.272-3.178,19.029-5.896
	c3.243-3.211,8.484-3.186,11.71,0.081c3.211,3.251,3.178,8.492-0.081,11.71C279.891,292.696,268.43,296.684,256,296.684z"/>
<path style="fill:#E3AA75;" d="M256,205.588c39.23,0,80.101-6.118,107.658-18.95v-14.176c0-17.293-8.843-32.507-22.244-41.407
	H170.586c-13.401,8.9-22.244,24.114-22.244,41.407v33.126h-2.96c-10.829,0-20.698,7.792-21.777,18.567
	c-1.241,12.393,8.457,22.84,20.596,22.84h4.559c4.242,55.575,50.578,99.377,107.24,99.377c5.665,0,11.188-0.552,16.615-1.396
	c-51.599-7.963-91.147-52.434-91.147-106.263l0,0c0-20.838,18.023-36.898,38.76-34.86C232.018,205.012,244.078,205.588,256,205.588z
	"/>
<g>
	<path style="fill:#5A4650;" d="M361.688,207.336l18.533,2.22v-61.938h-33.126v43.273
		C347.095,199.276,353.362,206.339,361.688,207.336z"/>
	<path style="fill:#5A4650;" d="M150.312,207.336l-18.533,2.22v-61.938h33.126v43.273
		C164.905,199.276,158.638,206.339,150.312,207.336z"/>
</g>
<path style="fill:#6E5A64;" d="M256,189.025c-68.605,0-124.221-18.538-124.221-41.407h248.442
	C380.221,170.487,324.605,189.025,256,189.025z"/>
<polygon style="fill:#64505A;" points="268.432,462.312 243.437,462.965 235.768,512 276.232,512 "/>
<path style="fill:#5A4650;" d="M260.275,466.797h-8.549c-7.242,0-13.644-4.704-15.807-11.615l-10.729-34.277h61.62l-10.729,34.277
	C273.918,462.093,267.516,466.797,260.275,466.797z"/>
<g>
	<path style="fill:#8CB4EB;" d="M203.886,368.791L256,420.905l-41.27,34.392c-4.222,3.518-10.637,2.024-12.869-2.999l-26.365-59.321
		c-1.392-3.131-0.711-6.796,1.712-9.219l14.967-14.967C195.408,365.556,200.652,365.556,203.886,368.791z"/>
	<path style="fill:#8CB4EB;" d="M308.115,368.791L256,420.905l41.27,34.392c4.222,3.518,10.637,2.024,12.869-2.999l26.365-59.321
		c1.392-3.131,0.711-6.796-1.712-9.219l-14.967-14.967C316.592,365.556,311.348,365.556,308.115,368.791z"/>
</g>
<g>
	<path style="fill:#739BD7;" d="M125.916,471.022l-46.73-40.89c-3.86,4.072-6.927,8.808-9.224,13.939l45.052,39.422
		c5.394,4.715,8.484,11.533,8.484,18.698V512h16.563v-9.81C140.06,490.253,134.909,478.891,125.916,471.022z"/>
	<path style="fill:#739BD7;" d="M386.085,471.022l46.73-40.89c3.86,4.072,6.927,8.808,9.224,13.939l-45.052,39.422
		c-5.394,4.715-8.484,11.533-8.484,18.698V512H371.94v-9.81C371.94,490.253,377.091,478.891,386.085,471.022z"/>
	<path style="fill:#739BD7;" d="M371.94,97.93H140.06c-4.574,0-8.281,3.708-8.281,8.281v41.407h248.442v-41.407
		C380.221,101.638,376.513,97.93,371.94,97.93z"/>
</g>
<path style="fill:#FFE17D;" d="M256,106.211L256,106.211c-13.721,0-24.844-11.123-24.844-24.844V56.523
	c0-4.574,3.708-8.281,8.281-8.281h33.126c4.574,0,8.281,3.708,8.281,8.281v24.844C280.844,95.088,269.721,106.211,256,106.211z"/>
<path style="fill:#FFD164;" d="M247.719,81.367V56.523c0-4.574,3.708-8.281,8.281-8.281h-16.563c-4.574,0-8.281,3.708-8.281,8.281
	v24.844c0,13.721,11.123,24.844,24.844,24.844c2.92,0,5.679-0.596,8.281-1.521C254.654,101.267,247.719,92.169,247.719,81.367z"/>
<g>
</g>
<g>
</g>
<g>
</g>
<g>
</g>
<g>
</g>
<g>
</g>
<g>
</g>
<g>
</g>
<g>
</g>
<g>
</g>
<g>
</g>
<g>
</g>
<g>
</g>
<g>
</g>
<g>
</g>
</svg>
