<?xml version="1.0" encoding="iso-8859-1"?>
<!-- Generator: Adobe Illustrator 19.0.0, SVG Export Plug-In . SVG Version: 6.00 Build 0)  -->
<svg version="1.1" id="Capa_1" xmlns="http://www.w3.org/2000/svg" xmlns:xlink="http://www.w3.org/1999/xlink" x="0px" y="0px"
	 viewBox="0 0 512 512" style="enable-background:new 0 0 512 512;" xml:space="preserve">
<path style="fill:#8CB4EB;" d="M370.497,29.085L266.669,1.398c-6.991-1.864-14.348-1.864-21.338,0L141.503,29.085
	c-6.237,1.663-11.581,5.688-14.902,11.223l-37.857,63.095c-3.91,6.517-2.883,14.859,2.491,20.233l40.544,40.544h248.442
	l40.544-40.544c5.374-5.374,6.401-13.716,2.491-20.233L385.4,40.308C382.078,34.774,376.733,30.749,370.497,29.085z"/>
<path style="fill:#B67F5F;" d="M419.086,410.414l-87.282-25.671c-10.573-3.11-17.834-12.814-17.834-23.835v-31.099H198.03v31.099
	c0,11.021-7.261,20.725-17.834,23.835l-87.282,25.671c-21.146,6.22-35.668,25.627-35.668,47.669v29.073
	C57.246,500.877,68.369,512,82.09,512h347.819c13.721,0,24.844-11.123,24.844-24.844v-29.073
	C454.754,436.041,440.232,416.633,419.086,410.414z"/>
<path style="fill:#8CB4EB;" d="M419.086,410.414l-87.282-25.671c-5.523-1.625-10.105-5.074-13.258-9.545l-62.629,20.863
	l-62.478-20.84c-3.152,4.46-7.729,7.9-13.243,9.522l-87.282,25.671c-21.146,6.22-35.668,25.627-35.668,47.669v29.073
	C57.247,500.877,68.37,512,82.091,512H429.91c13.721,0,24.844-11.123,24.844-24.844v-29.073
	C454.754,436.041,440.232,416.633,419.086,410.414z"/>
<polygon style="fill:#64505A;" points="269.366,442.014 242.493,442.935 234.247,512 277.753,512 "/>
<path style="fill:#739BD7;" d="M150.18,393.571c0.546,2.164,1.321,4.281,2.459,6.272l25.957,45.423
	c4.412,7.721,12.682,12.519,21.583,12.519c5.918,0,11.655-2.124,16.156-5.982l39.583-33.928l39.583,33.928
	c4.501,3.858,10.239,5.982,16.156,5.982c8.901,0,17.171-4.797,21.583-12.52l25.955-45.42c1.146-2.006,1.921-4.139,2.467-6.32
	l-29.857-8.782c-5.523-1.625-10.105-5.074-13.258-9.545l-62.629,20.863l-62.478-20.84c-3.152,4.46-7.729,7.9-13.243,9.522
	L150.18,393.571z"/>
<path style="fill:#5A4650;" d="M260.596,446.837h-9.192c-7.786,0-14.669-5.205-16.995-12.852l-11.535-37.925h66.251l-11.535,37.925
	C275.266,441.632,268.382,446.837,260.596,446.837z"/>
<path style="fill:#A06E50;" d="M198.03,348.29c17.398,9.293,37.129,14.645,57.97,14.645s40.572-5.352,57.97-14.645v-18.48H198.03
	V348.29z"/>
<path style="fill:#CD916E;" d="M367.799,205.588h-4.141v-82.814H148.342v82.814h-4.141c-11.387,0-20.704,9.317-20.704,20.704
	s9.317,20.704,20.704,20.704h4.559c4.242,55.575,50.578,99.377,107.24,99.377s102.998-43.801,107.24-99.377h4.559
	c11.387,0,20.703-9.317,20.703-20.704S379.186,205.588,367.799,205.588z"/>
<g>
	<path style="fill:#5A4650;" d="M206.312,231.152c-4.577,0-8.281-3.708-8.281-8.281v-8.281c0-4.573,3.704-8.281,8.281-8.281
		c4.577,0,8.281,3.708,8.281,8.281v8.281C214.593,227.444,210.889,231.152,206.312,231.152z"/>
	<path style="fill:#5A4650;" d="M305.688,231.152c-4.577,0-8.281-3.708-8.281-8.281v-8.281c0-4.573,3.704-8.281,8.281-8.281
		s8.281,3.708,8.281,8.281v8.281C313.97,227.444,310.266,231.152,305.688,231.152z"/>
</g>
<path style="fill:#B67F5F;" d="M256,205.588c39.23,0,80.101-6.118,107.658-18.95v-63.864H148.342v82.814h-3.415
	c-9.429,0-18.235,5.975-20.677,15.082c-3.694,13.773,6.734,26.325,19.951,26.325h4.559c4.242,55.575,50.578,99.377,107.24,99.377
	c5.665,0,11.188-0.552,16.615-1.396c-51.599-7.963-91.147-52.434-91.147-106.263v-11.482c0-15.079,13.285-26.524,28.238-24.578
	C224.773,204.615,240.503,205.588,256,205.588z"/>
<g>
	<path style="fill:#5A4650;" d="M150.42,207.42l-18.641,2.358v-62.159h33.126v43.37C164.905,199.332,158.698,206.373,150.42,207.42z
		"/>
	<path style="fill:#5A4650;" d="M361.58,207.42l18.641,2.358v-62.159h-33.126v43.37C347.095,199.332,353.302,206.373,361.58,207.42z
		"/>
</g>
<g>
	<path style="fill:#8CB4EB;" d="M177.517,362.389l-10.713,21.425c-1.238,2.477-1.157,5.408,0.217,7.812l25.955,45.421
		c2.58,4.514,8.632,5.563,12.58,2.179l50.362-43.167l-66.971-37.207C184.824,356.564,179.625,358.172,177.517,362.389z"/>
	<path style="fill:#8CB4EB;" d="M334.318,362.389c-2.109-4.217-7.307-5.825-11.429-3.536l-66.972,37.207l50.362,43.167
		c3.948,3.384,10,2.335,12.58-2.179l25.955-45.421c1.374-2.404,1.455-5.336,0.217-7.812L334.318,362.389z"/>
</g>
<path style="fill:#A06E50;" d="M272.563,288.402h-33.126c-4.577,0-8.281-3.704-8.281-8.281s3.704-8.281,8.281-8.281h33.126
	c4.577,0,8.281,3.704,8.281,8.281S277.141,288.402,272.563,288.402z"/>
<path style="fill:#6E5A64;" d="M256,189.025c-68.605,0-124.221-18.538-124.221-41.407h248.442
	C380.221,170.487,324.605,189.025,256,189.025z"/>
<path style="fill:#739BD7;" d="M371.94,97.93H140.06c-4.574,0-8.281,3.708-8.281,8.281v41.407h248.442v-41.407
	C380.221,101.638,376.513,97.93,371.94,97.93z"/>
<path style="fill:#FFE17D;" d="M256,106.211L256,106.211c-13.721,0-24.844-11.123-24.844-24.844V56.523
	c0-4.574,3.708-8.281,8.281-8.281h33.126c4.574,0,8.281,3.708,8.281,8.281v24.844C280.844,95.088,269.721,106.211,256,106.211z"/>
<path style="fill:#FFD164;" d="M247.719,81.367V56.523c0-4.574,3.708-8.281,8.281-8.281h-16.563c-4.574,0-8.281,3.708-8.281,8.281
	v24.844c0,13.721,11.123,24.844,24.844,24.844c2.92,0,5.679-0.596,8.281-1.521C254.654,101.267,247.719,92.169,247.719,81.367z"/>
<g>
	<path style="fill:#739BD7;" d="M125.697,462.708L75.87,419.495c-4.352,3.507-8.047,7.689-10.985,12.405l49.959,43.327
		c5.451,4.723,8.573,11.565,8.573,18.771V512h16.563v-18.002C139.979,481.988,134.771,470.585,125.697,462.708z"/>
	<path style="fill:#739BD7;" d="M386.222,462.708l49.827-43.213c4.352,3.507,8.047,7.689,10.985,12.405l-49.959,43.327
		c-5.451,4.723-8.573,11.565-8.573,18.771V512H371.94v-18.002C371.94,481.988,377.148,470.585,386.222,462.708z"/>
</g>
<g>
</g>
<g>
</g>
<g>
</g>
<g>
</g>
<g>
</g>
<g>
</g>
<g>
</g>
<g>
</g>
<g>
</g>
<g>
</g>
<g>
</g>
<g>
</g>
<g>
</g>
<g>
</g>
<g>
</g>
</svg>
