<?xml version="1.0" encoding="iso-8859-1"?>
<!-- Generator: Adobe Illustrator 19.0.0, SVG Export Plug-In . SVG Version: 6.00 Build 0)  -->
<svg version="1.1" id="Capa_1" xmlns="http://www.w3.org/2000/svg" xmlns:xlink="http://www.w3.org/1999/xlink" x="0px" y="0px"
	 viewBox="0 0 512 512" style="enable-background:new 0 0 512 512;" xml:space="preserve">
<path style="fill:#E3AA75;" d="M412.878,401.236l-85.291-30.103c-13.207-4.661-22.039-17.144-22.039-31.149V297.29h-99.097v42.694
	c0,14.005-8.832,26.488-22.039,31.149l-85.291,30.103c-19.81,6.992-33.057,25.716-33.057,46.723v39.267
	c0,13.682,11.092,24.774,24.774,24.774h330.323c13.682,0,24.774-11.092,24.774-24.774v-39.267
	C445.935,426.952,432.688,408.228,412.878,401.236z"/>
<path style="fill:#9BDC9B;" d="M412.878,401.236l-82.58-29.146c-0.26,40.825-33.412,73.845-74.298,73.845
	s-74.039-33.021-74.298-73.845l-82.58,29.146c-19.81,6.991-33.057,25.716-33.057,46.723v39.267
	c0,13.682,11.092,24.774,24.774,24.774h330.323c13.682,0,24.774-11.092,24.774-24.774v-39.267
	C445.935,426.952,432.688,408.227,412.878,401.236z"/>
<path style="fill:#B4E6A0;" d="M165.474,377.818c3.202,47.262,42.452,84.634,90.526,84.634s87.324-37.372,90.526-84.634
	l-16.227-5.727c-0.26,40.825-33.412,73.845-74.298,73.845s-74.039-33.021-74.298-73.845L165.474,377.818z"/>
<path style="fill:#D29B6E;" d="M206.452,319.756c15.247,6.742,32.001,10.567,49.548,10.567s34.301-3.824,49.548-10.567V297.29
	h-99.097L206.452,319.756L206.452,319.756z"/>
<path style="fill:#64505A;" d="M371.613,206.452l-21.108,98.504c-2.438,11.374-3.666,22.974-3.666,34.606v6.151
	c0,6.252,0.328,12.499,0.982,18.716L363.355,512h-57.806V206.452H371.613z"/>
<path style="fill:#9BDC9B;" d="M346.839,339.561v6.151c0,3.131,0.083,6.26,0.247,9.385h-41.537v-33.032h42.225
	C347.154,327.872,346.839,333.713,346.839,339.561z"/>
<path style="fill:#64505A;" d="M140.387,206.452l21.108,98.504c2.438,11.374,3.666,22.974,3.666,34.606v6.151
	c0,6.252-0.328,12.499-0.982,18.716L148.645,512h57.806V206.452H140.387z"/>
<path style="fill:#5A4650;" d="M383.832,198.194c7.993-17.645,12.555-37.175,12.555-57.806C396.387,62.853,333.534,0,256,0
	S115.613,62.853,115.613,140.387c0,20.632,4.561,40.161,12.555,57.806h255.664V198.194z"/>
<path style="fill:#F5B97D;" d="M367.484,173.419h-4.129v-8.258c0-59.291-48.065-107.355-107.355-107.355
	S148.645,105.87,148.645,165.161v8.258h-4.129c-11.402,0-20.645,9.243-20.645,20.645s9.243,20.645,20.645,20.645h4.546
	c4.23,55.419,50.435,99.097,106.938,99.097s102.708-43.678,106.938-99.097h4.546c11.402,0,20.645-9.243,20.645-20.645
	C388.129,182.662,378.886,173.419,367.484,173.419z"/>
<path style="fill:#E3AA75;" d="M181.677,206.452v-41.29c0-8.185,0.923-16.149,2.667-23.798
	c4.958-21.744,29.663-31.787,49.062-20.783c39.032,22.14,83.214,34.677,129.519,36.075c-4.478-56.965-53.319-101.457-112.04-98.73
	c-57.816,2.684-102.24,48.042-102.24,109.128v6.366h-2.951c-12.107,0-20.64,7.77-21.716,18.515
	c-1.238,12.358,8.434,22.775,20.538,22.775h4.546c4.23,55.419,50.435,99.097,106.938,99.097c5.649,0,11.157-0.55,16.568-1.392
	C221.114,304.474,181.677,260.129,181.677,206.452z"/>
<path style="fill:#FFFFFF;" d="M224.355,227.067c-3.12,0-5.543,2.871-4.92,5.928c3.142,15.414,18.318,27.104,36.565,27.104
	s33.422-11.69,36.565-27.104c0.623-3.057-1.8-5.928-4.92-5.928H224.355z"/>
<g>
	<path style="fill:#5A4650;" d="M206.452,198.194c-4.565,0-8.258-3.694-8.258-8.258v-8.258c0-4.565,3.694-8.258,8.258-8.258
		s8.258,3.694,8.258,8.258v8.258C214.71,194.5,211.016,198.194,206.452,198.194z"/>
	<path style="fill:#5A4650;" d="M305.548,198.194c-4.565,0-8.258-3.694-8.258-8.258v-8.258c0-4.565,3.694-8.258,8.258-8.258
		c4.565,0,8.258,3.694,8.258,8.258v8.258C313.806,194.5,310.113,198.194,305.548,198.194z"/>
</g>
<g>
	<path style="fill:#6E5A64;" d="M198.185,164.96c-4.145,0-7.726-3.113-8.202-7.331c-0.508-4.532,2.75-8.621,7.282-9.137
		l16.516-1.863c4.581-0.476,8.621,2.75,9.137,7.282c0.508,4.532-2.75,8.621-7.282,9.137l-16.516,1.863
		C198.806,164.944,198.492,164.96,198.185,164.96z"/>
	<path style="fill:#6E5A64;" d="M313.815,164.96c-0.306,0-0.621-0.016-0.935-0.048l-16.516-1.863
		c-4.532-0.516-7.79-4.605-7.282-9.137s4.54-7.766,9.137-7.282l16.516,1.863c4.532,0.516,7.79,4.605,7.282,9.137
		C321.54,161.847,317.96,164.96,313.815,164.96z"/>
</g>
<path style="fill:#64505A;" d="M256,0c-36.349,0-69.361,13.932-94.293,36.597c48.294,63.077,124.328,103.79,209.906,103.79
	c8.338,0,16.573-0.433,24.714-1.189C395.681,62.218,333.133,0,256,0z"/>
<path style="fill:#9BDC9B;" d="M165.161,339.561v6.151c0,3.131-0.083,6.26-0.247,9.385h41.537v-33.032h-42.225
	C164.846,327.872,165.161,333.713,165.161,339.561z"/>
<g>
	<path style="fill:#B4E6A0;" d="M165.135,338.581h41.317v-16.516h-42.225C164.811,327.547,165.102,333.06,165.135,338.581z"/>
	<path style="fill:#B4E6A0;" d="M305.548,338.581h41.317c0.033-5.521,0.324-11.033,0.908-16.516h-42.225L305.548,338.581
		L305.548,338.581z"/>
</g>
<g>
</g>
<g>
</g>
<g>
</g>
<g>
</g>
<g>
</g>
<g>
</g>
<g>
</g>
<g>
</g>
<g>
</g>
<g>
</g>
<g>
</g>
<g>
</g>
<g>
</g>
<g>
</g>
<g>
</g>
</svg>
