<?xml version="1.0" encoding="iso-8859-1"?>
<!-- Generator: Adobe Illustrator 19.0.0, SVG Export Plug-In . SVG Version: 6.00 Build 0)  -->
<svg version="1.1" id="Capa_1" xmlns="http://www.w3.org/2000/svg" xmlns:xlink="http://www.w3.org/1999/xlink" x="0px" y="0px"
	 viewBox="0 0 512 512" style="enable-background:new 0 0 512 512;" xml:space="preserve">
<path style="fill:#FF8087;" d="M418.626,361.152l-87.036-25.599c-10.544-3.101-17.784-12.778-17.784-23.768v-39.269H198.194v39.269
	c0,10.99-7.24,20.667-17.784,23.768l-87.036,25.599c-21.087,6.202-35.567,25.555-35.567,47.535v78.539
	c0,13.682,11.092,24.774,24.774,24.774H429.42c13.682,0,24.774-11.092,24.774-24.774v-78.539
	C454.194,386.707,439.713,367.354,418.626,361.152z"/>
<path style="fill:#FFE17D;" d="M418.627,361.152l-21.628-6.361L256,425.29l-140.999-70.499l-21.628,6.361
	c-21.087,6.202-35.567,25.555-35.567,47.535v78.539C57.806,500.908,68.898,512,82.58,512h346.839
	c13.682,0,24.774-11.092,24.774-24.774v-78.539C454.194,386.707,439.713,367.354,418.627,361.152z"/>
<path style="fill:#E6646E;" d="M198.194,290.945c17.349,9.267,37.024,14.604,57.806,14.604s40.457-5.337,57.806-14.604v-18.428
	H198.194V290.945z"/>
<path style="fill:#FFE1A0;" d="M367.484,148.645h-4.129v-82.58h-214.71v82.581h-4.129c-11.355,0-20.645,9.29-20.645,20.645
	c0,11.355,9.29,20.645,20.645,20.645h4.546c4.23,55.419,50.435,99.097,106.938,99.097s102.708-43.678,106.938-99.097h4.546
	c11.355,0,20.645-9.29,20.645-20.645C388.129,157.935,378.839,148.645,367.484,148.645z"/>
<path style="fill:#F7D291;" d="M181.677,181.677V66.065h-33.032v82.581h-4.129c-11.355,0-20.645,9.29-20.645,20.645
	c0,11.355,9.29,20.645,20.645,20.645h4.546c4.23,55.419,50.435,99.097,106.938,99.097c5.649,0,11.157-0.55,16.568-1.392
	C221.114,279.7,181.677,235.354,181.677,181.677z"/>
<path style="fill:#FF8087;" d="M256,0c-68.412,0-123.871,55.459-123.871,123.871v8.258h247.742v-8.258
	C379.871,55.459,324.412,0,256,0z"/>
<path style="fill:#FFE17D;" d="M256,0c-24.318,0-46.929,7.109-66.065,19.215v112.914h132.129V19.215C302.928,7.11,280.318,0,256,0z"
	/>
<rect x="231.23" y="123.87" style="fill:#6E5A64;" width="49.548" height="49.548"/>
<path style="fill:#E3AA75;" d="M256,231.226c-12.387,0-23.823-3.976-30.573-10.637c-3.25-3.202-3.282-8.431-0.081-11.677
	c3.202-3.25,8.444-3.282,11.677-0.081c2.75,2.714,9.371,5.879,18.976,5.879c9.605,0,16.226-3.165,18.976-5.879
	c3.234-3.202,8.476-3.169,11.677,0.081c3.202,3.246,3.169,8.476-0.081,11.677C279.823,227.25,268.387,231.226,256,231.226z"/>
<g>
	<path style="fill:#64505A;" d="M132.129,123.871h99.097c4.561,0,8.258,3.697,8.258,8.258v33.02
		c0,24.437-27.446,38.818-47.538,24.908l-52.701-36.486c-4.456-3.085-7.115-8.16-7.115-13.579L132.129,123.871L132.129,123.871z"/>
	<path style="fill:#64505A;" d="M379.871,123.871h-99.097c-4.561,0-8.258,3.697-8.258,8.258v33.02
		c0,24.437,27.446,38.818,47.538,24.908l52.701-36.486c4.456-3.085,7.115-8.16,7.115-13.579v-16.121H379.871z"/>
</g>
<g>
	<path style="fill:#FFFFFF;" d="M210.581,173.419c-4.565,0-8.258-3.694-8.258-8.258v-8.258c0-4.565,3.694-8.258,8.258-8.258
		s8.258,3.694,8.258,8.258v8.258C218.839,169.726,215.145,173.419,210.581,173.419z"/>
	<path style="fill:#FFFFFF;" d="M301.419,173.419c-4.565,0-8.258-3.694-8.258-8.258v-8.258c0-4.565,3.694-8.258,8.258-8.258
		s8.258,3.694,8.258,8.258v8.258C309.677,169.726,305.984,173.419,301.419,173.419z"/>
	<path style="fill:#FFFFFF;" d="M297.29,429.419c0-25.707-23.493-45.927-50.181-40.362c-16.168,3.372-28.999,16.805-31.777,33.085
		c-3.337,19.55,7.084,37.139,23.159,44.676c5.7,2.672,9.251,8.486,9.251,14.782V512h16.516v-30.401
		c0-6.351,3.651-12.129,9.392-14.847C287.624,460.135,297.29,445.908,297.29,429.419z"/>
	<path style="fill:#FFFFFF;" d="M256,99.097c-1.597,0-3.194-0.46-4.581-1.387l-24.774-16.516c-3.798-2.532-4.823-7.653-2.29-11.452
		c2.516-3.798,7.637-4.815,11.452-2.29L256,80.911l20.194-13.46c3.798-2.524,8.927-1.508,11.452,2.29
		c2.532,3.798,1.508,8.919-2.29,11.452L260.581,97.71C259.194,98.637,257.597,99.097,256,99.097z"/>
</g>
<path style="fill:#FF8087;" d="M256,66.065c-4.565,0-8.258-3.694-8.258-8.258v-8.258c0-4.565,3.694-8.258,8.258-8.258
	c4.564,0,8.258,3.694,8.258,8.258v8.258C264.258,62.371,260.565,66.065,256,66.065z"/>
<g>
	<path style="fill:#FFD164;" d="M396.589,425.766l49.763-43.544c-2.968-4.675-6.679-8.818-11.049-12.279l-49.585,43.388
		c-8.968,7.847-14.105,19.177-14.105,31.081V512h16.516v-67.589C388.129,437.266,391.21,430.468,396.589,425.766z"/>
	<path style="fill:#FFD164;" d="M115.411,425.766l-49.763-43.544c2.968-4.675,6.679-8.818,11.049-12.279l49.585,43.388
		c8.968,7.847,14.105,19.177,14.105,31.081V512h-16.516v-67.589C123.871,437.266,120.79,430.468,115.411,425.766z"/>
</g>
<circle style="fill:#FF8087;" cx="256" cy="429.42" r="24.774"/>
<path style="fill:#E6646E;" d="M268.387,441.806c-13.682,0-24.774-11.092-24.774-24.774c0-3.631,0.824-7.053,2.227-10.16
	c-8.602,3.885-14.614,12.495-14.614,22.547c0,13.682,11.092,24.774,24.774,24.774c10.052,0,18.662-6.012,22.547-14.614
	C275.44,440.982,272.018,441.806,268.387,441.806z"/>
<g>
</g>
<g>
</g>
<g>
</g>
<g>
</g>
<g>
</g>
<g>
</g>
<g>
</g>
<g>
</g>
<g>
</g>
<g>
</g>
<g>
</g>
<g>
</g>
<g>
</g>
<g>
</g>
<g>
</g>
</svg>
