<?xml version="1.0" encoding="iso-8859-1"?>
<!-- Generator: Adobe Illustrator 19.0.0, SVG Export Plug-In . SVG Version: 6.00 Build 0)  -->
<svg version="1.1" id="Capa_1" xmlns="http://www.w3.org/2000/svg" xmlns:xlink="http://www.w3.org/1999/xlink" x="0px" y="0px"
	 viewBox="0 0 512 512" style="enable-background:new 0 0 512 512;" xml:space="preserve">
<path style="fill:#5A4650;" d="M356.645,270.452c-6.194-28.387-1.548-64-1.548-64H297.29v181.677h99.097h0.344
	C390.71,343.742,365.37,310.44,356.645,270.452z"/>
<path style="fill:#B67F5F;" d="M412.878,392.978l-85.291-30.103c-13.207-4.661-22.039-17.144-22.039-31.149v-50.952h-99.097v50.952
	c0,14.005-8.832,26.488-22.038,31.149l-85.291,30.103c-19.81,6.992-33.057,25.716-33.057,46.723v47.525
	c0,13.682,11.092,24.774,24.774,24.774h330.323c13.682,0,24.774-11.092,24.774-24.774v-47.525
	C445.935,418.694,432.688,399.97,412.878,392.978z"/>
<path style="fill:#FF8087;" d="M327.335,362.763c0.087,0.032,0.164,0.081,0.252,0.112l85.291,30.103
	c19.81,6.991,33.057,25.716,33.057,46.723v47.525c0,13.682-11.092,24.774-24.774,24.774H156.903
	C270.523,460.975,316.029,384.933,327.335,362.763z"/>
<path style="fill:#E6646E;" d="M367.574,376.988c-15.676,47.281-34.649,97.642-59.04,135.012h-20.088
	c29.295-40.452,51.701-104.482,63.558-140.507L367.574,376.988z"/>
<path style="fill:#FFD164;" d="M184.665,362.763c-0.087,0.032-0.164,0.081-0.252,0.112l-85.291,30.103
	c-19.81,6.991-33.057,25.716-33.057,46.723v47.525c0,13.682,11.092,24.774,24.774,24.774h264.258
	C241.477,460.975,195.971,384.933,184.665,362.763z"/>
<path style="fill:#A06E50;" d="M206.452,311.845c15.198,6.584,31.957,10.219,49.548,10.219s34.35-3.636,49.548-10.219v-31.071
	h-99.097L206.452,311.845L206.452,311.845z"/>
<circle style="fill:#FFE17D;" cx="148.65" cy="256" r="33.03"/>
<circle style="fill:#FFD164;" cx="148.65" cy="256" r="16.516"/>
<circle style="fill:#FFE17D;" cx="363.359" cy="256" r="33.03"/>
<circle style="fill:#FFD164;" cx="363.359" cy="256" r="16.516"/>
<path style="fill:#5A4650;" d="M256,0c-72.973,0-132.129,59.156-132.129,132.129v61.936h264.258v-61.936
	C388.129,59.156,328.973,0,256,0z"/>
<path style="fill:#CD916E;" d="M367.484,173.419c0,0-11.058-1.332-14.441-2.268c-18.762-5.195-59.382-21.416-90.151-68.842
	c-3.242-4.997-10.541-4.997-13.783,0c-30.77,47.425-71.389,63.647-90.151,68.842c-3.383,0.936-14.441,2.268-14.441,2.268
	c-12.104,0-21.775,10.416-20.538,22.774c1.075,10.746,10.916,18.516,21.715,18.516h4.352c7.963,51.428,52.296,90.839,105.955,90.839
	s97.992-39.411,105.955-90.839h4.352c10.799,0,20.64-7.771,21.715-18.516C389.259,183.836,379.588,173.419,367.484,173.419z"/>
<g>
	<path style="fill:#5A4650;" d="M206.452,198.194c-4.565,0-8.258-3.698-8.258-8.258v-8.258c0-4.56,3.694-8.258,8.258-8.258
		s8.258,3.698,8.258,8.258v8.258C214.71,194.496,211.016,198.194,206.452,198.194z"/>
	<path style="fill:#5A4650;" d="M305.548,198.194c-4.565,0-8.258-3.698-8.258-8.258v-8.258c0-4.56,3.694-8.258,8.258-8.258
		c4.565,0,8.258,3.698,8.258,8.258v8.258C313.806,194.496,310.113,198.194,305.548,198.194z"/>
</g>
<path style="fill:#FFFFFF;" d="M224.355,227.067c-3.12,0-5.543,2.871-4.92,5.928c3.142,15.414,18.317,27.104,36.564,27.104
	c18.247,0,33.422-11.69,36.565-27.104c0.623-3.057-1.8-5.928-4.92-5.928H224.355z"/>
<path style="fill:#B67F5F;" d="M353.043,171.151c-18.747-5.192-59.319-21.391-90.079-68.731c-3.277-5.044-10.645-5.052-13.922-0.008
	c-21.251,32.708-47.178,50.542-67.364,60.161c-9.034,4.304-16.924,6.973-22.72,8.578c-3.383,0.936-14.441,2.268-14.441,2.268
	c-12.104,0-21.775,10.415-20.538,22.774c1.075,10.746,10.916,18.517,21.715,18.517h4.352c7.963,51.428,52.296,90.839,105.955,90.839
	c5.672,0,11.21-0.532,16.642-1.381c-49.557-7.612-87.985-48.994-90.799-99.97c-0.219-3.963,0.422-7.943,1.572-11.742l0,0
	c2.634-8.698,8.409-16.127,16.314-20.611c18.064-10.246,38.285-26.081,56.271-50.479c21.545,29.226,46.297,46.164,66.709,55.929
	c14.56,6.966,31.704,5.594,44.775-3.876C367.484,173.419,356.424,172.088,353.043,171.151z"/>
<path style="fill:#64505A;" d="M279.939,2.274c-4.731,12.106-7.422,25.235-7.422,39.017c0,59.29,48.065,107.355,107.355,107.355
	c2.788,0,5.524-0.209,8.258-0.417V132.13C388.129,67.342,341.466,13.551,279.939,2.274z"/>
<g>
	<path style="fill:#FFC350;" d="M144.426,376.988c15.676,47.281,34.649,97.642,59.04,135.012h20.088
		c-29.295-40.452-51.701-104.482-63.558-140.507L144.426,376.988z"/>
	<path style="fill:#FFC350;" d="M151.764,512h17.097c-12.458-42.41-23.826-87.78-34.357-131.51l-15.639,5.52
		C128.97,427.918,139.87,471.084,151.764,512z"/>
</g>
<g>
</g>
<g>
</g>
<g>
</g>
<g>
</g>
<g>
</g>
<g>
</g>
<g>
</g>
<g>
</g>
<g>
</g>
<g>
</g>
<g>
</g>
<g>
</g>
<g>
</g>
<g>
</g>
<g>
</g>
</svg>
