<?xml version="1.0" encoding="iso-8859-1"?>
<!-- Generator: Adobe Illustrator 19.0.0, SVG Export Plug-In . SVG Version: 6.00 Build 0)  -->
<svg version="1.1" id="Capa_1" xmlns="http://www.w3.org/2000/svg" xmlns:xlink="http://www.w3.org/1999/xlink" x="0px" y="0px"
	 viewBox="0 0 512 512" style="enable-background:new 0 0 512 512;" xml:space="preserve">
<rect x="148.651" y="173.42" style="fill:#C9C6CA;" width="214.71" height="214.71"/>
<path style="fill:#A5CDFF;" d="M412.879,392.978l-85.291-30.103c-13.207-4.661-22.039-17.144-22.039-31.149v-42.694h-99.097v42.694
	c0,14.005-8.832,26.488-22.039,31.149l-85.291,30.103c-19.81,6.992-33.057,25.716-33.057,46.723v47.525
	c0,13.682,11.092,24.774,24.774,24.774h330.323c13.682,0,24.774-11.092,24.774-24.774v-47.525
	C445.936,418.694,432.689,399.97,412.879,392.978z"/>
<path style="fill:#8CB4EB;" d="M256.001,495.484c64.762,0,117.379-51.448,119.536-115.685l-47.949-16.923
	c-13.207-4.661-22.039-17.144-22.039-31.149v-42.694h-99.097v42.694c0,14.005-8.832,26.488-22.039,31.149l-47.95,16.923
	C138.621,444.036,191.239,495.484,256.001,495.484z"/>
<path style="fill:#E3AA75;" d="M256.001,478.968c57.01,0,103.226-46.216,103.226-103.226c0-0.585-0.078-1.149-0.087-1.731
	l-31.552-11.136c-13.207-4.661-22.039-17.144-22.039-31.149v-42.694h-99.097v42.694c0,14.005-8.832,26.488-22.039,31.149
	l-31.551,11.136c-0.01,0.582-0.087,1.147-0.087,1.731C152.775,432.752,198.991,478.968,256.001,478.968z"/>
<path style="fill:#D29B6E;" d="M305.549,319.908v-30.876h-99.097v30.876c15.189,6.66,31.929,10.414,49.548,10.414
	S290.36,326.568,305.549,319.908z"/>
<path style="fill:#F5B97D;" d="M256.001,313.806L256.001,313.806c-59.291,0-107.355-48.064-107.355-107.355V99.097h214.71v107.355
	C363.356,265.742,315.291,313.806,256.001,313.806z"/>
<g>
	<path style="fill:#5A4650;" d="M206.453,198.911c-4.565,0-8.258-3.694-8.258-8.258v-8.258c0-4.565,3.694-8.258,8.258-8.258
		s8.258,3.694,8.258,8.258v8.258C214.711,195.218,211.017,198.911,206.453,198.911z"/>
	<path style="fill:#5A4650;" d="M305.549,198.911c-4.565,0-8.258-3.694-8.258-8.258v-8.258c0-4.565,3.694-8.258,8.258-8.258
		c4.565,0,8.258,3.694,8.258,8.258v8.258C313.807,195.218,310.114,198.911,305.549,198.911z"/>
</g>
<path style="fill:#B67F5F;" d="M256.001,256.718c-12.395,0-23.823-3.976-30.573-10.637c-3.25-3.21-3.282-8.435-0.081-11.677
	c3.218-3.25,8.444-3.282,11.677-0.081c2.75,2.71,9.363,5.879,18.976,5.879c9.613,0,16.226-3.169,18.976-5.879
	c3.234-3.202,8.46-3.169,11.677,0.081c3.202,3.242,3.169,8.468-0.081,11.677C279.824,252.742,268.396,256.718,256.001,256.718z"/>
<path style="fill:#E3AA75;" d="M148.646,99.097v107.355c0,59.29,48.065,107.355,107.355,107.355c5.632,0,11.118-0.564,16.516-1.4
	c-51.428-7.963-90.839-52.296-90.839-105.955v-5.873c0-9.431,5.697-17.707,14.212-21.76c27.315-13.001,47.881-34.779,60.116-50.47
	c18.526,23.757,56.083,61.582,107.349,61.587v-90.84L148.646,99.097L148.646,99.097z"/>
<path style="fill:#DBD9DC;" d="M148.646,375.499V189.107c0-8.172,5.732-15.496,13.803-16.774
	c43.146-6.826,73.899-44.057,86.807-62.655c1.644-2.369,4.197-3.554,6.751-3.558c2.553,0.004,5.106,1.19,6.75,3.558
	c12.908,18.598,43.662,55.829,86.807,62.655c8.072,1.277,13.803,8.602,13.803,16.774v186.396l33.02,11.654v-246.77
	C396.388,62.853,333.535,0,256.001,0S115.614,62.853,115.614,140.387v246.771L148.646,375.499z"/>
<path style="fill:#EDEBED;" d="M359.14,374.011l-31.552-11.136c-4.243-1.497-7.968-3.869-11.16-6.773l-60.427,40.285l-60.427-40.285
	c-3.192,2.903-6.917,5.275-11.16,6.773l-31.551,11.136c-0.01,0.582-0.087,1.147-0.087,1.731c0,57.01,46.216,103.226,103.226,103.226
	s103.226-46.216,103.226-103.226C359.227,375.157,359.149,374.593,359.14,374.011z"/>
<path style="fill:#DBD9DC;" d="M352.744,371.753l-25.156-8.878c-4.243-1.497-7.968-3.869-11.16-6.773l-60.427,40.285l-60.427-40.285
	c-3.192,2.903-6.917,5.275-11.16,6.773l-25.155,8.878c0.222,0.666,0.416,1.34,0.705,1.989l26.959,60.657
	c3.973,8.939,12.866,14.715,22.656,14.715c5.771,0,11.398-2.04,15.843-5.744l30.579-25.483l30.58,25.483
	c4.445,3.704,10.072,5.744,15.843,5.744c9.79,0,18.683-5.776,22.656-14.715l26.958-60.655
	C352.327,373.094,352.522,372.42,352.744,371.753z"/>
<g>
	<path style="fill:#FFFFFF;" d="M204.034,344.42l51.967,51.967l-41.154,34.295c-4.21,3.508-10.607,2.018-12.833-2.99l-26.958-60.655
		c-0.986-2.218-0.504-4.814,1.213-6.531l16.086-16.086C195.58,341.195,200.809,341.195,204.034,344.42z"/>
	<path style="fill:#FFFFFF;" d="M307.968,344.42l-51.967,51.967l41.154,34.295c4.21,3.508,10.607,2.018,12.833-2.99l26.958-60.655
		c0.986-2.218,0.504-4.814-1.213-6.531l-16.086-16.086C316.422,341.195,311.193,341.195,307.968,344.42z"/>
</g>
<g>
	<path style="fill:#8CB4EB;" d="M125.767,446.25l-46.878-39.665c-3.747,4.158-6.721,8.931-8.884,14.117l45.1,38.161
		c5.573,4.71,8.766,11.605,8.766,18.911V512h16.516v-34.226C140.388,465.597,135.057,454.105,125.767,446.25z"/>
	<path style="fill:#8CB4EB;" d="M386.235,446.25l46.878-39.665c3.747,4.158,6.721,8.931,8.884,14.117l-45.1,38.161
		c-5.573,4.71-8.766,11.605-8.766,18.911V512h-16.516v-34.226C371.614,465.597,376.945,454.105,386.235,446.25z"/>
</g>
<g>
</g>
<g>
</g>
<g>
</g>
<g>
</g>
<g>
</g>
<g>
</g>
<g>
</g>
<g>
</g>
<g>
</g>
<g>
</g>
<g>
</g>
<g>
</g>
<g>
</g>
<g>
</g>
<g>
</g>
</svg>
