<?xml version="1.0" encoding="iso-8859-1"?>
<!-- Generator: Adobe Illustrator 19.0.0, SVG Export Plug-In . SVG Version: 6.00 Build 0)  -->
<svg version="1.1" id="Capa_1" xmlns="http://www.w3.org/2000/svg" xmlns:xlink="http://www.w3.org/1999/xlink" x="0px" y="0px"
	 viewBox="0 0 512 512" style="enable-background:new 0 0 512 512;" xml:space="preserve">
<ellipse style="fill:#64505A;" cx="256" cy="330.32" rx="82.58" ry="57.806"/>
<path style="fill:#A06E50;" d="M264.258,49.548h-16.516c-13.682,0-24.774-11.092-24.774-24.774l0,0
	C222.968,11.092,234.06,0,247.742,0h16.516c13.682,0,24.774,11.092,24.774,24.774l0,0C289.032,38.457,277.94,49.548,264.258,49.548z
	"/>
<path style="fill:#F7D291;" d="M418.626,402.442l-87.036-25.599c-10.544-3.101-17.784-12.778-17.784-23.768v-47.527H198.194v47.527
	c0,10.99-7.24,20.667-17.784,23.768l-87.036,25.599c-21.087,6.202-35.567,25.555-35.567,47.535v37.249
	c0,13.682,11.092,24.774,24.774,24.774H429.42c13.682,0,24.774-11.092,24.774-24.774v-37.249
	C454.194,427.997,439.713,408.644,418.626,402.442z"/>
<path style="fill:#B4E6A0;" d="M93.373,402.442c-21.087,6.202-35.567,25.555-35.567,47.535v37.249
	C57.806,500.908,68.898,512,82.58,512h346.839c13.682,0,24.774-11.092,24.774-24.774v-37.249c0-21.98-14.48-41.333-35.567-47.535
	l-48.664-14.313H142.038L93.373,402.442z"/>
<path style="fill:#9BDC9B;" d="M388.129,396.387c0-0.958-0.032-1.945-0.073-2.936l-18.094-5.322h-81.898
	c-11.735,5.196-25.64,8.258-40.323,8.258c-14.884,0-28.913-3.034-40.717-8.258h-64.987l-18.018,5.299
	c-0.042,0.989-0.149,1.956-0.149,2.959c0,49.714,27.623,93.064,68.303,115.613h127.651
	C360.506,489.451,388.129,446.101,388.129,396.387z"/>
<path style="fill:#84737B;" d="M339.97,351.276l-1.703,0.09c-3.213,34.365-42.458,61.537-90.525,61.537
	c-43.544,0-79.889-22.294-88.74-52.035l-2.401,0.127c-9.806,8.363-16.214,19.791-16.214,35.392C140.387,460.238,192.149,512,256,512
	s115.613-51.762,115.613-115.613C371.613,373.596,357.935,359.711,339.97,351.276z"/>
<path style="fill:#F0C382;" d="M198.194,340.493c17.349,9.267,37.024,14.604,57.806,14.604s40.457-5.337,57.806-14.604v-34.945
	H198.194V340.493z"/>
<path style="fill:#FFE1A0;" d="M367.484,198.194h-4.129v-82.581h-214.71v82.581h-4.129c-11.355,0-20.645,9.29-20.645,20.645
	c0,11.355,9.29,20.645,20.645,20.645h4.546c4.23,55.419,50.435,99.097,106.938,99.097s102.708-43.678,106.938-99.097h4.546
	c11.355,0,20.645-9.29,20.645-20.645C388.129,207.484,378.839,198.194,367.484,198.194z"/>
<path style="fill:#F7D291;" d="M322.065,123.871v-8.258h-173.42v82.581h-3.405c-9.402,0-18.183,5.958-20.619,15.039
	c-3.684,13.734,6.715,26.251,19.895,26.251h4.546c4.23,55.419,50.435,99.097,106.938,99.097c5.649,0,11.157-0.55,16.568-1.392
	c-51.454-7.941-90.891-52.286-90.891-105.963V173.42c0-18.243,14.789-33.032,33.032-33.032h90.839
	C314.67,140.387,322.065,132.993,322.065,123.871z"/>
<path style="fill:#B67F5F;" d="M275.118,256h-38.233c-12.624,0-23.229,9.492-24.623,22.038l-3.902,35.115
	c-1.146,10.316,4.26,20.253,13.543,24.895l23.018,11.509c6.975,3.487,15.184,3.487,22.159,0l23.018-11.509
	c9.284-4.642,14.69-14.579,13.543-24.895l-3.902-35.115C298.347,265.492,287.742,256,275.118,256z"/>
<path style="fill:#A06E50;" d="M253.179,340.612c-9.284-5.721-14.69-17.969-13.543-30.684l3.902-43.281
	c0.344-3.821,1.26-7.406,2.62-10.647h-9.272c-12.623,0-23.228,9.492-24.622,22.038l-3.902,35.115
	c-1.146,10.316,4.26,20.253,13.543,24.895l23.018,11.509c6.974,3.487,15.184,3.487,22.159,0l0.338-0.169L253.179,340.612z"/>
<path style="fill:#F7D291;" d="M256,297.29c-9.597,0-18.331-4.444-23.363-11.895c-2.548-3.782-1.556-8.911,2.226-11.468
	c3.79-2.54,8.919-1.556,11.468,2.226c3.839,5.694,15.5,5.694,19.339,0c2.556-3.782,7.685-4.766,11.468-2.226
	c3.782,2.556,4.774,7.685,2.226,11.468C274.331,292.847,265.597,297.29,256,297.29z"/>
<path style="fill:#64505A;" d="M210.581,222.968c-4.565,0-8.258-3.694-8.258-8.258v-8.258c0-4.565,3.694-8.258,8.258-8.258
	s8.258,3.694,8.258,8.258v8.258C218.839,219.274,215.145,222.968,210.581,222.968z"/>
<path style="fill:#A06E50;" d="M222.968,181.677h-24.774c-4.565,0-8.258-3.694-8.258-8.258s3.694-8.258,8.258-8.258h24.774
	c4.565,0,8.258,3.694,8.258,8.258S227.532,181.677,222.968,181.677z"/>
<path style="fill:#64505A;" d="M301.419,222.968c-4.565,0-8.258-3.694-8.258-8.258v-8.258c0-4.565,3.694-8.258,8.258-8.258
	c4.564,0,8.258,3.694,8.258,8.258v8.258C309.677,219.274,305.984,222.968,301.419,222.968z"/>
<g>
	<path style="fill:#A06E50;" d="M313.806,181.677h-24.774c-4.565,0-8.258-3.694-8.258-8.258s3.694-8.258,8.258-8.258h24.774
		c4.565,0,8.258,3.694,8.258,8.258S318.371,181.677,313.806,181.677z"/>
	<path style="fill:#A06E50;" d="M279.01,41.29h-46.02c-65.968,0-116.33,58.938-106.041,124.099l5.18,32.804h5.353
		c14.766,0,26.253-12.835,24.623-27.51l-0.107-0.962c-2.718-24.459,16.428-45.85,41.038-45.85h105.929
		c24.609,0,43.755,21.391,41.038,45.85l-0.107,0.962c-1.631,14.675,9.857,27.51,24.623,27.51h5.353l5.18-32.804
		C395.34,100.229,344.978,41.29,279.01,41.29z"/>
</g>
<path style="fill:#64505A;" d="M371.613,206.452H140.387c-4.565,0-8.258-3.694-8.258-8.258c0-4.565,3.694-8.258,8.258-8.258h231.226
	c4.565,0,8.258,3.694,8.258,8.258C379.871,202.758,376.177,206.452,371.613,206.452z"/>
<g>
	<path style="fill:#6E5A64;" d="M214.71,247.742h-16.516c-13.661,0-24.774-11.113-24.774-24.774v-24.774
		c0-4.565,3.694-8.258,8.258-8.258h57.806c4.565,0,8.258,3.694,8.258,8.258v16.516C247.742,232.927,232.927,247.742,214.71,247.742z
		 M189.935,206.452v16.516c0,4.556,3.702,8.258,8.258,8.258h16.516c9.105,0,16.516-7.411,16.516-16.516v-8.258H189.935z"/>
	<path style="fill:#6E5A64;" d="M313.806,247.742H297.29c-18.218,0-33.032-14.815-33.032-33.032v-16.516
		c0-4.565,3.694-8.258,8.258-8.258h57.806c4.565,0,8.258,3.694,8.258,8.258v24.774C338.581,236.629,327.468,247.742,313.806,247.742
		z M280.774,206.452v8.258c0,9.105,7.411,16.516,16.516,16.516h16.516c4.556,0,8.258-3.702,8.258-8.258v-16.516H280.774z"/>
</g>
<path style="fill:#B67F5F;" d="M279.01,41.29h-46.02c-9.145,0-17.944,1.234-26.369,3.359c1.76,34.915,30.542,62.706,65.895,62.706
	h105.606C362.066,68.971,324.211,41.29,279.01,41.29z"/>
<g>
	<path style="fill:#6E5A64;" d="M256,388.129c-45.608,0-82.581-25.881-82.581-57.806c0-1.772,0.156-3.517,0.379-5.248
		c-10.597,10.806-16.895,23.996-16.895,38.281c0,36.486,40.67,66.065,90.839,66.065s90.839-29.578,90.839-66.065v-33.032
		C338.581,362.248,301.608,388.129,256,388.129z"/>
	<path style="fill:#6E5A64;" d="M256,491.046c-59.57,0-108.578-45.065-114.888-102.955c-0.431,2.639-0.725,5.371-0.725,8.296
		C140.387,460.238,192.149,512,256,512s115.613-51.762,115.613-115.613c0-2.972-0.256-5.776-0.701-8.453
		C364.674,445.902,315.624,491.046,256,491.046z"/>
</g>
<g>
</g>
<g>
</g>
<g>
</g>
<g>
</g>
<g>
</g>
<g>
</g>
<g>
</g>
<g>
</g>
<g>
</g>
<g>
</g>
<g>
</g>
<g>
</g>
<g>
</g>
<g>
</g>
<g>
</g>
</svg>
