<?xml version="1.0" encoding="iso-8859-1"?>
<!-- Generator: Adobe Illustrator 19.0.0, SVG Export Plug-In . SVG Version: 6.00 Build 0)  -->
<svg version="1.1" id="Capa_1" xmlns="http://www.w3.org/2000/svg" xmlns:xlink="http://www.w3.org/1999/xlink" x="0px" y="0px"
	 viewBox="0 0 511.999 511.999" style="enable-background:new 0 0 511.999 511.999;" xml:space="preserve">
<path style="fill:#5A4650;" d="M412.877,384.683l-85.291-30.103H184.412l-85.291,30.103c-19.81,6.992-33.057,25.716-33.057,46.723
	v55.819c0,13.682,11.092,24.774,24.774,24.774h330.323c13.682,0,24.774-11.092,24.774-24.774v-55.818
	C445.935,410.4,432.687,391.675,412.877,384.683z"/>
<path style="fill:#6E5A64;" d="M375.1,336.629c-12.508-9.407-20.004-24.063-20.004-39.714v-32.658
	c0-90.839-49.548-206.452-99.097-206.452s-99.097,115.613-99.097,206.452v32.658c0,15.651-7.496,30.306-20.004,39.714
	c-13.488,10.144-21.286,22.135-21.286,34.984c0,36.486,35.488,107.355,140.387,107.355S396.386,408.1,396.386,371.613
	C396.386,358.764,388.588,346.773,375.1,336.629z"/>
<g>
	<path style="fill:#5A4650;" d="M342.426,426.411c21.134-20.144,36.958-45.348,47.389-74.777
		c-3.197-4.746-7.595-9.229-12.866-13.443c-9.456,30.477-24.848,56.184-45.918,76.269c-37.753,35.988-92.257,52.466-154.225,46.868
		c14.384,7.572,31.855,13.101,52.416,15.776C273.631,471.883,312.7,454.749,342.426,426.411z"/>
	<path style="fill:#5A4650;" d="M255.999,355.097c-59.194,0-107.355-40.75-107.355-90.839s48.161-90.839,107.355-90.839
		s107.355,40.75,107.355,90.839S315.193,355.097,255.999,355.097z"/>
</g>
<path style="fill:#F5B97D;" d="M255.999,313.806L255.999,313.806c-59.291,0-107.355-48.064-107.355-107.355v-99.097h214.71v99.097
	C363.354,265.742,315.29,313.806,255.999,313.806z"/>
<path style="fill:#E3AA75;" d="M181.676,206.451v-16.516c0-36.486,29.578-66.065,66.065-66.065h115.613v-16.516h-214.71v99.097
	c0,59.29,48.065,107.355,107.355,107.355c5.632,0,11.118-0.564,16.516-1.4C221.087,304.444,181.676,260.11,181.676,206.451z"/>
<path style="fill:#B67F5F;" d="M256.37,264.258c-12.395,0-23.823-3.976-30.573-10.637c-3.25-3.21-3.282-8.435-0.081-11.677
	c3.21-3.25,8.435-3.282,11.677-0.081c2.75,2.71,9.363,5.879,18.976,5.879s16.226-3.169,18.976-5.879
	c3.242-3.202,8.468-3.169,11.677,0.081c3.202,3.242,3.169,8.468-0.081,11.677C280.193,260.282,268.765,264.258,256.37,264.258z"/>
<g>
	<path style="fill:#5A4650;" d="M206.822,206.33c-4.565,0-8.258-3.694-8.258-8.258v-8.258c0-4.565,3.694-8.258,8.258-8.258
		s8.258,3.694,8.258,8.258v8.258C215.08,202.637,211.386,206.33,206.822,206.33z"/>
	<path style="fill:#5A4650;" d="M305.918,206.33c-4.565,0-8.258-3.694-8.258-8.258v-8.258c0-4.565,3.694-8.258,8.258-8.258
		s8.258,3.694,8.258,8.258v8.258C314.176,202.637,310.483,206.33,305.918,206.33z"/>
</g>
<g>
	<path style="fill:#6E5A64;" d="M215.08,173.298h-16.516c-4.565,0-8.258-3.694-8.258-8.258c0-4.565,3.694-8.258,8.258-8.258h16.516
		c4.565,0,8.258,3.694,8.258,8.258C223.338,169.605,219.644,173.298,215.08,173.298z"/>
	<path style="fill:#6E5A64;" d="M314.176,173.298H297.66c-4.565,0-8.258-3.694-8.258-8.258c0-4.565,3.694-8.258,8.258-8.258h16.516
		c4.565,0,8.258,3.694,8.258,8.258C322.435,169.605,318.741,173.298,314.176,173.298z"/>
</g>
<path style="fill:#84737B;" d="M403.505,256.282l-7.234-120.569C391.972,64.069,335.937,4.372,264.283,0.239
	c-77.886-4.492-143.717,54.827-148.326,131.652l-7.464,124.39c-4.887,81.453,57.046,150.531,137.174,156.079
	c-49.872-5.168-88.765-47.315-88.765-98.554c0-36.486,0-41.29,0-49.548c0-90.839,49.548-206.452,99.097-206.452
	s99.097,115.613,99.097,206.452v80.031c0,11.097,14.313,15.967,20.814,6.974C395.08,324.748,405.63,291.706,403.505,256.282z"/>
<g>
</g>
<g>
</g>
<g>
</g>
<g>
</g>
<g>
</g>
<g>
</g>
<g>
</g>
<g>
</g>
<g>
</g>
<g>
</g>
<g>
</g>
<g>
</g>
<g>
</g>
<g>
</g>
<g>
</g>
</svg>
