<?xml version="1.0" encoding="iso-8859-1"?>
<!-- Generator: Adobe Illustrator 19.0.0, SVG Export Plug-In . SVG Version: 6.00 Build 0)  -->
<svg version="1.1" id="Capa_1" xmlns="http://www.w3.org/2000/svg" xmlns:xlink="http://www.w3.org/1999/xlink" x="0px" y="0px"
	 viewBox="0 0 512 512" style="enable-background:new 0 0 512 512;" xml:space="preserve">
<path style="fill:#C9C6CA;" d="M418.626,366.968l-87.036-25.599c-10.544-3.101-17.784-12.778-17.784-23.768V256H198.194v61.601
	c0,10.99-7.24,20.667-17.784,23.768l-87.036,25.599c-21.087,6.202-35.567,25.555-35.567,47.535v72.723
	c0,13.682,11.092,24.774,24.774,24.774h346.839c13.682,0,24.774-11.092,24.774-24.774v-72.723
	C454.194,392.522,439.713,373.17,418.626,366.968z"/>
<path style="fill:#B7B2B8;" d="M331.59,341.369c-10.543-3.101-17.784-12.778-17.784-23.768V256H198.194v61.601
	c0,10.99-7.24,20.666-17.784,23.768l-72.991,21.468c17.066,42.584,58.683,72.776,107.291,72.776h82.581
	c48.608,0,90.226-30.193,107.291-72.776L331.59,341.369z"/>
<g>
	<path style="fill:#6F6571;" d="M214.71,394.323c-4.561,0-8.258,3.697-8.258,8.258V512h16.516V402.581
		C222.968,398.02,219.27,394.323,214.71,394.323z"/>
	<path style="fill:#6F6571;" d="M297.29,394.323c-4.561,0-8.258,3.697-8.258,8.258V512h16.516V402.581
		C305.548,398.02,301.851,394.323,297.29,394.323z"/>
</g>
<path style="fill:#9C969E;" d="M346.839,270.452H165.161c-27.365,0-49.548,22.183-49.548,49.548
	c0,54.729,44.367,99.097,99.097,99.097h82.581c54.73,0,99.097-44.367,99.097-99.097
	C396.387,292.635,374.204,270.452,346.839,270.452z"/>
<path style="fill:#867E88;" d="M344.641,295.226c17.975,0,25.034,23.313,10.078,33.284l-84.977,56.651
	c-8.322,5.548-19.163,5.548-27.484,0l-84.977-56.651c-14.956-9.971-7.898-33.284,10.078-33.284H344.641z"/>
<path style="fill:#B67F5F;" d="M178.138,342.415l64.119,42.746c8.322,5.548,19.163,5.548,27.485,0l64.119-42.746l0,0l-2.272-0.668
	c-10.543-3.101-17.784-12.778-17.784-23.768v-53.721H198.194v53.721c0,10.99-7.24,20.666-17.784,23.768L178.138,342.415
	L178.138,342.415z"/>
<path style="fill:#A06E50;" d="M198.194,290.945c17.349,9.267,37.024,14.604,57.806,14.604s40.457-5.337,57.806-14.604v-26.686
	H198.194V290.945z"/>
<path style="fill:#CD916E;" d="M371.613,149.065v-33.452C371.613,51.762,319.851,0,256,0S140.387,51.762,140.387,115.613v33.452
	c-9.394,1.927-16.516,10.284-16.516,20.226c0,11.355,9.29,20.645,20.645,20.645h4.546c4.23,55.419,50.435,99.097,106.938,99.097
	s102.708-43.678,106.938-99.097h4.546c11.355,0,20.645-9.29,20.645-20.645C388.129,159.349,381.007,150.991,371.613,149.065z"/>
<path style="fill:#B67F5F;" d="M189.935,173.419V61.008c0-16.303-21.234-22.832-30.269-9.262
	c-12.177,18.29-19.279,40.24-19.279,63.866v33.452c-10.55,2.164-18.235,12.439-16.183,23.96
	c1.782,10.007,11.142,16.911,21.307,16.911h3.552c4.23,55.419,50.435,99.097,106.938,99.097c8.352,0,16.439-1.059,24.239-2.865
	C228.577,274.614,189.935,228.566,189.935,173.419z"/>
<path style="fill:#DBD9DC;" d="M275.118,206.452h-38.233c-12.624,0-23.229,9.492-24.623,22.038l-3.902,35.115
	c-1.146,10.316,4.26,20.253,13.543,24.895l23.018,11.509c6.975,3.487,15.184,3.487,22.159,0l23.018-11.509
	c9.284-4.642,14.69-14.579,13.543-24.895l-3.902-35.115C298.346,215.943,287.742,206.452,275.118,206.452z"/>
<path style="fill:#C9C6CA;" d="M253.179,291.064c-9.284-5.721-14.69-17.969-13.543-30.684l3.902-43.281
	c0.344-3.821,1.26-7.406,2.62-10.647h-9.272c-12.623,0-23.228,9.492-24.622,22.038l-3.902,35.115
	c-1.146,10.316,4.26,20.253,13.543,24.895l23.018,11.509c6.974,3.487,15.184,3.487,22.159,0l0.338-0.169L253.179,291.064z"/>
<path style="fill:#B67F5F;" d="M256,247.742c-9.597,0-18.331-4.444-23.363-11.895c-2.548-3.782-1.556-8.911,2.226-11.468
	c3.79-2.54,8.911-1.548,11.468,2.226c3.839,5.694,15.5,5.694,19.339,0c2.548-3.774,7.677-4.766,11.468-2.226
	c3.782,2.556,4.774,7.685,2.226,11.468C274.331,243.298,265.596,247.742,256,247.742z"/>
<g>
	<path style="fill:#C9C6CA;" d="M222.968,123.871h-24.774c-4.565,0-8.258-3.694-8.258-8.258c0-4.565,3.694-8.258,8.258-8.258h24.774
		c4.565,0,8.258,3.694,8.258,8.258S227.532,123.871,222.968,123.871z"/>
	<path style="fill:#C9C6CA;" d="M313.806,123.871h-24.774c-4.565,0-8.258-3.694-8.258-8.258c0-4.565,3.694-8.258,8.258-8.258h24.774
		c4.565,0,8.258,3.694,8.258,8.258C322.065,120.177,318.371,123.871,313.806,123.871z"/>
</g>
<g>
	<path style="fill:#EDEBED;" d="M181.677,156.903h-41.29c-4.565,0-8.258-3.694-8.258-8.258s3.694-8.258,8.258-8.258h41.29
		c4.565,0,8.258,3.694,8.258,8.258S186.242,156.903,181.677,156.903z"/>
	<path style="fill:#EDEBED;" d="M371.613,156.903h-41.29c-4.565,0-8.258-3.694-8.258-8.258s3.694-8.258,8.258-8.258h41.29
		c4.565,0,8.258,3.694,8.258,8.258S376.177,156.903,371.613,156.903z"/>
	<path style="fill:#EDEBED;" d="M272.516,173.419c-4.565,0-8.258-3.694-8.258-8.258c0-4.556-3.702-8.258-8.258-8.258
		s-8.258,3.702-8.258,8.258c0,4.565-3.694,8.258-8.258,8.258s-8.258-3.694-8.258-8.258c0-13.661,11.113-24.774,24.774-24.774
		s24.774,11.113,24.774,24.774C280.773,169.726,277.081,173.419,272.516,173.419z"/>
</g>
<g>
	<path style="fill:#FFFFFF;" d="M222.968,189.935h-24.774c-13.661,0-24.774-11.113-24.774-24.774v-24.774
		c0-4.565,3.694-8.258,8.258-8.258h57.806c4.565,0,8.258,3.694,8.258,8.258v24.774C247.742,178.823,236.629,189.935,222.968,189.935
		z M189.935,148.645v16.516c0,4.556,3.702,8.258,8.258,8.258h24.774c4.556,0,8.258-3.702,8.258-8.258v-16.516H189.935z"/>
	<path style="fill:#FFFFFF;" d="M313.806,189.935h-24.774c-13.661,0-24.774-11.113-24.774-24.774v-24.774
		c0-4.565,3.694-8.258,8.258-8.258h57.806c4.565,0,8.258,3.694,8.258,8.258v24.774C338.581,178.823,327.467,189.935,313.806,189.935
		z M280.773,148.645v16.516c0,4.556,3.702,8.258,8.258,8.258h24.774c4.556,0,8.258-3.702,8.258-8.258v-16.516H280.773z"/>
</g>
<g>
	<path style="fill:#5A4650;" d="M202.323,156.903c0,4.565,3.694,8.258,8.258,8.258s8.258-3.694,8.258-8.258v-8.258h-16.516
		L202.323,156.903L202.323,156.903z"/>
	<path style="fill:#5A4650;" d="M293.161,156.903c0,4.565,3.694,8.258,8.258,8.258s8.258-3.694,8.258-8.258v-8.258h-16.516V156.903z
		"/>
</g>
<g>
</g>
<g>
</g>
<g>
</g>
<g>
</g>
<g>
</g>
<g>
</g>
<g>
</g>
<g>
</g>
<g>
</g>
<g>
</g>
<g>
</g>
<g>
</g>
<g>
</g>
<g>
</g>
<g>
</g>
</svg>
