<?xml version="1.0" encoding="iso-8859-1"?>
<!-- Generator: Adobe Illustrator 19.0.0, SVG Export Plug-In . SVG Version: 6.00 Build 0)  -->
<svg version="1.1" id="Capa_1" xmlns="http://www.w3.org/2000/svg" xmlns:xlink="http://www.w3.org/1999/xlink" x="0px" y="0px"
	 viewBox="0 0 512 512" style="enable-background:new 0 0 512 512;" xml:space="preserve">
<path style="fill:#A06E50;" d="M396.387,220.559V107.355c0-42.464-32.05-77.442-73.28-82.062c-4.947-0.554-9.722-2.907-12.49-7.045
	C302.549,6.191,284.307,0,255.997,0c-57.804,0-140.385,40.86-140.385,123.871c0,33.032,0,96.688,0,96.688
	c0,16.687-9.827,23.137-17.103,25.626c-4.466,1.528-6.999,6.269-5.337,10.686c3.852,10.244,13.811,25.275,38.957,23.903
	c0,0,16.861,25.292,50.584,20.548c14.995-2.109,30.016-4.032,45.159-4.032h56.257c15.143,0,30.164,1.922,45.159,4.032
	c33.722,4.744,50.584-20.548,50.584-20.548c25.146,1.372,35.104-13.659,38.957-23.903c1.661-4.418-0.872-9.159-5.337-10.686
	C406.214,243.696,396.387,237.246,396.387,220.559z"/>
<path style="fill:#B67F5F;" d="M396.387,220.559V107.355c0-42.464-32.05-77.442-73.279-82.062
	c-4.947-0.554-9.722-2.908-12.491-7.045C302.549,6.191,284.307,0,256,0v297.29h28.129c15.143,0,30.164,1.922,45.159,4.032
	c33.722,4.744,50.583-20.548,50.583-20.548c25.146,1.372,35.104-13.659,38.957-23.903c1.661-4.418-0.872-9.159-5.337-10.686
	C406.214,243.696,396.387,237.246,396.387,220.559z"/>
<path style="fill:#FF8087;" d="M412.878,384.72l-85.291-30.103c-5.471-1.931-10.128-5.256-13.781-9.424v14.033
	c0,34.206-27.729,61.935-61.935,61.935s-61.935-27.729-61.935-61.935v-7.217c-1.747,1.011-3.569,1.919-5.522,2.608L99.122,384.72
	c-19.81,6.991-33.057,25.716-33.057,46.723v55.783c0,13.682,11.092,24.774,24.774,24.774h330.323
	c13.682,0,24.774-11.092,24.774-24.774v-55.783C445.935,410.435,432.688,391.711,412.878,384.72z"/>
<g>
	<path style="fill:#E6646E;" d="M160.566,432.631c7.746,18.574,25.714,30.576,45.773,30.576c4.045,0,8.096-0.5,12.041-1.486
		l37.62-9.406l37.619,9.405c3.946,0.986,7.997,1.486,12.042,1.486c20.059,0,38.027-12.001,45.773-30.576
		c8.426-20.203,12.872-42.429,13.165-64.95l-37.013-13.064c-5.471-1.931-10.128-5.256-13.781-9.424v14.033
		c0,34.206-27.729,61.935-61.935,61.935s-61.935-27.729-61.935-61.935v-7.217c-1.747,1.011-3.569,1.919-5.522,2.608L147.4,367.68
		C147.694,390.2,152.139,412.427,160.566,432.631z"/>
	<path style="fill:#E6646E;" d="M140.395,512v-42.081c0-12.141-5.306-23.605-14.548-31.456l-47.058-40.016
		c-3.736,4.172-6.701,8.955-8.848,14.152l45.213,38.448c5.548,4.71,8.726,11.589,8.726,18.871V512H140.395z"/>
	<path style="fill:#E6646E;" d="M371.613,512v-42.081c0-12.141,5.306-23.605,14.548-31.456l47.058-40.016
		c3.736,4.172,6.701,8.955,8.848,14.152l-45.213,38.448c-5.548,4.71-8.726,11.589-8.726,18.871V512H371.613z"/>
</g>
<path style="fill:#EDEBED;" d="M305.54,330.323l31.231,10.62c6.327,2.206,10.707,8.048,11.101,14.737
	c1.762,29.875-4.756,53.989-11.681,70.593c-6.312,15.134-22.657,23.401-38.566,19.424L256,435.29l-41.626,10.407
	c-15.908,3.977-32.254-4.29-38.566-19.424c-6.925-16.604-13.444-40.718-11.681-70.593c0.394-6.689,4.775-12.531,11.101-14.737
	l31.231-10.62l-0.008-0.266v24.774c0,27.365,22.184,49.548,49.548,49.548s49.548-22.184,49.548-49.548v-24.774"/>
<g>
	<polygon style="fill:#FFD164;" points="305.54,330.323 305.548,330.325 305.548,330.057 	"/>
	<polygon style="fill:#FFD164;" points="206.452,330.057 206.452,330.325 206.46,330.323 	"/>
</g>
<path style="fill:#FFFFFF;" d="M256,421.161c36.486,0,66.065-29.578,66.065-66.065v-19.155l-16.516-5.616v24.506
	c0,27.365-22.183,49.548-49.548,49.548s-49.548-22.183-49.548-49.548v-24.506l-16.516,5.616v19.155
	C189.935,391.583,219.514,421.161,256,421.161z"/>
<path style="fill:#F7D291;" d="M256,404.645L256,404.645c-27.365,0-49.548-22.184-49.548-49.548v-66.065h99.097v66.065
	C305.548,382.462,283.365,404.645,256,404.645z"/>
<path style="fill:#F0C382;" d="M206.452,319.756c15.247,6.742,32.001,10.567,49.548,10.567s34.301-3.824,49.548-10.567v-30.724
	h-99.097L206.452,319.756L206.452,319.756z"/>
<path style="fill:#FFE1A0;" d="M367.484,173.419h-4.129v-16.516c0-30.605-41.29-49.548-66.065-90.839v-8.258H148.645v115.613h-4.129
	c-11.402,0-20.645,9.243-20.645,20.645c0,11.402,9.243,20.645,20.645,20.645h4.546c4.23,55.419,50.435,99.097,106.938,99.097
	s102.708-43.678,106.938-99.097h4.546c11.402,0,20.645-9.243,20.645-20.645C388.129,182.662,378.885,173.419,367.484,173.419z"/>
<path style="fill:#F7D291;" d="M247.485,112.539c24.604-7.987,47.811-15.521,63.691-27c0.005-0.043,0.008-0.063,0.013-0.106
	c-4.918-5.928-9.658-12.302-13.898-19.368v-8.258H148.645V173.42h-2.951c-10.799,0-20.64,7.77-21.716,18.515
	c-1.238,12.358,8.434,22.775,20.538,22.775h4.546c4.23,55.419,50.435,99.097,106.938,99.097c5.649,0,11.157-0.55,16.568-1.392
	c-51.454-7.941-90.891-52.286-90.891-105.963v-46.737c0-12.858,7.462-24.478,19.087-29.971
	C214.426,123.288,231.434,117.749,247.485,112.539z"/>
<path style="fill:#E3AA75;" d="M256,264.258c-12.395,0-23.823-3.976-30.573-10.637c-3.25-3.21-3.282-8.435-0.081-11.677
	c3.218-3.25,8.444-3.282,11.677-0.081c2.75,2.71,9.363,5.879,18.976,5.879s16.226-3.169,18.976-5.879
	c3.234-3.202,8.46-3.169,11.677,0.081c3.202,3.242,3.169,8.468-0.081,11.677C279.823,260.282,268.395,264.258,256,264.258z"/>
<g>
	<path style="fill:#6E5A64;" d="M206.452,206.331c-4.565,0-8.258-3.694-8.258-8.258v-8.258c0-4.565,3.694-8.258,8.258-8.258
		s8.258,3.694,8.258,8.258v8.258C214.71,202.637,211.016,206.331,206.452,206.331z"/>
	<path style="fill:#6E5A64;" d="M305.548,206.331c-4.565,0-8.258-3.694-8.258-8.258v-8.258c0-4.565,3.694-8.258,8.258-8.258
		c4.565,0,8.258,3.694,8.258,8.258v8.258C313.806,202.637,310.113,206.331,305.548,206.331z"/>
</g>
<g>
	<path style="fill:#A06E50;" d="M214.71,173.298h-16.516c-4.565,0-8.258-3.694-8.258-8.258c0-4.565,3.694-8.258,8.258-8.258h16.516
		c4.565,0,8.258,3.694,8.258,8.258C222.968,169.605,219.274,173.298,214.71,173.298z"/>
	<path style="fill:#A06E50;" d="M313.806,173.298H297.29c-4.565,0-8.258-3.694-8.258-8.258c0-4.565,3.694-8.258,8.258-8.258h16.516
		c4.565,0,8.258,3.694,8.258,8.258C322.065,169.605,318.371,173.298,313.806,173.298z"/>
	<path style="fill:#A06E50;" d="M310.617,18.247C302.549,6.191,284.306,0,255.997,0c-57.804,0-140.385,40.86-140.385,123.871
		c0,13.542,0,32.209,0,49.548h33.032c4.561,0,8.258-3.697,8.258-8.258v-8.258c0-49.84,104.358-56.708,143.707-84.119
		c8.528-5.94,13.196-16.028,13.196-26.421V21.549C312.6,20.604,311.484,19.545,310.617,18.247z"/>
</g>
<path style="fill:#FF8087;" d="M182.315,138.331c-2.226,0-4.444-0.895-6.073-2.661l-31.71-34.411
	c-3.089-3.355-2.879-8.581,0.476-11.669c3.363-3.081,8.581-2.871,11.669,0.476l31.71,34.411c3.089,3.355,2.879,8.581-0.476,11.669
	C186.323,137.605,184.315,138.331,182.315,138.331z"/>
<g>
</g>
<g>
</g>
<g>
</g>
<g>
</g>
<g>
</g>
<g>
</g>
<g>
</g>
<g>
</g>
<g>
</g>
<g>
</g>
<g>
</g>
<g>
</g>
<g>
</g>
<g>
</g>
<g>
</g>
</svg>
