<?xml version="1.0" encoding="iso-8859-1"?>
<!-- Generator: Adobe Illustrator 19.0.0, SVG Export Plug-In . SVG Version: 6.00 Build 0)  -->
<svg version="1.1" id="Capa_1" xmlns="http://www.w3.org/2000/svg" xmlns:xlink="http://www.w3.org/1999/xlink" x="0px" y="0px"
	 viewBox="0 0 512 512" style="enable-background:new 0 0 512 512;" xml:space="preserve">
<path style="fill:#F5DCB4;" d="M420.583,401.221l-55.35-17.031c-10.482-3.225-17.634-12.909-17.634-23.876v-39.841
	c0-4.599-3.728-8.327-8.327-8.327H172.727c-4.599,0-8.327,3.728-8.327,8.327v39.84c0,10.967-7.153,20.652-17.635,23.877
	l-55.349,17.031c-20.964,6.451-35.27,25.82-35.27,47.754v38.043c0,13.797,11.185,24.982,24.982,24.982h349.744
	c13.797,0,24.982-11.185,24.982-24.982v-38.043C455.853,427.041,441.547,407.671,420.583,401.221z"/>
<path style="fill:#EBC9A0;" d="M147.59,383.861c12.929,35.423,56.499,61.521,108.409,61.521s95.48-26.098,108.409-61.521
	c-10.014-3.477-16.809-12.881-16.809-23.547v-39.841c0-4.599-3.728-8.327-8.327-8.327H172.727c-4.599,0-8.327,3.728-8.327,8.327
	v39.84C164.399,370.98,157.605,380.383,147.59,383.861z"/>
<path style="fill:#D2B496;" d="M339.271,312.146H172.727c-2.421,0-4.555,1.069-6.076,2.718C186.17,343.36,218.927,362.11,256,362.11
	s69.83-18.75,89.349-47.246C343.826,313.215,341.692,312.146,339.271,312.146z"/>
<path style="fill:#F5B97D;" d="M368.417,170.583h-4.164V87.31H147.745v83.272h-4.164c-11.45,0-20.818,9.368-20.818,20.818
	s9.368,20.818,20.818,20.818h4.584c4.265,55.883,50.858,99.927,107.833,99.927s103.568-44.044,107.833-99.927h4.584
	c11.45,0,20.818-9.368,20.818-20.818S379.867,170.583,368.417,170.583z"/>
<g>
	<path style="fill:#5A4650;" d="M206.035,196.288c-4.603,0-8.327-3.729-8.327-8.327v-8.327c0-4.599,3.724-8.327,8.327-8.327
		s8.327,3.729,8.327,8.327v8.327C214.363,192.56,210.638,196.288,206.035,196.288z"/>
	<path style="fill:#5A4650;" d="M305.963,196.288c-4.603,0-8.327-3.729-8.327-8.327v-8.327c0-4.599,3.724-8.327,8.327-8.327
		s8.327,3.729,8.327,8.327v8.327C314.29,192.56,310.565,196.288,305.963,196.288z"/>
</g>
<g>
	<path style="fill:#6E5A64;" d="M214.363,162.256h-16.654c-4.603,0-8.327-3.729-8.327-8.327c0-4.599,3.724-8.327,8.327-8.327h16.654
		c4.603,0,8.327,3.729,8.327,8.327C222.69,158.527,218.966,162.256,214.363,162.256z"/>
	<path style="fill:#6E5A64;" d="M314.29,162.256h-16.654c-4.603,0-8.327-3.729-8.327-8.327c0-4.599,3.724-8.327,8.327-8.327h16.654
		c4.603,0,8.327,3.729,8.327,8.327C322.617,158.527,318.892,162.256,314.29,162.256z"/>
</g>
<path style="fill:#E3AA75;" d="M322.617,95.638V87.31H147.745v83.272h-3.433c-9.481,0-18.336,6.008-20.792,15.165
	c-3.715,13.849,6.771,26.471,20.062,26.471h4.584c4.265,55.883,50.858,99.927,107.833,99.927c5.696,0,11.25-0.555,16.707-1.403
	c-51.885-8.007-91.652-52.724-91.652-106.851v-49.964c0-22.995,18.641-41.636,41.636-41.636h83.272
	C315.161,112.292,322.617,104.836,322.617,95.638z"/>
<path style="fill:#5A4650;" d="M197.708,14.141c-40.927,8.471-70.385,46.855-65.812,90.214l7.036,66.718l8.59-0.169
	c9.069-0.178,16.327-7.581,16.327-16.651V120.62c0-13.797,11.185-24.982,24.982-24.982h92.15L197.708,14.141z"/>
<path style="fill:#84737B;" d="M322.617,220.546H189.381c-13.797,0-24.982,11.185-24.982,24.982v8.327
	c0,50.589,41.011,91.6,91.6,91.6l0,0c50.589,0,91.6-41.011,91.6-91.6v-8.327C347.599,231.731,336.414,220.546,322.617,220.546z"/>
<path style="fill:#E3AA75;" d="M255.999,270.51c-12.491,0-24.022-4.009-30.829-10.726c-3.277-3.228-3.31-8.502-0.081-11.775
	c3.228-3.277,8.514-3.31,11.775-0.081c2.773,2.736,9.449,5.928,19.135,5.928s16.362-3.192,19.135-5.928
	c3.261-3.228,8.547-3.196,11.775,0.081c3.228,3.273,3.196,8.547-0.081,11.775C280.021,266.501,268.49,270.51,255.999,270.51z"/>
<g>
	<path style="fill:#6E5A64;" d="M206.035,253.855v-8.327c0-13.797,11.185-24.982,24.982-24.982h-41.636
		c-13.797,0-24.982,11.185-24.982,24.982v8.327c0,50.589,41.011,91.6,91.6,91.6c7.173,0,14.12-0.908,20.818-2.468
		C236.275,333.549,206.035,297.271,206.035,253.855z"/>
	<path style="fill:#6E5A64;" d="M372.515,171.073l7.037-66.718c5.185-49.164-33.361-91.99-82.798-91.99h-82.391
		c-21.354,0-45.749-3.042-60.186-11.727c-3.054-1.837-6.996,0.525-6.982,4.089c0.095,24.576,11.662,90.91,133.786,90.91h41.636
		c13.797,0,24.982,11.185,24.982,24.982v33.633c0,9.07,7.258,16.473,16.327,16.651L372.515,171.073z"/>
</g>
<g>
</g>
<g>
</g>
<g>
</g>
<g>
</g>
<g>
</g>
<g>
</g>
<g>
</g>
<g>
</g>
<g>
</g>
<g>
</g>
<g>
</g>
<g>
</g>
<g>
</g>
<g>
</g>
<g>
</g>
</svg>
