<?xml version="1.0" encoding="iso-8859-1"?>
<!-- Generator: Adobe Illustrator 19.0.0, SVG Export Plug-In . SVG Version: 6.00 Build 0)  -->
<svg version="1.1" id="Capa_1" xmlns="http://www.w3.org/2000/svg" xmlns:xlink="http://www.w3.org/1999/xlink" x="0px" y="0px"
	 viewBox="0 0 512 512" style="enable-background:new 0 0 512 512;" xml:space="preserve">
<path style="fill:#5A4650;" d="M415.573,224.445c3.828-14.321,22.105-27.24,22.105-42.768c0-15.527-18.277-28.445-22.104-42.766
	c-3.96-14.817,5.292-35.119-2.213-48.091c-7.613-13.158-29.893-15.248-40.571-25.927c-10.679-10.679-12.77-32.96-25.928-40.574
	c-12.973-7.506-33.277,1.746-48.094-2.215C284.447,18.277,271.528,0,256,0c-15.527,0-28.445,18.277-42.766,22.104
	c-14.816,3.96-35.119-5.293-48.091,2.213c-13.158,7.613-15.248,29.893-25.927,40.571c-10.679,10.679-32.96,12.769-40.574,25.928
	c-7.506,12.973,1.746,33.276-2.215,48.093c-3.828,14.321-22.105,27.24-22.105,42.768c0,15.527,18.277,28.445,22.104,42.765
	c3.96,14.817-5.292,35.119,2.213,48.092c7.613,13.158,29.893,15.249,40.571,25.927c10.679,10.68,12.77,32.96,25.928,40.574
	c11.085,6.414,27.523,0.592,41.317,1.233l99.093,0.001c13.792-0.639,30.226,5.182,41.309-1.231
	c13.158-7.613,15.249-29.892,25.927-40.571c10.679-10.679,32.96-12.77,40.574-25.928
	C420.864,259.566,411.612,239.262,415.573,224.445z"/>
<path style="fill:#6E5A64;" d="M437.677,181.677c0-15.527-18.277-28.445-22.104-42.766c-3.96-14.817,5.292-35.119-2.213-48.091
	c-7.613-13.158-29.893-15.248-40.571-25.927c-10.679-10.679-12.77-32.96-25.928-40.574c-12.973-7.506-33.277,1.746-48.094-2.215
	C284.447,18.277,271.528,0,256,0c-15.527,0-28.445,18.277-42.766,22.104c-9.159,2.448-20.409-0.143-30.734-0.713
	c-0.49,6.577-0.823,13.197-0.823,19.899c0,121.639,82.214,224.017,194.085,254.766c11.392-8.615,30.611-11.448,37.595-23.518
	c7.506-12.973-1.746-33.276,2.215-48.093C419.401,210.124,437.677,197.205,437.677,181.677z"/>
<path style="fill:#DBD9DC;" d="M412.878,417.716l-85.291-30.103c-13.207-4.661-22.039-17.144-22.039-31.149v-26.141h-99.097v26.141
	c0,14.005-8.832,26.488-22.038,31.149l-85.291,30.103c-19.81,6.992-33.057,25.716-33.057,46.723v22.787
	c0,13.682,11.092,24.774,24.774,24.774h330.323c13.682,0,24.774-11.092,24.774-24.774V464.44
	C445.935,443.432,432.688,424.708,412.878,417.716z"/>
<path style="fill:#B67F5F;" d="M305.548,356.464v-26.141h-99.097v26.141c0,14.005-8.832,26.488-22.038,31.149L256,421.161
	l71.587-33.548C314.38,382.952,305.548,370.469,305.548,356.464z"/>
<path style="fill:#C9C6CA;" d="M327.587,387.613L256,421.161l-71.587-33.548l-51.804,18.284
	c3.707,48.664,35.476,89.376,79.208,106.103h88.365c43.732-16.728,75.501-57.44,79.208-106.103L327.587,387.613z"/>
<path style="fill:#FFE17D;" d="M327.587,387.613L256,421.161l-71.587-33.548l-35.577,12.556
	c2.009,57.524,49.15,103.573,107.164,103.573c58.013,0,105.155-46.049,107.164-103.573L327.587,387.613z"/>
<path style="fill:#A06E50;" d="M256,363.355c17.548,0,34.301-3.824,49.548-10.567v-22.466h-99.097v22.466
	C221.699,359.531,238.452,363.355,256,363.355z"/>
<path style="fill:#CD916E;" d="M367.484,206.452h-4.129v-41.29c0-22.804-48.064-41.29-107.355-41.29s-107.355,18.486-107.355,41.29
	v41.29h-4.129c-11.402,0-20.645,9.243-20.645,20.645c0,11.402,9.243,20.645,20.645,20.645h4.546
	c4.23,55.419,50.435,99.097,106.938,99.097s102.708-43.678,106.938-99.097h4.546c11.402,0,20.645-9.243,20.645-20.645
	C388.129,215.695,378.885,206.452,367.484,206.452z"/>
<path style="fill:#B67F5F;" d="M323.745,137.062l3.583-2.7c-18.974-6.505-43.911-10.491-71.328-10.491
	c-28.873,0-55.028,4.407-74.323,11.538c-20.327,7.513-33.032,18.053-33.032,29.752v41.29h-2.951c-10.799,0-20.64,7.77-21.716,18.515
	c-1.238,12.358,8.434,22.775,20.538,22.775h4.546c4.23,55.419,50.435,99.097,106.938,99.097c5.649,0,11.157-0.55,16.568-1.392
	c-51.454-7.941-90.891-52.286-90.891-105.963v-33.274c0-7.837,5.473-14.547,13.144-16.154
	C233.127,182.032,284.671,166.502,323.745,137.062z"/>
<g>
	<path style="fill:#5A4650;" d="M206.452,231.944c-4.565,0-8.258-3.694-8.258-8.258v-17.234c0-4.565,3.694-8.258,8.258-8.258
		s8.258,3.694,8.258,8.258v17.234C214.71,228.25,211.016,231.944,206.452,231.944z"/>
	<path style="fill:#5A4650;" d="M305.548,231.944c-4.565,0-8.258-3.694-8.258-8.258v-17.234c0-4.565,3.694-8.258,8.258-8.258
		c4.565,0,8.258,3.694,8.258,8.258v17.234C313.806,228.25,310.113,231.944,305.548,231.944z"/>
</g>
<path style="fill:#A06E50;" d="M256,305.548c-12.395,0-23.823-3.976-30.573-10.637c-3.25-3.21-3.282-8.435-0.081-11.677
	c3.218-3.25,8.444-3.282,11.677-0.081c2.75,2.71,9.363,5.879,18.976,5.879c9.613,0,16.226-3.169,18.976-5.879
	c3.234-3.202,8.46-3.169,11.677,0.081c3.202,3.242,3.169,8.468-0.081,11.677C279.823,301.573,268.395,305.548,256,305.548z"/>
<g>
	<path style="fill:#FFD164;" d="M173.419,214.71h-33.032c-4.565,0-8.258-3.694-8.258-8.258s3.694-8.258,8.258-8.258h33.032
		c4.565,0,8.258,3.694,8.258,8.258S177.984,214.71,173.419,214.71z"/>
	<path style="fill:#FFD164;" d="M371.613,214.71h-33.032c-4.565,0-8.258-3.694-8.258-8.258s3.694-8.258,8.258-8.258h33.032
		c4.565,0,8.258,3.694,8.258,8.258S376.177,214.71,371.613,214.71z"/>
	<path style="fill:#FFD164;" d="M272.516,222.968h-33.032c-4.565,0-8.258-3.694-8.258-8.258c0-4.565,3.694-8.258,8.258-8.258h33.032
		c4.565,0,8.258,3.694,8.258,8.258S277.081,222.968,272.516,222.968z"/>
</g>
<g>
	<path style="fill:#5A4650;" d="M313.806,189.935H297.29c-4.565,0-8.258-3.694-8.258-8.258s3.694-8.258,8.258-8.258h16.516
		c4.565,0,8.258,3.694,8.258,8.258S318.371,189.935,313.806,189.935z"/>
	<path style="fill:#5A4650;" d="M214.71,189.935h-16.516c-4.565,0-8.258-3.694-8.258-8.258s3.694-8.258,8.258-8.258h16.516
		c4.565,0,8.258,3.694,8.258,8.258S219.274,189.935,214.71,189.935z"/>
	<path style="fill:#5A4650;" d="M140.387,181.677c0,0,107.382-8.052,173.419-57.806H140.387V181.677z"/>
</g>
<g>
	<path style="fill:#FFE17D;" d="M148.645,272.516c0,10.141-9.14,18.148-19.632,16.231c-7.917-1.446-13.652-9.019-13.386-17.062
		c0.362-10.983,7.787-21.843,12.553-27.72c2.063-2.544,5.908-2.462,7.968,0.085C141.036,250.095,148.645,261.306,148.645,272.516z"
		/>
	<path style="fill:#FFE17D;" d="M396.387,272.516c0,10.141-9.14,18.148-19.632,16.231c-7.917-1.446-13.652-9.019-13.386-17.062
		c0.362-10.983,7.787-21.843,12.553-27.72c2.063-2.544,5.908-2.462,7.968,0.085C388.778,250.095,396.387,261.306,396.387,272.516z"
		/>
</g>
<path style="fill:#FFD164;" d="M256,90.839c-59.291,0-107.355,18.486-107.355,41.29v33.032c0-22.804,48.064-41.29,107.355-41.29
	s107.355,18.486,107.355,41.29v-33.032C363.355,109.325,315.29,90.839,256,90.839z"/>
<g>
	<path style="fill:#FFE17D;" d="M305.548,264.258c-22.766,0-41.29-18.524-41.29-41.29v-16.516c0-4.565,3.694-8.258,8.258-8.258
		h66.065c4.565,0,8.258,3.694,8.258,8.258v16.516C346.839,245.734,328.315,264.258,305.548,264.258z M280.773,214.71v8.258
		c0,13.661,11.113,24.774,24.774,24.774c13.661,0,24.774-11.113,24.774-24.774v-8.258H280.773z"/>
	<path style="fill:#FFE17D;" d="M206.452,264.258c-22.766,0-41.29-18.524-41.29-41.29v-16.516c0-4.565,3.694-8.258,8.258-8.258
		h66.065c4.565,0,8.258,3.694,8.258,8.258v16.516C247.742,245.734,229.218,264.258,206.452,264.258z M181.677,214.71v8.258
		c0,13.661,11.113,24.774,24.774,24.774s24.774-11.113,24.774-24.774v-8.258H181.677z"/>
</g>
<path style="fill:#FFD164;" d="M327.587,387.613L256,421.161l-71.587-33.548l-25.214,8.899c0.172,0.478,0.301,0.967,0.509,1.435
	l27.212,61.226c3.973,8.939,12.866,14.715,22.656,14.715c5.771,0,11.397-2.04,15.842-5.744l22.323-18.602v53.791
	c2.733,0.209,5.471,0.408,8.258,0.408s5.525-0.2,8.258-0.408v-53.792l22.323,18.602c4.445,3.704,10.071,5.744,15.842,5.744
	c9.79,0,18.683-5.776,22.656-14.714l27.213-61.227c0.208-0.469,0.336-0.957,0.509-1.435L327.587,387.613z"/>
<g>
	<path style="fill:#FFE17D;" d="M204.033,369.194L256,421.161l-41.154,34.295c-4.21,3.508-10.607,2.018-12.833-2.99l-27.212-61.227
		c-0.833-1.873-0.426-4.066,1.024-5.516l16.529-16.529C195.579,365.969,200.808,365.969,204.033,369.194z"/>
	<path style="fill:#FFE17D;" d="M319.646,369.194c-3.225-3.225-8.454-3.225-11.678,0L256,421.161l41.154,34.294
		c4.21,3.508,10.607,2.018,12.833-2.99l27.212-61.227c0.833-1.873,0.426-4.066-1.024-5.516L319.646,369.194z"/>
</g>
<g>
	<path style="fill:#C9C6CA;" d="M126.282,471.137l-46.599-40.775c-3.849,4.06-6.908,8.783-9.198,13.9l44.925,39.31
		c5.379,4.702,8.46,11.5,8.46,18.645V512h16.516v-9.782C140.387,490.315,135.25,478.984,126.282,471.137z"/>
	<path style="fill:#C9C6CA;" d="M385.717,471.137l46.599-40.775c3.849,4.06,6.908,8.783,9.198,13.9l-44.925,39.31
		c-5.379,4.702-8.46,11.5-8.46,18.645V512h-16.516v-9.782C371.613,490.315,376.75,478.984,385.717,471.137z"/>
</g>
<g>
</g>
<g>
</g>
<g>
</g>
<g>
</g>
<g>
</g>
<g>
</g>
<g>
</g>
<g>
</g>
<g>
</g>
<g>
</g>
<g>
</g>
<g>
</g>
<g>
</g>
<g>
</g>
<g>
</g>
</svg>
