<?xml version="1.0" encoding="iso-8859-1"?>
<!-- Generator: Adobe Illustrator 19.0.0, SVG Export Plug-In . SVG Version: 6.00 Build 0)  -->
<svg version="1.1" id="Capa_1" xmlns="http://www.w3.org/2000/svg" xmlns:xlink="http://www.w3.org/1999/xlink" x="0px" y="0px"
	 viewBox="0 0 512 512" style="enable-background:new 0 0 512 512;" xml:space="preserve">
<path style="fill:#6E5A64;" d="M418.628,369.41l-79.862-23.489L256,421.161l-82.764-75.24L93.374,369.41
	c-21.087,6.202-35.567,25.555-35.567,47.535v70.281c0,13.682,11.092,24.774,24.774,24.774h346.839
	c13.682,0,24.774-11.092,24.774-24.774v-70.281C454.194,394.965,439.714,375.612,418.628,369.41z"/>
<path style="fill:#5A4650;" d="M401.555,229.434L256,206.452l-145.555,22.982c-5.577,0.881-8.645,6.972-6.034,11.977l93.783,179.751
	L186.126,445.3c-2.736,5.472-2.223,12.008,1.333,16.986L222.969,512h66.065l35.511-49.715c3.556-4.978,4.069-11.514,1.333-16.986
	l-12.069-24.138l93.783-179.751C410.201,236.406,407.132,230.315,401.555,229.434z"/>
<path style="fill:#E6646E;" d="M103.58,236.652l146.054,176.803c3.303,3.998,9.43,3.998,12.733,0L408.42,236.652
	c-0.414-3.505-3.014-6.609-6.865-7.218L256,206.452l-145.555,22.982C106.594,230.042,103.993,233.147,103.58,236.652z"/>
<path style="fill:#DBD9DC;" d="M262.367,413.454l61.05-73.903c-5.905-4.595-9.61-11.695-9.61-19.508v-39.269H198.195v39.269
	c0,7.814-3.705,14.913-9.61,19.508l61.05,73.903C252.937,417.452,259.064,417.452,262.367,413.454z"/>
<g>
	<path style="fill:#5A4650;" d="M117.509,421.476l-45.82-38.771c-3.86,4.024-6.978,8.675-9.298,13.766l44.457,37.617
		c5.573,4.71,8.766,11.605,8.766,18.911v59h16.516v-59C132.13,440.823,126.799,429.331,117.509,421.476z"/>
	<path style="fill:#5A4650;" d="M394.492,421.476l45.82-38.771c3.86,4.024,6.978,8.675,9.298,13.766l-44.457,37.617
		c-5.573,4.71-8.766,11.605-8.766,18.911v59h-16.516v-59C379.871,440.823,385.202,429.331,394.492,421.476z"/>
</g>
<path style="fill:#C9C6CA;" d="M198.195,299.203c17.349,9.267,37.024,14.604,57.806,14.604s40.457-5.337,57.806-14.604v-18.428
	H198.195V299.203z"/>
<path style="fill:#EDEBED;" d="M367.484,156.903h-4.129V57.806h-214.71v99.097h-4.129c-11.355,0-20.645,9.29-20.645,20.645
	s9.29,20.645,20.645,20.645h4.546c4.23,55.419,50.435,99.097,106.938,99.097s102.708-43.678,106.938-99.097h4.546
	c11.355,0,20.645-9.29,20.645-20.645S378.839,156.903,367.484,156.903z"/>
<g>
	<path style="fill:#DBD9DC;" d="M256,239.484L256,239.484c-13.682,0-24.774-11.092-24.774-24.774l0,0h49.548l0,0
		C280.774,228.392,269.682,239.484,256,239.484z"/>
	<path style="fill:#DBD9DC;" d="M181.678,189.935v-34.371c0-23.852,6.882-47.321,20.497-66.905c0.114-0.164,0.229-0.329,0.344-0.493
		c2.703-3.855,8.005-4.818,11.764-1.982c9.535,7.194,20.949,14.445,32.87,19.022c2.833,1.088,5.81,1.639,8.848,1.639
		c3.038,0,6.015-0.551,8.847-1.639c14.764-5.668,54.872-38.717,65.475-47.4H148.646v99.097h-3.405
		c-9.402,0-18.183,5.958-20.619,15.039c-3.684,13.734,6.714,26.252,19.895,26.252h4.546c4.23,55.419,50.435,99.097,106.938,99.097
		c5.649,0,11.157-0.55,16.568-1.392C221.115,287.958,181.678,243.612,181.678,189.935z"/>
</g>
<g>
	<path style="fill:#E6646E;" d="M206.452,181.677c-4.565,0-8.258-3.694-8.258-8.258v-8.258c0-4.565,3.694-8.258,8.258-8.258
		s8.258,3.694,8.258,8.258v8.258C214.711,177.984,211.017,181.677,206.452,181.677z"/>
	<path style="fill:#E6646E;" d="M305.548,181.677c-4.565,0-8.258-3.694-8.258-8.258v-8.258c0-4.565,3.694-8.258,8.258-8.258
		c4.565,0,8.258,3.694,8.258,8.258v8.258C313.806,177.984,310.113,181.677,305.548,181.677z"/>
</g>
<g>
	<path style="fill:#5A4650;" d="M222.969,156.903c-0.863,0-1.742-0.137-2.613-0.427l-24.774-8.258
		c-4.323-1.435-6.661-6.113-5.218-10.444c1.444-4.323,6.081-6.669,10.444-5.218l24.774,8.258c4.323,1.435,6.661,6.113,5.218,10.444
		C229.646,154.718,226.428,156.903,222.969,156.903z"/>
	<path style="fill:#5A4650;" d="M289.033,156.903c-3.46,0-6.677-2.185-7.831-5.645c-1.444-4.331,0.895-9.008,5.218-10.444
		l24.774-8.258c4.363-1.452,9,0.895,10.444,5.218c1.444,4.331-0.895,9.008-5.218,10.444l-24.774,8.258
		C290.774,156.766,289.895,156.903,289.033,156.903z"/>
	<path style="fill:#5A4650;" d="M231.227,0c-54.73,0-99.097,44.367-99.097,99.097v61.971c3.454-2.601,7.73-4.165,12.387-4.165h5.544
		c3.911,0,7.256-2.721,8.076-6.544c3.285-15.316,14.038-54.615,42.69-86.606c2.968-3.314,8.108-3.502,11.44-0.554
		c8.289,7.334,24.33,20.264,40.806,26.589c1.881,0.722,3.976,0.722,5.857,0c16.475-6.325,32.517-19.255,40.806-26.589
		c3.332-2.948,8.472-2.76,11.44,0.554c28.653,31.991,39.406,71.291,42.69,86.606c0.82,3.824,4.165,6.544,8.076,6.544h5.544
		c4.657,0,8.933,1.564,12.387,4.165V99.097C379.871,44.367,335.504,0,280.774,0H231.227z"/>
</g>
<g>
	<path style="fill:#FFFFFF;" d="M264.258,214.71l13.03,26.06c1.407,2.814,5.442,2.754,6.766-0.099l13.236-28.541L264.258,214.71z"/>
	<path style="fill:#FFFFFF;" d="M234.713,240.77l13.03-26.06l-33.032-2.581l13.236,28.541
		C229.271,243.524,233.305,243.583,234.713,240.77z"/>
</g>
<path style="fill:#C9C6CA;" d="M256,222.968c-18.258,0-36.048-1.935-51.46-5.597c-4.435-1.048-7.177-5.5-6.121-9.944
	c1.056-4.435,5.54-7.161,9.944-6.121c28.339,6.726,66.936,6.726,95.274,0c4.476-1.073,8.887,1.694,9.944,6.121
	c1.056,4.444-1.685,8.895-6.121,9.944C292.048,221.032,274.258,222.968,256,222.968z"/>
<path style="fill:#6E5A64;" d="M262.366,413.454c-3.302,3.998-9.43,3.998-12.733,0l-1.892-2.29V512h16.516V411.164L262.366,413.454z
	"/>
<g>
</g>
<g>
</g>
<g>
</g>
<g>
</g>
<g>
</g>
<g>
</g>
<g>
</g>
<g>
</g>
<g>
</g>
<g>
</g>
<g>
</g>
<g>
</g>
<g>
</g>
<g>
</g>
<g>
</g>
</svg>
