<?xml version="1.0" encoding="iso-8859-1"?>
<!-- Generator: Adobe Illustrator 19.0.0, SVG Export Plug-In . SVG Version: 6.00 Build 0)  -->
<svg version="1.1" id="Capa_1" xmlns="http://www.w3.org/2000/svg" xmlns:xlink="http://www.w3.org/1999/xlink" x="0px" y="0px"
	 viewBox="0 0 512 512" style="enable-background:new 0 0 512 512;" xml:space="preserve">
<rect x="132.13" y="90.84" style="fill:#EDEBED;" width="247.74" height="82.58"/>
<g>
	<path style="fill:#A06E50;" d="M180.4,281.545c-3.189-9.997-12.442-17.287-23.496-17.287c-13.682,0-24.774,11.092-24.774,24.774
		c0,7.588,3.484,14.294,8.856,18.838c-0.352,1.932-0.598,3.903-0.598,5.936c0,18.243,14.789,33.032,33.032,33.032
		s33.032-14.789,33.032-33.032C206.452,297.962,195.284,284.753,180.4,281.545z"/>
	<path style="fill:#A06E50;" d="M331.6,281.545c3.189-9.997,12.442-17.287,23.496-17.287c13.682,0,24.774,11.092,24.774,24.774
		c0,7.588-3.484,14.294-8.856,18.838c0.352,1.932,0.598,3.903,0.598,5.936c0,18.243-14.789,33.032-33.032,33.032
		s-33.032-14.789-33.032-33.032C305.548,297.962,316.716,284.753,331.6,281.545z"/>
</g>
<path style="fill:#E3AA75;" d="M412.878,417.752l-85.291-30.103c-13.207-4.661-22.039-17.144-22.039-31.149v-42.694h-99.097V356.5
	c0,14.005-8.832,26.488-22.039,31.149l-85.291,30.103c-19.81,6.992-33.057,25.716-33.057,46.723v22.75
	c0,13.682,11.092,24.774,24.774,24.774h330.323c13.682,0,24.774-11.092,24.774-24.774v-22.75
	C445.935,443.468,432.688,424.744,412.878,417.752z"/>
<path style="fill:#EDEBED;" d="M412.878,417.752l-85.291-30.103c-8.575-3.026-15.25-9.376-18.917-17.271
	c-14.296,5.927-32.648,9.493-52.67,9.493c-20.022,0-38.374-3.566-52.67-9.493c-3.666,7.896-10.342,14.245-18.917,17.271
	l-85.291,30.103c-19.81,6.991-33.057,25.716-33.057,46.723v22.75c0,13.682,11.092,24.774,24.774,24.774h330.323
	c13.682,0,24.774-11.092,24.774-24.774v-22.75C445.935,443.468,432.688,424.743,412.878,417.752z"/>
<path style="fill:#D29B6E;" d="M206.452,352.788c15.247,6.742,32.001,10.567,49.548,10.567s34.301-3.824,49.548-10.567v-22.466
	h-99.097L206.452,352.788L206.452,352.788z"/>
<path style="fill:#F5B97D;" d="M366.306,206.452h-2.952V173.42h-214.71v33.032h-2.952c-10.799,0-20.64,7.77-21.716,18.515
	c-1.237,12.358,8.433,22.775,20.538,22.775h4.546c4.23,55.419,50.435,99.097,106.938,99.097s102.708-43.678,106.938-99.097h4.546
	c12.105,0,21.776-10.417,20.538-22.775C386.946,214.221,377.105,206.452,366.306,206.452z"/>
<path style="fill:#B67F5F;" d="M256,297.29c-12.395,0-23.823-3.976-30.573-10.637c-3.25-3.21-3.282-8.435-0.081-11.677
	c3.218-3.25,8.444-3.282,11.677-0.081c2.75,2.71,9.363,5.879,18.976,5.879s16.226-3.169,18.976-5.879
	c3.234-3.202,8.46-3.169,11.677,0.081c3.202,3.242,3.169,8.468-0.081,11.677C279.823,293.315,268.395,297.29,256,297.29z"/>
<g>
	<path style="fill:#5A4650;" d="M206.452,231.226c-4.565,0-8.258-3.694-8.258-8.258v-8.258c0-4.565,3.694-8.258,8.258-8.258
		s8.258,3.694,8.258,8.258v8.258C214.71,227.532,211.016,231.226,206.452,231.226z"/>
	<path style="fill:#5A4650;" d="M305.548,231.226c-4.565,0-8.258-3.694-8.258-8.258v-8.258c0-4.565,3.694-8.258,8.258-8.258
		c4.565,0,8.258,3.694,8.258,8.258v8.258C313.806,227.532,310.113,231.226,305.548,231.226z"/>
</g>
<path style="fill:#E3AA75;" d="M330.323,173.419L330.323,173.419H148.646v33.032h-2.952c-12.107,0-20.64,7.77-21.716,18.515
	c-1.237,12.358,8.433,22.775,20.538,22.775h4.546c4.23,55.419,50.435,99.097,106.938,99.097c5.649,0,11.157-0.55,16.568-1.392
	c-51.454-7.941-90.891-52.286-90.891-105.963v-16.516c0-18.243,14.789-33.032,33.032-33.032h99.097
	C322.928,189.935,330.323,182.541,330.323,173.419z"/>
<g>
	<path style="fill:#A06E50;" d="M143.496,209.192l-11.367,1.438v-37.21h33.032v11.194
		C165.161,197.094,155.877,207.626,143.496,209.192z"/>
	<path style="fill:#A06E50;" d="M368.504,209.192l11.367,1.438v-37.21h-33.032v11.194
		C346.839,197.094,356.123,207.626,368.504,209.192z"/>
</g>
<rect x="132.13" y="99.1" style="fill:#DBD9DC;" width="33.03" height="74.32"/>
<path style="fill:#EDEBED;" d="M363.355,107.355h-214.71c-22.804,0-41.29-18.486-41.29-41.29l0,0c0-22.804,18.486-41.29,41.29-41.29
	h214.71c22.804,0,41.29,18.486,41.29,41.29l0,0C404.645,88.869,386.159,107.355,363.355,107.355z"/>
<rect x="132.13" y="132.13" style="fill:#DBD9DC;" width="247.74" height="16.516"/>
<rect x="132.13" y="132.13" style="fill:#C9C6CA;" width="33.03" height="16.516"/>
<path style="fill:#DBD9DC;" d="M330.323,41.29H181.677c-9.122,0-16.516-7.395-16.516-16.516l0,0h181.677l0,0
	C346.839,33.896,339.444,41.29,330.323,41.29z"/>
<path style="fill:#EDEBED;" d="M276.645,107.355h-41.29c-29.645,0-53.677-24.032-53.677-53.677l0,0
	C181.677,24.032,205.71,0,235.355,0h41.29c29.645,0,53.677,24.032,53.677,53.677l0,0C330.323,83.323,306.29,107.355,276.645,107.355
	z"/>
<g>
	<path style="fill:#DBD9DC;" d="M344.12,393.484l-16.533-5.835c-8.575-3.026-15.25-9.376-18.917-17.271
		c-14.296,5.927-32.648,9.493-52.67,9.493s-38.374-3.566-52.67-9.493c-3.666,7.896-10.342,14.245-18.917,17.271l-16.533,5.835
		c16.437,21.322,49.687,35.935,88.12,35.935c11.9,0,23.2-1.543,33.761-4.11l8.53,8.53c4.677,4.677,7.258,10.903,7.258,17.524V512
		h16.516v-60.637c0-11.032-4.298-21.403-12.097-29.202l-2.437-2.437C323.041,413.392,335.767,404.32,344.12,393.484z"/>
	<path style="fill:#DBD9DC;" d="M125.532,470.976L78.523,431.8c-3.701,4.204-6.638,9.004-8.742,14.222l45.178,37.647
		c5.661,4.718,8.911,11.653,8.911,19.024V512h16.516v-9.306C140.387,490.403,134.968,478.847,125.532,470.976z"/>
	<path style="fill:#DBD9DC;" d="M386.468,470.976l47.009-39.175c3.701,4.204,6.638,9.004,8.742,14.222l-45.178,37.647
		c-5.661,4.718-8.911,11.653-8.911,19.024V512h-16.516v-9.306C371.613,490.403,377.032,478.847,386.468,470.976z"/>
</g>
<g>
</g>
<g>
</g>
<g>
</g>
<g>
</g>
<g>
</g>
<g>
</g>
<g>
</g>
<g>
</g>
<g>
</g>
<g>
</g>
<g>
</g>
<g>
</g>
<g>
</g>
<g>
</g>
<g>
</g>
</svg>
