<?xml version="1.0" encoding="iso-8859-1"?>
<!-- Generator: Adobe Illustrator 19.0.0, SVG Export Plug-In . SVG Version: 6.00 Build 0)  -->
<svg version="1.1" id="Capa_1" xmlns="http://www.w3.org/2000/svg" xmlns:xlink="http://www.w3.org/1999/xlink" x="0px" y="0px"
	 viewBox="0 0 512.001 512.001" style="enable-background:new 0 0 512.001 512.001;" xml:space="preserve">
<path style="fill:#E3AA75;" d="M419.732,376.755l-87.628-25.773c-10.615-3.122-17.905-12.864-17.905-23.929v-39.536H197.801v39.536
	c0,11.065-7.29,20.807-17.905,23.929l-87.628,25.773c-21.23,6.244-35.809,25.728-35.809,47.858v62.445
	c0,13.775,11.167,24.943,24.943,24.943h349.196c13.775,0,24.943-11.167,24.943-24.943v-62.445
	C455.541,402.483,440.962,382.999,419.732,376.755z"/>
<path style="fill:#A5CDFF;" d="M419.732,376.755l-83.883-24.672c-9.984,34.719-41.918,60.146-79.849,60.146
	s-69.864-25.427-79.849-60.146l-83.883,24.672c-21.23,6.244-35.809,25.729-35.809,47.858v62.445
	c0,13.775,11.167,24.943,24.943,24.943h349.196c13.775,0,24.943-11.167,24.943-24.943v-62.445
	C455.541,402.483,440.962,382.999,419.732,376.755z"/>
<path style="fill:#D29B6E;" d="M197.801,314.385c17.467,9.33,37.276,14.703,58.199,14.703s40.732-5.373,58.199-14.703v-18.554
	H197.801V314.385z"/>
<path style="fill:#F5B97D;" d="M368.242,171.118h-4.157v-41.571h-216.17v41.571h-4.157c-11.48,0-20.785,9.306-20.785,20.786
	c0,11.479,9.306,20.785,20.785,20.785h4.577c4.259,55.796,50.778,99.77,107.664,99.77s103.406-43.975,107.664-99.77h4.577
	c11.48,0,20.785-9.306,20.785-20.785C389.027,180.424,379.721,171.118,368.242,171.118z"/>
<path style="fill:#E3AA75;" d="M147.915,129.547v41.571h-2.972c-10.872,0-20.78,7.822-21.863,18.641
	c-1.246,12.442,8.491,22.93,20.678,22.93h4.577c4.259,55.796,50.778,99.77,107.664,99.77v-8.432
	c-39.032-16.292-66.514-54.713-66.514-99.653v-8.314c0-22.959,18.612-41.571,41.571-41.571h83.142
	c9.184,0,16.628-7.445,16.628-16.628v-8.314L147.915,129.547L147.915,129.547z"/>
<path style="fill:#FFE17D;" d="M246.65,2.878L70.482,122.672c-6.77,4.604-3.512,15.189,4.675,15.189h361.685
	c8.187,0,11.445-10.586,4.675-15.189L265.35,2.878C259.707-0.959,252.293-0.959,246.65,2.878z"/>
<g>
	<path style="fill:#5A4650;" d="M214.429,187.746h-16.628c-4.596,0-8.314-3.719-8.314-8.314c0-4.596,3.719-8.314,8.314-8.314h16.628
		c4.596,0,8.314,3.719,8.314,8.314C222.743,184.028,219.025,187.746,214.429,187.746z"/>
	<path style="fill:#5A4650;" d="M314.199,187.746h-16.628c-4.596,0-8.314-3.719-8.314-8.314c0-4.596,3.719-8.314,8.314-8.314h16.628
		c4.596,0,8.314,3.719,8.314,8.314C322.514,184.028,318.795,187.746,314.199,187.746z"/>
</g>
<path style="fill:#FFD164;" d="M182.818,122.288L261.23,0.906c-4.836-1.608-10.227-0.989-14.581,1.972L70.482,122.671
	c-6.77,4.604-3.512,15.19,4.675,15.19h109.766C181.237,137.861,179.769,127.008,182.818,122.288z"/>
<g>
	<path style="fill:#5A4650;" d="M142.731,173.877l-11.444,1.447v-37.463h33.257v11.27
		C164.544,161.696,155.197,172.3,142.731,173.877z"/>
	<path style="fill:#5A4650;" d="M369.269,173.877l11.444,1.447v-37.463h-33.257v11.27
		C347.456,161.696,356.803,172.3,369.269,173.877z"/>
</g>
<path style="fill:#E3AA75;" d="M272.628,262.574h-33.257c-9.184,0-16.628-7.445-16.628-16.628v-8.314h66.514v8.314
	C289.257,255.129,281.812,262.574,272.628,262.574z"/>
<g>
	<path style="fill:#5A4650;" d="M289.257,229.317h-66.514c-13.775,0-24.943,11.167-24.943,24.943v16.628
		c0,4.591,3.722,8.314,8.314,8.314c4.626,0,8.369-3.778,8.314-8.416c-0.023-1.914-0.027-5.136-0.023-8.23
		c0.005-4.587,3.727-8.297,8.314-8.297h8.338c5.512,0,10.567-1.821,14.676-4.865c2.981-2.208,6.556-3.449,10.266-3.449l0,0
		c3.71,0,7.285,1.24,10.266,3.449c4.109,3.044,9.165,4.865,14.676,4.865h8.338c4.587,0,8.309,3.71,8.314,8.297
		c0.004,3.094,0,6.316-0.023,8.23c-0.056,4.638,3.687,8.416,8.314,8.416c4.592,0,8.314-3.723,8.314-8.314V254.26
		C314.199,240.484,303.032,229.317,289.257,229.317z"/>
	<path style="fill:#5A4650;" d="M256,287.517L256,287.517c-4.965,0-9.373,3.177-10.943,7.888l-3.59,10.771
		c-1.373,4.118-1.647,8.523-0.796,12.779l5.385,26.923c0.948,4.74,5.11,8.153,9.945,8.153l0,0c4.834,0,8.997-3.412,9.945-8.153
		l5.385-26.923c0.851-4.256,0.577-8.661-0.796-12.779l-3.59-10.771C265.373,290.694,260.965,287.517,256,287.517z"/>
</g>
<path style="fill:#8CB4EB;" d="M367.741,361.464l-31.893-9.38c-9.984,34.719-41.918,60.146-79.849,60.146
	s-69.864-25.427-79.849-60.146l-31.893,9.38c12.039,41.611,46.622,73.61,89.684,81.879c7.918,1.52,13.743,8.253,13.743,16.316V512
	h16.628v-52.341c0-8.063,5.825-14.796,13.743-16.316C321.119,435.073,355.703,403.074,367.741,361.464z"/>
<g>
</g>
<g>
</g>
<g>
</g>
<g>
</g>
<g>
</g>
<g>
</g>
<g>
</g>
<g>
</g>
<g>
</g>
<g>
</g>
<g>
</g>
<g>
</g>
<g>
</g>
<g>
</g>
<g>
</g>
</svg>
