<?xml version="1.0" encoding="iso-8859-1"?>
<!-- Generator: Adobe Illustrator 19.0.0, SVG Export Plug-In . SVG Version: 6.00 Build 0)  -->
<svg version="1.1" id="Capa_1" xmlns="http://www.w3.org/2000/svg" xmlns:xlink="http://www.w3.org/1999/xlink" x="0px" y="0px"
	 viewBox="0 0 512 512" style="enable-background:new 0 0 512 512;" xml:space="preserve">
<path style="fill:#DC4655;" d="M256,0c-56.217,0-103.207,35.256-115.613,82.581h231.226C359.207,35.256,312.217,0,256,0z"/>
<path style="fill:#8C5F4B;" d="M406.401,320.662c-11.625-17.656-10.742-28.822-11.196-48.553
	c-0.861-37.519-16.792-39.174-21.528-65.657H138.324c-4.736,26.483-20.668,28.139-21.529,65.657
	c-0.453,19.731,0.43,30.898-11.195,48.553c-17.528,26.62-4.774,47.854-4.774,47.854h310.351
	C411.175,368.516,423.929,347.282,406.401,320.662z"/>
<path style="fill:#A5CDFF;" d="M418.626,369.41l-129.594-39.087h-66.065L93.375,369.41c-21.087,6.202-35.568,25.555-35.568,47.535
	v70.281c0,13.682,11.092,24.774,24.774,24.774h346.839c13.682,0,24.774-11.092,24.774-24.774v-70.281
	C454.194,394.965,439.714,375.612,418.626,369.41z"/>
<path style="fill:#8CB4EB;" d="M256,429.419c48.989,0,90.329-33.02,103.159-77.946l-70.127-21.151h-66.065l-70.127,21.151
	C165.672,396.399,207.012,429.419,256,429.419z"/>
<g>
	<polygon style="fill:#E6646E;" points="132.13,512 173.42,512 173.42,345.267 132.13,357.721 	"/>
	<polygon style="fill:#E6646E;" points="379.871,512 338.581,512 338.581,345.267 379.871,357.721 	"/>
</g>
<path style="fill:#F5B97D;" d="M367.484,173.419h-4.129v-57.806h-214.71v57.806h-4.129c-11.402,0-20.645,9.243-20.645,20.645
	c0,11.402,9.243,20.645,20.645,20.645h4.546c4.23,55.419,50.435,99.097,106.937,99.097s102.708-43.678,106.937-99.097h4.546
	c11.402,0,20.645-9.243,20.645-20.645C388.129,182.662,378.886,173.419,367.484,173.419z"/>
<path style="fill:#E3AA75;" d="M363.355,115.613h-214.71v57.806h-2.951c-10.799,0-20.64,7.77-21.716,18.515
	c-1.238,12.358,8.434,22.775,20.538,22.775h4.546c2.067,27.078,14.201,51.306,32.615,69.052v-93.827
	c0-22.804,18.486-41.29,41.29-41.29h140.387v-33.031H363.355z"/>
<g>
	<path style="fill:#5A4650;" d="M206.452,198.194c-4.565,0-8.258-3.698-8.258-8.258v-8.258c0-4.56,3.694-8.258,8.258-8.258
		s8.258,3.698,8.258,8.258v8.258C214.711,194.496,211.017,198.194,206.452,198.194z"/>
	<path style="fill:#5A4650;" d="M305.548,198.194c-4.565,0-8.258-3.698-8.258-8.258v-8.258c0-4.56,3.694-8.258,8.258-8.258
		s8.258,3.698,8.258,8.258v8.258C313.806,194.496,310.113,198.194,305.548,198.194z"/>
</g>
<g>
	<path style="fill:#A06E50;" d="M198.187,169.637c-3.637,0-6.968-2.423-7.96-6.105c-1.194-4.403,1.411-8.935,5.806-10.129
		l16.516-4.472c4.403-1.169,8.944,1.411,10.129,5.815c1.194,4.403-1.411,8.935-5.806,10.129l-16.516,4.472
		C199.63,169.54,198.904,169.637,198.187,169.637z"/>
	<path style="fill:#A06E50;" d="M313.815,169.637c-0.718,0-1.444-0.097-2.169-0.29l-16.516-4.472c-4.395-1.194-7-5.726-5.806-10.129
		c1.185-4.407,5.702-7.004,10.129-5.815l16.516,4.472c4.395,1.194,7,5.726,5.806,10.129
		C320.783,167.214,317.452,169.637,313.815,169.637z"/>
	<path style="fill:#A06E50;" d="M150.671,175.21l-18.541,2.29v-45.371h33.032v26.689
		C165.161,167.157,158.947,174.187,150.671,175.21z"/>
	<path style="fill:#A06E50;" d="M361.33,175.21l18.541,2.29v-45.371h-33.032v26.689C346.839,167.157,353.054,174.187,361.33,175.21z
		"/>
</g>
<g>
	<path style="fill:#DC4655;" d="M359.159,351.474l-20.579-6.207v45.145C347.918,379.125,355.031,365.93,359.159,351.474z"/>
	<path style="fill:#DC4655;" d="M173.42,390.412v-45.145l-20.579,6.207C156.969,365.93,164.083,379.125,173.42,390.412z"/>
</g>
<path style="fill:#A06E50;" d="M322.065,222.968H189.937c-13.682,0-24.774,11.092-24.774,24.774v74.323
	c0,50.169,40.67,90.839,90.839,90.839l0,0c50.169,0,90.839-40.67,90.839-90.839v-74.323
	C346.839,234.06,335.747,222.968,322.065,222.968z"/>
<path style="fill:#F5B97D;" d="M256,272.516c-12.387,0-23.823-3.976-30.573-10.637c-3.25-3.202-3.282-8.431-0.081-11.677
	c3.202-3.25,8.444-3.282,11.677-0.081c2.75,2.714,9.371,5.879,18.976,5.879c9.605,0,16.226-3.165,18.976-5.879
	c3.234-3.202,8.476-3.169,11.677,0.081c3.202,3.246,3.169,8.476-0.081,11.677C279.823,268.54,268.387,272.516,256,272.516z"/>
<path style="fill:#8C5F4B;" d="M297.29,396.387c-50.169,0-90.839-40.67-90.839-90.839v-82.581h-16.516
	c-13.682,0-24.774,11.092-24.774,24.774v74.323c0,50.169,40.67,90.839,90.839,90.839c19.946,0,38.331-6.505,53.315-17.403
	C305.371,396.024,301.378,396.387,297.29,396.387z"/>
<g>
	<path style="fill:#E6646E;" d="M379.871,132.129H132.13c-4.561,0-8.258-3.697-8.258-8.258V90.839c0-4.561,3.697-8.258,8.258-8.258
		h247.742c4.561,0,8.258,3.697,8.258,8.258v33.032C388.129,128.432,384.432,132.129,379.871,132.129z"/>
	<path style="fill:#E6646E;" d="M251.48,0.076c-0.121,0.039-0.238,0.076-0.358,0.115c-10.492,7.02-19.69,15.994-27.123,26.441
		c-11.758,16.525-0.255,39.433,20.026,39.433h121.623C347.19,26.113,302.86-1.645,251.48,0.076z"/>
</g>
<path style="fill:#8CB4EB;" d="M132.13,437.677L132.13,437.677V512h-24.774v-49.548C107.356,448.769,118.448,437.677,132.13,437.677
	z"/>
<path style="fill:#DC4655;" d="M132.13,512h16.516v-57.806c0-9.122-7.395-16.516-16.516-16.516l0,0V512z"/>
<path style="fill:#8CB4EB;" d="M379.871,437.677L379.871,437.677V512h24.774v-49.548
	C404.645,448.769,393.553,437.677,379.871,437.677z"/>
<path style="fill:#DC4655;" d="M379.871,512h-16.516v-57.806c0-9.122,7.395-16.516,16.516-16.516l0,0V512z"/>
<g>
</g>
<g>
</g>
<g>
</g>
<g>
</g>
<g>
</g>
<g>
</g>
<g>
</g>
<g>
</g>
<g>
</g>
<g>
</g>
<g>
</g>
<g>
</g>
<g>
</g>
<g>
</g>
<g>
</g>
</svg>
