<?xml version="1.0" encoding="iso-8859-1"?>
<!-- Generator: Adobe Illustrator 19.0.0, SVG Export Plug-In . SVG Version: 6.00 Build 0)  -->
<svg version="1.1" id="Capa_1" xmlns="http://www.w3.org/2000/svg" xmlns:xlink="http://www.w3.org/1999/xlink" x="0px" y="0px"
	 viewBox="0 0 512.001 512.001" style="enable-background:new 0 0 512.001 512.001;" xml:space="preserve">
<path style="fill:#B67F5F;" d="M361.652,243.809L150.35,243.81c0,62.578-32.508,98.336-16.254,178.794h243.81
	C394.16,342.146,361.652,306.387,361.652,243.809z"/>
<path style="fill:#A06E50;" d="M256.001,243.809L150.35,243.81c0,62.578-32.508,98.336-16.254,178.794h121.905V243.809z"/>
<path style="fill:#F7D291;" d="M410.389,427.375l-83.937-29.625c-12.997-4.587-21.689-16.872-21.689-30.655v-50.143h-97.524v50.143
	c0,13.783-8.692,26.067-21.688,30.654l-83.938,29.625c-19.495,6.881-32.533,25.308-32.533,45.982v14.262
	C69.08,501.084,79.996,512,93.461,512h325.08c13.465,0,24.381-10.916,24.381-24.381v-14.262
	C442.922,452.683,429.884,434.256,410.389,427.375z"/>
<path style="fill:#EDEBED;" d="M410.389,427.375l-81.766-28.859c-4.182,36.423-35.078,64.722-72.622,64.722
	s-68.439-28.299-72.622-64.722l-81.766,28.859c-19.496,6.88-32.533,25.308-32.533,45.982v14.262
	C69.08,501.084,79.996,512,93.461,512h325.08c13.465,0,24.381-10.916,24.381-24.381v-14.262
	C442.922,452.683,429.884,434.255,410.389,427.375z"/>
<path style="fill:#F0C382;" d="M207.239,355.657c14.957,6.479,31.449,10.057,48.762,10.057s33.805-3.578,48.762-10.057v-30.578
	h-97.524L207.239,355.657L207.239,355.657z"/>
<path style="fill:#FFE1A0;" d="M256.001,349.46L256.001,349.46c-58.349,0-105.651-47.301-105.651-105.651V130.032h211.302V243.81
	C361.652,302.159,314.35,349.46,256.001,349.46z"/>
<path style="fill:#F7D291;" d="M150.35,130.032V243.81c0,58.349,47.302,105.651,105.651,105.651c5.542,0,10.942-0.555,16.254-1.378
	c-50.612-7.836-89.397-51.466-89.397-104.273v-27.796c0-14.511,9.593-27.274,23.555-31.226
	c22.538-6.379,46.015-14.591,65.842-24.942v1.084c0,12.842,9.365,24.437,22.158,25.551c1.247,0.109,2.52,0.125,3.811,0.038
	c8.929-0.607,40.982-6.5,63.428-11.687v-44.799L150.35,130.032L150.35,130.032z"/>
<g>
	<polygon style="fill:#FFD164;" points="304.755,365.714 304.763,365.717 304.763,365.453 	"/>
	<polygon style="fill:#FFD164;" points="207.239,365.453 207.239,365.717 207.247,365.714 	"/>
</g>
<path style="fill:#E3AA75;" d="M256.001,300.817c-12.198,0-23.444-3.913-30.087-10.468c-3.198-3.159-3.23-8.302-0.079-11.492
	c3.167-3.198,8.31-3.23,11.492-0.079c2.706,2.667,9.214,5.786,18.675,5.786c9.46,0,15.968-3.119,18.675-5.786
	c3.183-3.151,8.325-3.119,11.492,0.079c3.151,3.19,3.119,8.333-0.079,11.492C279.445,296.905,268.199,300.817,256.001,300.817z"/>
<g>
	<path style="fill:#6E5A64;" d="M207.239,243.81c-4.492,0-8.127-3.635-8.127-8.127v-8.127c0-4.492,3.635-8.127,8.127-8.127
		s8.127,3.635,8.127,8.127v8.127C215.366,240.175,211.731,243.81,207.239,243.81z"/>
	<path style="fill:#6E5A64;" d="M304.763,243.81c-4.492,0-8.127-3.635-8.127-8.127v-8.127c0-4.492,3.635-8.127,8.127-8.127
		s8.127,3.635,8.127,8.127v8.127C312.89,240.175,309.255,243.81,304.763,243.81z"/>
</g>
<g>
	<path style="fill:#B67F5F;" d="M312.89,211.302h-16.254c-4.492,0-8.127-3.635-8.127-8.127s3.635-8.127,8.127-8.127h16.254
		c4.492,0,8.127,3.635,8.127,8.127S317.382,211.302,312.89,211.302z"/>
	<path style="fill:#B67F5F;" d="M215.366,211.302h-16.254c-4.492,0-8.127-3.635-8.127-8.127s3.635-8.127,8.127-8.127h16.254
		c4.492,0,8.127,3.635,8.127,8.127S219.858,211.302,215.366,211.302z"/>
</g>
<path style="fill:#5A4650;" d="M199.112,292.571h-65.016c-17.929,0-32.508-14.579-32.508-32.508v-105.65
	C101.588,69.27,170.858,0,256.001,0s154.413,69.27,154.413,154.413v65.016c0,4.492-3.635,8.127-8.127,8.127
	s-8.127-3.635-8.127-8.127v-65.016c0-76.183-61.976-138.159-138.159-138.159S117.842,78.23,117.842,154.413v105.651
	c0,8.96,7.294,16.254,16.254,16.254h65.016c4.492,0,8.127,3.635,8.127,8.127C207.239,288.936,203.604,292.571,199.112,292.571z"/>
<path style="fill:#A06E50;" d="M250.108,40.774c-65.568,3.088-116.012,59.569-116.012,125.209v37.191h16.254v-7.379
	c0-7.392,4.95-13.858,12.106-15.713c31.838-8.25,83.117-23.355,114.258-41.897c5.382-3.204,12.158,0.755,12.158,7.018v16.86
	c0,4.698,3.929,8.435,8.615,8.117c9.722-0.661,26.44-2.516,43.677-7.725c9.385-2.836,20.487,8.211,20.487,19.945v20.773h16.254
	V162.54C377.906,93.259,320.113,37.477,250.108,40.774z"/>
<path style="fill:#B67F5F;" d="M250.108,40.774c-18.15,0.855-35.07,5.918-50.153,14.017c2.833,24.211,13.211,63.876,48.624,97.277
	c10.289-4.35,19.923-8.993,28.136-13.883c5.381-3.204,12.158,0.755,12.158,7.018v16.86c0,4.697,3.929,8.435,8.616,8.117
	c9.722-0.661,26.44-2.516,43.677-7.725c9.385-2.836,20.487,8.211,20.487,19.945v20.773h16.254V162.54
	C377.906,93.259,320.113,37.477,250.108,40.774z"/>
<g>
	<path style="fill:#DBD9DC;" d="M142.588,511.881v-9.714c0-11.651-5.008-22.754-13.738-30.468l-41.306-36.466
		c-4.297,3.417-7.908,7.542-10.816,12.143l41.36,36.514c5.238,4.619,8.246,11.286,8.246,18.278v9.714
		c0,0.042,0.023,0.077,0.024,0.119h16.206C142.565,511.958,142.588,511.923,142.588,511.881z"/>
	<path style="fill:#DBD9DC;" d="M369.779,511.881v-9.714c0-11.651,5.008-22.754,13.738-30.468l41.306-36.466
		c4.297,3.417,7.908,7.542,10.816,12.143l-41.36,36.514c-5.238,4.619-8.246,11.286-8.246,18.278v9.714
		c0,0.042-0.023,0.077-0.024,0.119h-16.206C369.802,511.958,369.779,511.923,369.779,511.881z"/>
	<path style="fill:#DBD9DC;" d="M167.796,404.016c6.701,42.743,43.581,75.476,88.205,75.476s81.504-32.733,88.206-75.476
		l-15.584-5.5c-4.182,36.423-35.078,64.722-72.622,64.722s-68.439-28.299-72.622-64.722L167.796,404.016z"/>
</g>
<path style="fill:#6E5A64;" d="M125.969,251.937h16.254c4.488,0,8.127-3.639,8.127-8.127v-48.762c0-4.488-3.639-8.127-8.127-8.127
	h-16.254c-8.977,0-16.254,7.277-16.254,16.254v32.508C109.715,244.659,116.992,251.937,125.969,251.937z"/>
<path style="fill:#5A4650;" d="M142.223,251.937h-8.127v-65.016h8.127c4.488,0,8.127,3.639,8.127,8.127v48.762
	C150.35,248.298,146.712,251.937,142.223,251.937z"/>
<path style="fill:#6E5A64;" d="M386.033,251.937h-16.254c-4.488,0-8.127-3.639-8.127-8.127v-48.762c0-4.488,3.639-8.127,8.127-8.127
	h16.254c8.977,0,16.254,7.277,16.254,16.254v32.508C402.287,244.659,395.01,251.937,386.033,251.937z"/>
<path style="fill:#5A4650;" d="M369.779,251.937h8.127v-65.016h-8.127c-4.488,0-8.127,3.639-8.127,8.127v48.762
	C361.652,248.298,365.29,251.937,369.779,251.937z"/>
<path style="fill:#6E5A64;" d="M199.112,292.571h-16.254v-16.254h16.254c4.488,0,8.127,3.639,8.127,8.127l0,0
	C207.239,288.933,203.601,292.571,199.112,292.571z"/>
<g>
</g>
<g>
</g>
<g>
</g>
<g>
</g>
<g>
</g>
<g>
</g>
<g>
</g>
<g>
</g>
<g>
</g>
<g>
</g>
<g>
</g>
<g>
</g>
<g>
</g>
<g>
</g>
<g>
</g>
</svg>
