<?xml version="1.0" encoding="iso-8859-1"?>
<!-- Generator: Adobe Illustrator 19.0.0, SVG Export Plug-In . SVG Version: 6.00 Build 0)  -->
<svg version="1.1" id="Capa_1" xmlns="http://www.w3.org/2000/svg" xmlns:xlink="http://www.w3.org/1999/xlink" x="0px" y="0px"
	 viewBox="0 0 512.001 512.001" style="enable-background:new 0 0 512.001 512.001;" xml:space="preserve">
<path style="fill:#E3AA75;" d="M418.626,377.668l-87.036-25.599c-10.544-3.101-17.784-12.778-17.784-23.768v-39.269H198.194v39.269
	c0,10.99-7.24,20.667-17.784,23.768l-87.036,25.599c-21.087,6.202-35.567,25.555-35.567,47.535v62.023
	c0,13.682,11.092,24.774,24.774,24.774H429.42c13.682,0,24.774-11.092,24.774-24.774v-62.023
	C454.194,403.223,439.713,383.87,418.626,377.668z"/>
<path style="fill:#6E5A64;" d="M418.627,377.668l-87.036-25.599c-5.503-1.619-10.07-5.053-13.213-9.507L256,363.355l-62.377-20.792
	c-3.144,4.453-7.71,7.888-13.213,9.507l-87.036,25.599c-21.087,6.202-35.567,25.555-35.567,47.535v62.023
	c0,13.682,11.092,24.774,24.774,24.774H429.42c13.682,0,24.774-11.092,24.774-24.774v-62.023
	C454.194,403.223,439.713,383.87,418.627,377.668z"/>
<path style="fill:#5A4650;" d="M147.532,361.739l51.715,44.327c5.983,5.129,13.614,7.953,21.487,7.953
	c10.096,0,19.502-4.519,25.804-12.398L256,389.794l9.462,11.827c6.303,7.879,15.708,12.398,25.804,12.398
	c7.872,0,15.504-2.824,21.486-7.952l51.715-44.328l-32.878-9.67c-5.503-1.619-10.07-5.053-13.213-9.507L256,363.355l-62.377-20.792
	c-3.144,4.453-7.71,7.888-13.213,9.507L147.532,361.739z"/>
<path style="fill:#D29B6E;" d="M198.194,307.461c17.349,9.267,37.024,14.604,57.806,14.604s40.457-5.337,57.806-14.604v-18.428
	H198.194V307.461z"/>
<path style="fill:#F5B97D;" d="M367.484,165.161h-4.129v-41.29h-214.71v41.29h-4.129c-11.355,0-20.645,9.29-20.645,20.645
	c0,11.355,9.29,20.645,20.645,20.645h4.546c4.23,55.419,50.435,99.097,106.938,99.097s102.708-43.678,106.938-99.097h4.546
	c11.355,0,20.645-9.29,20.645-20.645C388.129,174.452,378.839,165.161,367.484,165.161z"/>
<path style="fill:#E3AA75;" d="M330.323,132.129v-8.258H148.645v41.29h-3.405c-9.402,0-18.183,5.958-20.619,15.039
	c-3.684,13.734,6.715,26.251,19.895,26.251h4.546c4.23,55.419,50.435,99.097,106.938,99.097c5.649,0,11.157-0.55,16.568-1.392
	c-51.454-7.941-90.891-52.286-90.891-105.963v-16.516c0-18.243,14.789-33.032,33.032-33.032h99.097
	C322.928,148.645,330.323,141.251,330.323,132.129z"/>
<g>
	<path style="fill:#B7B2B8;" d="M256,231.226c-43.967,0-82.808-9.433-106.827-23.885c4.659,54.99,50.631,98.208,106.827,98.208
		s102.168-43.217,106.827-98.208C338.808,221.792,299.967,231.226,256,231.226z"/>
	<rect x="132.13" y="123.87" style="fill:#B7B2B8;" width="33.03" height="41.29"/>
	<rect x="346.84" y="123.87" style="fill:#B7B2B8;" width="33.03" height="41.29"/>
</g>
<g>
	<path style="fill:#6E5A64;" d="M256,363.355l-66.783-37.102c-4.11-2.283-9.294-0.679-11.397,3.526l-10.929,21.858
		c-1.017,2.034-0.519,4.498,1.207,5.978l41.897,35.912c7.092,6.079,17.81,5.072,23.645-2.222L256,363.355z"/>
	<path style="fill:#6E5A64;" d="M256,363.355l66.783-37.102c4.11-2.283,9.294-0.679,11.397,3.526l10.929,21.858
		c1.017,2.034,0.519,4.498-1.207,5.978l-41.897,35.912c-7.092,6.079-17.81,5.072-23.645-2.222L256,363.355z"/>
</g>
<g>
	<path style="fill:#5A4650;" d="M210.581,181.677c-4.565,0-8.258-3.694-8.258-8.258v-8.258c0-4.565,3.694-8.258,8.258-8.258
		s8.258,3.694,8.258,8.258v8.258C218.839,177.984,215.145,181.677,210.581,181.677z"/>
	<path style="fill:#5A4650;" d="M301.419,181.677c-4.565,0-8.258-3.694-8.258-8.258v-8.258c0-4.565,3.694-8.258,8.258-8.258
		s8.258,3.694,8.258,8.258v8.258C309.677,177.984,305.984,181.677,301.419,181.677z"/>
	<path style="fill:#5A4650;" d="M272.516,189.935c-4.565,0-8.258-3.694-8.258-8.258c0-4.556-3.702-8.258-8.258-8.258
		s-8.258,3.702-8.258,8.258c0,4.565-3.694,8.258-8.258,8.258s-8.258-3.694-8.258-8.258c0-13.661,11.113-24.774,24.774-24.774
		s24.774,11.113,24.774,24.774C280.774,186.242,277.081,189.935,272.516,189.935z"/>
</g>
<path style="fill:#B67F5F;" d="M356.647,36.781C350.863,15.092,331.22,0,308.772,0H203.228c-22.448,0-42.091,15.092-47.876,36.781
	l-23.224,87.09H379.87L356.647,36.781z"/>
<path style="fill:#9C969E;" d="M264.258,280.774h-16.516c-4.565,0-8.258-3.694-8.258-8.258c0-4.565,3.694-8.258,8.258-8.258h16.516
	c4.565,0,8.258,3.694,8.258,8.258C272.516,277.081,268.823,280.774,264.258,280.774z"/>
<g>
	<path style="fill:#5A4650;" d="M181.677,173.419h-41.29c-4.565,0-8.258-3.694-8.258-8.258s3.694-8.258,8.258-8.258h41.29
		c4.565,0,8.258,3.694,8.258,8.258S186.242,173.419,181.677,173.419z"/>
	<path style="fill:#5A4650;" d="M371.613,173.419h-41.29c-4.565,0-8.258-3.694-8.258-8.258s3.694-8.258,8.258-8.258h41.29
		c4.565,0,8.258,3.694,8.258,8.258S376.177,173.419,371.613,173.419z"/>
</g>
<g>
	<path style="fill:#6E5A64;" d="M222.968,206.452h-24.774c-13.661,0-24.774-11.113-24.774-24.774v-24.774
		c0-4.565,3.694-8.258,8.258-8.258h57.806c4.565,0,8.258,3.694,8.258,8.258v24.774C247.742,195.339,236.629,206.452,222.968,206.452
		z M189.935,165.161v16.516c0,4.556,3.702,8.258,8.258,8.258h24.774c4.556,0,8.258-3.702,8.258-8.258v-16.516H189.935z"/>
	<path style="fill:#6E5A64;" d="M313.806,206.452h-24.774c-13.661,0-24.774-11.113-24.774-24.774v-24.774
		c0-4.565,3.694-8.258,8.258-8.258h57.806c4.565,0,8.258,3.694,8.258,8.258v24.774C338.581,195.339,327.468,206.452,313.806,206.452
		z M280.774,165.161v16.516c0,4.556,3.702,8.258,8.258,8.258h24.774c4.556,0,8.258-3.702,8.258-8.258v-16.516H280.774z"/>
</g>
<g>
	<path style="fill:#AEA8AF;" d="M184.54,221.932c-13.718-3.891-25.766-8.815-35.367-14.591
		c4.659,54.99,50.631,98.208,106.827,98.208c5.633,0,11.126-0.547,16.522-1.384C228.947,297.415,194.164,264.501,184.54,221.932z"/>
	<path style="fill:#AEA8AF;" d="M272.516,256h-33.032c-9.122,0-16.516-7.395-16.516-16.516v-8.258h66.065v8.258
		C289.032,248.605,281.638,256,272.516,256z"/>
</g>
<path style="fill:#C9C6CA;" d="M280.774,222.968h-49.548c-11.628,0-21.385,8.011-24.053,18.815
	c-0.752,3.044,1.752,5.959,4.888,5.959h19.165c5.553,0,10.639-1.861,14.752-4.963c2.829-2.134,6.261-3.295,9.805-3.295h0.435
	c3.544,0,6.976,1.161,9.805,3.295c4.112,3.102,9.199,4.963,14.752,4.963h19.165c3.135,0,5.639-2.915,4.888-5.959
	C302.159,230.979,292.402,222.968,280.774,222.968z"/>
<g>
	<path style="fill:#A06E50;" d="M236.261,0h-33.032c-22.448,0-42.091,15.092-47.876,36.781l-23.224,87.09h33.032l23.224-87.09
		C194.169,15.092,213.813,0,236.261,0z"/>
	<path style="fill:#A06E50;" d="M412.903,132.129H99.097c-4.565,0-8.258-3.694-8.258-8.258c0-4.565,3.694-8.258,8.258-8.258h313.806
		c4.565,0,8.258,3.694,8.258,8.258S417.468,132.129,412.903,132.129z"/>
	<path style="fill:#A06E50;" d="M252.685,12.508l3.565,14.266c0.935,3.758,4.298,6.258,8,6.258c0.661,0,1.339-0.081,2.008-0.25
		c4.427-1.105,7.121-5.589,6.008-10.008l-3.565-14.266c-0.765-3.066-2.026-5.88-3.546-8.508h-28.502
		C244.25,0,250.839,5.145,252.685,12.508z"/>
</g>
<polygon style="fill:#6E5A64;" points="134.331,115.613 377.669,115.613 371.063,90.839 140.938,90.839 "/>
<polygon style="fill:#5A4650;" points="134.331,115.613 167.363,115.613 173.97,90.839 140.938,90.839 "/>
<g>
	<polygon style="fill:#B67F5F;" points="132.129,512 165.161,512 165.161,356.554 132.129,366.269 	"/>
	<polygon style="fill:#B67F5F;" points="379.871,512 346.839,512 346.839,356.554 379.871,366.269 	"/>
</g>
<g>
	<polygon style="fill:#A06E50;" points="346.839,376.85 364.468,361.739 353.445,358.497 346.839,356.554 	"/>
	<polygon style="fill:#A06E50;" points="165.161,356.554 158.555,358.497 147.532,361.739 165.161,376.85 	"/>
</g>
<path style="fill:#5A4650;" d="M132.129,437.677L132.129,437.677V512h-24.774v-49.548
	C107.355,448.769,118.447,437.677,132.129,437.677z"/>
<path style="fill:#A06E50;" d="M132.129,512h16.516v-57.806c0-9.122-7.395-16.516-16.516-16.516l0,0V512z"/>
<path style="fill:#5A4650;" d="M379.871,437.677L379.871,437.677V512h24.774v-49.548
	C404.645,448.769,393.553,437.677,379.871,437.677z"/>
<path style="fill:#A06E50;" d="M379.871,512h-16.516v-57.806c0-9.122,7.395-16.516,16.516-16.516l0,0V512z"/>
<g>
	<circle style="fill:#AEA8AF;" cx="256" cy="429.42" r="8.258"/>
	<circle style="fill:#AEA8AF;" cx="256" cy="478.97" r="8.258"/>
</g>
<g>
</g>
<g>
</g>
<g>
</g>
<g>
</g>
<g>
</g>
<g>
</g>
<g>
</g>
<g>
</g>
<g>
</g>
<g>
</g>
<g>
</g>
<g>
</g>
<g>
</g>
<g>
</g>
<g>
</g>
</svg>
