<?xml version="1.0" encoding="iso-8859-1"?>
<!-- Generator: Adobe Illustrator 19.0.0, SVG Export Plug-In . SVG Version: 6.00 Build 0)  -->
<svg version="1.1" id="Capa_1" xmlns="http://www.w3.org/2000/svg" xmlns:xlink="http://www.w3.org/1999/xlink" x="0px" y="0px"
	 viewBox="0 0 512 512" style="enable-background:new 0 0 512 512;" xml:space="preserve">
<path style="fill:#A06E50;" d="M418.627,377.668l-87.036-25.599c-5.503-1.619-10.07-5.053-13.213-9.507H193.623
	c-3.144,4.453-7.71,7.888-13.213,9.507l-87.036,25.599c-21.087,6.202-35.567,25.555-35.567,47.535v62.023
	c0,13.682,11.092,24.774,24.774,24.774h346.839c13.682,0,24.774-11.092,24.774-24.774v-62.023
	C454.194,403.223,439.713,383.87,418.627,377.668z"/>
<path style="fill:#8C5F4B;" d="M256,371.613c28.736,0,55.946-6.531,80.235-18.178l-4.645-1.366
	c-5.503-1.619-10.07-5.053-13.213-9.507H193.623c-3.144,4.453-7.71,7.888-13.213,9.507l-4.645,1.366
	C200.054,365.082,227.264,371.613,256,371.613z"/>
<circle style="fill:#B67F5F;" cx="379.87" cy="49.548" r="49.548"/>
<circle style="fill:#6E5A64;" cx="379.87" cy="49.548" r="24.774"/>
<path style="fill:#A06E50;" d="M412.932,86.379c-8.774,7.882-20.339,12.718-33.061,12.718c-27.365,0-49.548-22.183-49.548-49.548
	c0-11.034,3.651-21.19,9.75-29.424C369.908,35.294,395.084,58.268,412.932,86.379z"/>
<path style="fill:#5A4650;" d="M398.113,66.189c-4.531,4.965-10.992,8.134-18.242,8.134c-13.682,0-24.774-11.092-24.774-24.774
	c0-6.407,2.496-12.189,6.488-16.587C375.191,42.378,387.477,53.565,398.113,66.189z"/>
<circle style="fill:#B67F5F;" cx="132.13" cy="49.548" r="49.548"/>
<circle style="fill:#6E5A64;" cx="132.13" cy="49.548" r="24.774"/>
<path style="fill:#A06E50;" d="M99.068,86.379c8.774,7.882,20.339,12.718,33.061,12.718c27.365,0,49.548-22.183,49.548-49.548
	c0-11.034-3.651-21.19-9.749-29.424C142.092,35.294,116.916,58.268,99.068,86.379z"/>
<path style="fill:#5A4650;" d="M113.887,66.189c4.531,4.965,10.992,8.134,18.242,8.134c13.682,0,24.774-11.092,24.774-24.774
	c0-6.407-2.496-12.189-6.488-16.587C136.808,42.378,124.523,53.565,113.887,66.189z"/>
<circle style="fill:#B67F5F;" cx="256" cy="185.81" r="169.29"/>
<circle style="fill:#F5B97D;" cx="256" cy="198.19" r="107.36"/>
<path style="fill:#E3AA75;" d="M181.677,198.194c0-53.659,39.411-97.992,90.839-105.955c-5.398-0.836-10.885-1.4-16.516-1.4
	c-59.29,0-107.355,48.065-107.355,107.355S196.71,305.548,256,305.548c5.632,0,11.118-0.564,16.516-1.4
	C221.088,296.186,181.677,251.852,181.677,198.194z"/>
<g>
	<path style="fill:#5A4650;" d="M206.452,198.194c-4.565,0-8.258-3.694-8.258-8.258v-8.258c0-4.565,3.694-8.258,8.258-8.258
		s8.258,3.694,8.258,8.258v8.258C214.71,194.5,211.016,198.194,206.452,198.194z"/>
	<path style="fill:#5A4650;" d="M305.548,198.194c-4.565,0-8.258-3.694-8.258-8.258v-8.258c0-4.565,3.694-8.258,8.258-8.258
		c4.565,0,8.258,3.694,8.258,8.258v8.258C313.806,194.5,310.113,198.194,305.548,198.194z"/>
</g>
<g>
	<path style="fill:#6E5A64;" d="M214.71,165.161h-16.516c-4.565,0-8.258-3.694-8.258-8.258s3.694-8.258,8.258-8.258h16.516
		c4.565,0,8.258,3.694,8.258,8.258S219.274,165.161,214.71,165.161z"/>
	<path style="fill:#6E5A64;" d="M313.806,165.161H297.29c-4.565,0-8.258-3.694-8.258-8.258s3.694-8.258,8.258-8.258h16.516
		c4.565,0,8.258,3.694,8.258,8.258S318.371,165.161,313.806,165.161z"/>
	<path style="fill:#6E5A64;" d="M190.016,74.323h-0.081c-4.565,0-8.258-3.694-8.258-8.258c0-4.565,3.694-8.258,8.258-8.258
		s8.298,3.694,8.298,8.258C198.234,70.629,194.581,74.323,190.016,74.323z"/>
	<path style="fill:#6E5A64;" d="M322.145,74.323h-0.081c-4.565,0-8.258-3.694-8.258-8.258c0-4.565,3.694-8.258,8.258-8.258
		s8.298,3.694,8.298,8.258C330.363,70.629,326.71,74.323,322.145,74.323z"/>
</g>
<path style="fill:#FFFFFF;" d="M224.355,227.067c-3.12,0-5.543,2.871-4.92,5.928c3.142,15.414,18.317,27.104,36.564,27.104
	s33.422-11.69,36.565-27.104c0.623-3.057-1.8-5.928-4.92-5.928H224.355z"/>
<path style="fill:#A06E50;" d="M278.71,332.387c-93.496,0-169.29-75.794-169.29-169.29c0-40.965,14.556-78.527,38.771-107.809
	c-37.55,31.051-61.481,77.987-61.481,130.518c0,93.496,75.794,169.29,169.29,169.29c52.531,0,99.468-23.931,130.519-61.481
	C357.237,317.831,319.674,332.387,278.71,332.387z"/>
<g>
	<path style="fill:#8C5F4B;" d="M123.871,454.194L123.871,454.194c-4.561,0-8.258,3.697-8.258,8.258V512h16.516v-49.548
		C132.129,457.891,128.432,454.194,123.871,454.194z"/>
	<path style="fill:#8C5F4B;" d="M388.129,454.194L388.129,454.194c-4.561,0-8.258,3.697-8.258,8.258V512h16.516v-49.548
		C396.387,457.891,392.69,454.194,388.129,454.194z"/>
</g>
<path style="fill:#E3AA75;" d="M256,429.419c-49.09,0-89.733,35.73-97.611,82.581h195.222
	C345.733,465.15,305.09,429.419,256,429.419z"/>
<path style="fill:#A06E50;" d="M272.516,115.613h-33.032c-13.682,0-24.774-11.092-24.774-24.774l0,0
	c0-13.682,11.092-24.774,24.774-24.774h33.032c13.682,0,24.774,11.092,24.774,24.774l0,0
	C297.29,104.521,286.199,115.613,272.516,115.613z"/>
<circle style="fill:#5A4650;" cx="256" cy="66.06" r="16.516"/>
<g>
</g>
<g>
</g>
<g>
</g>
<g>
</g>
<g>
</g>
<g>
</g>
<g>
</g>
<g>
</g>
<g>
</g>
<g>
</g>
<g>
</g>
<g>
</g>
<g>
</g>
<g>
</g>
<g>
</g>
</svg>
