<?xml version="1.0" encoding="iso-8859-1"?>
<!-- Generator: Adobe Illustrator 19.0.0, SVG Export Plug-In . SVG Version: 6.00 Build 0)  -->
<svg version="1.1" id="Capa_1" xmlns="http://www.w3.org/2000/svg" xmlns:xlink="http://www.w3.org/1999/xlink" x="0px" y="0px"
	 viewBox="0 0 512 512" style="enable-background:new 0 0 512 512;" xml:space="preserve">
<path style="fill:#6E5A64;" d="M418.626,391.742l-87.036-25.599c-10.544-3.101-17.784-12.778-17.784-23.768v-61.601H198.194v61.601
	c0,10.99-7.24,20.667-17.784,23.768l-87.036,25.599c-21.087,6.202-35.567,25.555-35.567,47.535v47.949
	c0,13.682,11.092,24.774,24.774,24.774h346.839c13.682,0,24.774-11.092,24.774-24.774v-47.949
	C454.194,417.297,439.713,397.944,418.626,391.742z"/>
<g>
	<rect x="247.74" y="437.68" style="fill:#84737B;" width="16.516" height="74.32"/>
	<path style="fill:#84737B;" d="M346.839,295.226H165.161c-27.365,0-49.548,22.183-49.548,49.548
		c0,54.729,44.367,99.097,99.097,99.097h82.581c54.73,0,99.097-44.367,99.097-99.097
		C396.387,317.409,374.204,295.226,346.839,295.226z"/>
</g>
<path style="fill:#6E5A64;" d="M344.641,320c17.975,0,25.034,23.313,10.078,33.284l-84.977,56.651
	c-8.322,5.548-19.163,5.548-27.484,0l-84.977-56.651C142.325,343.313,149.383,320,167.359,320H344.641z"/>
<path style="fill:#F7D291;" d="M178.138,367.189l64.119,42.746c8.322,5.548,19.163,5.548,27.485,0l64.119-42.746l0,0l-2.272-0.668
	c-10.543-3.101-17.784-12.778-17.784-23.768v-53.721H198.194v53.721c0,10.99-7.24,20.666-17.784,23.768L178.138,367.189
	L178.138,367.189z"/>
<path style="fill:#F0C382;" d="M198.194,315.719c17.349,9.267,37.024,14.604,57.806,14.604s40.457-5.337,57.806-14.604v-26.686
	H198.194V315.719z"/>
<path style="fill:#FFE1A0;" d="M367.484,173.419h-4.129v-24.774h-214.71v24.774h-4.129c-11.355,0-20.645,9.29-20.645,20.645
	s9.29,20.645,20.645,20.645h4.546c4.23,55.419,50.435,99.097,106.938,99.097s102.708-43.678,106.938-99.097h4.546
	c11.355,0,20.645-9.29,20.645-20.645S378.839,173.419,367.484,173.419z"/>
<path style="fill:#F7D291;" d="M181.677,206.452v-57.806h-33.032v24.774h-4.129c-11.355,0-20.645,9.29-20.645,20.645
	s9.29,20.645,20.645,20.645h4.546c4.23,55.419,50.435,99.097,106.938,99.097c5.649,0,11.157-0.55,16.568-1.392
	C221.114,304.474,181.677,260.129,181.677,206.452z"/>
<path style="fill:#E3AA75;" d="M272.516,256h-33.032c-4.565,0-8.258-3.694-8.258-8.258c0-4.565,3.694-8.258,8.258-8.258h33.032
	c4.565,0,8.258,3.694,8.258,8.258S277.081,256,272.516,256z"/>
<path style="fill:#6E5A64;" d="M256,0c-62.798,0-114.551,46.771-122.644,107.355h245.287C370.551,46.771,318.798,0,256,0z"/>
<g>
	<circle style="fill:#5A4650;" cx="256" cy="445.94" r="16.516"/>
	<path style="fill:#5A4650;" d="M117.782,444.266l-45.855-39.501c-3.891,3.997-7.037,8.632-9.395,13.705l44.476,38.312
		c5.468,4.71,8.605,11.556,8.605,18.774V512h16.516v-36.444C132.129,463.524,126.903,452.121,117.782,444.266z"/>
	<path style="fill:#5A4650;" d="M394.217,444.266l45.855-39.501c3.891,3.997,7.037,8.632,9.395,13.705l-44.476,38.312
		c-5.468,4.71-8.605,11.556-8.605,18.774V512H379.87v-36.444C379.871,463.524,385.096,452.121,394.217,444.266z"/>
</g>
<path style="fill:#84737B;" d="M379.871,148.645H132.129c-4.561,0-8.258-3.697-8.258-8.258v-24.774c0-4.561,3.697-8.258,8.258-8.258
	h247.742c4.561,0,8.258,3.697,8.258,8.258v24.774C388.129,144.948,384.432,148.645,379.871,148.645z"/>
<g>
	<path style="fill:#5A4650;" d="M165.847,107.355h16.543c3.769-46.771,23.24-85.302,49.28-100.401
		c-10.954,25.835-15.506,67.965-16.647,100.401h16.478C233.69,37.52,249.317,0,256,0c-20.101,0-39.042,4.837-55.81,13.34
		C181.566,35.849,168.754,69.255,165.847,107.355z"/>
	<path style="fill:#5A4650;" d="M311.81,13.34C295.042,4.837,276.101,0,256,0c6.683,0,22.31,37.52,24.498,107.355h16.478
		c-1.141-32.435-5.693-74.566-16.647-100.401c26.04,15.099,45.512,53.63,49.28,100.401h16.543
		C343.246,69.255,330.434,35.849,311.81,13.34z"/>
</g>
<g>
	<path style="fill:#6E5A64;" d="M173.419,140.387v-24.774c0-4.561,3.698-8.258,8.258-8.258h-49.548
		c-4.561,0-8.258,3.697-8.258,8.258v24.774c0,4.56,3.697,8.258,8.258,8.258h49.548C177.117,148.645,173.419,144.948,173.419,140.387
		z"/>
	<path style="fill:#6E5A64;" d="M379.871,164.766c0,5.42-2.659,10.495-7.115,13.579l-52.702,36.486
		c-16.497,11.421-37.952,3.778-45.101-12.849c-3.206-7.457-10.815-12.049-18.932-12.052h-0.032
		c-8.123-0.003-15.736,4.593-18.948,12.054c-7.155,16.622-28.603,24.265-45.096,12.847l-52.702-36.486
		c-4.456-3.085-7.115-8.16-7.115-13.579v-16.12H379.87v16.12H379.871z"/>
</g>
<g>
	<path style="fill:#FFE1A0;" d="M206.452,198.194c-4.565,0-8.258-3.694-8.258-8.258v-8.258c0-4.565,3.694-8.258,8.258-8.258
		s8.258,3.694,8.258,8.258v8.258C214.71,194.5,211.016,198.194,206.452,198.194z"/>
	<path style="fill:#FFE1A0;" d="M305.548,198.194c-4.565,0-8.258-3.694-8.258-8.258v-8.258c0-4.565,3.694-8.258,8.258-8.258
		c4.565,0,8.258,3.694,8.258,8.258v8.258C313.806,194.5,310.113,198.194,305.548,198.194z"/>
</g>
<path style="fill:#5A4650;" d="M132.177,165.161h247.645c0.004-0.135,0.048-0.261,0.048-0.396v-16.12H132.129v16.12
	C132.129,164.901,132.174,165.027,132.177,165.161z"/>
<g>
</g>
<g>
</g>
<g>
</g>
<g>
</g>
<g>
</g>
<g>
</g>
<g>
</g>
<g>
</g>
<g>
</g>
<g>
</g>
<g>
</g>
<g>
</g>
<g>
</g>
<g>
</g>
<g>
</g>
</svg>
