<?xml version="1.0" encoding="iso-8859-1"?>
<!-- Generator: Adobe Illustrator 19.0.0, SVG Export Plug-In . SVG Version: 6.00 Build 0)  -->
<svg version="1.1" id="Capa_1" xmlns="http://www.w3.org/2000/svg" xmlns:xlink="http://www.w3.org/1999/xlink" x="0px" y="0px"
	 viewBox="0 0 512 512" style="enable-background:new 0 0 512 512;" xml:space="preserve">
<path style="fill:#E3AA75;" d="M413.088,384.548l-85.406-30.143c-13.225-4.668-22.068-17.167-22.068-31.191v-42.751h-99.23v42.751
	c0,14.024-8.844,26.523-22.068,31.191L98.91,384.548c-19.837,7.001-33.102,25.75-33.102,46.786v55.858
	c0,13.701,11.107,24.808,24.808,24.808h330.768c13.701,0,24.808-11.107,24.808-24.808v-55.858
	C446.19,410.299,432.925,391.549,413.088,384.548z"/>
<g>
	<path style="fill:#D29B6E;" d="M255.999,445.846L255.999,445.846c-4.724,0-8.709,3.518-9.295,8.205L239.461,512h33.077
		l-7.244-57.948C264.708,449.364,260.723,445.846,255.999,445.846z"/>
	<path style="fill:#D29B6E;" d="M206.384,303.688c15.315,6.333,32.068,9.851,49.615,9.851s34.3-3.518,49.615-9.851v-23.226h-99.23
		L206.384,303.688L206.384,303.688z"/>
</g>
<path style="fill:#F5B97D;" d="M141.795,172.963l0.902,16.695c3.254,60.199,53.015,107.343,113.302,107.343
	s110.048-47.144,113.302-107.343l0.902-16.695L141.795,172.963L141.795,172.963z"/>
<path style="fill:#E3AA75;" d="M370.204,172.963H141.795l0.902,16.695c3.254,60.199,53.015,107.343,113.302,107.343
	c6.944,0,13.728-0.693,20.338-1.893c-33.897-6.149-62.685-27.346-78.934-56.608c-12.167-21.909,4.034-48.858,29.095-48.879
	l142.812-0.12L370.204,172.963z"/>
<path style="fill:#5A4650;" d="M365.862,1.672l-51.979,38.984H198.115L146.136,1.672c-5.617-4.213-13.597,0.05-13.218,7.061
	l6.195,114.614h233.772L379.08,8.733C379.46,1.722,371.48-2.541,365.862,1.672z"/>
<path style="fill:#6E5A64;" d="M255.999,13.436c-62.473,0-112.624,48.615-116.917,108.878h-0.025l2.738,50.649h228.409l2.738-50.648
	l-0.025-0.001C368.623,62.051,318.472,13.436,255.999,13.436z"/>
<g>
	<path style="fill:#5A4650;" d="M181.601,122.314c3.793-53.242,43.402-97.33,95.657-106.895c-6.891-1.261-13.981-1.983-21.259-1.983
		c-62.473,0-112.624,48.615-116.917,108.878h-0.025l2.738,50.649h42.519l-2.738-50.649
		C181.576,122.314,181.601,122.314,181.601,122.314z"/>
	<path style="fill:#5A4650;" d="M314.901,131.617h-18.573c-15.548,0-28.524,11.133-31.43,25.842
		c-2.737-0.641-5.699-1.034-8.898-1.034c-3.199,0-6.161,0.393-8.898,1.034c-2.906-14.708-15.882-25.842-31.43-25.842h-18.573
		c-17.677,0-32.059,14.382-32.059,32.059c0,19.009,12.88,35.507,31.324,40.11l10.272,2.568c0,0,0,0,0,0.008
		c2.681,0.67,5.394,0.993,8.092,0.993c7.276,0,14.382-2.415,20.285-7.026c7.97-6.218,12.543-15.555,12.671-25.645
		c1.275-0.731,4.133-1.723,8.317-1.723c4.184,0,7.042,0.992,8.317,1.723c0.128,10.09,4.701,19.427,12.671,25.645
		c5.903,4.611,13.009,7.026,20.285,7.026c2.697,0,5.411-0.323,8.092-0.993c0-0.008,0-0.008,0-0.008l10.272-2.568
		c18.444-4.603,31.324-21.101,31.324-40.11C346.96,145.999,332.578,131.617,314.901,131.617z"/>
</g>
<path style="fill:#F5B97D;" d="M210.64,190.309c4.958,1.26,10.151,0.153,14.197-3.012c4.038-3.149,6.355-7.906,6.355-13.034v-10.587
	c0-8.56-6.961-15.521-15.521-15.521h-18.573c-8.56,0-15.521,6.961-15.521,15.521c0,11.402,7.728,21.303,18.791,24.073
	L210.64,190.309z"/>
<path style="fill:#E3AA75;" d="M215.671,148.155h-18.573c-8.56,0-15.521,6.961-15.521,15.521c0,3.001,0.564,5.883,1.554,8.574
	c2.499-5.228,7.795-8.873,13.967-8.873h18.573c7.722,0,14.09,5.681,15.274,13.074c0.096-0.727,0.247-1.441,0.247-2.187v-10.587
	C231.191,155.116,224.23,148.155,215.671,148.155z"/>
<path style="fill:#5A4650;" d="M206.384,181.232c-4.571,0-8.269-3.699-8.269-8.269v-8.269c0-4.571,3.699-8.269,8.269-8.269
	c4.571,0,8.269,3.699,8.269,8.269v8.269C214.653,177.534,210.955,181.232,206.384,181.232z"/>
<path style="fill:#F5B97D;" d="M311.63,187.749c11.063-2.77,18.791-12.67,18.791-24.073c0-8.56-6.961-15.521-15.521-15.521h-18.573
	c-8.56,0-15.521,6.961-15.521,15.521v10.587c0,5.128,2.318,9.884,6.355,13.034c4.046,3.166,9.238,4.272,14.197,3.012L311.63,187.749
	z"/>
<path style="fill:#E3AA75;" d="M296.327,148.155H314.9c8.56,0,15.521,6.961,15.521,15.521c0,3.001-0.564,5.883-1.554,8.574
	c-2.499-5.228-7.795-8.873-13.967-8.873h-18.573c-7.722,0-14.09,5.681-15.274,13.074c-0.096-0.727-0.247-1.441-0.247-2.187v-10.587
	C280.807,155.116,287.768,148.155,296.327,148.155z"/>
<path style="fill:#5A4650;" d="M305.614,181.232c4.571,0,8.269-3.699,8.269-8.269v-8.269c0-4.571-3.699-8.269-8.269-8.269
	c-4.571,0-8.269,3.699-8.269,8.269v8.269C297.345,177.534,301.043,181.232,305.614,181.232z"/>
<path style="fill:#B67F5F;" d="M255.999,247.386c-12.412,0-23.855-3.981-30.614-10.651c-3.254-3.214-3.287-8.447-0.081-11.693
	c3.222-3.254,8.455-3.287,11.693-0.081c2.754,2.713,9.376,5.887,19.001,5.887c9.625,0,16.248-3.174,19.001-5.887
	c3.238-3.206,8.471-3.174,11.693,0.081c3.206,3.246,3.174,8.479-0.081,11.693C279.854,243.405,268.411,247.386,255.999,247.386z"/>
<g>
	<path style="fill:#6E5A64;" d="M193.985,348.963c7.448,7.658,32.354,14.191,62.014,14.191c29.661,0,54.566-6.534,62.014-14.192
		c-7.665-6.16-12.399-15.53-12.399-25.749v-2.657c-15.515,5.302-32.178,8.35-49.615,8.35s-34.1-3.048-49.615-8.35v2.657
		C206.384,333.433,201.65,342.803,193.985,348.963z"/>
	<path style="fill:#6E5A64;" d="M413.088,384.548l-6.008-2.12c-29.831,52.639-86.257,88.226-151.081,88.226
		s-121.25-35.587-151.082-88.226l-6.008,2.12c-19.837,7.001-33.102,25.75-33.102,46.786v55.858
		c0,13.701,11.107,24.808,24.808,24.808h330.768c13.701,0,24.808-11.107,24.808-24.808v-55.858
		C446.19,410.299,432.925,391.549,413.088,384.548z"/>
</g>
<path style="fill:#5A4650;" d="M255.999,470.654c-3.806,0-7.577-0.146-11.322-0.388L239.461,512h33.077l-5.217-41.734
	C263.576,470.508,259.805,470.654,255.999,470.654z"/>
<g>
</g>
<g>
</g>
<g>
</g>
<g>
</g>
<g>
</g>
<g>
</g>
<g>
</g>
<g>
</g>
<g>
</g>
<g>
</g>
<g>
</g>
<g>
</g>
<g>
</g>
<g>
</g>
<g>
</g>
</svg>
