<?xml version="1.0" encoding="iso-8859-1"?>
<!-- Generator: Adobe Illustrator 19.0.0, SVG Export Plug-In . SVG Version: 6.00 Build 0)  -->
<svg version="1.1" id="Capa_1" xmlns="http://www.w3.org/2000/svg" xmlns:xlink="http://www.w3.org/1999/xlink" x="0px" y="0px"
	 viewBox="0 0 512 512" style="enable-background:new 0 0 512 512;" xml:space="preserve">
<path style="fill:#B67F5F;" d="M418.626,361.152l-87.036-25.599c-10.544-3.101-17.784-12.778-17.784-23.768v-39.269H198.194v39.269
	c0,10.99-7.24,20.667-17.784,23.768l-87.036,25.599c-21.087,6.202-35.567,25.555-35.567,47.535v78.539
	c0,13.682,11.092,24.774,24.774,24.774H429.42c13.682,0,24.774-11.092,24.774-24.774v-78.539
	C454.194,386.707,439.713,367.354,418.626,361.152z"/>
<path style="fill:#EDEBED;" d="M437.677,297.29h-2.752c-8.933,0-17.625,2.897-24.772,8.257l-11.014,8.26
	c-7.148,5.36-15.842,8.258-24.777,8.258h-14.094c-3.129,0-5.941,1.723-7.357,4.513c-7.82,15.401-36.62,59.117-86.399,81.949
	c-6.66,3.055-14.364,3.055-21.024,0c-49.779-22.832-78.578-66.547-86.398-81.948c-1.417-2.79-4.229-4.514-7.358-4.514h-14.097
	c-8.934,0-17.627-2.898-24.775-8.258l-11.011-8.258c-7.147-5.36-15.841-8.258-24.775-8.258h-2.752
	c-27.365,0-49.548,22.184-49.548,49.548v57.806c0,18.243,14.789,33.032,33.032,33.032h66.065h264.258h66.065
	c18.243,0,33.032-14.789,33.032-33.032v-57.806C487.226,319.474,465.042,297.29,437.677,297.29z"/>
<path style="fill:#A5CDFF;" d="M374.363,322.065h-14.095c-3.129,0-5.941,1.723-7.357,4.513
	c-7.82,15.401-36.619,59.117-86.399,81.949c-6.66,3.055-14.363,3.055-21.023,0c-49.779-22.832-78.578-66.546-86.398-81.948
	c-1.417-2.79-4.229-4.514-7.358-4.514h-14.097c-4.726,0-9.366-0.862-13.764-2.419V512H388.13V319.645
	C383.73,321.203,379.09,322.065,374.363,322.065z"/>
<path style="fill:#A06E50;" d="M198.194,290.945c17.349,9.267,37.024,14.604,57.806,14.604c20.782,0,40.457-5.337,57.806-14.604
	v-18.428H198.194V290.945z"/>
<path style="fill:#CD916E;" d="M367.484,148.645h-4.129v-24.774h-214.71v24.774h-4.129c-11.355,0-20.645,9.29-20.645,20.645
	c0,11.355,9.29,20.645,20.645,20.645h4.546c4.23,55.419,50.435,99.097,106.938,99.097s102.708-43.678,106.938-99.097h4.546
	c11.355,0,20.645-9.29,20.645-20.645C388.129,157.935,378.839,148.645,367.484,148.645z"/>
<path style="fill:#B67F5F;" d="M346.839,132.129v-8.258H148.645v24.774h-3.405c-9.402,0-18.183,5.958-20.619,15.039
	c-3.684,13.734,6.715,26.251,19.895,26.251h4.546c4.23,55.419,50.435,99.097,106.938,99.097c5.649,0,11.157-0.55,16.568-1.392
	c-51.454-7.941-90.891-52.286-90.891-105.963l0,0c0-18.243,14.789-33.032,33.032-33.032h115.613
	C339.444,148.645,346.839,141.251,346.839,132.129z"/>
<g>
	<path style="fill:#5A4650;" d="M210.581,173.419c-4.565,0-8.258-3.694-8.258-8.258v-8.258c0-4.565,3.694-8.258,8.258-8.258
		s8.258,3.694,8.258,8.258v8.258C218.839,169.726,215.145,173.419,210.581,173.419z"/>
	<path style="fill:#5A4650;" d="M301.419,173.419c-4.565,0-8.258-3.694-8.258-8.258v-8.258c0-4.565,3.694-8.258,8.258-8.258
		s8.258,3.694,8.258,8.258v8.258C309.677,169.726,305.984,173.419,301.419,173.419z"/>
</g>
<path style="fill:#A5CDFF;" d="M256,0c-68.412,0-123.871,55.459-123.871,123.871h247.742C379.871,55.459,324.412,0,256,0z"/>
<path style="fill:#EDEBED;" d="M256,0c-11.458,0-22.502,1.68-33.032,4.591v119.28h66.065V4.591C278.502,1.679,267.458,0,256,0z"/>
<path style="fill:#8CB4EB;" d="M207.963,79.736c5.132-32.531,22.988-60.8,48.248-79.725c-0.003-0.009,0-0.001-0.003-0.01
	C187.7-0.112,132.129,55.389,132.129,123.871h247.742c0-8.485-0.862-16.768-2.488-24.774H224.291
	C214.039,99.097,206.366,89.862,207.963,79.736z"/>
<path style="fill:#A06E50;" d="M272.516,231.226h-33.032c-4.565,0-8.258-3.694-8.258-8.258s3.694-8.258,8.258-8.258h33.032
	c4.565,0,8.258,3.694,8.258,8.258S277.081,231.226,272.516,231.226z"/>
<path style="fill:#5A4650;" d="M381.226,190.048c-4.508-0.806-8.758,2.29-9.5,6.79l-5.96,35.75
	c-0.661,3.992-4.089,6.895-8.145,6.895h-42.93l7.237-39.815c0.823-4.484-2.153-8.782-6.645-9.597
	c-4.46-0.855-8.79,2.153-9.597,6.645l-7.774,42.766h-83.824l-7.773-42.766c-0.806-4.492-5.097-7.516-9.597-6.645
	c-4.492,0.815-7.468,5.113-6.645,9.597l7.236,39.815H154.38c-4.056,0-7.484-2.903-8.145-6.895l-5.96-35.75
	c-0.75-4.5-5-7.597-9.5-6.79c-4.5,0.75-7.54,5.008-6.79,9.5l5.96,35.75C131.935,247.29,142.21,256,154.379,256h45.931l2.577,14.177
	c2.863,15.71,16.532,27.113,32.5,27.113h41.226c15.968,0,29.637-11.403,32.5-27.121L311.689,256h45.932
	c12.169,0,22.444-8.71,24.435-20.702l5.96-35.75C388.766,195.056,385.726,190.798,381.226,190.048z M292.871,267.21
	c-1.435,7.863-8.274,13.565-16.258,13.565h-41.226c-7.984,0-14.823-5.702-16.258-13.556L217.09,256h77.819L292.871,267.21z"/>
<g>
	<path style="fill:#DBD9DC;" d="M256,445.935c-36.486,0-66.065,29.578-66.065,66.065h132.129
		C322.065,475.514,292.486,445.935,256,445.935z"/>
	<path style="fill:#DBD9DC;" d="M222.968,37.64c8.458-14.674,19.745-27.516,33.243-37.63c-0.003-0.009,0-0.001-0.004-0.01
		c-11.531-0.019-22.646,1.659-33.24,4.588V37.64H222.968z"/>
	<path style="fill:#DBD9DC;" d="M289.033,99.097h-64.742c-0.457,0-0.877-0.113-1.323-0.149v24.923h66.065V99.097z"/>
</g>
<path style="fill:#64505A;" d="M379.871,206.452H132.129c-13.661,0-24.774-11.113-24.774-24.774v-41.29
	c0-13.661,11.113-24.774,24.774-24.774h247.742c13.661,0,24.774,11.113,24.774,24.774v41.29
	C404.645,195.339,393.532,206.452,379.871,206.452z M132.129,132.129c-4.556,0-8.258,3.702-8.258,8.258v41.29
	c0,4.556,3.702,8.258,8.258,8.258h247.742c4.556,0,8.258-3.702,8.258-8.258v-41.29c0-4.556-3.702-8.258-8.258-8.258H132.129z"/>
<path style="fill:#8CB4EB;" d="M140.387,512h-16.516V396.387l0,0c9.122,0,16.516,7.395,16.516,16.516V512z"/>
<path style="fill:#DBD9DC;" d="M99.097,437.677h24.774v-41.29l0,0l0,0c-13.682,0-24.774,11.092-24.774,24.774V437.677z"/>
<path style="fill:#A06E50;" d="M57.806,437.677v16.516H82.58c9.122,0,16.516,7.395,16.516,16.516V512h24.774v-74.323H57.806z"/>
<path style="fill:#8CB4EB;" d="M371.613,512h16.516V396.387l0,0c-9.122,0-16.516,7.395-16.516,16.516V512z"/>
<path style="fill:#DBD9DC;" d="M412.903,437.677h-24.774v-41.29l0,0l0,0c13.682,0,24.774,11.092,24.774,24.774V437.677z"/>
<path style="fill:#A06E50;" d="M454.194,437.677v16.516H429.42c-9.122,0-16.516,7.395-16.516,16.516V512H388.13v-74.323H454.194z"/>
<path style="fill:#EDEBED;" d="M256,462.452c-27.365,0-49.548,22.184-49.548,49.548h99.097
	C305.548,484.635,283.365,462.452,256,462.452z"/>
<g>
</g>
<g>
</g>
<g>
</g>
<g>
</g>
<g>
</g>
<g>
</g>
<g>
</g>
<g>
</g>
<g>
</g>
<g>
</g>
<g>
</g>
<g>
</g>
<g>
</g>
<g>
</g>
<g>
</g>
</svg>
