<?xml version="1.0" encoding="iso-8859-1"?>
<!-- Generator: Adobe Illustrator 19.0.0, SVG Export Plug-In . SVG Version: 6.00 Build 0)  -->
<svg version="1.1" id="Capa_1" xmlns="http://www.w3.org/2000/svg" xmlns:xlink="http://www.w3.org/1999/xlink" x="0px" y="0px"
	 viewBox="0 0 512 512" style="enable-background:new 0 0 512 512;" xml:space="preserve">
<path style="fill:#8CB4EB;" d="M434.068,228.647l-87.229-46.97H165.161l-87.229,46.97c-5.271,2.839-3.255,10.837,2.732,10.837
	h350.671C437.323,239.484,439.339,231.486,434.068,228.647z"/>
<path style="fill:#F7D291;" d="M406.999,456.968l-79.412-28.028c-13.207-4.661-22.039-17.144-22.039-31.15v-50.951h-99.097v50.952
	c0,14.005-8.832,26.488-22.038,31.149l-79.412,28.028c-10.732,3.788-19.829,10.498-26.524,19.05
	C67.052,490.61,77.614,512,96.148,512h319.704c18.533,0,29.096-21.39,17.671-35.983
	C426.828,467.466,417.731,460.755,406.999,456.968z"/>
<path style="fill:#8CB4EB;" d="M406.999,456.968l-79.412-28.028c-8.67-3.06-15.389-9.522-19.027-17.542L256,437.677l-52.559-26.28
	c-3.638,8.02-10.357,14.482-19.027,17.542l-79.412,28.028c-10.732,3.787-19.829,10.498-26.524,19.049
	C67.052,490.61,77.614,512,96.148,512h319.705c18.533,0,29.096-21.39,17.67-35.983C426.828,467.466,417.731,460.755,406.999,456.968
	z"/>
<rect x="247.74" y="445.94" style="fill:#739BD7;" width="16.516" height="66.06"/>
<path style="fill:#F0C382;" d="M206.452,386.168c15.198,6.584,31.957,10.219,49.548,10.219s34.35-3.636,49.548-10.219v-39.329
	h-99.097L206.452,386.168L206.452,386.168z"/>
<path style="fill:#6E5A64;" d="M132.129,272.516H206.5l-2.629,83.097c-9.204,19.097-55.226,57.29-55.226,57.29v8.258
	c0,0,28.387,40.774,41.29,90.839h-57.806v-99.097C123.871,346.839,132.129,272.516,132.129,272.516z"/>
<path style="fill:#5A4650;" d="M148.645,437.677h-8.258c-9.122,0-16.516-7.395-16.516-16.516l0,0
	c0-9.122,7.395-16.516,16.516-16.516h8.258c9.122,0,16.516,7.395,16.516,16.516l0,0
	C165.161,430.283,157.767,437.677,148.645,437.677z"/>
<g>
	<path style="fill:#6E5A64;" d="M379.871,272.516H305.5l2.629,83.097c9.204,19.097,55.226,57.29,55.226,57.29v8.258
		c0,0-28.387,40.774-41.29,90.839h57.806v-99.097C388.129,346.839,379.871,272.516,379.871,272.516z"/>
	<circle style="fill:#6E5A64;" cx="256" cy="437.68" r="16.516"/>
</g>
<path style="fill:#5A4650;" d="M363.355,437.677h8.258c9.122,0,16.516-7.395,16.516-16.516l0,0c0-9.122-7.395-16.516-16.516-16.516
	h-8.258c-9.122,0-16.516,7.395-16.516,16.516l0,0C346.839,430.283,354.233,437.677,363.355,437.677z"/>
<path style="fill:#739BD7;" d="M318.85,44.421l-26.94-31.429C284.842,4.746,274.523,0,263.662,0
	c-14.703,0-28.027,8.659-33.998,22.095l67.626,60.486l18.929-14.198C323.855,62.657,325.061,51.669,318.85,44.421z"/>
<path style="fill:#8CB4EB;" d="M263.662,0L263.662,0c-14.703,0-28.027,8.659-33.998,22.095l-56.245,126.551H338.58L263.662,0z"/>
<path style="fill:#FFE1A0;" d="M367.484,239.484H144.516c-11.402,0-20.645,9.243-20.645,20.645c0,11.401,9.243,20.645,20.645,20.645
	h4.546c4.23,55.419,50.435,99.097,106.938,99.097s102.708-43.677,106.938-99.097h4.546c11.402,0,20.645-9.244,20.645-20.645
	C388.129,248.727,378.886,239.484,367.484,239.484z"/>
<path style="fill:#F7D291;" d="M338.581,239.484L338.581,239.484H145.695c-10.799,0-20.64,7.769-21.716,18.514
	c-1.238,12.358,8.433,22.776,20.538,22.776h4.546c4.23,55.419,50.435,99.097,106.938,99.097c5.649,0,11.157-0.55,16.568-1.391
	c-51.454-7.942-90.891-52.286-90.891-105.964l0,0c0-9.122,7.395-16.516,16.516-16.516h123.871
	C331.186,256,338.581,248.605,338.581,239.484z"/>
<path style="fill:#E3AA75;" d="M255.952,330.323c-12.395,0-23.823-3.976-30.573-10.637c-3.25-3.21-3.282-8.435-0.081-11.677
	c3.218-3.25,8.444-3.282,11.677-0.081c2.75,2.71,9.363,5.879,18.976,5.879c9.613,0,16.226-3.169,18.976-5.879
	c3.234-3.202,8.46-3.169,11.677,0.081c3.202,3.242,3.169,8.468-0.081,11.677C279.774,326.347,268.347,330.323,255.952,330.323z"/>
<g>
	<path style="fill:#6E5A64;" d="M206.403,272.516c-4.565,0-8.258-3.694-8.258-8.258V256c0-4.565,3.694-8.258,8.258-8.258
		s8.258,3.694,8.258,8.258v8.258C214.661,268.823,210.968,272.516,206.403,272.516z"/>
	<path style="fill:#6E5A64;" d="M305.5,272.516c-4.565,0-8.258-3.694-8.258-8.258V256c0-4.565,3.694-8.258,8.258-8.258
		s8.258,3.694,8.258,8.258v8.258C313.758,268.823,310.065,272.516,305.5,272.516z"/>
	<path style="fill:#6E5A64;" d="M338.581,148.645H173.419c-4.561,0-8.258,3.698-8.258,8.258v24.774h181.677v-24.774
		C346.839,152.343,343.142,148.645,338.581,148.645z"/>
</g>
<path style="fill:#739BD7;" d="M229.664,22.095l-56.245,126.55h41.29L253.991,1.34C243.331,4.216,234.286,11.696,229.664,22.095z"/>
<path style="fill:#5A4650;" d="M214.71,148.645h-41.29c-4.561,0-8.258,3.698-8.258,8.258v24.774h41.29v-24.774
	C206.452,152.343,210.149,148.645,214.71,148.645z"/>
<path style="fill:#739BD7;" d="M167.677,228.647l38.775-46.97h-41.29l-87.229,46.97c-5.271,2.839-3.255,10.837,2.732,10.837h88.25
	C166.204,239.484,165.29,231.486,167.677,228.647z"/>
<g>
</g>
<g>
</g>
<g>
</g>
<g>
</g>
<g>
</g>
<g>
</g>
<g>
</g>
<g>
</g>
<g>
</g>
<g>
</g>
<g>
</g>
<g>
</g>
<g>
</g>
<g>
</g>
<g>
</g>
</svg>
