<?xml version="1.0" encoding="iso-8859-1"?>
<!-- Generator: Adobe Illustrator 19.0.0, SVG Export Plug-In . SVG Version: 6.00 Build 0)  -->
<svg version="1.1" id="Capa_1" xmlns="http://www.w3.org/2000/svg" xmlns:xlink="http://www.w3.org/1999/xlink" x="0px" y="0px"
	 viewBox="0 0 512 512" style="enable-background:new 0 0 512 512;" xml:space="preserve">
<path style="fill:#E3AA75;" d="M418.625,361.152l-87.036-25.599c-10.544-3.101-17.784-12.778-17.784-23.768v-39.269H198.193v39.269
	c0,10.99-7.24,20.667-17.784,23.768l-87.036,25.599c-21.087,6.202-35.567,25.555-35.567,47.535v78.539
	C57.806,500.908,68.898,512,82.58,512h346.839c13.682,0,24.774-11.092,24.774-24.774v-78.539
	C454.193,386.707,439.712,367.354,418.625,361.152z"/>
<path style="fill:#E6646E;" d="M418.626,361.151l-71.707-21.09C331.682,363.477,296.727,379.87,256,379.87
	s-75.682-16.393-90.919-39.809l-71.707,21.09c-21.087,6.203-35.567,25.555-35.567,47.535v78.539
	c0,13.682,11.092,24.774,24.774,24.774H429.42c13.682,0,24.774-11.092,24.774-24.774v-78.539
	C454.193,386.707,439.712,367.354,418.626,361.151z"/>
<path style="fill:#D29B6E;" d="M198.193,290.945c17.349,9.267,37.024,14.604,57.806,14.604s40.457-5.337,57.806-14.604v-18.428
	H198.193V290.945z"/>
<path style="fill:#F5B97D;" d="M367.483,148.645h-4.129v-82.58h-214.71v82.581h-4.129c-11.355,0-20.645,9.29-20.645,20.645
	c0,11.355,9.29,20.645,20.645,20.645h4.546c4.23,55.419,50.435,99.097,106.938,99.097s102.708-43.678,106.938-99.097h4.546
	c11.355,0,20.645-9.29,20.645-20.645C388.128,157.935,378.838,148.645,367.483,148.645z"/>
<path style="fill:#E3AA75;" d="M330.322,99.097L330.322,99.097H148.645v49.548h-3.405c-9.402,0-18.183,5.958-20.619,15.039
	c-3.684,13.734,6.715,26.251,19.895,26.251h4.546c4.23,55.419,50.435,99.097,106.938,99.097c5.649,0,11.157-0.55,16.568-1.391
	c-51.454-7.942-90.891-52.286-90.891-105.964v-16.516c0-27.365,22.184-49.548,49.548-49.548h82.581
	C322.927,115.613,330.322,108.218,330.322,99.097z"/>
<g>
	<path style="fill:#6E5A64;" d="M206.451,174.137c-4.565,0-8.258-3.698-8.258-8.258v-8.258c0-4.56,3.694-8.258,8.258-8.258
		s8.258,3.698,8.258,8.258v8.258C214.709,170.44,211.015,174.137,206.451,174.137z"/>
	<path style="fill:#6E5A64;" d="M305.547,174.137c-4.565,0-8.258-3.698-8.258-8.258v-8.258c0-4.56,3.694-8.258,8.258-8.258
		c4.565,0,8.258,3.698,8.258,8.258v8.258C313.805,170.44,310.112,174.137,305.547,174.137z"/>
</g>
<g>
	<path style="fill:#A06E50;" d="M214.709,140.387h-16.516c-4.565,0-8.258-3.698-8.258-8.258s3.694-8.258,8.258-8.258h16.516
		c4.565,0,8.258,3.698,8.258,8.258C222.967,136.69,219.273,140.387,214.709,140.387z"/>
	<path style="fill:#A06E50;" d="M313.805,140.387h-16.516c-4.565,0-8.258-3.698-8.258-8.258s3.694-8.258,8.258-8.258h16.516
		c4.565,0,8.258,3.698,8.258,8.258C322.064,136.69,318.37,140.387,313.805,140.387z"/>
</g>
<path style="fill:#B67F5F;" d="M255.999,231.226c-12.387,0-23.823-3.976-30.573-10.637c-3.25-3.202-3.282-8.431-0.081-11.677
	c3.202-3.25,8.444-3.282,11.677-0.081c2.75,2.714,9.371,5.879,18.976,5.879c9.605,0,16.226-3.165,18.976-5.879
	c3.234-3.202,8.476-3.169,11.677,0.081c3.202,3.246,3.169,8.476-0.081,11.677C279.822,227.25,268.386,231.226,255.999,231.226z"/>
<path style="fill:#E6646E;" d="M379.87,99.097H132.128l20.083-80.331C154.968,7.737,164.877,0,176.245,0h159.507
	c11.368,0,21.277,7.737,24.035,18.766L379.87,99.097z"/>
<g>
	<path style="fill:#DC4655;" d="M233.392,327.624c-14.371-3.506-26.66-10.173-34.457-18.485c-4.619-4.923-12.6-4.296-16.651,1.105
		l-22.423,29.897c17.716,20.782,46.187,35.164,79.621,38.778l-0.002-43.339C239.48,331.857,237.008,328.506,233.392,327.624z"/>
	<path style="fill:#DC4655;" d="M352.138,340.141l-22.423-29.897c-4.051-5.401-12.032-6.028-16.651-1.105
		c-7.797,8.311-20.086,14.979-34.457,18.485c-3.616,0.882-6.089,4.233-6.089,7.957l-0.001,43.339
		C305.951,375.305,334.422,360.923,352.138,340.141z"/>
</g>
<g>
	<path style="fill:#FFE17D;" d="M156.983,421.161c-4.565,0-8.298-3.694-8.298-8.258s3.653-8.258,8.218-8.258h0.081
		c4.565,0,8.258,3.694,8.258,8.258S161.547,421.161,156.983,421.161z"/>
	<path style="fill:#FFE17D;" d="M355.176,421.161c-4.565,0-8.298-3.694-8.298-8.258s3.653-8.258,8.218-8.258h0.081
		c4.565,0,8.258,3.694,8.258,8.258S359.741,421.161,355.176,421.161z"/>
	<path style="fill:#FFE17D;" d="M355.176,462.452c-4.565,0-8.298-3.694-8.298-8.258s3.653-8.258,8.218-8.258h0.081
		c4.565,0,8.258,3.694,8.258,8.258S359.741,462.452,355.176,462.452z"/>
	<path style="fill:#FFE17D;" d="M156.983,462.452c-4.565,0-8.298-3.694-8.298-8.258s3.653-8.258,8.218-8.258h0.081
		c4.565,0,8.258,3.694,8.258,8.258S161.547,462.452,156.983,462.452z"/>
	<path style="fill:#FFE17D;" d="M355.176,503.742c-4.565,0-8.298-3.694-8.298-8.258c0-4.565,3.653-8.258,8.218-8.258h0.081
		c4.565,0,8.258,3.694,8.258,8.258C363.434,500.048,359.741,503.742,355.176,503.742z"/>
	<path style="fill:#FFE17D;" d="M156.983,503.742c-4.565,0-8.298-3.694-8.298-8.258c0-4.565,3.653-8.258,8.218-8.258h0.081
		c4.565,0,8.258,3.694,8.258,8.258C165.241,500.048,161.547,503.742,156.983,503.742z"/>
</g>
<g>
	<path style="fill:#6E5A64;" d="M150.669,150.435l-18.541,2.29V99.097h33.032v34.947
		C165.16,142.382,158.945,149.413,150.669,150.435z"/>
	<path style="fill:#6E5A64;" d="M361.329,150.435l18.541,2.29V99.097h-33.032v34.947
		C346.838,142.382,353.053,149.413,361.329,150.435z"/>
</g>
<path style="fill:#DC4655;" d="M234.052,0h-57.806c-11.368,0-21.278,7.737-24.035,18.766l-20.083,80.331h57.806l20.083-80.331
	C212.774,7.737,222.683,0,234.052,0z"/>
<polygon style="fill:#FFE17D;" points="138.322,74.323 373.676,74.323 369.547,57.806 142.451,57.806 "/>
<polygon style="fill:#FFD164;" points="138.322,74.323 196.128,74.323 200.257,57.806 142.451,57.806 "/>
<path style="fill:#DC4655;" d="M165.16,379.871h90.839c-25.098,0-47.961-6.258-65.411-16.516H165.16
	c-27.323,0-49.548,22.226-49.548,49.548V512h16.516v-99.097C132.128,394.685,146.943,379.871,165.16,379.871z"/>
<g>
</g>
<g>
</g>
<g>
</g>
<g>
</g>
<g>
</g>
<g>
</g>
<g>
</g>
<g>
</g>
<g>
</g>
<g>
</g>
<g>
</g>
<g>
</g>
<g>
</g>
<g>
</g>
<g>
</g>
</svg>
