<?xml version="1.0" encoding="iso-8859-1"?>
<!-- Generator: Adobe Illustrator 19.0.0, SVG Export Plug-In . SVG Version: 6.00 Build 0)  -->
<svg version="1.1" id="Capa_1" xmlns="http://www.w3.org/2000/svg" xmlns:xlink="http://www.w3.org/1999/xlink" x="0px" y="0px"
	 viewBox="0 0 512 512" style="enable-background:new 0 0 512 512;" xml:space="preserve">
<path style="fill:#E3AA75;" d="M432.908,366.169l-53.658-9.694c-4.968-0.897-9.543-3.291-13.113-6.861l-28.556-28.555
	c-4.646-4.646-7.257-10.948-7.257-17.518L330.668,256H181.334l0.344,47.541c0,6.571-2.61,12.872-7.257,17.518l-28.556,28.555
	c-3.57,3.57-8.145,5.964-13.113,6.861l-53.658,9.694c-31.447,5.681-54.319,33.056-54.319,65.011v56.045
	c0,13.682,11.092,24.774,24.774,24.774h412.903c13.682,0,24.774-11.092,24.774-24.774V431.18
	C487.227,399.225,464.354,371.85,432.908,366.169z"/>
<path style="fill:#D29B6E;" d="M181.57,288.546c20.845,15.807,46.662,25.26,74.431,25.26s53.586-9.453,74.431-25.26L330.668,256
	H181.334L181.57,288.546z"/>
<path style="fill:#A06E50;" d="M346.839,0H165.162c-18.243,0-33.032,14.788-33.032,33.032v140.387h247.741V33.032
	C379.871,14.788,365.082,0,346.839,0z"/>
<path style="fill:#F5B97D;" d="M366.307,156.903h-2.951c-9.122,0-16.516-7.395-16.516-16.516v-24.774
	c0-18.243-14.789-33.032-33.032-33.032H198.195c-18.243,0-33.032,14.789-33.032,33.032v24.774c0,9.122-7.395,16.516-16.516,16.516
	h-2.951c-10.799,0-20.64,7.769-21.716,18.514c-1.238,12.358,8.433,22.776,20.538,22.776h4.546
	c4.23,55.419,50.435,99.097,106.938,99.097s102.708-43.677,106.938-99.097h4.546c12.105,0,21.776-10.419,20.538-22.776
	C386.946,164.672,377.105,156.903,366.307,156.903z"/>
<g>
	<path style="fill:#5A4650;" d="M206.453,181.677c-4.565,0-8.258-3.694-8.258-8.258v-8.258c0-4.565,3.694-8.258,8.258-8.258
		s8.258,3.694,8.258,8.258v8.258C214.711,177.984,211.017,181.677,206.453,181.677z"/>
	<path style="fill:#5A4650;" d="M305.549,181.677c-4.565,0-8.258-3.694-8.258-8.258v-8.258c0-4.565,3.694-8.258,8.258-8.258
		c4.565,0,8.258,3.694,8.258,8.258v8.258C313.807,177.984,310.114,181.677,305.549,181.677z"/>
</g>
<path style="fill:#B67F5F;" d="M256.001,239.484c-12.395,0-23.823-3.976-30.573-10.637c-3.25-3.21-3.282-8.435-0.081-11.677
	c3.218-3.25,8.444-3.282,11.677-0.081c2.75,2.71,9.363,5.879,18.976,5.879s16.226-3.169,18.976-5.879
	c3.234-3.202,8.46-3.169,11.677,0.081c3.202,3.242,3.169,8.468-0.081,11.677C279.824,235.508,268.396,239.484,256.001,239.484z"/>
<g>
	<path style="fill:#A06E50;" d="M214.719,152.089c-0.556,0-1.129-0.056-1.694-0.177l-16.516-3.444
		c-4.468-0.927-7.331-5.298-6.395-9.766c0.919-4.468,5.298-7.363,9.766-6.395l16.516,3.444c4.468,0.927,7.331,5.298,6.395,9.766
		C221.985,149.411,218.549,152.089,214.719,152.089z"/>
	<path style="fill:#A06E50;" d="M297.283,152.089c-3.831,0-7.266-2.677-8.073-6.573c-0.935-4.468,1.927-8.839,6.395-9.766
		l16.516-3.444c4.444-0.968,8.839,1.927,9.766,6.395c0.935,4.468-1.927,8.839-6.395,9.766l-16.516,3.444
		C298.412,152.032,297.84,152.089,297.283,152.089z"/>
</g>
<path style="fill:#D29B6E;" d="M256.001,487.226c-4.565,0-8.258-3.694-8.258-8.258v-24.774c0-4.565,3.694-8.258,8.258-8.258
	s8.258,3.694,8.258,8.258v24.774C264.259,483.532,260.566,487.226,256.001,487.226z"/>
<path style="fill:#E3AA75;" d="M181.678,189.935v-49.548c0-22.804,18.486-41.29,41.29-41.29h119.29
	c-5.722-9.833-16.256-16.516-28.451-16.516H198.195c-18.243,0-33.032,14.789-33.032,33.032v24.774
	c0,9.122-7.395,16.516-16.516,16.516h-2.951c-10.798,0-20.639,7.768-21.717,18.513c-1.239,12.357,8.433,22.777,20.538,22.777h4.546
	c4.23,55.419,50.435,99.097,106.938,99.097c5.649,0,11.157-0.55,16.568-1.391C221.115,287.958,181.678,243.613,181.678,189.935z"/>
<path style="fill:#B67F5F;" d="M346.839,0H206.453v24.774c0,22.804,18.486,41.29,41.29,41.29h132.128V33.032
	C379.871,14.789,365.082,0,346.839,0z"/>
<path style="fill:#FFE17D;" d="M123.872,512H388.13V358.081l-8.881-1.605c-4.968-0.897-9.543-3.291-13.113-6.861l-11.039-11.038
	v33.036c0,54.73-44.367,99.097-99.097,99.097s-99.097-44.367-99.097-99.097v-33.036l-11.039,11.038
	c-3.57,3.57-8.145,5.964-13.113,6.861l-8.881,1.605V512H123.872z"/>
<path style="fill:#D29B6E;" d="M123.872,445.935L123.872,445.935V512H99.098v-41.29C99.098,457.027,110.19,445.935,123.872,445.935z
	"/>
<path style="fill:#FFD164;" d="M123.872,512h16.516v-49.548c0-9.122-7.395-16.516-16.516-16.516l0,0
	C123.872,445.936,123.872,512,123.872,512z"/>
<path style="fill:#D29B6E;" d="M388.13,445.935L388.13,445.935V512h24.774v-41.29C412.904,457.027,401.812,445.935,388.13,445.935z"
	/>
<path style="fill:#FFD164;" d="M388.13,512h-16.516v-49.548c0-9.122,7.395-16.516,16.516-16.516l0,0V512z"/>
<g>
</g>
<g>
</g>
<g>
</g>
<g>
</g>
<g>
</g>
<g>
</g>
<g>
</g>
<g>
</g>
<g>
</g>
<g>
</g>
<g>
</g>
<g>
</g>
<g>
</g>
<g>
</g>
<g>
</g>
</svg>
