<?xml version="1.0" encoding="iso-8859-1"?>
<!-- Generator: Adobe Illustrator 19.0.0, SVG Export Plug-In . SVG Version: 6.00 Build 0)  -->
<svg version="1.1" id="Capa_1" xmlns="http://www.w3.org/2000/svg" xmlns:xlink="http://www.w3.org/1999/xlink" x="0px" y="0px"
	 viewBox="0 0 512 512" style="enable-background:new 0 0 512 512;" xml:space="preserve">
<path style="fill:#FF8087;" d="M412.878,401.236l-85.291-30.103H184.412l-85.291,30.103c-19.81,6.992-33.057,25.716-33.057,46.724
	v39.266c0,13.682,11.092,24.774,24.774,24.774h330.323c13.682,0,24.774-11.092,24.774-24.774V447.96
	C445.935,426.952,432.688,408.228,412.878,401.236z"/>
<path style="fill:#E6646E;" d="M218.378,479.084l33.615-8.404c1.309-0.328,2.657-0.494,4.006-0.494c1.349,0,2.697,0.166,4.005,0.494
	l33.614,8.404c3.946,0.986,7.996,1.486,12.041,1.486c20.06,0,38.028-12.002,45.774-30.578c8.531-20.454,12.995-42.98,13.186-65.788
	l-37.034-13.071H184.412l-37.034,13.071c0.192,22.808,4.655,45.335,13.186,65.789c7.746,18.575,25.714,30.577,45.774,30.577
	C210.383,480.57,214.434,480.07,218.378,479.084z"/>
<path style="fill:#FFE17D;" d="M347.872,373.042c-0.394-6.689-4.775-12.531-11.101-14.737l-31.231-10.62h-99.08l-31.231,10.62
	c-6.327,2.206-10.707,8.048-11.101,14.737c-1.762,29.875,4.756,53.989,11.681,70.593c6.312,15.135,22.657,23.401,38.566,19.425
	l33.613-8.404c5.26-1.315,10.764-1.315,16.024,0l33.613,8.404c15.908,3.976,32.254-4.29,38.566-19.425
	C343.116,427.031,349.635,402.917,347.872,373.042z"/>
<path style="fill:#FFD164;" d="M255.999,437.677c36.486,0,66.065-29.579,66.065-66.065v-18.308l-16.524-5.619H206.46l-16.524,5.619
	v18.308C189.934,408.099,219.514,437.677,255.999,437.677z"/>
<path style="fill:#B67F5F;" d="M255.999,421.161L255.999,421.161c-27.365,0-49.548-22.184-49.548-49.548v-66.065h99.097v66.065
	C305.548,398.978,283.365,421.161,255.999,421.161z"/>
<path style="fill:#A06E50;" d="M206.451,336.272c15.247,6.742,32.001,10.567,49.548,10.567s34.301-3.825,49.548-10.567v-30.724
	h-99.097L206.451,336.272L206.451,336.272z"/>
<path style="fill:#6E5A64;" d="M272.516,66.065h-33.032c-18.243,0-33.032-14.789-33.032-33.032l0,0
	C206.451,14.789,221.24,0,239.483,0h33.032c18.243,0,33.032,14.789,33.032,33.032l0,0C305.548,51.275,290.759,66.065,272.516,66.065
	z"/>
<path style="fill:#84737B;" d="M305.548,247.742h-99.097c-54.73,0-99.097-44.367-99.097-99.097l0,0
	c0-54.73,44.367-99.097,99.097-99.097h99.097c54.73,0,99.097,44.367,99.097,99.097l0,0
	C404.645,203.375,360.278,247.742,305.548,247.742z"/>
<path style="fill:#6E5A64;" d="M305.548,231.226h-99.097c-36.486,0-66.064-29.578-66.064-66.064l0,0
	c0-36.486,29.578-66.064,66.064-66.064h99.097c36.486,0,66.064,29.578,66.064,66.064l0,0
	C371.613,201.648,342.035,231.226,305.548,231.226z"/>
<path style="fill:#CD916E;" d="M366.306,189.935L366.306,189.935c-6.19,0-11.209-5.018-11.209-11.209v-13.565
	c0-27.365-22.184-49.548-49.548-49.548h-99.097c-27.365,0-49.548,22.184-49.548,49.548v13.565c0,6.19-5.018,11.209-11.209,11.209
	l0,0c-10.799,0-20.64,7.769-21.716,18.514c-1.238,12.358,8.433,22.776,20.538,22.776h4.546
	c4.23,55.419,50.435,99.097,106.938,99.097s102.708-43.677,106.938-99.097h4.546c12.105,0,21.776-10.419,20.538-22.776
	C386.945,197.705,377.104,189.935,366.306,189.935z"/>
<g>
	<path style="fill:#B67F5F;" d="M305.548,115.613h-99.097c-27.365,0-49.548,22.184-49.548,49.548v13.564
		c0,6.276-5.14,11.153-11.416,11.211c-10.717,0.098-20.44,7.837-21.51,18.513c-1.238,12.357,8.433,22.776,20.538,22.776h4.546
		c4.23,55.419,50.435,99.097,106.938,99.097c5.649,0,11.157-0.55,16.568-1.391c-51.454-7.942-90.891-52.286-90.891-105.964v-49.548
		c0-22.804,18.486-41.29,41.29-41.29h74.323c8.871,0,16.051-7.01,16.443-15.784C311.065,115.9,308.342,115.613,305.548,115.613z"/>
	<path style="fill:#B67F5F;" d="M206.451,198.194c10.731,0,19.799,6.897,23.235,16.46c0.938-2.611,1.539-5.384,1.539-8.315
		c0-13.661-11.113-24.774-24.774-24.774s-24.774,11.113-24.774,24.774c0,2.93,0.601,5.704,1.539,8.315
		C186.651,205.091,195.72,198.194,206.451,198.194z"/>
	<path style="fill:#B67F5F;" d="M305.548,198.194c10.731,0,19.799,6.897,23.235,16.46c0.938-2.611,1.539-5.384,1.539-8.315
		c0-13.661-11.113-24.774-24.774-24.774c-13.661,0-24.774,11.113-24.774,24.774c0,2.93,0.601,5.704,1.539,8.315
		C285.749,205.091,294.818,198.194,305.548,198.194z"/>
</g>
<path style="fill:#A06E50;" d="M255.999,281.508c-12.387,0-23.815-3.976-30.573-10.637c-3.25-3.202-3.282-8.427-0.081-11.677
	c3.194-3.25,8.419-3.29,11.677-0.081c2.75,2.71,9.371,5.879,18.976,5.879c9.605,0,16.226-3.169,18.976-5.879
	c3.258-3.202,8.484-3.161,11.677,0.081c3.202,3.25,3.169,8.476-0.081,11.677C279.815,277.532,268.387,281.508,255.999,281.508z"/>
<g>
	<path style="fill:#5A4650;" d="M206.451,215.315c-4.565,0-8.258-3.694-8.258-8.258v-8.258c0-4.565,3.694-8.258,8.258-8.258
		s8.258,3.694,8.258,8.258v8.258C214.71,211.621,211.016,215.315,206.451,215.315z"/>
	<path style="fill:#5A4650;" d="M305.548,215.315c-4.565,0-8.258-3.694-8.258-8.258v-8.258c0-4.565,3.694-8.258,8.258-8.258
		c4.565,0,8.258,3.694,8.258,8.258v8.258C313.806,211.621,310.113,215.315,305.548,215.315z"/>
	<path style="fill:#5A4650;" d="M272.516,206.339h-33.032c-4.565,0-8.258-3.694-8.258-8.258s3.694-8.258,8.258-8.258h33.032
		c4.565,0,8.258,3.694,8.258,8.258S277.081,206.339,272.516,206.339z"/>
</g>
<path style="fill:#FFD164;" d="M255.999,495.484c-4.565,0-8.298-3.694-8.298-8.258s3.653-8.258,8.218-8.258h0.08
	c4.565,0,8.258,3.694,8.258,8.258S260.565,495.484,255.999,495.484z"/>
<g>
	<path style="fill:#6E5A64;" d="M206.451,247.629c-22.766,0-41.29-18.524-41.29-41.29s18.524-41.29,41.29-41.29
		s41.29,18.524,41.29,41.29S229.217,247.629,206.451,247.629z M206.451,181.565c-13.661,0-24.774,11.113-24.774,24.774
		s11.113,24.774,24.774,24.774s24.774-11.113,24.774-24.774C231.225,192.677,220.113,181.565,206.451,181.565z"/>
	<path style="fill:#6E5A64;" d="M305.548,247.629c-22.766,0-41.29-18.524-41.29-41.29s18.524-41.29,41.29-41.29
		c22.766,0,41.29,18.524,41.29,41.29S328.315,247.629,305.548,247.629z M305.548,181.565c-13.661,0-24.774,11.113-24.774,24.774
		s11.113,24.774,24.774,24.774c13.661,0,24.774-11.113,24.774-24.774C330.323,192.677,319.21,181.565,305.548,181.565z"/>
</g>
<g>
	<path style="fill:#E6646E;" d="M140.386,511.879v-24.508c0-12.758-5.75-24.589-15.774-32.46l-47.794-37.569
		c-3.471,4.399-6.24,9.321-8.063,14.672l45.647,35.88c6.016,4.726,9.468,11.823,9.468,19.476v24.508
		c0,0.042,0.024,0.079,0.024,0.121h16.468C140.363,511.958,140.386,511.921,140.386,511.879z"/>
	<path style="fill:#E6646E;" d="M371.613,511.879v-24.508c0-12.758,5.75-24.589,15.774-32.46l47.794-37.569
		c3.471,4.399,6.24,9.321,8.063,14.672l-45.647,35.88c-6.016,4.726-9.468,11.823-9.468,19.476v24.508
		c0,0.042-0.024,0.079-0.024,0.121h-16.468C371.637,511.958,371.613,511.921,371.613,511.879z"/>
</g>
<g>
</g>
<g>
</g>
<g>
</g>
<g>
</g>
<g>
</g>
<g>
</g>
<g>
</g>
<g>
</g>
<g>
</g>
<g>
</g>
<g>
</g>
<g>
</g>
<g>
</g>
<g>
</g>
<g>
</g>
</svg>
