<?xml version="1.0" encoding="iso-8859-1"?>
<!-- Generator: Adobe Illustrator 19.0.0, SVG Export Plug-In . SVG Version: 6.00 Build 0)  -->
<svg version="1.1" id="Capa_1" xmlns="http://www.w3.org/2000/svg" xmlns:xlink="http://www.w3.org/1999/xlink" x="0px" y="0px"
	 viewBox="0 0 512 512" style="enable-background:new 0 0 512 512;" xml:space="preserve">
<path style="fill:#E6646E;" d="M418.627,358.71l-63.325-18.625c-24.601-7.236-41.495-29.815-41.495-55.458H198.194
	c0,25.643-16.894,48.222-41.495,55.458L93.373,358.71c-21.087,6.202-35.567,25.554-35.567,47.534v80.982
	C57.806,500.908,68.898,512,82.58,512h346.839c13.682,0,24.774-11.092,24.774-24.774v-80.982
	C454.194,384.264,439.713,364.911,418.627,358.71z"/>
<path style="fill:#DC4655;" d="M371.613,189.935c0,66.52-42.171,106.707-79.378,142.162c-13.786,13.137-26.658,25.404-36.235,38.058
	c-9.577-12.654-22.449-24.921-36.235-38.058c-37.207-35.456-79.378-75.642-79.378-142.162v-57.806
	c0-63.749,51.864-115.613,115.613-115.613S371.613,68.38,371.613,132.129V189.935z"/>
<polygon style="fill:#C9C6CA;" points="280.774,355.097 256,379.871 231.226,355.097 231.226,280.774 280.774,280.774 "/>
<g>
	<rect x="231.23" y="305.55" style="fill:#DBD9DC;" width="49.548" height="16.516"/>
	<rect x="231.23" y="338.58" style="fill:#DBD9DC;" width="49.548" height="16.516"/>
	<path style="fill:#DBD9DC;" d="M173.419,198.194v43.701c0,13.507,8.223,25.653,20.765,30.669l40.347,16.139
		c13.782,5.513,29.156,5.513,42.938,0l40.347-16.139c12.541-5.016,20.765-17.162,20.765-30.669v-43.701L173.419,198.194
		L173.419,198.194z"/>
</g>
<path style="fill:#C9C6CA;" d="M173.419,221.109l19.08,6.36c5.001,11.897,16.775,20.273,30.469,20.273h66.065
	c13.694,0,25.468-8.376,30.469-20.273l19.08-6.36v-22.915H173.419V221.109z"/>
<path style="fill:#EDEBED;" d="M254.144,33.049c-54.554,0.998-97.241,47.803-97.241,102.366v44.923
	c0,10.664,6.824,20.131,16.94,23.503l23.937,7.979c4.503,1.501,8.113,4.884,9.946,9.263c2.494,5.958,8.379,10.144,15.242,10.144
	c0,4.56,3.697,8.258,8.258,8.258s8.258-3.698,8.258-8.258h8.258c0,4.56,3.697,8.258,8.258,8.258c4.561,0,8.258-3.698,8.258-8.258
	h8.258c0,4.56,3.697,8.258,8.258,8.258s8.258-3.698,8.258-8.258c6.863,0,12.748-4.186,15.242-10.144
	c1.833-4.379,5.443-7.762,9.946-9.263l23.935-7.978c10.117-3.372,16.941-12.84,16.941-23.504V132.13
	C355.097,76.782,309.723,32.033,254.144,33.049z"/>
<path style="fill:#DC4655;" d="M256,206.452c-4.565,0-8.258-3.694-8.258-8.258v-8.258c0-4.565,3.694-8.258,8.258-8.258
	c4.564,0,8.258,3.694,8.258,8.258v8.258C264.258,202.758,260.565,206.452,256,206.452z"/>
<path style="fill:#DBD9DC;" d="M206.452,132.129c0-46.165,31.614-84.843,74.341-95.853c-8.508-2.196-17.416-3.395-26.648-3.227
	c-54.554,0.998-97.241,47.803-97.241,102.366v44.922c0,10.664,6.824,20.131,16.94,23.503l23.936,7.978
	c3.657,1.22,6.666,3.718,8.672,6.944L206.452,132.129L206.452,132.129z"/>
<circle style="fill:#E6646E;" cx="214.71" cy="156.9" r="24.774"/>
<path style="fill:#DC4655;" d="M214.71,148.645c10.771,0,19.844,6.915,23.257,16.516c0.922-2.595,1.517-5.347,1.517-8.258
	c0-13.682-11.092-24.774-24.774-24.774s-24.774,11.092-24.774,24.774c0,2.911,0.595,5.663,1.517,8.258
	C194.865,155.56,203.939,148.645,214.71,148.645z"/>
<circle style="fill:#E6646E;" cx="297.29" cy="156.9" r="24.774"/>
<path style="fill:#DC4655;" d="M297.29,148.645c10.771,0,19.844,6.915,23.257,16.516c0.922-2.595,1.517-5.347,1.517-8.258
	c0-13.682-11.092-24.774-24.774-24.774c-13.682,0-24.774,11.092-24.774,24.774c0,2.911,0.595,5.663,1.517,8.258
	C277.446,155.56,286.519,148.645,297.29,148.645z"/>
<path style="fill:#FF8087;" d="M249.613,0.151c-71.067,3.346-125.742,64.564-125.742,135.71v54.075
	c0,97.965,82.614,144.28,117.177,187.961c4.473,5.654,6.694,12.754,6.694,19.963V512h16.516V397.86
	c0-7.209,2.221-14.31,6.694-19.963c34.563-43.681,117.177-89.996,117.177-187.961V132.13
	C388.129,57.038,325.489-3.422,249.613,0.151z M371.613,189.935c0,66.52-42.171,106.707-79.378,142.162
	c-13.786,13.137-26.658,25.404-36.235,38.058c-9.577-12.654-22.449-24.921-36.235-38.058
	c-37.207-35.456-79.378-75.642-79.378-142.162v-57.806c0-63.749,51.864-115.613,115.613-115.613S371.613,68.38,371.613,132.129
	V189.935z"/>
<g>
	<path style="fill:#DC4655;" d="M126.524,421.653l-55.282-49.141c-3.822,4.095-6.896,8.8-9.151,13.955L115.556,434
		c5.282,4.685,8.315,11.435,8.315,18.508V512h16.516v-59.492C140.387,440.718,135.331,429.468,126.524,421.653z"/>
	<path style="fill:#DC4655;" d="M385.476,421.653l55.282-49.141c3.822,4.095,6.896,8.8,9.151,13.955L396.444,434
		c-5.282,4.685-8.315,11.435-8.315,18.508V512h-16.516v-59.492C371.613,440.718,376.669,429.468,385.476,421.653z"/>
</g>
<g>
</g>
<g>
</g>
<g>
</g>
<g>
</g>
<g>
</g>
<g>
</g>
<g>
</g>
<g>
</g>
<g>
</g>
<g>
</g>
<g>
</g>
<g>
</g>
<g>
</g>
<g>
</g>
<g>
</g>
</svg>
