<?xml version="1.0" encoding="iso-8859-1"?>
<!-- Generator: Adobe Illustrator 19.0.0, SVG Export Plug-In . SVG Version: 6.00 Build 0)  -->
<svg version="1.1" id="Capa_1" xmlns="http://www.w3.org/2000/svg" xmlns:xlink="http://www.w3.org/1999/xlink" x="0px" y="0px"
	 viewBox="0 0 512 512" style="enable-background:new 0 0 512 512;" xml:space="preserve">
<path style="fill:#EDEBED;" d="M412.878,384.72l-85.291-30.103H184.413L99.122,384.72c-19.81,6.992-33.057,25.716-33.057,46.724
	v55.782c0,13.682,11.092,24.774,24.774,24.774h330.323c13.682,0,24.774-11.092,24.774-24.774v-55.782
	C445.935,410.435,432.688,391.712,412.878,384.72z"/>
<rect x="214.71" y="355.1" style="fill:#A5CDFF;" width="82.58" height="156.9"/>
<path style="fill:#8CB4EB;" d="M214.71,390.107c11.314,9.079,25.656,14.538,41.29,14.538s29.976-5.46,41.29-14.538v-35.01h-82.58
	V390.107z"/>
<path style="fill:#64505A;" d="M404.528,257.771c-4.09-10.342-8.142-26.779-8.142-51.32v-66.065C396.387,62.853,333.533,0,256,0
	c-77.534,0-140.387,62.853-140.387,140.387v66.065c0,24.54-4.051,40.978-8.142,51.32c-3.424,8.659,1.266,18.43,10.087,21.414
	c19.659,6.649,52.854,16.651,88.893,22.23h99.097c36.039-5.579,69.234-15.581,88.892-22.23
	C403.263,276.202,407.953,266.43,404.528,257.771z"/>
<path style="fill:#E3AA75;" d="M256,388.129L256,388.129c-27.365,0-49.548-22.184-49.548-49.548v-57.806h99.097v57.806
	C305.548,365.945,283.365,388.129,256,388.129z"/>
<path style="fill:#D29B6E;" d="M206.452,311.649c15.189,6.66,31.929,10.415,49.548,10.415s34.359-3.755,49.548-10.415v-30.875
	h-99.097L206.452,311.649L206.452,311.649z"/>
<path style="fill:#F5B97D;" d="M256,305.548L256,305.548c-59.291,0-107.355-48.064-107.355-107.355V74.323h214.71v123.871
	C363.355,257.484,315.29,305.548,256,305.548z"/>
<path style="fill:#E3AA75;" d="M218.6,108.497c1.741-1.384,3.592-1.675,4.837-1.675c1.22,0,3.05,0.279,4.834,1.611
	c22.25,16.606,67.368,44.428,135.084,59.277V74.323h-214.71v123.871c0,59.29,48.065,107.355,107.355,107.355
	c5.632,0,11.118-0.565,16.516-1.399c-51.428-7.964-90.839-52.296-90.839-105.956v-46.549c0-11.33,5.848-21.778,15.397-27.876
	C204.463,119.05,211.735,113.956,218.6,108.497z"/>
<g>
	<path style="fill:#6E5A64;" d="M214.71,165.161h-16.516c-4.565,0-8.258-3.694-8.258-8.258s3.694-8.258,8.258-8.258h16.516
		c4.565,0,8.258,3.694,8.258,8.258S219.274,165.161,214.71,165.161z"/>
	<path style="fill:#6E5A64;" d="M313.806,165.161H297.29c-4.565,0-8.258-3.694-8.258-8.258s3.694-8.258,8.258-8.258h16.516
		c4.565,0,8.258,3.694,8.258,8.258S318.371,165.161,313.806,165.161z"/>
</g>
<g>
	<path style="fill:#A5CDFF;" d="M404.645,458.323h-12.387v-12.387c0-4.565-3.694-8.258-8.258-8.258s-8.258,3.694-8.258,8.258v12.387
		h-12.387c-4.565,0-8.258,3.694-8.258,8.258s3.694,8.258,8.258,8.258h12.387v12.387c0,4.565,3.694,8.258,8.258,8.258
		s8.258-3.694,8.258-8.258v-12.387h12.387c4.565,0,8.258-3.694,8.258-8.258S409.21,458.323,404.645,458.323z"/>
	<path style="fill:#A5CDFF;" d="M181.677,512h-66.065c-4.561,0-8.258-3.697-8.258-8.258V470.71c0-4.561,3.697-8.258,8.258-8.258
		h66.065c4.561,0,8.258,3.697,8.258,8.258v33.032C189.935,508.303,186.238,512,181.677,512z"/>
</g>
<path style="fill:#FFFFFF;" d="M148.645,478.968c-4.565,0-8.258-3.694-8.258-8.258v-24.774c0-4.565,3.694-8.258,8.258-8.258
	s8.258,3.694,8.258,8.258v24.774C156.903,475.274,153.21,478.968,148.645,478.968z"/>
<g>
	<path style="fill:#64505A;" d="M206.452,198.194c-4.565,0-8.258-3.694-8.258-8.258v-8.258c0-4.565,3.694-8.258,8.258-8.258
		s8.258,3.694,8.258,8.258v8.258C214.71,194.5,211.016,198.194,206.452,198.194z"/>
	<path style="fill:#64505A;" d="M305.548,198.194c-4.565,0-8.258-3.694-8.258-8.258v-8.258c0-4.565,3.694-8.258,8.258-8.258
		c4.565,0,8.258,3.694,8.258,8.258v8.258C313.806,194.5,310.113,198.194,305.548,198.194z"/>
</g>
<path style="fill:#FFFFFF;" d="M227.562,227.067c-5.049,0-8.732,4.986-7.076,9.755c4.681,13.482,18.811,23.277,35.514,23.277
	s30.833-9.795,35.514-23.277c1.656-4.77-2.027-9.755-7.076-9.755L227.562,227.067L227.562,227.067z"/>
<path style="fill:#6E5A64;" d="M238.15,95.196c24.086,17.978,76.832,50.078,158.236,61.707v-12.838
	c0-78.689-64.393-145.515-143.069-144.041c-76.296,1.429-137.705,63.724-137.705,140.362v5.269
	c17.614-6.639,60.175-24.214,92.707-50.086C217,88.668,229.262,88.562,238.15,95.196z"/>
<g>
	<path style="fill:#DBD9DC;" d="M342.121,340.718l-36.573-17.25L256,512h41.29l45.675-98.963c2.407-5.215,1.932-11.304-1.254-16.083
		l-11.389-17.084l16.166-21.554C350.933,352.39,348.82,343.878,342.121,340.718z"/>
	<path style="fill:#DBD9DC;" d="M169.879,340.718l36.573-17.25L256,512h-41.29l-45.675-98.963
		c-2.407-5.215-1.932-11.304,1.254-16.083l11.389-17.084l-16.166-21.554C161.067,352.39,163.18,343.878,169.879,340.718z"/>
</g>
<path style="fill:#84737B;" d="M396.217,133.975c-3.354-76.881-67.643-135.36-142.899-133.95
	c-15.486,0.29-30.304,3.199-44.175,8.115C241.706,50.333,303.852,112.678,396.217,133.975z"/>
<path style="fill:#8CB4EB;" d="M181.677,495.484h-66.065c-4.561,0-8.258-3.698-8.258-8.258v16.516c0,4.56,3.697,8.258,8.258,8.258
	h66.065c4.561,0,8.258-3.698,8.258-8.258v-16.516C189.935,491.786,186.238,495.484,181.677,495.484z"/>
<g>
</g>
<g>
</g>
<g>
</g>
<g>
</g>
<g>
</g>
<g>
</g>
<g>
</g>
<g>
</g>
<g>
</g>
<g>
</g>
<g>
</g>
<g>
</g>
<g>
</g>
<g>
</g>
<g>
</g>
</svg>
