<?xml version="1.0" encoding="iso-8859-1"?>
<!-- Generator: Adobe Illustrator 19.0.0, SVG Export Plug-In . SVG Version: 6.00 Build 0)  -->
<svg version="1.1" id="Capa_1" xmlns="http://www.w3.org/2000/svg" xmlns:xlink="http://www.w3.org/1999/xlink" x="0px" y="0px"
	 viewBox="0 0 512 512" style="enable-background:new 0 0 512 512;" xml:space="preserve">
<path style="fill:#6E5A64;" d="M435.686,360.412l-43.838-246.59C380.141,47.97,322.885-0.002,256,0
	c-66.887,0-124.142,47.974-135.849,113.829L76.314,360.412c-1.199,6.745,1.89,13.529,7.764,17.053l48.051,27.179h247.742
	l48.051-27.179C433.796,373.942,436.885,367.157,435.686,360.412z"/>
<path style="fill:#EDEBED;" d="M412.878,401.236l-85.291-30.103c-13.207-4.661-22.039-17.144-22.039-31.149V297.29h-99.097v42.694
	c0,14.005-8.832,26.488-22.038,31.149l-85.291,30.103c-19.81,6.992-33.057,25.716-33.057,46.723v39.267
	c0,13.682,11.092,24.774,24.774,24.774h330.323c13.682,0,24.774-11.092,24.774-24.774v-39.267
	C445.935,426.952,432.688,408.228,412.878,401.236z"/>
<path style="fill:#6E5A64;" d="M417.535,403.302c-33.486,30.539-93.294,50.891-161.535,50.891s-128.049-20.352-161.535-50.891
	c-17.159,8.125-28.4,25.37-28.4,44.657v39.266c0,13.682,11.092,24.774,24.774,24.774h330.323c13.682,0,24.774-11.092,24.774-24.774
	V447.96C445.935,428.672,434.695,411.427,417.535,403.302z"/>
<path style="fill:#64505A;" d="M256,470.71c76.546,0,141.66-23.233,174.784-58.119c-3.856-3.726-8.264-6.927-13.249-9.288
	c-33.486,30.539-93.294,50.891-161.535,50.891s-128.049-20.352-161.535-50.891c-4.985,2.361-9.393,5.563-13.248,9.288
	C114.34,447.477,179.454,470.71,256,470.71z"/>
<path style="fill:#DBD9DC;" d="M206.452,319.907c15.189,6.66,31.929,10.415,49.548,10.415s34.359-3.755,49.548-10.415V297.29
	h-99.097L206.452,319.907L206.452,319.907z"/>
<path style="fill:#F5B97D;" d="M148.645,206.452c0,59.29,48.064,107.355,107.355,107.355l0,0
	c59.29,0,107.355-48.064,107.355-107.355v-64.698c0-6.406-0.529-12.8-1.582-19.119l0,0C353.155,70.929,308.419,33.032,256,33.032
	l0,0c-52.419,0-97.155,37.897-105.772,89.603l0,0c-1.053,6.319-1.582,12.713-1.582,19.119L148.645,206.452L148.645,206.452z"/>
<path style="fill:#E3AA75;" d="M361.773,122.635c-8.875-53.247-56.053-91.85-110.48-89.501
	c-48.486,2.092-90.524,37.709-100.275,85.25c-1.578,7.693-2.372,15.524-2.372,23.37v6.46l0.003-0.002l-0.003,0.004v58.236
	c0,59.29,48.065,107.355,107.355,107.355c5.632,0,11.118-0.565,16.516-1.399c-51.428-7.964-90.839-52.296-90.839-105.956V160.66
	c0-16.153,11.705-29.747,27.603-32.604c14.964-2.688,30.836-4.185,46.719-4.185c37.109,0,72.401,7.26,99.372,20.442l7.983,3.901
	v-6.46C363.355,135.349,362.826,128.954,361.773,122.635z"/>
<path style="fill:#B67F5F;" d="M256,264.258c-12.395,0-23.823-3.976-30.573-10.637c-3.25-3.21-3.282-8.435-0.081-11.677
	c3.218-3.242,8.444-3.282,11.677-0.081c2.75,2.71,9.363,5.879,18.976,5.879c9.613,0,16.226-3.169,18.976-5.879
	c3.234-3.202,8.46-3.161,11.677,0.081c3.202,3.242,3.169,8.468-0.081,11.677C279.823,260.282,268.395,264.258,256,264.258z"/>
<g>
	<path style="fill:#64505A;" d="M206.452,206.452c-4.565,0-8.258-3.694-8.258-8.258v-8.258c0-4.565,3.694-8.258,8.258-8.258
		s8.258,3.694,8.258,8.258v8.258C214.71,202.758,211.016,206.452,206.452,206.452z"/>
	<path style="fill:#64505A;" d="M305.548,206.452c-4.565,0-8.258-3.694-8.258-8.258v-8.258c0-4.565,3.694-8.258,8.258-8.258
		c4.565,0,8.258,3.694,8.258,8.258v8.258C313.806,202.758,310.113,206.452,305.548,206.452z"/>
</g>
<g>
	<path style="fill:#A06E50;" d="M214.71,173.419h-16.516c-4.565,0-8.258-3.694-8.258-8.258s3.694-8.258,8.258-8.258h16.516
		c4.565,0,8.258,3.694,8.258,8.258S219.274,173.419,214.71,173.419z"/>
	<path style="fill:#A06E50;" d="M313.806,173.419H297.29c-4.565,0-8.258-3.694-8.258-8.258s3.694-8.258,8.258-8.258h16.516
		c4.565,0,8.258,3.694,8.258,8.258S318.371,173.419,313.806,173.419z"/>
</g>
<g>
	<path style="fill:#C9C6CA;" d="M213.597,451.45l17.3,60.55h17.182l-16.775-58.714C225.299,452.845,219.413,452.201,213.597,451.45z
		"/>
	<path style="fill:#C9C6CA;" d="M281.038,453.266L264.258,512h17.182l17.313-60.597
		C292.934,452.161,287.048,452.819,281.038,453.266z"/>
</g>
<path style="fill:#EDEBED;" d="M256,107.355c41.226,0,78.622,8.433,106.624,22.119c-0.243-2.284-0.473-4.571-0.851-6.839l0,0
	C353.155,70.929,308.419,33.032,256,33.032s-97.155,37.897-105.773,89.603l0,0c-0.378,2.268-0.608,4.554-0.851,6.839
	C177.378,115.788,214.774,107.355,256,107.355z"/>
<path style="fill:#DBD9DC;" d="M272.515,34.391c-5.402-0.84-10.902-1.359-16.515-1.359c-52.419,0-97.155,37.897-105.773,89.603
	c-0.378,2.268-0.608,4.554-0.851,6.839c10.5-5.131,22.322-9.524,35.17-13.012C194.344,73.375,229.51,41.077,272.515,34.391z"/>
<g>
</g>
<g>
</g>
<g>
</g>
<g>
</g>
<g>
</g>
<g>
</g>
<g>
</g>
<g>
</g>
<g>
</g>
<g>
</g>
<g>
</g>
<g>
</g>
<g>
</g>
<g>
</g>
<g>
</g>
</svg>
