<?xml version="1.0" encoding="iso-8859-1"?>
<!-- Generator: Adobe Illustrator 19.0.0, SVG Export Plug-In . SVG Version: 6.00 Build 0)  -->
<svg version="1.1" id="Capa_1" xmlns="http://www.w3.org/2000/svg" xmlns:xlink="http://www.w3.org/1999/xlink" x="0px" y="0px"
	 viewBox="0 0 512 512" style="enable-background:new 0 0 512 512;" xml:space="preserve">
<path style="fill:#F7D291;" d="M418.626,377.943l-87.036-25.599c-10.544-3.101-17.784-12.778-17.784-23.768v-56.06H198.194v56.06
	c0,10.99-7.24,20.667-17.784,23.768l-87.036,25.599c-21.087,6.202-35.567,25.555-35.567,47.535v61.748
	c0,13.682,11.092,24.774,24.774,24.774h346.839c13.682,0,24.774-11.092,24.774-24.774v-61.748
	C454.194,403.498,439.713,384.145,418.626,377.943z"/>
<path style="fill:#A5CDFF;" d="M418.627,377.944l-85.204-25.06c-15.968,26.059-44.622,43.504-77.423,43.504
	s-61.456-17.445-77.423-43.504l-85.203,25.06c-21.087,6.202-35.567,25.554-35.567,47.534v61.748
	c0,13.682,11.092,24.774,24.774,24.774h346.839c13.682,0,24.774-11.092,24.774-24.774v-61.748
	C454.194,403.498,439.714,384.145,418.627,377.944z"/>
<path style="fill:#8CB4EB;" d="M162.198,357.701c18.339,32.912,53.45,55.203,93.802,55.203s75.463-22.29,93.802-55.203
	l-16.379-4.818c-15.968,26.059-44.622,43.504-77.423,43.504s-61.456-17.445-77.423-43.504L162.198,357.701z"/>
<g>
	<polygon style="fill:#FF8250;" points="165.161,356.829 123.871,368.974 123.871,470.71 165.161,470.71 	"/>
	<polygon style="fill:#FF8250;" points="346.839,356.829 388.129,368.974 388.129,470.71 346.839,470.71 	"/>
</g>
<path style="fill:#FF9664;" d="M363.355,437.677h-214.71c-13.682,0-24.774,11.092-24.774,24.774V512h264.258v-49.548
	C388.129,448.769,377.036,437.677,363.355,437.677z"/>
<path style="fill:#F0C382;" d="M198.194,307.461c17.349,9.267,37.024,14.604,57.806,14.604s40.457-5.337,57.806-14.604v-26.686
	H198.194V307.461z"/>
<path style="fill:#FFE1A0;" d="M371.613,165.581v-33.452c0-63.851-51.762-115.613-115.613-115.613S140.387,68.278,140.387,132.129
	v33.452c-9.394,1.927-16.516,10.284-16.516,20.226c0,11.355,9.29,20.645,20.645,20.645h4.546
	c4.23,55.419,50.435,99.097,106.938,99.097s102.708-43.678,106.938-99.097h4.546c11.355,0,20.645-9.29,20.645-20.645
	C388.129,175.865,381.007,167.508,371.613,165.581z"/>
<path style="fill:#FFE17D;" d="M256,8.258L256,8.258c-72.973,0-132.129,59.156-132.129,132.129l0,0h264.258l0,0
	C388.129,67.414,328.973,8.258,256,8.258z"/>
<path style="fill:#FFD164;" d="M256,8.258c-72.973,0-132.129,59.155-132.129,132.129h74.323c0-45.393,22.929-85.362,57.806-109.125
	V8.258z"/>
<path style="fill:#F7D291;" d="M355.096,148.645v-8.258h-214.71v24.774v0.419c-10.55,2.163-18.236,12.441-16.183,23.962
	c1.783,10.007,11.144,16.91,21.308,16.909h3.55c4.23,55.419,50.435,99.097,106.938,99.097c8.352,0,16.439-1.059,24.239-2.865
	c-51.662-11.553-90.303-57.602-90.303-112.748l0,0c0-13.682,11.092-24.774,24.774-24.774h123.871
	C347.702,165.161,355.096,157.767,355.096,148.645z"/>
<path style="fill:#CD916E;" d="M275.118,222.968h-38.233c-12.624,0-23.229,9.492-24.623,22.038l-3.902,35.115
	c-1.146,10.316,4.26,20.253,13.543,24.895l23.018,11.509c6.975,3.487,15.184,3.487,22.159,0l23.018-11.509
	c9.284-4.642,14.69-14.579,13.543-24.895l-3.902-35.115C298.346,232.46,287.742,222.968,275.118,222.968z"/>
<path style="fill:#B67F5F;" d="M253.179,307.58c-9.284-5.721-14.69-17.969-13.543-30.684l3.902-43.281
	c0.344-3.821,1.26-7.406,2.62-10.647h-9.272c-12.623,0-23.228,9.492-24.622,22.038l-3.902,35.115
	c-1.146,10.316,4.26,20.253,13.543,24.895l23.018,11.509c6.974,3.487,15.184,3.487,22.159,0l0.338-0.169L253.179,307.58z"/>
<path style="fill:#F7D291;" d="M256,264.258c-9.597,0-18.331-4.444-23.363-11.895c-2.548-3.782-1.556-8.911,2.226-11.468
	c3.79-2.54,8.911-1.548,11.468,2.226c3.839,5.694,15.5,5.694,19.339,0c2.548-3.774,7.677-4.766,11.468-2.226
	c3.782,2.556,4.774,7.685,2.226,11.468C274.331,259.815,265.596,264.258,256,264.258z"/>
<g>
	<path style="fill:#6E5A64;" d="M210.581,189.935c-4.565,0-8.258-3.694-8.258-8.258v-8.258c0-4.565,3.694-8.258,8.258-8.258
		s8.258,3.694,8.258,8.258v8.258C218.839,186.242,215.145,189.935,210.581,189.935z"/>
	<path style="fill:#6E5A64;" d="M301.419,189.935c-4.565,0-8.258-3.694-8.258-8.258v-8.258c0-4.565,3.694-8.258,8.258-8.258
		s8.258,3.694,8.258,8.258v8.258C309.677,186.242,305.984,189.935,301.419,189.935z"/>
</g>
<g>
	<path style="fill:#FFEDB1;" d="M272.516,107.355h-33.032c-4.561,0-8.258-3.697-8.258-8.258V8.258c0-4.561,3.697-8.258,8.258-8.258
		h33.032c4.561,0,8.258,3.697,8.258,8.258v90.839C280.773,103.658,277.077,107.355,272.516,107.355z"/>
	<path style="fill:#FFEDB1;" d="M346.839,107.355h-16.516c-4.561,0-8.258-3.697-8.258-8.258V27.148c0-4.38,5.001-6.881,8.505-4.253
		l17.921,13.44c4.159,3.119,6.606,8.014,6.606,13.213v49.548C355.096,103.658,351.4,107.355,346.839,107.355z"/>
</g>
<path style="fill:#FFE17D;" d="M165.161,107.355h16.516c4.561,0,8.258-3.697,8.258-8.258V27.148c0-4.38-5.001-6.881-8.505-4.253
	l-17.921,13.44c-4.159,3.119-6.606,8.014-6.606,13.213v49.548C156.903,103.658,160.6,107.355,165.161,107.355z"/>
<path style="fill:#FFD164;" d="M396.387,148.645H115.613c-4.561,0-8.258-3.697-8.258-8.258l0,0c0-4.561,3.697-8.258,8.258-8.258
	h280.774c4.561,0,8.258,3.697,8.258,8.258l0,0C404.645,144.948,400.948,148.645,396.387,148.645z"/>
<g>
	<circle style="fill:#DBD9DC;" cx="156.9" cy="470.71" r="8.258"/>
	<circle style="fill:#DBD9DC;" cx="355.1" cy="470.71" r="8.258"/>
</g>
<g>
	<path style="fill:#8CB4EB;" d="M123.871,437.677L123.871,437.677V512H99.097v-49.548
		C99.097,448.769,110.189,437.677,123.871,437.677z"/>
	<path style="fill:#8CB4EB;" d="M388.129,437.677L388.129,437.677V512h24.774v-49.548
		C412.903,448.769,401.811,437.677,388.129,437.677z"/>
</g>
<g>
</g>
<g>
</g>
<g>
</g>
<g>
</g>
<g>
</g>
<g>
</g>
<g>
</g>
<g>
</g>
<g>
</g>
<g>
</g>
<g>
</g>
<g>
</g>
<g>
</g>
<g>
</g>
<g>
</g>
</svg>
