<?xml version="1.0" encoding="iso-8859-1"?>
<!-- Generator: Adobe Illustrator 19.0.0, SVG Export Plug-In . SVG Version: 6.00 Build 0)  -->
<svg version="1.1" id="Capa_1" xmlns="http://www.w3.org/2000/svg" xmlns:xlink="http://www.w3.org/1999/xlink" x="0px" y="0px"
	 viewBox="0 0 512 512" style="enable-background:new 0 0 512 512;" xml:space="preserve">
<path style="fill:#FF8087;" d="M363.355,346.839h-214.71c-18.243,0-33.032,14.789-33.032,33.032v41.29h280.774v-41.29
	C396.387,361.628,381.598,346.839,363.355,346.839z"/>
<path style="fill:#FFE17D;" d="M280.774,66.065h-49.548c-18.243,0-33.032-14.789-33.032-33.032l0,0
	C198.194,14.789,212.983,0,231.226,0h49.548c18.243,0,33.032,14.789,33.032,33.032l0,0
	C313.806,51.275,299.017,66.065,280.774,66.065z"/>
<path style="fill:#E3AA75;" d="M412.878,409.494l-85.291-30.103c-13.207-4.661-22.039-17.144-22.039-31.149v-42.694h-99.097v42.694
	c0,14.005-8.832,26.488-22.039,31.149l-85.291,30.103c-19.81,6.992-33.057,25.716-33.057,46.723v31.009
	c0,13.682,11.092,24.774,24.774,24.774h330.323c13.682,0,24.774-11.092,24.774-24.774v-31.009
	C445.935,435.21,432.688,416.486,412.878,409.494z"/>
<path style="fill:#9C969E;" d="M412.878,409.494l-76.607-27.038c-8.631,36.383-41.249,63.48-80.271,63.48
	s-71.64-27.097-80.271-63.48l-76.607,27.038c-19.81,6.992-33.057,25.716-33.057,46.724v31.008c0,13.682,11.092,24.774,24.774,24.774
	h330.323c13.682,0,24.774-11.092,24.774-24.774v-31.008C445.935,435.21,432.688,416.486,412.878,409.494z"/>
<path style="fill:#867E88;" d="M160.11,387.968c10.961,42.8,49.673,74.484,95.89,74.484s84.929-31.683,95.89-74.484l-15.619-5.512
	c-8.631,36.383-41.249,63.48-80.271,63.48s-71.64-27.097-80.271-63.48L160.11,387.968z"/>
<path style="fill:#D29B6E;" d="M206.452,344.53c15.247,6.742,32.001,10.567,49.548,10.567s34.301-3.825,49.548-10.567v-38.982
	h-99.097L206.452,344.53L206.452,344.53z"/>
<path style="fill:#F5B97D;" d="M370.028,198.524l-6.673-33.363h-214.71l-6.673,33.363c-9.248,1.543-17.044,8.692-17.994,18.184
	c-1.237,12.358,8.433,22.775,20.538,22.775h4.546c4.23,55.419,50.435,99.097,106.938,99.097s102.708-43.677,106.938-99.097h4.546
	c12.105,0,21.776-10.417,20.538-22.775C387.072,207.216,379.276,200.068,370.028,198.524z"/>
<path style="fill:#E3AA75;" d="M148.645,148.645l-7.127,49.887c-9.858,1.577-16.593,8.716-17.54,18.176
	c-1.237,12.358,8.433,22.775,20.538,22.775h4.546c4.23,55.419,50.435,99.097,106.938,99.097c5.649,0,11.157-0.55,16.568-1.391
	c-51.454-7.942-90.891-52.286-90.891-105.964c0-18.244,14.789-33.032,33.032-33.032h99.097c9.121,0,16.516-7.395,16.516-16.516
	v-33.032L148.645,148.645L148.645,148.645z"/>
<path style="fill:#FF8087;" d="M172.485,375.29l-23.881,9.552c-4.963,1.984-8.217,6.791-8.217,12.137V512h41.29V381.512
	C181.677,376.771,176.888,373.528,172.485,375.29z"/>
<path style="fill:#B67F5F;" d="M256,289.032c-12.395,0-23.823-3.976-30.573-10.637c-3.25-3.21-3.282-8.435-0.081-11.677
	c3.218-3.25,8.444-3.282,11.677-0.081c2.75,2.71,9.363,5.879,18.976,5.879s16.226-3.169,18.976-5.879
	c3.234-3.202,8.46-3.169,11.677,0.081c3.202,3.242,3.169,8.468-0.081,11.677C279.823,285.056,268.395,289.032,256,289.032z"/>
<g>
	<path style="fill:#5A4650;" d="M206.452,231.105c-4.565,0-8.258-3.694-8.258-8.258v-8.258c0-4.565,3.694-8.258,8.258-8.258
		s8.258,3.694,8.258,8.258v8.258C214.71,227.411,211.016,231.105,206.452,231.105z"/>
	<path style="fill:#5A4650;" d="M305.548,231.105c-4.565,0-8.258-3.694-8.258-8.258v-8.258c0-4.565,3.694-8.258,8.258-8.258
		c4.565,0,8.258,3.694,8.258,8.258v8.258C313.806,227.411,310.113,231.105,305.548,231.105z"/>
</g>
<path style="fill:#FFD164;" d="M280.774,57.806h-49.548c-59.29,0-107.355,48.064-107.355,107.355v53.677
	c0-11.431,9.289-20.691,20.731-20.645c2.251,0.009,4.044-1.879,4.044-4.129v-4.129c0-4.561,3.697-8.258,8.258-8.258h108.772
	c4.38,0,8.581-1.74,11.679-4.837l17.881-17.881c4.539-4.539,12.294-2.391,13.851,3.836l3.157,12.627
	c0.919,3.676,4.222,6.255,8.012,6.255h34.843c4.561,0,8.258,3.697,8.258,8.258v4.143c0,2.243,1.787,4.126,4.029,4.115
	c11.447-0.054,20.745,9.209,20.745,20.645v-53.677C388.129,105.871,340.065,57.806,280.774,57.806z"/>
<path style="fill:#FFE17D;" d="M297.29,59.206c-34.872,5.399-64.218,27.521-79.499,57.933
	c-11.065,22.022,4.863,48.022,29.509,48.022h41.732l6.203-6.203c4.539-4.539,12.294-2.391,13.851,3.836l0.592,2.367h78.452
	C388.129,111.502,348.718,67.169,297.29,59.206z"/>
<path style="fill:#E6646E;" d="M156.903,381.523l-8.299,3.32c-4.963,1.984-8.217,6.791-8.217,12.137V512h16.516L156.903,381.523
	L156.903,381.523z"/>
<path style="fill:#FF8087;" d="M339.515,375.29l23.881,9.552c4.963,1.984,8.217,6.791,8.217,12.137V512h-41.29V381.512
	C330.323,376.771,335.112,373.528,339.515,375.29z"/>
<path style="fill:#E6646E;" d="M355.097,381.523l8.299,3.32c4.963,1.984,8.217,6.791,8.217,12.137V512h-16.516L355.097,381.523
	L355.097,381.523z"/>
<rect x="140.39" y="429.42" style="fill:#5D5360;" width="41.29" height="24.774"/>
<rect x="140.39" y="429.42" style="fill:#4B3F4E;" width="16.516" height="24.774"/>
<rect x="330.32" y="429.42" style="fill:#5D5360;" width="41.29" height="24.774"/>
<rect x="355.1" y="429.42" style="fill:#4B3F4E;" width="16.516" height="24.774"/>
<g>
</g>
<g>
</g>
<g>
</g>
<g>
</g>
<g>
</g>
<g>
</g>
<g>
</g>
<g>
</g>
<g>
</g>
<g>
</g>
<g>
</g>
<g>
</g>
<g>
</g>
<g>
</g>
<g>
</g>
</svg>
