<?xml version="1.0" encoding="iso-8859-1"?>
<!-- Generator: Adobe Illustrator 19.0.0, SVG Export Plug-In . SVG Version: 6.00 Build 0)  -->
<svg version="1.1" id="Capa_1" xmlns="http://www.w3.org/2000/svg" xmlns:xlink="http://www.w3.org/1999/xlink" x="0px" y="0px"
	 viewBox="0 0 512 512" style="enable-background:new 0 0 512 512;" xml:space="preserve">
<path style="fill:#DBD9DC;" d="M418.611,424.783l-87.028-25.596c-10.543-3.101-17.782-12.776-17.782-23.765v-61.596H198.199v61.596
	c0,10.989-7.24,20.665-17.782,23.765l-87.028,25.596c-21.085,6.201-35.564,25.552-35.564,47.53v14.916
	C57.825,500.91,68.916,512,82.597,512h346.807c13.681,0,24.772-11.091,24.772-24.772v-14.916
	C454.175,450.335,439.696,430.984,418.611,424.783z"/>
<path style="fill:#C9C6CA;" d="M214.714,493.421h82.573c48.603,0,90.217-30.19,107.281-72.769l-72.985-21.466
	c-10.542-3.101-17.782-12.777-17.782-23.766v-61.595H198.199v61.595c0,10.989-7.24,20.665-17.782,23.766l-72.985,21.466
	C124.496,463.231,166.11,493.421,214.714,493.421z"/>
<path style="fill:#FF9664;" d="M346.83,328.275H165.17c-27.362,0-49.544,22.181-49.544,49.544c0,54.724,44.363,99.088,99.088,99.088
	h82.573c54.725,0,99.088-44.363,99.088-99.088C396.374,350.456,374.193,328.275,346.83,328.275z"/>
<path style="fill:#FF8250;" d="M344.633,353.047c17.974,0,25.032,23.311,10.077,33.281l-84.969,56.646
	c-8.321,5.547-19.161,5.547-27.482,0l-84.969-56.646c-14.955-9.97-7.897-33.281,10.077-33.281H344.633z"/>
<path style="fill:#F7D291;" d="M178.145,400.232l64.114,42.742c8.321,5.547,19.161,5.547,27.482,0l64.114-42.742l0,0l-2.272-0.668
	c-10.542-3.101-17.782-12.777-17.782-23.765v-53.716H198.199v53.716c0,10.989-7.24,20.664-17.782,23.765L178.145,400.232
	L178.145,400.232z"/>
<path style="fill:#F0C382;" d="M198.199,348.766c17.348,9.266,37.021,14.602,57.801,14.602s40.453-5.336,57.801-14.602v-26.684
	H198.199V348.766z"/>
<path style="fill:#FFE1A0;" d="M371.602,206.9v-33.449c0-63.845-51.757-115.602-115.602-115.602s-115.602,51.757-115.602,115.602
	V206.9c-9.393,1.927-16.515,10.283-16.515,20.224c0,11.354,9.289,20.643,20.643,20.643h4.546
	c4.229,55.414,50.43,99.088,106.928,99.088s102.698-43.674,106.928-99.088h4.546c11.354,0,20.643-9.289,20.643-20.643
	C388.117,217.184,380.995,208.827,371.602,206.9z"/>
<path style="fill:#F7D291;" d="M189.942,231.253v-112.4c0-16.301-21.232-22.83-30.266-9.261
	c-12.176,18.288-19.278,40.236-19.278,63.86V206.9c-10.549,2.164-18.234,12.438-16.182,23.958
	c1.782,10.006,11.141,16.909,21.305,16.909h3.552c4.229,55.414,50.43,99.088,106.928,99.088c8.352,0,16.437-1.059,24.237-2.865
	C228.579,332.438,189.942,286.393,189.942,231.253z"/>
<g>
	<path style="fill:#6E5A64;" d="M206.456,234.003c-4.564,0-8.257-3.693-8.257-8.257v-8.257c0-4.564,3.693-8.257,8.257-8.257
		c4.564,0,8.257,3.693,8.257,8.257v8.257C214.714,230.309,211.02,234.003,206.456,234.003z"/>
	<path style="fill:#6E5A64;" d="M305.544,234.003c-4.564,0-8.257-3.693-8.257-8.257v-8.257c0-4.564,3.693-8.257,8.257-8.257
		s8.257,3.693,8.257,8.257v8.257C313.801,230.309,310.108,234.003,305.544,234.003z"/>
</g>
<path style="fill:#E3AA75;" d="M256,291.803c-12.394,0-23.82-3.975-30.57-10.636c-3.25-3.209-3.282-8.435-0.081-11.676
	c3.217-3.25,8.443-3.282,11.676-0.081c2.75,2.709,9.362,5.878,18.974,5.878s16.224-3.169,18.974-5.878
	c3.234-3.201,8.459-3.169,11.676,0.081c3.201,3.242,3.169,8.467-0.081,11.676C279.82,287.827,268.394,291.803,256,291.803z"/>
<g>
	<path style="fill:#A06E50;" d="M222.971,209.23c-0.863,0-1.742-0.137-2.613-0.427l-24.772-8.257
		c-4.322-1.435-6.661-6.112-5.217-10.443c1.443-4.322,6.08-6.669,10.443-5.217l24.772,8.257c4.322,1.435,6.661,6.112,5.217,10.443
		C229.648,207.045,226.43,209.23,222.971,209.23z"/>
	<path style="fill:#A06E50;" d="M289.029,209.23c-3.459,0-6.677-2.185-7.83-5.645c-1.443-4.33,0.895-9.007,5.217-10.443
		l24.772-8.257c4.362-1.451,8.999,0.895,10.443,5.217c1.443,4.33-0.895,9.007-5.217,10.443l-24.772,8.257
		C290.771,209.094,289.892,209.23,289.029,209.23z"/>
</g>
<path style="fill:#FF9664;" d="M248.631,94.067l-13.303-21.374c-2.597-4.173-3.201-9.286-1.646-13.949l18.716-56.148
	c1.154-3.462,6.051-3.462,7.204,0l18.716,56.148c1.554,4.663,0.951,9.775-1.646,13.948l-13.301,21.374
	C259.975,99.526,252.029,99.526,248.631,94.067z"/>
<path style="fill:#FF8250;" d="M256,0c-1.513,0-3.025,0.866-3.602,2.597l-18.716,56.148c-1.554,4.663-0.951,9.776,1.646,13.949
	l13.303,21.373c1.698,2.73,4.533,4.094,7.369,4.094L256,0L256,0z"/>
<g>
	<path style="fill:#867E88;" d="M189.942,454.199L189.942,454.199c-4.56,0-8.257,3.697-8.257,8.257V512H198.2v-49.544
		C198.199,457.896,194.502,454.199,189.942,454.199z"/>
	<path style="fill:#867E88;" d="M322.058,454.199L322.058,454.199c-4.56,0-8.257,3.697-8.257,8.257V512h16.515v-49.544
		C330.316,457.896,326.619,454.199,322.058,454.199z"/>
</g>
<g>
</g>
<g>
</g>
<g>
</g>
<g>
</g>
<g>
</g>
<g>
</g>
<g>
</g>
<g>
</g>
<g>
</g>
<g>
</g>
<g>
</g>
<g>
</g>
<g>
</g>
<g>
</g>
<g>
</g>
</svg>
