<?xml version="1.0" encoding="iso-8859-1"?>
<!-- Generator: Adobe Illustrator 19.0.0, SVG Export Plug-In . SVG Version: 6.00 Build 0)  -->
<svg version="1.1" id="Capa_1" xmlns="http://www.w3.org/2000/svg" xmlns:xlink="http://www.w3.org/1999/xlink" x="0px" y="0px"
	 viewBox="0 0 512 512" style="enable-background:new 0 0 512 512;" xml:space="preserve">
<path style="fill:#A06E50;" d="M256,0L256,0C172.58,0,103.669,65.122,98.954,148.407L91.47,280.632
	c-4.826,85.26,63.011,157.046,148.408,157.046h32.245c85.396,0,153.234-71.786,148.408-157.046l-7.484-132.224
	C408.331,65.122,339.419,0,256,0z"/>
<path style="fill:#B67F5F;" d="M420.53,280.631l-7.238-127.876C409.37,83.482,362.516,22.627,295.38,5.11
	c-31.577-8.239-61.771-5.998-88.929,3.023v16.641c0,27.365,22.184,49.548,49.548,49.548h24.774c9.122,0,16.516,7.395,16.516,16.516
	v344.526C370.392,422.885,424.869,357.297,420.53,280.631z"/>
<path style="fill:#F7D291;" d="M412.878,392.978l-85.291-30.103c-13.207-4.661-22.039-17.144-22.039-31.149v-42.694h-99.097v42.694
	c0,14.005-8.832,26.488-22.039,31.149l-85.291,30.103c-19.81,6.992-33.057,25.716-33.057,46.723v47.525
	c0,13.682,11.092,24.774,24.774,24.774h330.323c13.682,0,24.774-11.092,24.774-24.774v-47.525
	C445.935,418.694,432.688,399.97,412.878,392.978z"/>
<path style="fill:#FF8087;" d="M412.878,392.978l-53.702-18.954c-19.038,37.724-58.035,63.653-103.176,63.653
	s-84.138-25.929-103.176-63.653l-53.702,18.954c-19.81,6.992-33.057,25.716-33.057,46.724v47.524
	c0,13.682,11.092,24.774,24.774,24.774h330.323c13.682,0,24.774-11.092,24.774-24.774v-47.524
	C445.935,418.694,432.688,399.97,412.878,392.978z"/>
<path style="fill:#E6646E;" d="M137.171,379.548c21.394,44.135,66.49,74.645,118.829,74.645s97.435-30.51,118.829-74.645
	l-15.653-5.524c-19.038,37.724-58.035,63.653-103.176,63.653s-84.138-25.929-103.176-63.653L137.171,379.548z"/>
<path style="fill:#F0C382;" d="M206.452,311.498c15.247,6.742,32.001,10.567,49.548,10.567s34.301-3.824,49.548-10.567v-22.466
	h-99.097L206.452,311.498L206.452,311.498z"/>
<path style="fill:#FFE1A0;" d="M366.306,165.161L366.306,165.161c-6.19,0-11.209-5.018-11.209-11.209v-5.307
	c0-31.926-25.881-57.806-57.806-57.806H214.71c-31.926,0-57.806,25.881-57.806,57.806v5.307c0,6.19-5.018,11.209-11.209,11.209l0,0
	c-10.799,0-20.64,7.769-21.716,18.514c-1.238,12.358,8.433,22.776,20.538,22.776h4.546c4.23,55.419,50.435,99.097,106.938,99.097
	s102.708-43.677,106.938-99.097h4.546c12.105,0,21.776-10.419,20.538-22.776C386.945,172.931,377.104,165.161,366.306,165.161z"/>
<g>
	<path style="fill:#6E5A64;" d="M206.452,190.653c-4.565,0-8.258-3.694-8.258-8.258v-8.258c0-4.565,3.694-8.258,8.258-8.258
		s8.258,3.694,8.258,8.258v8.258C214.71,186.96,211.016,190.653,206.452,190.653z"/>
	<path style="fill:#6E5A64;" d="M305.548,190.653c-4.565,0-8.258-3.694-8.258-8.258v-8.258c0-4.565,3.694-8.258,8.258-8.258
		c4.565,0,8.258,3.694,8.258,8.258v8.258C313.806,186.96,310.113,190.653,305.548,190.653z"/>
</g>
<path style="fill:#FFFFFF;" d="M225.359,222.965c-3.64,0-6.554,3.366-5.707,6.906c3.572,14.928,18.489,26.126,36.348,26.126
	s32.775-11.198,36.348-26.126c0.847-3.54-2.067-6.906-5.707-6.906H225.359z"/>
<g>
	<path style="fill:#FF8087;" d="M201.271,22.35c17.489,5.445,31.385,15.195,39.046,25.96c1.969,2.766,0.757,6.659-2.434,7.819
		c-12.418,4.513-29.393,4.653-46.882-0.791s-31.385-15.195-39.046-25.96c-1.969-2.766-0.757-6.659,2.434-7.819
		C166.807,17.045,183.783,16.906,201.271,22.35z"/>
	<path style="fill:#FF8087;" d="M310.729,22.35c-17.489,5.445-31.385,15.195-39.046,25.96c-1.969,2.766-0.757,6.659,2.434,7.819
		c12.418,4.513,29.393,4.653,46.882-0.791s31.385-15.195,39.047-25.96c1.969-2.766,0.757-6.659-2.434-7.819
		C345.193,17.045,328.217,16.906,310.729,22.35z"/>
</g>
<path style="fill:#F7D291;" d="M181.677,198.194v-57.806c0-18.243,14.789-33.032,33.032-33.032h66.065
	c9.122,0,16.516-7.395,16.516-16.516l0,0h-82.58c-31.926,0-57.806,25.881-57.806,57.806v5.306c0,6.276-5.14,11.153-11.416,11.211
	c-10.717,0.098-20.44,7.837-21.509,18.513c-1.238,12.357,8.433,22.776,20.538,22.776h4.546
	c4.23,55.419,50.435,99.097,106.938,99.097c5.649,0,11.157-0.55,16.568-1.391C221.114,296.216,181.677,251.871,181.677,198.194z"/>
<g>
	<path style="fill:#B67F5F;" d="M198.185,156.903c-3.702,0-7.065-2.5-8-6.258c-1.113-4.419,1.581-8.903,6.008-10.008l16.516-4.129
		c4.411-1.121,8.903,1.581,10.008,6.008c1.113,4.419-1.581,8.903-6.008,10.008l-16.516,4.129
		C199.524,156.823,198.847,156.903,198.185,156.903z"/>
	<path style="fill:#B67F5F;" d="M313.815,156.903c-0.661,0-1.339-0.081-2.008-0.25l-16.516-4.129
		c-4.427-1.105-7.121-5.589-6.008-10.008c1.097-4.427,5.589-7.137,10.008-6.008l16.516,4.129c4.427,1.105,7.121,5.589,6.008,10.008
		C320.879,154.403,317.516,156.903,313.815,156.903z"/>
</g>
<circle style="fill:#E6646E;" cx="256" cy="49.546" r="16.516"/>
<g>
</g>
<g>
</g>
<g>
</g>
<g>
</g>
<g>
</g>
<g>
</g>
<g>
</g>
<g>
</g>
<g>
</g>
<g>
</g>
<g>
</g>
<g>
</g>
<g>
</g>
<g>
</g>
<g>
</g>
</svg>
