<?xml version="1.0" encoding="iso-8859-1"?>
<!-- Generator: Adobe Illustrator 19.0.0, SVG Export Plug-In . SVG Version: 6.00 Build 0)  -->
<svg version="1.1" id="Capa_1" xmlns="http://www.w3.org/2000/svg" xmlns:xlink="http://www.w3.org/1999/xlink" x="0px" y="0px"
	 viewBox="0 0 512 512" style="enable-background:new 0 0 512 512;" xml:space="preserve">
<path style="fill:#F7D291;" d="M418.787,377.812l-87.121-25.624c-10.554-3.104-17.801-12.79-17.801-23.791v-47.849H198.138v47.849
	c0,11.001-7.247,20.687-17.801,23.791l-87.121,25.624c-21.107,6.208-35.602,25.58-35.602,47.581v61.809
	c0,13.696,11.103,24.798,24.798,24.798H429.59c13.696,0,24.798-11.103,24.798-24.798v-61.809
	C454.389,403.391,439.894,384.02,418.787,377.812z"/>
<g>
	<rect x="123.741" y="462.4" style="fill:#F0C382;" width="16.532" height="49.597"/>
	<rect x="371.731" y="462.4" style="fill:#F0C382;" width="16.532" height="49.597"/>
</g>
<path style="fill:#A5CDFF;" d="M418.787,377.812l-87.122-25.625l-75.664,11.022l-75.664-11.022l-87.122,25.625
	c-21.107,6.208-35.602,25.579-35.602,47.581v37.01l82.662,16.532V512h231.452v-33.065l82.661-16.532v-37.01
	C454.389,403.392,439.894,384.02,418.787,377.812z"/>
<path style="fill:#F0C382;" d="M198.138,315.527c17.366,9.276,37.06,14.618,57.863,14.618s40.497-5.342,57.863-14.618v-34.979
	H198.138V315.527z"/>
<path style="fill:#FF9664;" d="M393.323,65.628h-29.862l11.998-29.995c2.172-5.43-1.827-11.336-7.675-11.336h-37.388L308.52,2.421
	c-1.84-1.84-4.438-2.706-7.014-2.338l-53.772,7.682l-29.248-7.312c-2.415-0.604-4.973-0.087-6.965,1.406l-29.917,22.438h-33.063
	c-4.565,0-8.266,3.701-8.266,8.266v33.065h-21.596c-5.642,0-9.626,5.528-7.842,10.88l12.906,38.717l-12.769,12.769
	c-2.292,2.292-3.033,5.712-1.895,8.747l22.93,61.145h247.985l22.93-61.145c1.138-3.035,0.397-6.455-1.895-8.747l-12.769-12.769
	l12.906-38.717C402.949,71.155,398.965,65.628,393.323,65.628z"/>
<path style="fill:#FF8250;" d="M363.461,189.62c-95.198,0-172.41-76.656-173.489-171.598l-8.367,6.275h-33.064
	c-4.565,0-8.266,3.701-8.266,8.266v33.065h-21.596c-5.642,0-9.626,5.528-7.842,10.88l12.906,38.717l-12.769,12.769
	c-2.292,2.293-3.033,5.712-1.895,8.747l22.93,61.146h247.985l3.571-9.521C376.958,189.128,370.272,189.62,363.461,189.62z"/>
<path style="fill:#FFE1A0;" d="M366.414,173.088h-2.953c-9.131,0-16.532-7.402-16.532-16.532v-16.532l-49.597-33.065v18.82
	c0,6.347-6.857,10.326-12.367,7.177l-45.496-25.997l-12.718,19.078c-2.21,3.316-6.471,4.582-10.134,3.013l-40.02-17.152
	c-5.455-2.338-11.522,1.663-11.522,7.598v37.061c0,9.131-7.402,16.532-16.532,16.532h-2.953c-10.809,0-20.66,7.776-21.738,18.531
	c-1.24,12.37,8.441,22.8,20.558,22.8h4.551c4.234,55.474,50.484,99.194,107.042,99.194s102.808-43.72,107.042-99.194h4.551
	c12.117,0,21.798-10.43,20.558-22.8C387.074,180.864,377.223,173.088,366.414,173.088z"/>
<g>
	<path style="fill:#6E5A64;" d="M206.485,197.886c-4.569,0-8.266-3.697-8.266-8.266v-8.266c0-4.569,3.697-8.266,8.266-8.266
		s8.266,3.697,8.266,8.266v8.266C214.751,194.189,211.054,197.886,206.485,197.886z"/>
	<path style="fill:#6E5A64;" d="M305.679,197.886c-4.569,0-8.266-3.697-8.266-8.266v-8.266c0-4.569,3.697-8.266,8.266-8.266
		s8.266,3.697,8.266,8.266v8.266C313.945,194.189,310.248,197.886,305.679,197.886z"/>
</g>
<path style="fill:#E3AA75;" d="M256.082,255.749c-12.407,0-23.846-3.98-30.603-10.648c-3.253-3.213-3.285-8.444-0.081-11.689
	c3.221-3.253,8.452-3.285,11.689-0.081c2.753,2.712,9.372,5.885,18.994,5.885c9.622,0,16.242-3.172,18.994-5.885
	c3.237-3.205,8.468-3.172,11.689,0.081c3.205,3.245,3.172,8.476-0.081,11.689C279.928,251.77,268.489,255.749,256.082,255.749z"/>
<path style="fill:#F7D291;" d="M346.929,156.556v-16.532l-49.597-33.065v18.82c0,6.347-6.857,10.326-12.368,7.177l-45.495-25.997
	l-12.719,19.077c-2.211,3.316-6.472,4.582-10.135,3.013l-40.02-17.151c-5.455-2.338-11.522,1.663-11.522,7.598v37.061
	c0,9.131-7.402,16.532-16.532,16.532h-2.953c-10.809,0-20.66,7.776-21.737,18.531c-1.24,12.369,8.441,22.799,20.558,22.799h4.551
	c4.234,55.474,50.484,99.194,107.042,99.194c5.654,0,11.168-0.551,16.584-1.393c-51.504-7.949-90.98-52.337-90.98-106.067v-43.157
	c0-14.658,14.988-24.541,28.461-18.766l0.035,0.015c3.667,1.571,7.584,2.228,11.603,1.94c8.035-0.577,15.146-5.494,19.614-12.197
	l3.346-5.018l32.097,18.341c3.755,2.146,8.005,3.28,12.292,3.28c9.926,0,18.508-5.859,22.472-14.299l26.233,17.488l0.856,0.571
	l0.921,0.46l7.601,3.8C347.051,157.93,346.929,157.26,346.929,156.556z"/>
<path style="fill:#DBD9DC;" d="M264.267,454.137h-16.532c-4.565,0-8.266-3.701-8.266-8.266V363.21h33.065v82.661
	C272.533,450.436,268.832,454.137,264.267,454.137z"/>
<g>
	<path style="fill:#EDEBED;" d="M205.732,406.297l50.269-43.088l-66.848-37.138c-4.114-2.286-9.303-0.68-11.408,3.529
		l-10.693,21.386c-1.236,2.472-1.155,5.398,0.216,7.798l25.907,45.338C195.75,408.628,201.792,409.674,205.732,406.297z"/>
	<path style="fill:#EDEBED;" d="M306.27,406.297l-50.269-43.088l66.848-37.138c4.114-2.286,9.303-0.68,11.408,3.529l10.693,21.386
		c1.236,2.472,1.155,5.398-0.216,7.798l-25.907,45.338C316.252,408.628,310.21,409.674,306.27,406.297z"/>
</g>
<g>
	<path style="fill:#8CB4EB;" d="M140.275,478.935v-18.219c0-11.802-5.061-23.063-13.876-30.885l-49.225-43.757
		c-4.433,3.389-8.207,7.483-11.254,12.107l49.501,44.009c5.287,4.69,8.323,11.447,8.323,18.526v14.913L140.275,478.935z"/>
	<path style="fill:#8CB4EB;" d="M371.727,478.935v-18.219c0-11.802,5.061-23.063,13.876-30.885l49.225-43.757
		c4.433,3.389,8.207,7.483,11.254,12.107l-49.501,44.009c-5.287,4.69-8.323,11.447-8.323,18.526v14.913L371.727,478.935z"/>
</g>
<g>
</g>
<g>
</g>
<g>
</g>
<g>
</g>
<g>
</g>
<g>
</g>
<g>
</g>
<g>
</g>
<g>
</g>
<g>
</g>
<g>
</g>
<g>
</g>
<g>
</g>
<g>
</g>
<g>
</g>
</svg>
