<?xml version="1.0" encoding="iso-8859-1"?>
<!-- Generator: Adobe Illustrator 19.0.0, SVG Export Plug-In . SVG Version: 6.00 Build 0)  -->
<svg version="1.1" id="Capa_1" xmlns="http://www.w3.org/2000/svg" xmlns:xlink="http://www.w3.org/1999/xlink" x="0px" y="0px"
	 viewBox="0 0 512 512" style="enable-background:new 0 0 512 512;" xml:space="preserve">
<path style="fill:#F7D291;" d="M418.626,377.668l-87.036-25.599c-10.544-3.101-17.784-12.778-17.784-23.768v-39.269H198.195v39.269
	c0,10.99-7.24,20.667-17.784,23.768l-87.036,25.599c-21.087,6.202-35.568,25.555-35.568,47.535v62.023
	c0,13.682,11.092,24.774,24.774,24.774h346.839c13.682,0,24.774-11.092,24.774-24.774v-62.023
	C454.194,403.223,439.714,383.87,418.626,377.668z"/>
<path style="fill:#F0C382;" d="M198.195,307.461c17.349,9.267,37.024,14.604,57.806,14.604s40.457-5.337,57.806-14.604v-18.428
	H198.195V307.461z"/>
<path style="fill:#FFE1A0;" d="M367.484,165.161h-4.129V74.323h-214.71v90.839h-4.129c-11.402,0-20.645,9.243-20.645,20.645
	c0,11.402,9.243,20.645,20.645,20.645h4.546c4.23,55.419,50.435,99.097,106.938,99.097s102.708-43.678,106.938-99.097h4.546
	c11.402,0,20.645-9.243,20.645-20.645C388.129,174.404,378.886,165.161,367.484,165.161z"/>
<path style="fill:#F7D291;" d="M330.323,107.355V74.323H148.646v90.839h-2.951c-10.799,0-20.64,7.77-21.716,18.515
	c-1.238,12.358,8.433,22.775,20.538,22.775h4.546c4.23,55.419,50.435,99.097,106.938,99.097c5.649,0,11.157-0.55,16.568-1.392
	c-51.454-7.941-90.891-52.286-90.891-105.963v-41.29c0-18.243,14.789-33.032,33.032-33.032h99.097
	C322.928,123.871,330.323,116.476,330.323,107.355z"/>
<path style="fill:#B67F5F;" d="M396.303,38.618C394.912,16.578,375.421,0,353.336,0H196.872c-39.085,0-69.626,33.747-65.736,72.638
	l9.253,92.523h8.257c9.121,0,16.516-7.394,16.516-16.516l0.001-41.291H346.84l-0.001,41.29c0,9.122,7.394,16.516,16.516,16.516
	h8.259l6.872-89.333l-0.553-0.163C389.732,67.81,397.277,54.069,396.303,38.618z"/>
<path style="fill:#A06E50;" d="M231.227,0h-34.355c-39.085,0-69.626,33.747-65.736,72.638l9.253,92.523h8.257
	c9.121,0,16.516-7.394,16.516-16.516l0.001-41.291v-41.29C165.161,29.578,194.74,0,231.227,0z"/>
<g>
	<path style="fill:#6E5A64;" d="M206.452,189.935c-4.565,0-8.258-3.698-8.258-8.258v-8.258c0-4.56,3.694-8.258,8.258-8.258
		s8.258,3.698,8.258,8.258v8.258C214.711,186.238,211.017,189.935,206.452,189.935z"/>
	<path style="fill:#6E5A64;" d="M305.548,189.935c-4.565,0-8.258-3.698-8.258-8.258v-8.258c0-4.56,3.694-8.258,8.258-8.258
		c4.565,0,8.258,3.698,8.258,8.258v8.258C313.806,186.238,310.113,189.935,305.548,189.935z"/>
</g>
<path style="fill:#E3AA75;" d="M256,247.742c-12.387,0-23.823-3.976-30.573-10.637c-3.25-3.202-3.282-8.431-0.081-11.677
	c3.202-3.25,8.444-3.282,11.677-0.081c2.75,2.714,9.371,5.879,18.976,5.879c9.605,0,16.226-3.165,18.976-5.879
	c3.234-3.202,8.476-3.169,11.677,0.081c3.202,3.246,3.169,8.476-0.081,11.677C279.823,243.766,268.387,247.742,256,247.742z"/>
<g>
	<path style="fill:#A06E50;" d="M214.711,156.903h-16.516c-4.565,0-8.258-3.698-8.258-8.258s3.694-8.258,8.258-8.258h16.516
		c4.565,0,8.258,3.698,8.258,8.258S219.275,156.903,214.711,156.903z"/>
	<path style="fill:#A06E50;" d="M313.806,156.903H297.29c-4.565,0-8.258-3.698-8.258-8.258s3.694-8.258,8.258-8.258h16.516
		c4.565,0,8.258,3.698,8.258,8.258S318.371,156.903,313.806,156.903z"/>
</g>
<g>
	<path style="fill:#A5CDFF;" d="M173.42,371.613v-17.488l-41.29,12.144V512h247.742V366.269l-41.29-12.144v17.488
		c0,45.608-36.973,82.581-82.581,82.581S173.42,417.221,173.42,371.613z"/>
	<path style="fill:#A5CDFF;" d="M376.059,107.355l2.425-31.527l-0.553-0.163c3.895-2.593,7.266-5.876,10.08-9.6H130.833
		c0.003,2.173,0.081,4.362,0.302,6.574l3.472,34.717h30.555h181.677L376.059,107.355L376.059,107.355z"/>
</g>
<path style="fill:#8CB4EB;" d="M297.29,99.097c9.945,0,18.945-3.66,26.073-9.516c9.112,6.001,20.007,9.516,31.734,9.516
	c7.767,0,15.165-1.556,21.931-4.334l1.457-18.934l-0.553-0.163c3.895-2.593,7.266-5.876,10.08-9.6h-131.18
	C260.659,84.911,277.315,99.097,297.29,99.097z"/>
<path style="fill:#A06E50;" d="M256.806,66.064L256.806,66.064h24.774V49.548h-8.258C264.201,49.548,256.806,56.943,256.806,66.064z
	"/>
<g>
	<circle style="fill:#B67F5F;" cx="355.1" cy="41.29" r="41.29"/>
	<circle style="fill:#B67F5F;" cx="297.29" cy="57.806" r="24.774"/>
</g>
<g>
	<path style="fill:#8CB4EB;" d="M130.833,66.065c0.003,2.173,0.081,4.362,0.302,6.574l3.472,34.717h30.555v-41.29L130.833,66.065
		L130.833,66.065z"/>
	<path style="fill:#8CB4EB;" d="M338.581,354.125v17.488c0,45.608-36.973,82.581-82.581,82.581s-82.581-36.973-82.581-82.581
		v-17.488l-16.516,4.858v12.63c0,54.729,44.367,99.097,99.097,99.097s99.097-44.367,99.097-99.097v-12.63L338.581,354.125z"/>
</g>
<path style="fill:#F0C382;" d="M132.13,454.194L132.13,454.194V512h-24.774v-33.032C107.356,465.285,118.448,454.194,132.13,454.194
	z"/>
<path style="fill:#8CB4EB;" d="M132.13,512h16.516v-41.29c0-9.122-7.395-16.516-16.516-16.516l0,0V512z"/>
<path style="fill:#F0C382;" d="M379.871,454.194L379.871,454.194V512h24.774v-33.032
	C404.645,465.285,393.553,454.194,379.871,454.194z"/>
<path style="fill:#8CB4EB;" d="M379.871,512h-16.516v-41.29c0-9.122,7.395-16.516,16.516-16.516l0,0V512z"/>
<g>
</g>
<g>
</g>
<g>
</g>
<g>
</g>
<g>
</g>
<g>
</g>
<g>
</g>
<g>
</g>
<g>
</g>
<g>
</g>
<g>
</g>
<g>
</g>
<g>
</g>
<g>
</g>
<g>
</g>
</svg>
