<?xml version="1.0" encoding="iso-8859-1"?>
<!-- Generator: Adobe Illustrator 19.0.0, SVG Export Plug-In . SVG Version: 6.00 Build 0)  -->
<svg version="1.1" id="Capa_1" xmlns="http://www.w3.org/2000/svg" xmlns:xlink="http://www.w3.org/1999/xlink" x="0px" y="0px"
	 viewBox="0 0 512 512" style="enable-background:new 0 0 512 512;" xml:space="preserve">
<path style="fill:#E3AA75;" d="M412.878,384.684l-85.291-30.103c-13.207-4.661-22.039-17.144-22.039-31.149v-42.657H206.45v42.657
	c0,14.005-8.832,26.488-22.038,31.149l-85.291,30.103c-19.81,6.992-33.057,25.716-33.057,46.723v55.819
	c0,13.682,11.092,24.774,24.774,24.774h330.323c13.682,0,24.774-11.092,24.774-24.774v-55.818
	C445.935,410.4,432.688,391.676,412.878,384.684z"/>
<path style="fill:#FFD164;" d="M412.877,384.683l-68.239-24.085l-7.357,18.392c-14.275,35.688-46.126,58.686-81.274,58.686h-0.014
	c-35.148,0-66.999-22.999-81.274-58.686l-7.357-18.392l-68.24,24.085c-19.81,6.992-33.057,25.716-33.057,46.724v55.819
	c0,13.682,11.092,24.774,24.774,24.774h330.323c13.682,0,24.774-11.092,24.774-24.774v-55.819
	C445.935,410.399,432.688,391.675,412.877,384.683z"/>
<path style="fill:#D29B6E;" d="M256,313.806c17.548,0,34.301-3.824,49.548-10.567v-22.466h-99.097v22.466
	C221.699,309.982,238.452,313.806,256,313.806z"/>
<path style="fill:#F5B97D;" d="M367.484,165.161h-4.129V74.323h-214.71v90.839h-4.129c-11.402,0-20.645,9.243-20.645,20.645
	c0,11.401,9.243,20.645,20.645,20.645h5.529c7.963,51.427,52.296,90.839,105.955,90.839s97.992-39.411,105.956-90.839h5.528
	c11.402,0,20.645-9.244,20.645-20.645C388.129,174.404,378.885,165.161,367.484,165.161z"/>
<rect x="272.52" y="156.9" style="fill:#E3AA75;" width="74.32" height="16.516"/>
<path style="fill:#FFE1A0;" d="M277.702,190.968c-3.895,0-7.363-2.766-8.105-6.734c-1.21-6.419-6.927-11.073-13.597-11.073
	c-6.669,0-12.387,4.653-13.597,11.073c-0.839,4.484-5.161,7.452-9.637,6.589c-4.484-0.839-7.435-5.153-6.589-9.637
	c2.669-14.218,15.21-24.54,29.823-24.54s27.153,10.323,29.823,24.54c0.847,4.484-2.105,8.798-6.589,9.637
	C278.717,190.919,278.21,190.968,277.702,190.968z"/>
<path style="fill:#E3AA75;" d="M327.945,74.323h-179.3v90.839h-2.951c-10.799,0-20.64,7.769-21.716,18.514
	c-1.238,12.358,8.433,22.776,20.538,22.776h5.529c7.963,51.427,52.296,90.839,105.955,90.839c5.672,0,11.21-0.532,16.642-1.381
	c-43.915-6.745-79.057-40.018-88.45-82.978c-1.512-6.913,1.731-14.048,7.864-17.578c33.336-19.189,74.002-47.031,111.217-84.877
	C313.594,99.978,321.807,87.786,327.945,74.323z"/>
<path style="fill:#B67F5F;" d="M256,247.742c-12.395,0-23.823-3.976-30.573-10.637c-3.25-3.21-3.282-8.435-0.081-11.677
	c3.218-3.25,8.444-3.282,11.677-0.081c2.75,2.71,9.363,5.879,18.976,5.879s16.226-3.169,18.976-5.879
	c3.234-3.202,8.46-3.169,11.677,0.081c3.202,3.242,3.169,8.468-0.081,11.677C279.823,243.766,268.395,247.742,256,247.742z"/>
<g>
	<path style="fill:#5A4650;" d="M206.452,189.935c-4.565,0-8.258-3.694-8.258-8.258v-8.258c0-4.565,3.694-8.258,8.258-8.258
		s8.258,3.694,8.258,8.258v8.258C214.71,186.242,211.016,189.935,206.452,189.935z"/>
	<path style="fill:#5A4650;" d="M305.548,189.935c-4.565,0-8.258-3.694-8.258-8.258v-8.258c0-4.565,3.694-8.258,8.258-8.258
		c4.565,0,8.258,3.694,8.258,8.258v8.258C313.806,186.242,310.113,189.935,305.548,189.935z"/>
</g>
<path style="fill:#FFFFFF;" d="M162.199,186.347l-5.218-36.532c-0.339-2.371,0.371-4.774,1.935-6.581
	c1.573-1.806,3.847-2.847,6.242-2.847h74.323c2.395,0,4.669,1.04,6.242,2.847c1.565,1.806,2.274,4.21,1.935,6.581l-4.21,29.444
	c-2.887,20.21-20.46,35.452-40.871,35.452H194.9C178.57,214.71,164.506,202.516,162.199,186.347z M174.683,156.903l3.871,27.105
	c1.153,8.089,8.177,14.185,16.347,14.185h7.677c12.25,0,22.79-9.145,24.516-21.274l2.863-20.016L174.683,156.903L174.683,156.903z"
	/>
<path style="fill:#A06E50;" d="M313.806,16.516h-24.774v66.065c39.57,87.054,90.839,86.726,90.839,86.726V82.581
	C379.871,46.095,350.293,16.516,313.806,16.516z"/>
<path style="fill:#8C5F4B;" d="M309.477,17.752c-5.497-7.117-13.039-12.667-22.226-15.524C282.596,0.78,277.647,0,272.516,0H256
	c-67.995,0-133.849,57.806-133.849,132.129c0,33.452-2.19,55.611-4.034,68.345c-0.872,6.019,5.123,10.643,10.719,8.262
	c29.074-12.371,100.893-47.023,162.66-109.84c9.808-9.975,17.604-21.793,22.992-34.703
	C320.881,48.876,319.622,30.887,309.477,17.752z"/>
<g>
	<path style="fill:#FFE17D;" d="M396.54,443.597l42.393-37.308c-2.819-4.77-6.396-9.036-10.653-12.637l-42.651,37.542
		c-8.911,7.831-14.016,19.129-14.016,31V512h16.516v-49.806C388.129,455.073,391.194,448.29,396.54,443.597z"/>
	<path style="fill:#FFE17D;" d="M115.46,443.597l-42.393-37.308c2.819-4.77,6.396-9.036,10.653-12.637l42.651,37.542
		c8.911,7.831,14.016,19.129,14.016,31V512h-16.516v-49.806C123.871,455.073,120.806,448.29,115.46,443.597z"/>
</g>
<path style="fill:#FFFFFF;" d="M317.096,214.71h-7.677c-20.411,0-37.984-15.242-40.871-35.452l-4.21-29.444
	c-0.339-2.371,0.371-4.774,1.935-6.581c1.573-1.806,3.847-2.847,6.242-2.847h74.323c2.395,0,4.669,1.04,6.242,2.847
	c1.565,1.806,2.274,4.21,1.935,6.581l-5.218,36.532C347.492,202.516,333.427,214.71,317.096,214.71z M282.04,156.903l2.863,20.016
	c1.726,12.129,12.266,21.274,24.516,21.274h7.677c8.169,0,15.194-6.097,16.347-14.185l3.871-27.105L282.04,156.903L282.04,156.903z"
	/>
<g>
</g>
<g>
</g>
<g>
</g>
<g>
</g>
<g>
</g>
<g>
</g>
<g>
</g>
<g>
</g>
<g>
</g>
<g>
</g>
<g>
</g>
<g>
</g>
<g>
</g>
<g>
</g>
<g>
</g>
</svg>
