<?xml version="1.0" encoding="iso-8859-1"?>
<!-- Generator: Adobe Illustrator 19.0.0, SVG Export Plug-In . SVG Version: 6.00 Build 0)  -->
<svg version="1.1" id="Capa_1" xmlns="http://www.w3.org/2000/svg" xmlns:xlink="http://www.w3.org/1999/xlink" x="0px" y="0px"
	 viewBox="0 0 512 512" style="enable-background:new 0 0 512 512;" xml:space="preserve">
<g>
	<path style="fill:#8C5F4B;" d="M165.16,165.161c-0.28,0-0.549,0.038-0.828,0.042c-4.266-21.12-24.636-36.402-47.751-32.45
		c-16.289,2.785-29.72,15.638-33.081,31.818c-3.69,17.765,4.051,34.038,17.202,42.961c4.628,3.139,6.779,8.669,6.664,14.26
		c-0.118,5.717,0.622,11.646,2.441,17.707c6.369,21.222,24.753,37.455,46.679,40.643c35.776,5.201,66.481-22.401,66.481-57.174
		C222.967,191.042,197.086,165.161,165.16,165.161z"/>
	<path style="fill:#8C5F4B;" d="M346.838,165.161c0.28,0,0.549,0.038,0.828,0.042c4.266-21.12,24.636-36.402,47.751-32.45
		c16.289,2.785,29.72,15.638,33.081,31.818c3.69,17.765-4.051,34.038-17.202,42.961c-4.628,3.139-6.779,8.669-6.664,14.26
		c0.118,5.717-0.622,11.646-2.441,17.707c-6.369,21.222-24.753,37.455-46.679,40.643c-35.776,5.201-66.481-22.401-66.481-57.174
		C289.031,191.042,314.912,165.161,346.838,165.161z"/>
	<path style="fill:#8C5F4B;" d="M255.999,0C183.026,0,123.87,59.156,123.87,132.129v45.42h264.258v-45.42
		C388.128,59.156,328.972,0,255.999,0z"/>
</g>
<path style="fill:#E3AA75;" d="M412.877,368.204l-85.291-30.103c-13.207-4.661-22.039-17.144-22.039-31.149V256H206.45v50.952
	c0,14.005-8.832,26.488-22.038,31.149l-85.291,30.103c-19.81,6.992-33.057,25.716-33.057,46.723v72.299
	c0,13.682,11.092,24.774,24.774,24.774h330.323c13.682,0,24.774-11.092,24.774-24.774v-72.299
	C445.934,393.919,432.687,375.195,412.877,368.204z"/>
<path style="fill:#B4F09B;" d="M412.877,368.204l-85.291-30.103c-5.471-1.931-10.128-5.256-13.781-9.424v14.033
	c0,34.206-27.729,61.935-61.935,61.935s-61.935-27.729-61.935-61.935v-7.217c-1.747,1.011-3.569,1.919-5.522,2.608l-85.291,30.103
	c-19.81,6.991-33.057,25.716-33.057,46.723v72.299c0,13.682,11.092,24.774,24.774,24.774h330.323
	c13.682,0,24.774-11.092,24.774-24.774v-72.299C445.934,393.919,432.687,375.195,412.877,368.204z"/>
<path style="fill:#9BDC9B;" d="M160.565,416.114c7.746,18.574,25.714,30.576,45.773,30.576c4.045,0,8.096-0.5,12.041-1.486
	l37.62-9.406l37.619,9.405c3.946,0.986,7.997,1.486,12.042,1.486c20.059,0,38.027-12.002,45.773-30.576
	c8.426-20.203,12.872-42.429,13.165-64.95l-37.013-13.064c-5.471-1.931-10.128-5.256-13.781-9.424v14.033
	c0,34.206-27.729,61.935-61.935,61.935s-61.935-27.729-61.935-61.935v-7.217c-1.747,1.011-3.569,1.919-5.522,2.608l-37.013,13.065
	C147.693,373.684,152.138,395.911,160.565,416.114z"/>
<path style="fill:#D29B6E;" d="M206.451,303.587c15.198,6.584,31.957,10.219,49.548,10.219s34.35-3.636,49.548-10.219v-31.071
	H206.45L206.451,303.587L206.451,303.587z"/>
<path style="fill:#F5B97D;" d="M367.483,156.903c0,0-11.058-1.332-14.441-2.268c-18.762-5.195-59.382-21.416-90.152-68.842
	c-3.242-4.997-10.54-4.997-13.782,0c-30.77,47.425-71.39,63.647-90.152,68.842c-3.383,0.936-14.441,2.268-14.441,2.268
	c-12.104,0-21.775,10.416-20.538,22.774c1.076,10.745,10.916,18.516,21.715,18.516h3.369c4.23,55.419,50.435,99.097,106.938,99.097
	s102.708-43.678,106.938-99.097h3.369c10.799,0,20.64-7.771,21.715-18.516C389.258,167.319,379.587,156.903,367.483,156.903z"/>
<path style="fill:#E3AA75;" d="M353.042,154.635c-18.742-5.191-59.297-21.383-90.055-68.694c-3.29-5.061-10.681-5.069-13.971-0.008
	c-21.246,32.684-47.161,50.508-67.339,60.124c-9.034,4.304-16.924,6.973-22.72,8.578c-3.383,0.936-14.441,2.268-14.441,2.268
	c-12.104,0-21.774,10.415-20.538,22.773c1.075,10.746,10.915,18.518,21.715,18.518h3.369c4.23,55.419,50.435,99.097,106.938,99.097
	c5.632,0,11.118-0.564,16.516-1.4c-47.149-7.3-84.197-45.17-90.036-92.77c-0.867-7.071-0.671-14.248,0.207-21.319
	c0.715-5.761,2.424-11.468,5.766-16.215c2.938-4.173,6.759-7.697,11.276-10.259c18.064-10.246,38.285-26.081,56.271-50.479
	c21.545,29.226,46.297,46.164,66.709,55.929c14.56,6.966,31.704,5.594,44.775-3.876
	C367.483,156.903,356.424,155.572,353.042,154.635z"/>
<g>
	<path style="fill:#5A4650;" d="M206.459,182.395c-4.565,0-8.258-3.698-8.258-8.258v-8.258c0-4.56,3.694-8.258,8.258-8.258
		c4.565,0,8.258,3.698,8.258,8.258v8.258C214.717,178.698,211.023,182.395,206.459,182.395z"/>
	<path style="fill:#5A4650;" d="M305.555,182.395c-4.565,0-8.258-3.698-8.258-8.258v-8.258c0-4.56,3.694-8.258,8.258-8.258
		s8.258,3.698,8.258,8.258v8.258C313.814,178.698,310.12,182.395,305.555,182.395z"/>
</g>
<path style="fill:#B67F5F;" d="M256.007,240.202c-12.387,0-23.823-3.976-30.573-10.637c-3.25-3.202-3.282-8.431-0.081-11.677
	s8.444-3.282,11.677-0.081c2.75,2.714,9.371,5.879,18.976,5.879c9.605,0,16.226-3.165,18.976-5.879
	c3.234-3.202,8.476-3.165,11.677,0.081c3.202,3.246,3.169,8.476-0.081,11.677C279.83,236.226,268.394,240.202,256.007,240.202z"/>
<path style="fill:#A06E50;" d="M275.2,1.551c-1.685,7.485-2.685,15.226-2.685,23.223c0,59.29,48.065,107.355,107.355,107.355
	c2.781,0,5.51-0.208,8.237-0.416C387.9,65.468,338.913,10.852,275.2,1.551z"/>
<path style="fill:#FFD164;" d="M260.128,495.484h-8.258c-4.561,0-8.258-3.697-8.258-8.258v-74.323h24.774v74.323
	C268.386,491.787,264.689,495.484,260.128,495.484z"/>
<g>
	<path style="fill:#9BDC9B;" d="M140.394,512v-58.597c0-12.141-5.306-23.605-14.548-31.456l-47.058-40.016
		c-3.736,4.172-6.701,8.955-8.848,14.152l45.213,38.448c5.548,4.71,8.726,11.589,8.726,18.871V512H140.394z"/>
	<path style="fill:#9BDC9B;" d="M371.612,512v-58.597c0-12.141,5.306-23.605,14.548-31.456l47.058-40.016
		c3.736,4.172,6.701,8.955,8.848,14.152l-45.213,38.448c-5.548,4.71-8.726,11.589-8.726,18.871V512H371.612z"/>
</g>
<polygon style="fill:#FFC350;" points="243.612,438.895 255.999,435.798 268.386,438.895 268.386,412.903 243.612,412.903 "/>
<path style="fill:#FFE17D;" d="M305.539,313.806l31.231,10.62c6.327,2.206,10.707,8.048,11.101,14.737
	c1.762,29.875-4.756,53.989-11.681,70.593c-6.312,15.134-22.657,23.401-38.566,19.424l-41.625-10.406l-41.626,10.407
	c-15.908,3.977-32.254-4.29-38.566-19.424c-6.925-16.604-13.444-40.718-11.681-70.593c0.394-6.689,4.775-12.531,11.101-14.737
	l31.231-10.62l-0.008-0.266v24.774c0,27.365,22.184,49.548,49.548,49.548c27.364,0,49.548-22.184,49.548-49.548v-24.774"/>
<g>
	<polygon style="fill:#FFD164;" points="305.539,313.806 305.547,313.809 305.547,313.541 	"/>
	<polygon style="fill:#FFD164;" points="206.451,313.541 206.451,313.809 206.459,313.806 	"/>
	<path style="fill:#FFD164;" d="M255.999,404.645c36.486,0,66.065-29.578,66.065-66.065v-19.155l-16.516-5.616v24.506
		c0,27.365-22.183,49.548-49.548,49.548s-49.548-22.183-49.548-49.548v-24.506l-16.516,5.616v19.155
		C189.934,375.067,219.513,404.645,255.999,404.645z"/>
</g>
<g>
</g>
<g>
</g>
<g>
</g>
<g>
</g>
<g>
</g>
<g>
</g>
<g>
</g>
<g>
</g>
<g>
</g>
<g>
</g>
<g>
</g>
<g>
</g>
<g>
</g>
<g>
</g>
<g>
</g>
</svg>
