<?xml version="1.0" encoding="iso-8859-1"?>
<!-- Generator: Adobe Illustrator 19.0.0, SVG Export Plug-In . SVG Version: 6.00 Build 0)  -->
<svg version="1.1" id="Capa_1" xmlns="http://www.w3.org/2000/svg" xmlns:xlink="http://www.w3.org/1999/xlink" x="0px" y="0px"
	 viewBox="0 0 512 512" style="enable-background:new 0 0 512 512;" xml:space="preserve">
<path style="fill:#B67F5F;" d="M410.211,378.084l-79.82-23.477c-10.376-3.052-17.502-12.575-17.502-23.39v-38.646H199.111v38.646
	c0,10.816-7.125,20.339-17.502,23.39l-79.82,23.477c-24.211,7.121-40.837,29.341-40.837,54.577v54.958
	c0,13.465,10.916,24.381,24.381,24.381h341.333c13.465,0,24.381-10.916,24.381-24.381v-54.958
	C451.048,407.425,434.422,385.205,410.211,378.084z"/>
<path id="SVGCleanerId_0" style="fill:#A06E50;" d="M199.111,310.707c17.074,9.12,36.437,14.372,56.889,14.372
	s39.815-5.252,56.889-14.372v-18.136H199.111V310.707z"/>
<g>
	<path id="SVGCleanerId_0_1_" style="fill:#A06E50;" d="M199.111,310.707c17.074,9.12,36.437,14.372,56.889,14.372
		s39.815-5.252,56.889-14.372v-18.136H199.111V310.707z"/>
</g>
<path style="fill:#6E5A64;" d="M312.889,512h113.778c13.465,0,24.381-10.916,24.381-24.381v-54.958
	c0-25.236-16.626-47.456-40.837-54.577l-79.82-23.477c-9.729-2.862-16.519-11.431-17.339-21.401h-0.163V512z"/>
<path style="fill:#5A4650;" d="M361.651,512l13.979-62.906c1.385-6.232-1.007-12.698-6.115-16.529l-16.419-12.314
	c-4.748-3.561-7.178-9.427-6.338-15.302l5.778-40.444c0.668-4.679-0.682-9.431-3.82-12.966
	c-6.533-7.359-19.316-18.975-35.827-20.321V512H361.651z"/>
<path style="fill:#6E5A64;" d="M199.111,512H85.333c-13.465,0-24.381-10.916-24.381-24.381v-54.958
	c0-25.236,16.626-47.456,40.837-54.577l79.82-23.477c9.729-2.862,16.519-11.431,17.339-21.401h0.163L199.111,512L199.111,512z"/>
<path style="fill:#5A4650;" d="M150.349,512l-13.979-62.906c-1.385-6.232,1.007-12.698,6.115-16.529l16.419-12.314
	c4.748-3.561,7.178-9.427,6.338-15.302l-5.778-40.444c-0.668-4.679,0.682-9.431,3.82-12.966
	c6.533-7.359,19.316-18.975,35.827-20.321V512H150.349z"/>
<path style="fill:#DC4655;" d="M256,414.476c-21.612,0-41.432-7.67-56.889-20.436V512h113.778V394.04
	C297.432,406.806,277.612,414.476,256,414.476z"/>
<path style="fill:#FF8087;" d="M312.889,413.964v-43.012c-13.419,16.609-33.921,27.271-56.889,27.271s-43.47-10.662-56.889-27.271
	v43.012c16.442,10.561,35.938,16.766,56.889,16.766S296.446,424.525,312.889,413.964z"/>
<path style="fill:#5A4650;" d="M292.572,284.444h-73.143c-78.547,0-142.222-63.675-142.222-142.222l0,0
	C77.206,63.675,140.881,0,219.428,0h73.143c78.547,0,142.222,63.675,142.222,142.222l0,0
	C434.794,220.769,371.119,284.444,292.572,284.444z"/>
<path style="fill:#CD916E;" d="M364.555,170.667h-2.905c-8.977,0-16.254-7.277-16.254-16.254v-40.635
	c0-8.977-7.277-16.254-16.254-16.254H182.857c-8.977,0-16.254,7.277-16.254,16.254v40.635c0,8.977-7.277,16.254-16.254,16.254
	h-2.905c-10.628,0-20.312,7.647-21.371,18.221c-1.218,12.162,8.3,22.414,20.212,22.414h4.474
	c4.163,54.539,49.634,97.524,105.24,97.524s101.077-42.985,105.24-97.524h4.474c11.912,0,21.43-10.252,20.212-22.414
	C384.868,178.313,375.183,170.667,364.555,170.667z"/>
<path style="fill:#B67F5F;" d="M329.143,97.524L329.143,97.524H182.857c-8.977,0-16.254,7.277-16.254,16.254v40.635
	c0,8.977-7.277,16.254-16.254,16.254h-2.903c-10.628,0-20.313,7.647-21.372,18.221c-1.218,12.162,8.299,22.414,20.212,22.414h4.474
	c4.163,54.539,49.634,97.524,105.24,97.524c5.559,0,10.98-0.542,16.305-1.37c-50.637-7.814-89.448-51.456-89.448-104.281v-56.889
	c0-17.954,14.554-32.508,32.508-32.508h97.524C321.866,113.778,329.143,106.501,329.143,97.524z"/>
<path style="fill:#A06E50;" d="M256,260.064c-12.19,0-23.444-3.913-30.087-10.468c-3.198-3.151-3.23-8.298-0.079-11.492
	c3.151-3.198,8.31-3.23,11.492-0.079c2.706,2.671,9.222,5.786,18.675,5.786c9.452,0,15.968-3.115,18.675-5.786
	c3.183-3.151,8.341-3.119,11.492,0.079c3.151,3.194,3.119,8.341-0.079,11.492C279.444,256.151,268.19,260.064,256,260.064z"/>
<path style="fill:#FFFFFF;" d="M312.537,162.54H199.463c-14.408,0-27.883,9.043-31.707,22.935
	c-3.648,13.256,1.604,26.837,12.363,34.295c5.333,3.694,11.587,5.595,17.905,5.595c3.714,0,7.444-0.659,11.016-1.996h0.008
	l18.444-6.917c12.259-4.597,20.381-16.317,20.381-29.41v-0.122c0-4.488,3.639-8.127,8.127-8.127l0,0
	c4.488,0,8.127,3.639,8.127,8.127v0.122c0,13.093,8.122,24.812,20.381,29.41l18.444,6.917h0.008
	c3.571,1.337,7.302,1.996,11.016,1.996c6.31,0,12.571-1.901,17.905-5.595c10.759-7.459,16.012-21.039,12.363-34.295
	C340.421,171.583,326.946,162.54,312.537,162.54z"/>
<g>
	<path style="fill:#E6646E;" d="M231.619,187.036c0,6.286-3.952,11.988-9.841,14.194l-18.444,6.917
		c-4.722,1.786-9.802,1.143-13.952-1.734c-4.143-2.873-6.524-7.417-6.524-12.46c0-8.357,6.802-15.159,15.159-15.159h33.603
		L231.619,187.036L231.619,187.036z"/>
	<path style="fill:#E6646E;" d="M322.619,206.413c-4.151,2.869-9.238,3.512-13.952,1.734l-18.444-6.917
		c-5.889-2.206-9.841-7.909-9.841-14.194v-8.242h33.603c8.357,0,15.159,6.802,15.159,15.159
		C329.143,198.996,326.762,203.54,322.619,206.413z"/>
</g>
<g>
	<path style="fill:#DC4655;" d="M207.238,195.048L207.238,195.048c-4.488,0-8.127-3.639-8.127-8.127v-8.127h16.254v8.127
		C215.365,191.409,211.727,195.048,207.238,195.048z"/>
	<path style="fill:#DC4655;" d="M304.762,195.048L304.762,195.048c-4.488,0-8.127-3.639-8.127-8.127v-8.127h16.254v8.127
		C312.889,191.409,309.25,195.048,304.762,195.048z"/>
</g>
<g>
</g>
<g>
</g>
<g>
</g>
<g>
</g>
<g>
</g>
<g>
</g>
<g>
</g>
<g>
</g>
<g>
</g>
<g>
</g>
<g>
</g>
<g>
</g>
<g>
</g>
<g>
</g>
<g>
</g>
</svg>
