<svg width="206" height="156" viewBox="0 0 206 156" fill="none" xmlns="http://www.w3.org/2000/svg">
<mask id="mask0_2048:7859" style="mask-type:alpha" maskUnits="userSpaceOnUse" x="0" y="0" width="206" height="156">
<rect width="206" height="156" rx="8" fill="#C4C4C4"/>
</mask>
<g mask="url(#mask0_2048:7859)">
<rect y="22" width="206" height="139" fill="#ECEFF5"/>
<path d="M47 94.5C47 98.6421 43.6421 102 39.5 102C35.3579 102 32 98.6421 32 94.5C32 90.3579 35.3579 87 39.5 87C43.6421 87 47 90.3579 47 94.5Z" fill="#94A4C4"/>
<path d="M42.593 97.2498C42.1488 96.4465 41.4374 95.844 40.5956 95.5581C40.9989 95.3062 41.3122 94.9222 41.4875 94.4651C41.6628 94.0081 41.6903 93.5033 41.5659 93.0282C41.4415 92.5531 41.172 92.1341 40.7987 91.8354C40.4255 91.5368 39.9692 91.375 39.5 91.375C39.0307 91.375 38.5744 91.5368 38.2012 91.8354C37.828 92.1341 37.5585 92.5531 37.434 93.0282C37.3096 93.5033 37.3372 94.0081 37.5125 94.4651C37.6878 94.9222 38.0011 95.3062 38.4044 95.5581C37.5626 95.844 36.8512 96.4465 36.407 97.2498C36.3861 97.2878 36.375 97.3309 36.375 97.3748C36.375 97.4187 36.386 97.4618 36.4068 97.4999C36.4277 97.5379 36.4578 97.5695 36.494 97.5914C36.5302 97.6134 36.5713 97.6249 36.6131 97.6249L42.3869 97.625C42.4287 97.625 42.4698 97.6134 42.506 97.5915C42.5422 97.5695 42.5723 97.5379 42.5932 97.4999C42.614 97.4619 42.625 97.4188 42.625 97.3749C42.625 97.331 42.6139 97.2878 42.593 97.2498L42.593 97.2498Z" fill="#ECEFF5"/>
<path d="M74 93C74 97.9706 69.9706 102 65 102C60.0294 102 56 97.9706 56 93C56 88.0294 60.0294 84 65 84C69.9706 84 74 88.0294 74 93Z" fill="#94A4C4"/>
<path d="M68.7116 96.2998C68.1785 95.3358 67.3248 94.6128 66.3147 94.2697C66.7986 93.9674 67.1746 93.5066 67.385 92.9582C67.5953 92.4097 67.6284 91.8039 67.4791 91.2338C67.3298 90.6637 67.0063 90.1609 66.5585 89.8025C66.1106 89.4441 65.5631 89.25 65 89.25C64.4369 89.25 63.8893 89.4441 63.4415 89.8025C62.9936 90.1609 62.6702 90.6637 62.5209 91.2338C62.3715 91.8039 62.4046 92.4097 62.615 92.9582C62.8253 93.5066 63.2013 93.9674 63.6852 94.2697C62.6751 94.6127 61.8215 95.3358 61.2884 96.2997C61.2633 96.3453 61.25 96.3971 61.25 96.4498C61.25 96.5024 61.2631 96.5542 61.2882 96.5998C61.3133 96.6455 61.3493 96.6834 61.3928 96.7097C61.4362 96.7361 61.4855 96.7499 61.5357 96.7499L68.4643 96.75C68.5145 96.75 68.5638 96.7361 68.6072 96.7098C68.6507 96.6834 68.6867 96.6455 68.7118 96.5999C68.7369 96.5543 68.75 96.5025 68.75 96.4498C68.75 96.3972 68.7367 96.3454 68.7116 96.2998L68.7116 96.2998Z" fill="#ECEFF5"/>
<path d="M104 91.5C104 97.299 99.299 102 93.5 102C87.701 102 83 97.299 83 91.5C83 85.701 87.701 81 93.5 81C99.299 81 104 85.701 104 91.5Z" fill="#94A4C4"/>
<path d="M97.8302 95.3498C97.2083 94.2251 96.2123 93.3815 95.0338 92.9813C95.5984 92.6286 96.0371 92.091 96.2825 91.4512C96.5279 90.8113 96.5665 90.1046 96.3923 89.4395C96.2181 88.7744 95.8407 88.1877 95.3182 87.7696C94.7957 87.3515 94.1569 87.125 93.5 87.125C92.843 87.125 92.2042 87.3515 91.6817 87.7696C91.1592 88.1877 90.7819 88.7744 90.6077 89.4395C90.4335 90.1046 90.472 90.8113 90.7174 91.4512C90.9629 92.091 91.4015 92.6286 91.9661 92.9813C90.7877 93.3815 89.7917 94.2251 89.1698 95.3497C89.1405 95.4029 89.125 95.4633 89.125 95.5247C89.125 95.5862 89.1403 95.6466 89.1696 95.6998C89.1988 95.753 89.2409 95.7972 89.2916 95.828C89.3423 95.8587 89.3998 95.8749 89.4583 95.8749L97.5417 95.875C97.6002 95.875 97.6577 95.8588 97.7084 95.8281C97.7591 95.7973 97.8012 95.7531 97.8304 95.6999C97.8597 95.6466 97.875 95.5863 97.875 95.5248C97.875 95.4633 97.8595 95.403 97.8302 95.3498L97.8302 95.3498Z" fill="#ECEFF5"/>
<path d="M136 90.5C136 96.8513 130.851 102 124.5 102C118.149 102 113 96.8513 113 90.5C113 84.1487 118.149 79 124.5 79C130.851 79 136 84.1487 136 90.5Z" fill="#94A4C4"/>
<path d="M129.243 94.7171C128.562 93.4853 127.471 92.5614 126.181 92.1231C126.799 91.7368 127.279 91.148 127.548 90.4472C127.817 89.7464 127.859 88.9723 127.668 88.2439C127.478 87.5154 127.064 86.8729 126.492 86.4149C125.92 85.957 125.22 85.709 124.501 85.709C123.781 85.709 123.081 85.957 122.509 86.4149C121.937 86.8729 121.524 87.5154 121.333 88.2439C121.142 88.9723 121.184 89.7464 121.453 90.4472C121.722 91.148 122.202 91.7368 122.821 92.1231C121.53 92.5614 120.439 93.4852 119.758 94.717C119.726 94.7752 119.709 94.8414 119.709 94.9087C119.709 94.976 119.726 95.0421 119.758 95.1004C119.79 95.1587 119.836 95.2072 119.891 95.2408C119.947 95.2745 120.01 95.2922 120.074 95.2922L128.927 95.2923C128.991 95.2923 129.054 95.2746 129.11 95.2409C129.165 95.2073 129.211 95.1588 129.243 95.1005C129.276 95.0422 129.292 94.9761 129.292 94.9088C129.292 94.8415 129.275 94.7753 129.243 94.7171L129.243 94.7171Z" fill="#ECEFF5"/>
<path d="M173 88C173 95.732 166.732 102 159 102C151.268 102 145 95.732 145 88C145 80.268 151.268 74 159 74C166.732 74 173 80.268 173 88Z" fill="#94A4C4"/>
<path d="M164.775 93.1343C163.946 91.6348 162.618 90.51 161.046 89.9764C161.799 89.5061 162.384 88.7894 162.711 87.9362C163.038 87.0831 163.09 86.1407 162.858 85.2539C162.625 84.3671 162.122 83.5849 161.426 83.0274C160.729 82.4699 159.877 82.168 159.001 82.168C158.125 82.168 157.274 82.4699 156.577 83.0274C155.88 83.5849 155.377 84.3671 155.145 85.2539C154.913 86.1407 154.964 87.0831 155.291 87.9362C155.618 88.7894 156.203 89.5061 156.956 89.9764C155.385 90.51 154.057 91.6347 153.228 93.1342C153.189 93.2052 153.168 93.2856 153.168 93.3676C153.168 93.4495 153.188 93.53 153.227 93.601C153.266 93.672 153.322 93.731 153.39 93.772C153.458 93.8129 153.534 93.8345 153.612 93.8345L164.39 93.8346C164.468 93.8346 164.545 93.8131 164.613 93.7721C164.68 93.7311 164.736 93.6721 164.775 93.6012C164.814 93.5302 164.835 93.4496 164.835 93.3677C164.835 93.2858 164.814 93.2053 164.775 93.1343L164.775 93.1343Z" fill="#ECEFF5"/>
<path d="M0 23.0859L-8.78013e-07 2.99933C-9.74578e-07 0.790195 1.79086 -1.00066 4 -1.00066L283.969 -1.00068L283.969 23.0859L0 23.0859Z" fill="#94A4C4"/>
<circle cx="12.0977" cy="11.0958" r="3.78716" fill="white"/>
<circle cx="24.7168" cy="11.0958" r="3.78716" fill="white"/>
<circle cx="37.3438" cy="11.0958" r="3.78716" fill="white"/>
</g>
</svg>
