<svg width="221" height="213" viewBox="0 0 221 213" fill="none" xmlns="http://www.w3.org/2000/svg">
<g opacity="0.24">
<path d="M113.046 197.327C122.203 197.327 130.481 198.208 136.456 199.624C139.448 200.333 141.832 201.169 143.457 202.078C145.125 203.012 145.805 203.914 145.805 204.688C145.805 205.461 145.125 206.363 143.457 207.297C141.832 208.206 139.448 209.042 136.456 209.751C130.481 211.167 122.203 212.048 113.046 212.048C103.89 212.048 95.6114 211.167 89.6367 209.751C86.6452 209.042 84.2604 208.206 82.6362 207.297C80.9681 206.363 80.2879 205.461 80.2879 204.688C80.2879 203.914 80.9681 203.012 82.6362 202.078C84.2604 201.169 86.6452 200.333 89.6367 199.624C95.6114 198.208 103.89 197.327 113.046 197.327Z" fill="#BDCCED" stroke="#BDCCED" stroke-width="1.05241"/>
</g>
<path d="M15.9082 122.156L19.1379 115.564" stroke="#337BD1" stroke-width="2.09" stroke-miterlimit="10" stroke-linecap="round"/>
<path d="M14.3324 117.245L20.9247 120.475" stroke="#337BD1" stroke-width="2.09" stroke-miterlimit="10" stroke-linecap="round"/>
<path d="M172.682 154.592L175.911 148" stroke="#337BD1" stroke-width="2.09" stroke-miterlimit="10" stroke-linecap="round"/>
<path d="M171.106 149.681L177.698 152.91" stroke="#337BD1" stroke-width="2.09" stroke-miterlimit="10" stroke-linecap="round"/>
<path d="M30.6816 50.5918L33.9113 43.9995" stroke="#337BD1" stroke-width="2.09" stroke-miterlimit="10" stroke-linecap="round"/>
<path d="M29.1058 45.6808L35.6981 48.9105" stroke="#337BD1" stroke-width="2.09" stroke-miterlimit="10" stroke-linecap="round"/>
<path d="M12.8695 73.229C12.8695 75.954 10.6597 78.1632 7.93412 78.1632C5.20917 78.1632 3 75.954 3 73.229C3 70.5035 5.20917 68.2949 7.93412 68.2949C10.6597 68.2949 12.8695 70.5035 12.8695 73.229Z" stroke="#337BD1" stroke-width="5.36586" stroke-miterlimit="10"/>
<path d="M201.156 55.0781C201.156 55.6735 200.673 56.1563 200.078 56.1563C199.483 56.1563 199 55.6735 199 55.0781C199 54.4828 199.483 54 200.078 54C200.673 54 201.156 54.4828 201.156 55.0781Z" stroke="#337BD1" stroke-width="4.085" stroke-miterlimit="10"/>
<path d="M93.5996 23.8574C93.5996 24.4528 93.1168 24.9356 92.5215 24.9356C91.9262 24.9356 91.4434 24.4528 91.4434 23.8574C91.4434 23.2621 91.9262 22.7793 92.5215 22.7793C93.1168 22.7793 93.5996 23.2621 93.5996 23.8574Z" stroke="#337BD1" stroke-width="4.085" stroke-miterlimit="10"/>
<path d="M35.5108 56.6127C43.2864 56.3202 49.8949 63.9316 50.2585 73.5987C50.6221 83.2657 44.604 91.3521 36.8284 91.6445C29.0527 91.937 22.4443 84.3255 22.0807 74.6585C21.7171 64.9915 27.7351 56.9051 35.5108 56.6127Z" fill="#E1E1E1"/>
<path d="M179.954 51.1791C187.73 50.8866 194.338 58.4981 194.702 68.1651C195.065 77.8321 189.047 85.9185 181.272 86.2109C173.496 86.5034 166.888 78.8919 166.524 69.2249C166.16 59.5579 172.178 51.4715 179.954 51.1791Z" fill="#E1E1E1"/>
<path d="M110.377 102.843C107.234 102.843 75.5749 100.049 71.5921 121.121C69.5144 132.113 71.0023 154.412 83.6356 166.951C93.4299 176.672 107.545 176.185 110.886 176.259C114.326 176.336 130.892 176.919 140.476 167.24C152.121 155.481 154.833 132.057 152.227 120.665C148.371 103.806 123.333 102.843 110.377 102.843Z" fill="url(#paint0_linear_3253:12488)"/>
<path d="M111.268 104.615C119.192 104.615 126.351 105.537 131.514 107.015C134.099 107.755 136.155 108.627 137.554 109.573C138.969 110.531 139.601 111.486 139.601 112.371C139.601 113.257 138.969 114.212 137.554 115.169C136.155 116.115 134.099 116.987 131.514 117.727C126.351 119.206 119.192 120.127 111.268 120.127C103.345 120.127 96.1852 119.206 91.0223 117.727C88.4374 116.987 86.3814 116.115 84.9831 115.169C83.5674 114.212 82.9355 113.257 82.9355 112.371C82.9355 111.486 83.5674 110.531 84.9831 109.573C86.3814 108.627 88.4374 107.755 91.0223 107.015C96.1852 105.537 103.345 104.615 111.268 104.615Z" fill="#D1D1D1" stroke="#ECEFF5"/>
<path d="M111.268 104.115C127.181 104.115 140.101 107.815 140.101 112.371C140.101 116.928 127.181 120.627 111.268 120.627C95.3555 120.627 82.4355 116.928 82.4355 112.371C82.4355 107.815 95.3555 104.115 111.268 104.115Z" stroke="#ECEFF5"/>
<path d="M176.416 41.3389C144.723 -3.73586 61.2763 8.04598 42.9651 48.3919C36.2922 63.0952 25.6964 102.935 72.0888 106.274C80.8368 106.904 152.833 103.745 152.833 103.745C152.833 103.745 171.723 102.011 180.321 88.3595C186.797 78.0778 187.702 57.3905 176.416 41.3389Z" fill="url(#paint1_linear_3253:12488)"/>
<path d="M176.093 60.5175L176.417 69.1485C176.755 78.1151 169.547 85.6766 160.333 86.0231L78.685 89.0941C69.4711 89.4406 61.7163 82.4419 61.3791 73.4753L61.0544 64.8443C60.7172 55.8778 67.9243 48.3163 77.1383 47.9697L158.787 44.8988C168.001 44.5522 175.755 51.551 176.093 60.5175Z" fill="#283252"/>
<path d="M128.769 46.2026C128.47 47.6198 131.424 72.8586 111.504 87.3354L163.781 85.2576C163.781 85.2576 176.239 85.2975 176.213 64.3259C176.2 53.7827 171.856 44.7883 160.804 44.9498C149.751 45.1112 128.773 46.3295 128.769 46.2026Z" fill="#2F3B63"/>
<path d="M87.0997 60.5596L87.6439 75.0293C87.7387 77.5511 85.7682 79.6757 83.2464 79.7705C80.7246 79.8654 78.6 77.8949 78.5052 75.373L77.9609 60.9034C77.8661 58.3815 79.8366 56.257 82.3584 56.1621C84.8803 56.0673 87.0048 58.0378 87.0997 60.5596Z" fill="#1F7AFF"/>
<path d="M157.67 57.9053L158.214 72.375C158.309 74.8968 156.339 77.0214 153.817 77.1162C151.295 77.2111 149.17 75.2406 149.075 72.7187L148.531 58.2491C148.436 55.7272 150.407 53.6027 152.929 53.5078C155.451 53.413 157.575 55.3835 157.67 57.9053Z" fill="#1F7AFF"/>
<path d="M55.7175 113.235C40.1187 131.268 44.5813 153.658 46.3834 160.581C47.3964 164.472 52.3071 165.97 55.0812 164.502C57.2423 163.358 57.4794 159.745 57.6395 158.415C60.8067 132.087 65.0307 119.773 66.1395 117.014C66.656 115.729 66.1556 112.478 63.9456 111.511C61.4102 110.401 57.0051 111.746 55.7175 113.235Z" fill="url(#paint2_linear_3253:12488)"/>
<path d="M167.762 119.948C186.782 105.569 187.093 82.7417 186.776 75.5951C186.598 71.5779 182.108 69.088 179.089 69.9444C176.737 70.6115 175.75 74.0956 175.316 75.3627C166.721 100.449 160.019 111.61 158.359 114.076C157.586 115.225 157.396 118.509 159.355 119.916C161.603 121.531 166.192 121.135 167.762 119.948Z" fill="url(#paint3_linear_3253:12488)"/>
<path d="M28.1979 14.3633L28.1988 14.3607C28.2307 14.2896 28.2599 14.2142 28.2865 14.1367C28.8038 12.6258 27.9953 10.9756 26.4844 10.4584C24.9735 9.94109 23.3233 10.7495 22.8061 12.2604C22.7795 12.338 22.7568 12.4145 22.7393 12.4875C22.3715 13.9394 23.1928 15.4542 24.6081 15.9388C26.0235 16.4233 27.6003 15.7312 28.1979 14.3633Z" fill="#337BD1"/>
<path d="M22.1806 23.0317C22.6539 23.1938 23.1627 23.1613 23.6122 22.9411C24.0623 22.7205 24.3996 22.339 24.5617 21.8657L24.9093 20.8503L25.2871 20.863C25.7811 20.8803 26.279 20.8493 26.7662 20.7701L27.1403 20.7094L27.6123 21.6729C28.067 22.601 29.1924 22.9863 30.1198 22.5319C30.5691 22.3122 30.9055 21.9298 31.0678 21.456C31.23 20.9821 31.198 20.4736 30.9781 20.0248L30.5054 19.0599L30.7827 18.8015C31.1436 18.4656 31.4738 18.0914 31.7627 17.6909L31.9845 17.3836L32.9999 17.7312C33.8396 18.0187 34.7748 17.6715 35.2233 16.906C35.2869 16.7978 35.3394 16.6831 35.3798 16.5652C35.542 16.0914 35.5104 15.5835 35.2896 15.1339C35.0696 14.6839 34.6868 14.3467 34.214 14.1849L33.1986 13.8373L33.2115 13.4589C33.2288 12.9649 33.1971 12.4674 33.118 11.9802L33.0573 11.6061L34.022 11.1339C34.9495 10.6791 35.3346 9.55416 34.8805 8.62626C34.6603 8.17678 34.278 7.83982 33.8042 7.6776C33.3303 7.51538 32.8223 7.54753 32.3728 7.76774L31.4092 8.24027L31.1508 7.96303C30.8141 7.60243 30.4399 7.27227 30.039 6.98317L29.7326 6.76168L30.0801 5.74682C30.4148 4.76917 29.8909 3.7008 28.9133 3.3661C28.4399 3.20405 27.9324 3.23639 27.4822 3.45693C27.0328 3.67714 26.6953 4.05923 26.5332 4.53255L26.1858 5.5474L25.808 5.53467C25.314 5.51737 24.8159 5.54892 24.3289 5.62753L23.9548 5.68824L23.4818 4.72443C23.0276 3.79652 21.9032 3.41158 20.9753 3.86575C20.5258 4.08595 20.1889 4.46822 20.0267 4.94206C19.8644 5.4159 19.8966 5.92395 20.1168 6.37343L20.5886 7.3374L20.3114 7.59579C19.9503 7.93226 19.6208 8.30613 19.3312 8.70691L19.1106 9.01412L18.0952 8.6665C17.1175 8.3318 16.0499 8.8553 15.7152 9.83295C15.6759 9.94767 15.6476 10.0673 15.6309 10.1886L15.6237 10.2467C15.5874 10.5957 15.6497 10.9466 15.8053 11.2643C16.026 11.714 16.4078 12.0508 16.8811 12.2128L17.8965 12.5604L17.8823 12.9389C17.8657 13.4326 17.8969 13.9299 17.9761 14.4171L18.0368 14.7912L17.0724 15.2641C16.6245 15.4831 16.2874 15.8659 16.125 16.3402C15.9626 16.8146 15.9948 17.3226 16.2146 17.7714C16.4348 18.2209 16.8173 18.5573 17.2911 18.7196C17.7644 18.8816 18.2728 18.8502 18.7223 18.6299L19.6859 18.1574L19.9443 18.4346C20.2808 18.7958 20.6552 19.1254 21.0561 19.4145L21.3625 19.636L21.0149 20.6514C20.6802 21.629 21.203 22.697 22.1806 23.0317ZM20.8988 15.7058C20.2695 14.539 20.1018 13.1908 20.4262 11.9094C20.4601 11.7715 20.5024 11.6295 20.5507 11.4884C21.4941 8.73272 24.5026 7.25839 27.2578 8.20164C30.013 9.1449 31.4877 12.1541 30.5442 14.9098C30.4958 15.0514 30.4416 15.191 30.3828 15.3239C29.8554 16.5305 28.8975 17.4922 27.685 18.0291C26.4657 18.5688 25.0986 18.6279 23.8363 18.1957C22.5739 17.7635 21.5309 16.8794 20.8988 15.7058Z" fill="#337BD1"/>
<path d="M212.627 101.307L212.629 101.308C212.68 101.314 212.733 101.319 212.786 101.32C213.827 101.36 214.707 100.544 214.746 99.5025C214.785 98.4601 213.97 97.5814 212.928 97.542C212.875 97.54 212.822 97.5406 212.773 97.5425C211.797 97.5863 211.004 98.3847 210.967 99.3603C210.931 100.336 211.659 101.191 212.627 101.307Z" fill="#337BD1"/>
<path d="M206.076 99.1777C206.064 99.5039 206.18 99.8159 206.402 100.056C206.624 100.295 206.926 100.434 207.253 100.446L207.952 100.472L208.016 100.711C208.098 101.023 208.211 101.329 208.352 101.618L208.46 101.84L207.946 102.317C207.451 102.776 207.423 103.551 207.881 104.046C208.104 104.286 208.405 104.424 208.732 104.437C209.058 104.449 209.371 104.333 209.61 104.111L210.124 103.635L210.338 103.759C210.616 103.922 210.912 104.058 211.217 104.163L211.45 104.243L211.424 104.944C211.402 105.523 211.794 106.042 212.358 106.179C212.437 106.198 212.519 106.209 212.6 106.213C212.927 106.225 213.238 106.109 213.478 105.887C213.718 105.665 213.856 105.362 213.869 105.036L213.895 104.336L214.134 104.273C214.446 104.19 214.751 104.077 215.041 103.937L215.263 103.828L215.74 104.342C216.199 104.836 216.974 104.866 217.469 104.407C217.708 104.185 217.847 103.883 217.859 103.556C217.872 103.23 217.756 102.917 217.534 102.678L217.057 102.164L217.182 101.951C217.345 101.673 217.481 101.377 217.586 101.072L217.666 100.838L218.366 100.865C219.041 100.89 219.61 100.362 219.635 99.6885C219.648 99.3621 219.532 99.0497 219.309 98.8101C219.087 98.5704 218.785 98.4319 218.459 98.4195L217.759 98.3929L217.696 98.1537C217.614 97.8417 217.5 97.5376 217.36 97.248L217.251 97.0249L217.765 96.5487C218.26 96.0901 218.289 95.3145 217.831 94.8198C217.608 94.5801 217.306 94.4418 216.979 94.4289C216.652 94.4172 216.341 94.5325 216.101 94.7543L215.587 95.2315L215.373 95.1062C215.095 94.944 214.8 94.8084 214.495 94.7027L214.261 94.6217L214.288 93.9221C214.313 93.2478 213.785 92.6792 213.111 92.6537C213.032 92.6507 212.952 92.655 212.873 92.6677L212.835 92.6737C212.61 92.7167 212.403 92.8223 212.233 92.9792C211.993 93.2015 211.855 93.5035 211.843 93.8292L211.816 94.5303L211.577 94.5921C211.265 94.6746 210.96 94.7883 210.67 94.929L210.448 95.0374L209.971 94.5231C209.749 94.2843 209.447 94.1458 209.121 94.1341C208.793 94.1221 208.481 94.2369 208.242 94.459C208.003 94.6814 207.864 94.9834 207.852 95.3097C207.84 95.6359 207.955 95.9476 208.177 96.1873L208.654 96.7007L208.529 96.9149C208.367 97.1932 208.231 97.489 208.126 97.7942L208.044 98.027L207.345 98.0014C206.671 97.9759 206.102 98.5037 206.076 99.1777ZM210.414 96.9979C211.026 96.3851 211.837 96.0271 212.699 95.9888C212.792 95.9843 212.888 95.9842 212.986 95.9877C214.885 96.059 216.372 97.6628 216.301 99.5623C216.229 101.462 214.626 102.95 212.726 102.878C212.628 102.874 212.531 102.867 212.436 102.855C211.583 102.752 210.802 102.334 210.238 101.677C209.672 101.017 209.377 100.174 209.41 99.3027C209.443 98.4324 209.799 97.6138 210.414 96.9979Z" fill="#337BD1"/>
<defs>
<linearGradient id="paint0_linear_3253:12488" x1="75.0668" y1="132.565" x2="139.083" y2="132.057" gradientUnits="userSpaceOnUse">
<stop stop-color="#EBF4FC"/>
<stop offset="0.65" stop-color="#DDE1E5"/>
<stop offset="1" stop-color="#CFCFCF"/>
</linearGradient>
<linearGradient id="paint1_linear_3253:12488" x1="41.4275" y1="88.6154" x2="166.85" y2="84.4065" gradientUnits="userSpaceOnUse">
<stop stop-color="#EBF4FC"/>
<stop offset="0.65" stop-color="#DDE1E5"/>
<stop offset="1" stop-color="#CFCFCF"/>
</linearGradient>
<linearGradient id="paint2_linear_3253:12488" x1="47.5681" y1="136.258" x2="58.7348" y2="137.513" gradientUnits="userSpaceOnUse">
<stop stop-color="#EBF4FC"/>
<stop offset="0.65" stop-color="#DDE1E5"/>
<stop offset="1" stop-color="#CFCFCF"/>
</linearGradient>
<linearGradient id="paint3_linear_3253:12488" x1="171.623" y1="97.2514" x2="182.509" y2="103.407" gradientUnits="userSpaceOnUse">
<stop stop-color="#EBF4FC"/>
<stop offset="0.65" stop-color="#DDE1E5"/>
<stop offset="1" stop-color="#CFCFCF"/>
</linearGradient>
</defs>
</svg>
