<svg width="42" height="42" viewBox="0 0 42 42" fill="none" xmlns="http://www.w3.org/2000/svg">
<path d="M21 0C9.42014 0 0 9.42014 0 21C0 32.5799 9.42014 42 21 42C32.5799 42 42 32.5799 42 21C42 9.42014 32.5799 0 21 0Z" fill="#FF9777"/>
<path d="M33.0745 15.5778L19.1404 29.5116C18.7224 29.9296 18.1736 30.14 17.6249 30.14C17.0761 30.14 16.5274 29.9296 16.1094 29.5116L9.14249 22.5447C8.30407 21.7067 8.30407 20.3517 9.14249 19.5137C9.98052 18.6752 11.3351 18.6752 12.1735 19.5137L17.6249 24.965L30.0435 12.5468C30.8815 11.7084 32.2361 11.7084 33.0745 12.5468C33.9126 13.3848 33.9126 14.7394 33.0745 15.5778Z" fill="#FAFAFA"/>
</svg>
