<svg width="42" height="42" viewBox="0 0 42 42" fill="none" xmlns="http://www.w3.org/2000/svg">
<circle cx="21" cy="21" r="21" fill="#A798FF"/>
<g clip-path="url(#clip0_1921:8199)">
<path d="M17.8618 9.81836H11.692C10.6589 9.81836 9.81836 10.6589 9.81836 11.692V17.8618C9.81836 18.895 10.6589 19.7355 11.692 19.7355H17.8618C18.895 19.7355 19.7355 18.895 19.7355 17.8618V11.692C19.7355 10.6589 18.895 9.81836 17.8618 9.81836Z" fill="white"/>
<path d="M29.8931 9.81836H23.7233C22.6901 9.81836 21.8496 10.6589 21.8496 11.692V17.8618C21.8496 18.895 22.6901 19.7355 23.7233 19.7355H29.8931C30.9262 19.7355 31.7667 18.895 31.7667 17.8618V11.692C31.7667 10.6589 30.9262 9.81836 29.8931 9.81836Z" fill="white"/>
<path d="M17.8618 21.8496H11.692C10.6589 21.8496 9.81836 22.6901 9.81836 23.7233V29.8931C9.81836 30.9262 10.6589 31.7667 11.692 31.7667H17.8618C18.895 31.7667 19.7355 30.9262 19.7355 29.8931V23.7233C19.7355 22.6901 18.895 21.8496 17.8618 21.8496Z" fill="white"/>
<path d="M29.8931 21.8496H23.7233C22.6901 21.8496 21.8496 22.6901 21.8496 23.7233V29.8931C21.8496 30.9262 22.6901 31.7667 23.7233 31.7667H29.8931C30.9262 31.7667 31.7667 30.9262 31.7667 29.8931V23.7233C31.7667 22.6901 30.9262 21.8496 29.8931 21.8496Z" fill="white"/>
</g>
<defs>
<clipPath id="clip0_1921:8199">
<rect width="21.949" height="21.949" fill="white" transform="translate(9.81836 9.81836)"/>
</clipPath>
</defs>
</svg>
