<svg width="1920" height="1080" viewBox="0 0 1920 1080" fill="none" xmlns="http://www.w3.org/2000/svg">
<mask id="mask0_1921:7926" style="mask-type:alpha" maskUnits="userSpaceOnUse" x="0" y="0" width="1920" height="1080">
<rect width="1920" height="1080" fill="#F0F5FF"/>
</mask>
<g mask="url(#mask0_1921:7926)">
<circle cx="1479.29" cy="574.296" r="4.29411" fill="#94A4C4"/>
<circle cx="1513.65" cy="574.294" r="4.29411" fill="#94A4C4"/>
<circle cx="1548" cy="574.294" r="4.29411" fill="#94A4C4"/>
<circle cx="1582.35" cy="574.294" r="4.29411" fill="#94A4C4"/>
<circle cx="1616.7" cy="574.294" r="4.29411" fill="#94A4C4"/>
<circle cx="1479.29" cy="608.648" r="4.29411" fill="#94A4C4"/>
<circle cx="1513.65" cy="608.648" r="4.29411" fill="#94A4C4"/>
<circle cx="1548" cy="608.648" r="4.29411" fill="#94A4C4"/>
<circle cx="1582.35" cy="608.648" r="4.29411" fill="#94A4C4"/>
<circle cx="1616.7" cy="608.648" r="4.29411" fill="#94A4C4"/>
<circle cx="1479.29" cy="643.001" r="4.29411" fill="#94A4C4"/>
<circle cx="1513.65" cy="643.001" r="4.29411" fill="#94A4C4"/>
<circle cx="1548" cy="643.001" r="4.29411" fill="#94A4C4"/>
<circle cx="1582.35" cy="643.001" r="4.29411" fill="#94A4C4"/>
<circle cx="1616.7" cy="643.001" r="4.29411" fill="#94A4C4"/>
<circle cx="1479.29" cy="677.355" r="4.29411" fill="#94A4C4"/>
<circle cx="1513.65" cy="677.355" r="4.29411" fill="#94A4C4"/>
<circle cx="1548" cy="677.355" r="4.29411" fill="#94A4C4"/>
<circle cx="1582.35" cy="677.355" r="4.29411" fill="#94A4C4"/>
<circle cx="1616.7" cy="677.355" r="4.29411" fill="#94A4C4"/>
<circle cx="1479.29" cy="711.706" r="4.29411" fill="#94A4C4"/>
<circle cx="1513.65" cy="711.706" r="4.29411" fill="#94A4C4"/>
<circle cx="1548" cy="711.706" r="4.29411" fill="#94A4C4"/>
<circle cx="1582.35" cy="711.706" r="4.29411" fill="#94A4C4"/>
<circle cx="1616.7" cy="711.706" r="4.29411" fill="#94A4C4"/>
<circle cx="300.294" cy="867.296" r="4.29411" fill="#A0CCFF"/>
<circle cx="334.648" cy="867.294" r="4.29411" fill="#A0CCFF"/>
<circle cx="368.999" cy="867.294" r="4.29411" fill="#A0CCFF"/>
<circle cx="403.353" cy="867.294" r="4.29411" fill="#A0CCFF"/>
<circle cx="437.704" cy="867.294" r="4.29411" fill="#A0CCFF"/>
<circle cx="300.294" cy="901.648" r="4.29411" fill="#A0CCFF"/>
<circle cx="334.648" cy="901.648" r="4.29411" fill="#A0CCFF"/>
<circle cx="368.999" cy="901.648" r="4.29411" fill="#A0CCFF"/>
<circle cx="403.353" cy="901.648" r="4.29411" fill="#A0CCFF"/>
<circle cx="437.704" cy="901.648" r="4.29411" fill="#A0CCFF"/>
<circle cx="300.294" cy="936.001" r="4.29411" fill="#A0CCFF"/>
<circle cx="334.648" cy="936.001" r="4.29411" fill="#A0CCFF"/>
<circle cx="368.999" cy="936.001" r="4.29411" fill="#A0CCFF"/>
<circle cx="403.353" cy="936.001" r="4.29411" fill="#A0CCFF"/>
<circle cx="437.704" cy="936.001" r="4.29411" fill="#A0CCFF"/>
<circle cx="300.294" cy="970.355" r="4.29411" fill="#A0CCFF"/>
<circle cx="334.648" cy="970.355" r="4.29411" fill="#A0CCFF"/>
<circle cx="368.999" cy="970.355" r="4.29411" fill="#A0CCFF"/>
<circle cx="403.353" cy="970.355" r="4.29411" fill="#A0CCFF"/>
<circle cx="437.704" cy="970.355" r="4.29411" fill="#A0CCFF"/>
<circle cx="300.294" cy="1004.71" r="4.29411" fill="#A0CCFF"/>
<circle cx="334.648" cy="1004.71" r="4.29411" fill="#A0CCFF"/>
<circle cx="368.999" cy="1004.71" r="4.29411" fill="#A0CCFF"/>
<circle cx="403.353" cy="1004.71" r="4.29411" fill="#A0CCFF"/>
<circle cx="437.704" cy="1004.71" r="4.29411" fill="#A0CCFF"/>
<path d="M-70.2692 551.721C-40.0418 490.087 9.77654 447.483 92.8728 535.698C177.347 625.376 293.351 439.46 263.124 501.094C185.616 753.647 48.2325 748.279 -13.4019 718.051C-75.0362 687.824 -100.497 613.355 -70.2692 551.721Z" fill="#FF9777"/>
<circle cx="1919.87" cy="348.866" r="138.337" transform="rotate(-153.875 1919.87 348.866)" stroke="#7EB9FF" stroke-width="86.31"/>
<circle cx="960.5" cy="1138.5" r="460.5" fill="#7EB9FF"/>
</g>
</svg>
