<svg width="32" height="32" viewBox="0 0 32 32" fill="none" xmlns="http://www.w3.org/2000/svg">
<path d="M16 32C24.8366 32 32 24.8366 32 16C32 7.16344 24.8366 0 16 0C7.16344 0 0 7.16344 0 16C0 24.8366 7.16344 32 16 32Z" fill="#FF9777"/>
<path d="M20.9163 20.5249C15.1378 23.275 11.5516 20.9741 9.256 19.5766C9.11395 19.4885 8.87251 19.5972 9.08199 19.8378C9.84678 20.7651 12.3532 23.0002 15.6247 23.0002C18.8985 23.0002 20.8461 21.2139 21.0898 20.9023C21.3317 20.5933 21.1608 20.4229 20.9162 20.5249H20.9163ZM22.5392 19.6287C22.384 19.4266 21.5956 19.389 21.0994 19.4499C20.6025 19.5091 19.8566 19.8128 19.9214 19.9952C19.9547 20.0635 20.0226 20.0328 20.364 20.0021C20.7063 19.968 21.6653 19.847 21.8651 20.1082C22.0658 20.3712 21.5592 21.6241 21.4667 21.8262C21.3773 22.0283 21.5009 22.0804 21.6688 21.9458C21.8344 21.8113 22.1342 21.4629 22.3354 20.9698C22.5352 20.4741 22.6571 19.7825 22.5391 19.6287H22.5392Z" fill="white"/>
<path fill-rule="evenodd" clip-rule="evenodd" d="M17.0309 14.9134C17.0309 15.635 17.0491 16.2367 16.6844 16.8775C16.39 17.3986 15.9237 17.719 15.4027 17.719C14.6915 17.719 14.2774 17.1771 14.2774 16.3774C14.2774 14.7987 15.6918 14.5122 17.0309 14.5122V14.9134ZM18.8987 19.4279C18.7762 19.5373 18.5991 19.5451 18.461 19.4721C17.8462 18.9616 17.7368 18.7245 17.3982 18.2374C16.3822 19.2742 15.6632 19.5842 14.3451 19.5842C12.7873 19.5842 11.5734 18.6229 11.5734 16.6978C11.5734 15.1948 12.3888 14.1709 13.5479 13.6708C14.5535 13.2279 15.9576 13.1498 17.0309 13.0274V12.7877C17.0309 12.3474 17.0647 11.8264 16.8069 11.4461C16.5802 11.1049 16.1478 10.9642 15.7674 10.9642C15.0615 10.9642 14.4311 11.3263 14.2774 12.0765C14.2461 12.2433 14.1237 12.4074 13.957 12.4152L12.1595 12.2225C12.0084 12.1885 11.8417 12.0661 11.8834 11.8342C12.2976 9.65651 14.2643 9 16.0253 9C16.9266 9 18.1041 9.23968 18.8152 9.92222C19.7166 10.7636 19.6306 11.8864 19.6306 13.1081V15.9945C19.6306 16.8619 19.9901 17.2422 20.3287 17.7112C20.4486 17.8779 20.4746 18.0785 20.3235 18.2035C19.9458 18.5187 19.2737 19.1049 18.9038 19.4331L18.8986 19.4279" fill="white"/>
<path d="M20.9163 20.5249C15.1378 23.275 11.5516 20.9741 9.256 19.5766C9.11395 19.4885 8.87251 19.5972 9.08199 19.8378C9.84678 20.7651 12.3532 23.0002 15.6247 23.0002C18.8985 23.0002 20.8461 21.2139 21.0898 20.9023C21.3317 20.5933 21.1608 20.4229 20.9162 20.5249H20.9163ZM22.5392 19.6287C22.384 19.4266 21.5956 19.389 21.0994 19.4499C20.6025 19.5091 19.8566 19.8128 19.9214 19.9952C19.9547 20.0635 20.0226 20.0328 20.364 20.0021C20.7063 19.968 21.6653 19.847 21.8651 20.1082C22.0658 20.3712 21.5592 21.6241 21.4667 21.8262C21.3773 22.0283 21.5009 22.0804 21.6688 21.9458C21.8344 21.8113 22.1342 21.4629 22.3354 20.9698C22.5352 20.4741 22.6571 19.7825 22.5391 19.6287H22.5392Z" fill="white"/>
<path fill-rule="evenodd" clip-rule="evenodd" d="M17.0309 14.9134C17.0309 15.635 17.0491 16.2367 16.6844 16.8775C16.39 17.3986 15.9237 17.719 15.4027 17.719C14.6915 17.719 14.2774 17.1771 14.2774 16.3774C14.2774 14.7987 15.6918 14.5122 17.0309 14.5122V14.9134ZM18.8987 19.4279C18.7762 19.5373 18.5991 19.5451 18.461 19.4721C17.8462 18.9616 17.7368 18.7245 17.3982 18.2374C16.3822 19.2742 15.6632 19.5842 14.3451 19.5842C12.7873 19.5842 11.5734 18.6229 11.5734 16.6978C11.5734 15.1948 12.3888 14.1709 13.5479 13.6708C14.5535 13.2279 15.9576 13.1498 17.0309 13.0274V12.7877C17.0309 12.3474 17.0647 11.8264 16.8069 11.4461C16.5802 11.1049 16.1478 10.9642 15.7674 10.9642C15.0615 10.9642 14.4311 11.3263 14.2774 12.0765C14.2461 12.2433 14.1237 12.4074 13.957 12.4152L12.1595 12.2225C12.0084 12.1885 11.8417 12.0661 11.8834 11.8342C12.2976 9.65651 14.2643 9 16.0253 9C16.9266 9 18.1041 9.23968 18.8152 9.92222C19.7166 10.7636 19.6306 11.8864 19.6306 13.1081V15.9945C19.6306 16.8619 19.9901 17.2422 20.3287 17.7112C20.4486 17.8779 20.4746 18.0785 20.3235 18.2035C19.9458 18.5187 19.2737 19.1049 18.9038 19.4331L18.8986 19.4279" fill="white"/>
</svg>
