<svg width="32" height="32" viewBox="0 0 32 32" fill="none" xmlns="http://www.w3.org/2000/svg">
<path d="M16 32C24.8366 32 32 24.8366 32 16C32 7.16344 24.8366 0 16 0C7.16344 0 0 7.16344 0 16C0 24.8366 7.16344 32 16 32Z" fill="#283252"/>
<circle cx="16" cy="16" r="7" fill="white"/>
<path d="M14.5012 20C14.8212 20 14.9085 19.8738 14.9085 19.7183C14.9085 19.5791 14.9036 19.2106 14.9011 18.7222C13.2427 19.0755 12.8929 17.9363 12.8929 17.9363C12.6217 17.2601 12.2296 17.0792 12.2296 17.0792C11.6896 16.7161 12.2714 16.7235 12.2714 16.7235C12.8701 16.7642 13.1846 17.3272 13.1846 17.3272C13.7161 18.2229 14.5801 17.9642 14.921 17.8145C14.9747 17.4354 15.1282 17.1776 15.2986 17.0311C13.9745 16.8845 12.5829 16.3807 12.5829 14.1361C12.5829 13.4966 12.814 12.9741 13.1965 12.5641C13.1294 12.416 12.9282 11.8203 13.2487 11.0135C13.2487 11.0135 13.748 10.8564 14.8882 11.6141C15.3652 11.484 15.8719 11.4194 16.3787 11.4164C16.8855 11.4193 17.3922 11.484 17.8692 11.6141C19.002 10.8564 19.5013 11.0135 19.5013 11.0135C19.8217 11.8203 19.6205 12.416 19.5609 12.5641C19.9409 12.9739 20.172 13.4966 20.172 14.1361C20.172 16.3867 18.7785 16.882 17.4519 17.0261C17.6605 17.202 17.8543 17.5612 17.8543 18.1102C17.8543 18.8942 17.8468 19.5242 17.8468 19.7145C17.8468 19.868 17.9132 19.9927 18.2567 19.9927L14.5012 20Z" fill="#283252"/>
</svg>
