<svg width="32" height="32" viewBox="0 0 32 32" fill="none" xmlns="http://www.w3.org/2000/svg">
<path d="M16 32C24.8366 32 32 24.8366 32 16C32 7.16344 24.8366 0 16 0C7.16344 0 0 7.16344 0 16C0 24.8366 7.16344 32 16 32Z" fill="#FF6B93"/>
<rect x="9" y="9" width="13" height="14" fill="white"/>
<path d="M20.3955 17.4242C20.3955 17.4242 20.0747 18.0631 19.7046 18.1779C19.3345 18.2926 19.015 18.0467 19.6286 16.8344C20.2423 15.6219 19.8971 14.5732 19.5136 14.2455C19.13 13.9178 18.0947 13.8195 17.5194 14.1145C16.944 14.4094 16.5588 14.8273 16.5588 14.8273L16.7438 13.9506L14.4898 13.9834L14.1446 15.0648H15.1416C15.1416 15.0648 14.2212 17.4455 14.1446 17.5004C14.068 17.5553 13.4129 17.9828 13.1353 18.0631C12.8578 18.1436 12.5339 18.2107 12.6873 17.6864C12.8408 17.1621 13.7611 13.9506 13.7611 13.9506H11.2297L11 14.9992V15.0648H11.9204C11.9204 15.0648 11.1923 17.5553 11.1534 17.8502C11.1144 18.1452 11.1923 18.7548 12.3026 18.9315C13.4129 19.1084 14.2212 18.1779 14.2212 18.1779L14.068 18.9315H15.5253C15.5253 18.9315 16.2812 16.3622 16.5588 15.7967C16.8364 15.2312 17.7616 14.7368 18.2242 15.0648C18.6869 15.3928 18.4781 15.9168 18.2864 16.3428C18.0947 16.7688 17.6691 17.897 18.0392 18.4625C18.4093 19.0279 19.6286 19.2703 20.3189 18.5712C20.8149 18.0631 21 17.5739 21 17.5739L20.3955 17.4242Z" fill="#FF427A"/>
<path d="M13.0426 13.2925C13.4514 13.2925 13.7828 13.0032 13.7828 12.6462C13.7828 12.2893 13.4514 12 13.0426 12C12.6338 12 12.3024 12.2893 12.3024 12.6462C12.3024 13.0032 12.6338 13.2925 13.0426 13.2925Z" fill="#FF427A"/>
</svg>
