<svg width="32" height="32" viewBox="0 0 32 32" fill="none" xmlns="http://www.w3.org/2000/svg">
<path d="M16 32C24.8366 32 32 24.8366 32 16C32 7.16344 24.8366 0 16 0C7.16344 0 0 7.16344 0 16C0 24.8366 7.16344 32 16 32Z" fill="#A798FF"/>
<path d="M25.3224 14.2941C25.2681 14.2488 24.7795 13.8778 23.7297 13.8778C23.4582 13.8778 23.1776 13.9049 22.9062 13.9502C22.7071 12.5656 21.5577 11.8959 21.5125 11.8597L21.2319 11.6968L21.051 11.9592C20.8247 12.3122 20.6528 12.7104 20.5532 13.1176C20.3632 13.9049 20.4808 14.647 20.879 15.2805C20.3994 15.552 19.6211 15.6153 19.4582 15.6244H6.60752C6.27267 15.6244 6.00118 15.8959 6.00118 16.2307C5.98308 17.3529 6.17313 18.4751 6.56227 19.5339C7.00571 20.6922 7.66634 21.552 8.51702 22.0769C9.47629 22.6651 11.0419 22.9999 12.8066 22.9999C13.603 22.9999 14.3994 22.9275 15.1867 22.7827C16.2817 22.5837 17.3315 22.2036 18.2998 21.6515C19.0962 21.19 19.8111 20.6018 20.4175 19.914C21.4401 18.7646 22.0464 17.4796 22.4899 16.3393C22.5532 16.3393 22.6075 16.3393 22.6709 16.3393C23.784 16.3393 24.4718 15.8959 24.8519 15.5158C25.1052 15.2805 25.2953 14.9909 25.431 14.6651L25.5125 14.4298L25.3224 14.2941Z" fill="white"/>
<path d="M7.80192 15.2534H9.52137C9.60282 15.2534 9.67522 15.1901 9.67522 15.0996V13.5611C9.67522 13.4797 9.61187 13.4073 9.52137 13.4073H7.80192C7.72047 13.4073 7.64807 13.4706 7.64807 13.5611V15.0996C7.65712 15.1901 7.72047 15.2534 7.80192 15.2534Z" fill="white"/>
<path d="M10.1734 15.2534H11.8928C11.9743 15.2534 12.0467 15.1901 12.0467 15.0996V13.5611C12.0467 13.4797 11.9833 13.4073 11.8928 13.4073H10.1734C10.0919 13.4073 10.0195 13.4706 10.0195 13.5611V15.0996C10.0286 15.1901 10.0919 15.2534 10.1734 15.2534Z" fill="white"/>
<path d="M12.5895 15.2534H14.309C14.3904 15.2534 14.4628 15.1901 14.4628 15.0996V13.5611C14.4628 13.4797 14.3995 13.4073 14.309 13.4073H12.5895C12.5081 13.4073 12.4357 13.4706 12.4357 13.5611V15.0996C12.4357 15.1901 12.499 15.2534 12.5895 15.2534Z" fill="white"/>
<path d="M14.9698 15.2534H16.6892C16.7707 15.2534 16.8431 15.1901 16.8431 15.0996V13.5611C16.8431 13.4797 16.7797 13.4073 16.6892 13.4073H14.9698C14.8883 13.4073 14.8159 13.4706 14.8159 13.5611V15.0996C14.8159 15.1901 14.8883 15.2534 14.9698 15.2534Z" fill="white"/>
<path d="M10.1734 13.0543H11.8928C11.9743 13.0543 12.0467 12.9819 12.0467 12.9005V11.362C12.0467 11.2806 11.9833 11.2082 11.8928 11.2082H10.1734C10.0919 11.2082 10.0195 11.2715 10.0195 11.362V12.9005C10.0286 12.9819 10.0919 13.0543 10.1734 13.0543Z" fill="white"/>
<path d="M12.5895 13.0543H14.309C14.3904 13.0543 14.4628 12.9819 14.4628 12.9005V11.362C14.4628 11.2806 14.3995 11.2082 14.309 11.2082H12.5895C12.5081 11.2082 12.4357 11.2715 12.4357 11.362V12.9005C12.4357 12.9819 12.499 13.0543 12.5895 13.0543Z" fill="white"/>
<path d="M14.9698 13.0543H16.6892C16.7707 13.0543 16.8431 12.9819 16.8431 12.9005V11.362C16.8431 11.2806 16.7707 11.2082 16.6892 11.2082H14.9698C14.8883 11.2082 14.8159 11.2715 14.8159 11.362V12.9005C14.8159 12.9819 14.8883 13.0543 14.9698 13.0543Z" fill="white"/>
<path d="M14.9698 10.8462H16.6892C16.7707 10.8462 16.8431 10.7828 16.8431 10.6923V9.15385C16.8431 9.0724 16.7707 9 16.6892 9H14.9698C14.8883 9 14.8159 9.06335 14.8159 9.15385V10.6923C14.8159 10.7738 14.8883 10.8462 14.9698 10.8462Z" fill="white"/>
<path d="M17.3678 15.2534H19.0873C19.1687 15.2534 19.2411 15.1901 19.2411 15.0996V13.5611C19.2411 13.4797 19.1778 13.4073 19.0873 13.4073H17.3678C17.2864 13.4073 17.214 13.4706 17.214 13.5611V15.0996C17.223 15.1901 17.2864 15.2534 17.3678 15.2534Z" fill="white"/>
</svg>
