<svg width="219" height="119" viewBox="0 0 219 119" fill="none" xmlns="http://www.w3.org/2000/svg">
<path d="M172.494 39.4318C157.654 -6.75308 77.9 -8.76352 71.7793 43.0599C71.7793 43.0599 67.0551 44.0102 62.8816 43.3584C40.1445 39.8323 0.348919 83.9203 30.8899 117.611H201.437C219.884 85.4438 206.627 52.5231 172.494 39.4318Z" fill="#ECEFF5"/>
<path d="M145.924 32.3714C145.187 32.3714 144.59 31.7667 144.59 31.0207C144.59 30.2746 145.187 29.6699 145.924 29.6699C146.661 29.6699 147.258 30.2746 147.258 31.0207C147.258 31.7667 146.661 32.3714 145.924 32.3714ZM145.924 30.0861C145.412 30.0861 145.001 30.5024 145.001 31.0207C145.001 31.539 145.412 31.9552 145.924 31.9552C146.436 31.9552 146.847 31.539 146.847 31.0207C146.847 30.5024 146.428 30.0861 145.924 30.0861Z" fill="#E5EAF2"/>
<path d="M35.3265 53.2445C34.5895 53.2445 33.9922 52.6398 33.9922 51.8937C33.9922 51.1477 34.5895 50.543 35.3265 50.543C36.0634 50.543 36.6607 51.1477 36.6607 51.8937C36.6607 52.6398 36.0557 53.2445 35.3265 53.2445ZM35.3265 50.9592C34.8145 50.9592 34.4033 51.3754 34.4033 51.8937C34.4033 52.412 34.8145 52.8283 35.3265 52.8283C35.8385 52.8283 36.2496 52.412 36.2496 51.8937C36.2496 51.3833 35.8307 50.9592 35.3265 50.9592Z" fill="#E5EAF2"/>
<path d="M159.058 83.3382C158.321 83.3382 157.724 82.7335 157.724 81.9875C157.724 81.2414 158.321 80.6367 159.058 80.6367C159.795 80.6367 160.392 81.2414 160.392 81.9875C160.392 82.7335 159.787 83.3382 159.058 83.3382ZM159.058 81.0529C158.546 81.0529 158.135 81.4692 158.135 81.9875C158.135 82.5058 158.546 82.922 159.058 82.922C159.57 82.922 159.981 82.5058 159.981 81.9875C159.981 81.4692 159.562 81.0529 159.058 81.0529Z" fill="#E5EAF2"/>
<path d="M204.439 68.9359C203.702 68.9359 203.104 68.3312 203.104 67.5851C203.104 66.8391 203.702 66.2344 204.439 66.2344C205.176 66.2344 205.773 66.8391 205.773 67.5851C205.773 68.3312 205.176 68.9359 204.439 68.9359ZM204.439 66.6506C203.927 66.6506 203.516 67.0668 203.516 67.5851C203.516 68.1034 203.927 68.5197 204.439 68.5197C204.951 68.5197 205.362 68.1034 205.362 67.5851C205.362 67.0668 204.943 66.6506 204.439 66.6506Z" fill="#E5EAF2"/>
<path d="M154.644 65.0878C155.154 65.0878 155.567 64.6694 155.567 64.1533C155.567 63.6371 155.154 63.2188 154.644 63.2188C154.134 63.2188 153.721 63.6371 153.721 64.1533C153.721 64.6694 154.134 65.0878 154.644 65.0878Z" fill="#E5EAF2"/>
<path d="M197.155 99.5097C197.664 99.5097 198.078 99.0913 198.078 98.5752C198.078 98.059 197.664 97.6406 197.155 97.6406C196.645 97.6406 196.231 98.059 196.231 98.5752C196.231 99.0913 196.645 99.5097 197.155 99.5097Z" fill="#E5EAF2"/>
<path d="M130.123 37.4607C130.124 36.9446 129.711 36.5256 129.201 36.5248C128.691 36.5241 128.277 36.9419 128.277 37.458C128.276 37.9742 128.689 38.3932 129.199 38.3939C129.708 38.3946 130.122 37.9768 130.123 37.4607Z" fill="#E5EAF2"/>
<path d="M27.2513 102.557C27.7611 102.557 28.1744 102.138 28.1744 101.622C28.1744 101.106 27.7611 100.688 27.2513 100.688C26.7414 100.688 26.3281 101.106 26.3281 101.622C26.3281 102.138 26.7414 102.557 27.2513 102.557Z" fill="#E5EAF2"/>
<path d="M53.5494 38.0107C53.4331 38.0107 53.309 37.995 53.1926 37.9558L50.6404 37.1862C50.3224 37.0919 50.0586 36.872 49.9035 36.5736C49.7483 36.2752 49.7095 35.9375 49.8104 35.6155L50.6792 32.6941C49.6009 32.113 48.608 31.3826 47.7314 30.5266L45.2412 32.2308C44.6749 32.6156 43.8992 32.4664 43.5113 31.8931L42.0219 29.6628C41.8357 29.3879 41.7659 29.0502 41.828 28.7204C41.89 28.3905 42.0762 28.1078 42.3555 27.9193L44.8146 26.2388C44.2948 24.9979 43.969 23.6786 43.8449 22.32L40.9281 21.9823C40.5945 21.943 40.2998 21.7781 40.0981 21.5111C39.8886 21.252 39.8033 20.9221 39.8343 20.5844L40.1369 17.9143C40.2144 17.2233 40.835 16.7285 41.5177 16.807L44.3957 17.1447C44.7835 15.9196 45.3421 14.7652 46.0635 13.705L44.0699 11.6239C43.8371 11.3804 43.713 11.0663 43.7208 10.7286C43.7285 10.3909 43.8604 10.0768 44.1009 9.84907L46.0247 7.98786C46.5212 7.50881 47.3047 7.52451 47.7857 8.01927L49.7561 10.0925C50.8731 9.37002 52.091 8.8203 53.371 8.47476L53.1848 5.62403C53.1383 4.93295 53.658 4.3361 54.3485 4.28899L57.0093 4.11621C57.6997 4.0691 58.2892 4.59526 58.328 5.28635L58.5142 8.13707C59.833 8.31769 61.1052 8.69465 62.3076 9.26793L63.9987 6.95123C64.4021 6.39365 65.1856 6.27585 65.7364 6.68422L67.8774 8.27843C68.1412 8.47476 68.3196 8.77318 68.3661 9.10301C68.4127 9.43285 68.3351 9.76269 68.1334 10.0375L66.4268 12.37C67.2801 13.328 67.9783 14.4039 68.5213 15.5662L71.3372 14.8594C72.0044 14.6945 72.6793 15.1029 72.8422 15.7704L73.486 18.3777C73.5636 18.6997 73.5171 19.0373 73.3464 19.3279C73.1757 19.6185 72.9042 19.8227 72.5784 19.9012L69.7314 20.6158C69.7857 21.9745 69.6306 23.3252 69.266 24.6288L71.919 25.9717C72.2138 26.121 72.4388 26.3801 72.5396 26.7021C72.6405 27.0241 72.6172 27.3618 72.4698 27.6602L71.2752 30.0633C70.9649 30.6837 70.2202 30.935 69.6073 30.6209L66.9232 29.2622C66.163 30.2282 65.2787 31.0842 64.278 31.7988L65.5114 34.5867C65.651 34.893 65.6588 35.2307 65.5424 35.5448C65.4261 35.859 65.1933 36.1103 64.8908 36.2438L62.4627 37.3432C61.8344 37.6259 61.0974 37.3432 60.8182 36.715L59.577 33.9192C58.9253 34.0606 58.266 34.1627 57.5988 34.2019C56.9317 34.249 56.2645 34.2412 55.6052 34.1784L54.7286 37.1155C54.5812 37.6573 54.0847 38.0107 53.5494 38.0107ZM47.7779 29.9926L47.8943 30.1104C48.8097 31.0292 49.8647 31.8067 51.0128 32.4035L51.1679 32.4821L50.1982 35.7333C50.1362 35.9453 50.1594 36.1731 50.2603 36.3694C50.3689 36.5658 50.5396 36.715 50.7568 36.7778L53.309 37.5474C53.7511 37.6809 54.2166 37.4296 54.3485 36.982L55.3181 33.715L55.4888 33.7307C56.187 33.8014 56.8851 33.8171 57.5833 33.77C58.2815 33.7229 58.9796 33.6208 59.6545 33.4559L59.8174 33.4166L61.1983 36.5265C61.3844 36.9506 61.8809 37.139 62.2998 36.9506L64.7279 35.8511C64.9296 35.7569 65.0847 35.5919 65.1701 35.3799C65.2476 35.1679 65.2399 34.9401 65.1546 34.7359L63.7815 31.6339L63.9211 31.5318C64.9839 30.7858 65.9303 29.8827 66.7216 28.846L66.8224 28.7125L69.809 30.2203C70.2202 30.4324 70.7244 30.2596 70.9261 29.8434L72.1207 27.4403C72.2216 27.2361 72.2371 27.0084 72.1673 26.7963C72.0975 26.5843 71.9501 26.4115 71.7484 26.3094L68.785 24.8095L68.8316 24.6446C69.2272 23.2859 69.3901 21.8645 69.3203 20.4352L69.3125 20.2624L72.4931 19.4614C72.7103 19.4064 72.8887 19.2729 73.0051 19.0766C73.1214 18.8881 73.1525 18.6604 73.0982 18.4405L72.4543 15.8646C72.3457 15.417 71.888 15.1421 71.4458 15.2521L68.3041 16.0453L68.2343 15.8882C67.6835 14.6552 66.9388 13.5244 66.0234 12.5192L65.907 12.3935L67.8154 9.78624C67.9472 9.60562 68.0015 9.38573 67.9705 9.15799C67.9395 8.9381 67.8231 8.74177 67.6447 8.60826L65.5036 7.01406C65.1313 6.73919 64.6115 6.81772 64.34 7.19468L62.4472 9.78624L62.2921 9.70771C61.0354 9.08731 59.6933 8.68679 58.3047 8.52187L58.1341 8.49831L57.9324 5.30205C57.9014 4.83871 57.5057 4.48532 57.048 4.51673L54.3795 4.69735C53.9218 4.72877 53.5727 5.12928 53.6037 5.59262L53.8132 8.78888L53.6503 8.82815C52.2927 9.18155 51.0205 9.74698 49.8491 10.5323L49.7095 10.6265L47.4986 8.30984C47.1806 7.97215 46.6531 7.9643 46.3195 8.28628L44.3957 10.1475C44.2328 10.3046 44.1474 10.5166 44.1397 10.7365C44.1319 10.9642 44.2173 11.1763 44.3724 11.3333L46.5988 13.6657L46.4979 13.8071C45.7222 14.9144 45.1326 16.1395 44.737 17.4353L44.6905 17.6002L41.4711 17.2233C41.0134 17.1683 40.6023 17.4981 40.548 17.9615L40.2455 20.6316C40.2222 20.8514 40.2842 21.0713 40.4161 21.252C40.5558 21.4326 40.7497 21.5425 40.9747 21.5661L44.225 21.943L44.2405 22.1158C44.3491 23.5451 44.6982 24.9273 45.2645 26.223L45.3343 26.3801L42.5882 28.257C42.402 28.3827 42.2779 28.5712 42.2391 28.7911C42.2003 29.0109 42.2391 29.2387 42.371 29.4193L43.8604 31.6496C44.1164 32.0344 44.6362 32.1365 45.0163 31.8774L47.7779 29.9926ZM56.7688 28.7596C52.8745 28.7596 49.5854 25.6969 49.3294 21.7153C49.0657 17.5688 52.1841 13.9799 56.2956 13.705C58.2815 13.5715 60.2053 14.2312 61.7025 15.5584C63.1997 16.8856 64.0995 18.7232 64.2237 20.7336C64.3555 22.7441 63.6962 24.6838 62.3852 26.1916C61.0664 27.7073 59.2512 28.6104 57.2575 28.7439C57.0946 28.7518 56.9317 28.7596 56.7688 28.7596ZM56.792 14.0977C56.6369 14.0977 56.4818 14.1055 56.3188 14.1134C52.4401 14.3725 49.4845 17.7651 49.7328 21.6839C49.981 25.6026 53.3478 28.579 57.2265 28.3277C59.1038 28.2021 60.8259 27.3461 62.0671 25.9168C63.3083 24.4875 63.9289 22.6577 63.8048 20.7572C63.6806 18.8567 62.8351 17.1212 61.4232 15.8725C60.1355 14.7181 58.4987 14.0977 56.792 14.0977Z" fill="#94A4C4"/>
<path d="M119.535 117.407H58.4836C56.3736 117.407 54.6592 115.672 54.6592 113.535V23.1998C54.6592 21.0637 56.3736 19.3281 58.4836 19.3281H119.535C121.645 19.3281 123.359 21.0637 123.359 23.1998V113.535C123.359 115.672 121.645 117.407 119.535 117.407Z" fill="#61A9FF"/>
<path d="M101.11 23.6465H76.8994V27.7616H101.11V23.6465Z" fill="#F9F9F9"/>
<path d="M116.509 34.0371H61.5166V46.3824H116.509V34.0371Z" fill="#E5EAF2"/>
<path d="M114.105 35.7266H63.9219V44.695H114.105V35.7266Z" fill="white"/>
<path d="M102.166 57.0942H98.427C97.3022 57.0942 96.3945 56.1754 96.3945 55.0367V54.165C96.3945 53.0262 97.3022 52.1074 98.427 52.1074H102.166C103.291 52.1074 104.199 53.0262 104.199 54.165V55.0367C104.191 56.1754 103.283 57.0942 102.166 57.0942Z" fill="#A0CCFF"/>
<path d="M114.477 57.0942H110.738C109.613 57.0942 108.705 56.1754 108.705 55.0367V54.165C108.705 53.0262 109.613 52.1074 110.738 52.1074H114.477C115.601 52.1074 116.509 53.0262 116.509 54.165V55.0367C116.501 56.1754 115.594 57.0942 114.477 57.0942Z" fill="#A0CCFF"/>
<path d="M115.54 69.6276H108.038C107.503 69.6276 107.068 69.1878 107.068 68.646V64.091C107.068 63.5492 107.503 63.1094 108.038 63.1094H115.54C116.075 63.1094 116.509 63.5492 116.509 64.091V68.646C116.501 69.1878 116.067 69.6276 115.54 69.6276Z" fill="#A0CCFF"/>
<path d="M100.474 69.6276H92.9726C92.4373 69.6276 92.0029 69.1878 92.0029 68.646V64.091C92.0029 63.5492 92.4373 63.1094 92.9726 63.1094H100.474C101.009 63.1094 101.444 63.5492 101.444 64.091V68.646C101.444 69.1878 101.009 69.6276 100.474 69.6276Z" fill="#A0CCFF"/>
<path d="M85.4174 69.6276H77.916C77.3807 69.6276 76.9463 69.1878 76.9463 68.646V64.091C76.9463 63.5492 77.3807 63.1094 77.916 63.1094H85.4174C85.9527 63.1094 86.3871 63.5492 86.3871 64.091V68.646C86.3871 69.1878 85.9527 69.6276 85.4174 69.6276Z" fill="#A0CCFF"/>
<path d="M70.3598 69.6276H62.8584C62.3231 69.6276 61.8887 69.1878 61.8887 68.646V64.091C61.8887 63.5492 62.3231 63.1094 62.8584 63.1094H70.3598C70.895 63.1094 71.3295 63.5492 71.3295 64.091V68.646C71.3295 69.1878 70.895 69.6276 70.3598 69.6276Z" fill="#A0CCFF"/>
<path d="M115.54 81.401H108.038C107.503 81.401 107.068 80.9612 107.068 80.4193V75.8645C107.068 75.3226 107.503 74.8828 108.038 74.8828H115.54C116.075 74.8828 116.509 75.3226 116.509 75.8645V80.4193C116.501 80.9612 116.067 81.401 115.54 81.401Z" fill="#A0CCFF"/>
<path d="M100.474 81.401H92.9726C92.4373 81.401 92.0029 80.9612 92.0029 80.4193V75.8645C92.0029 75.3226 92.4373 74.8828 92.9726 74.8828H100.474C101.009 74.8828 101.444 75.3226 101.444 75.8645V80.4193C101.444 80.9612 101.009 81.401 100.474 81.401Z" fill="#F9F9F9"/>
<path d="M85.4174 81.401H77.916C77.3807 81.401 76.9463 80.9612 76.9463 80.4193V75.8645C76.9463 75.3226 77.3807 74.8828 77.916 74.8828H85.4174C85.9527 74.8828 86.3871 75.3226 86.3871 75.8645V80.4193C86.3871 80.9612 85.9527 81.401 85.4174 81.401Z" fill="#F9F9F9"/>
<path d="M70.3598 81.401H62.8584C62.3231 81.401 61.8887 80.9612 61.8887 80.4193V75.8645C61.8887 75.3226 62.3231 74.8828 62.8584 74.8828H70.3598C70.895 74.8828 71.3295 75.3226 71.3295 75.8645V80.4193C71.3295 80.9612 70.895 81.401 70.3598 81.401Z" fill="#F9F9F9"/>
<path d="M115.54 93.1725H108.038C107.503 93.1725 107.068 92.7327 107.068 92.1908V87.636C107.068 87.0941 107.503 86.6543 108.038 86.6543H115.54C116.075 86.6543 116.509 87.0941 116.509 87.636V92.1908C116.501 92.7327 116.067 93.1725 115.54 93.1725Z" fill="#283252"/>
<path d="M100.474 93.1725H92.9726C92.4373 93.1725 92.0029 92.7327 92.0029 92.1908V87.636C92.0029 87.0941 92.4373 86.6543 92.9726 86.6543H100.474C101.009 86.6543 101.444 87.0941 101.444 87.636V92.1908C101.444 92.7327 101.009 93.1725 100.474 93.1725Z" fill="#F9F9F9"/>
<path d="M85.4174 93.1725H77.916C77.3807 93.1725 76.9463 92.7327 76.9463 92.1908V87.636C76.9463 87.0941 77.3807 86.6543 77.916 86.6543H85.4174C85.9527 86.6543 86.3871 87.0941 86.3871 87.636V92.1908C86.3871 92.7327 85.9527 93.1725 85.4174 93.1725Z" fill="#F9F9F9"/>
<path d="M70.3598 93.1725H62.8584C62.3231 93.1725 61.8887 92.7327 61.8887 92.1908V87.636C61.8887 87.0941 62.3231 86.6543 62.8584 86.6543H70.3598C70.895 86.6543 71.3295 87.0941 71.3295 87.636V92.1908C71.3295 92.7327 70.895 93.1725 70.3598 93.1725Z" fill="#F9F9F9"/>
<path d="M115.54 105.36H108.038C107.503 105.36 107.068 104.92 107.068 104.378V99.8235C107.068 99.2816 107.503 98.8418 108.038 98.8418H115.54C116.075 98.8418 116.509 99.2816 116.509 99.8235V104.378C116.501 104.92 116.067 105.36 115.54 105.36Z" fill="#2CC5BD"/>
<path d="M100.474 105.36H92.9726C92.4373 105.36 92.0029 104.92 92.0029 104.378V99.8235C92.0029 99.2816 92.4373 98.8418 92.9726 98.8418H100.474C101.009 98.8418 101.444 99.2816 101.444 99.8235V104.378C101.444 104.92 101.009 105.36 100.474 105.36Z" fill="#F9F9F9"/>
<path d="M85.4174 105.36H77.916C77.3807 105.36 76.9463 104.92 76.9463 104.378V99.8235C76.9463 99.2816 77.3807 98.8418 77.916 98.8418H85.4174C85.9527 98.8418 86.3871 99.2816 86.3871 99.8235V104.378C86.3871 104.92 85.9527 105.36 85.4174 105.36Z" fill="#F9F9F9"/>
<path d="M70.3598 105.36H62.8584C62.3231 105.36 61.8887 104.92 61.8887 104.378V99.8235C61.8887 99.2816 62.3231 98.8418 62.8584 98.8418H70.3598C70.895 98.8418 71.3295 99.2816 71.3295 99.8235V104.378C71.3295 104.92 70.895 105.36 70.3598 105.36Z" fill="#F9F9F9"/>
<path d="M103.174 42.2447C103.321 42.2604 103.484 42.2447 103.717 42.2211C104.105 42.1662 104.469 42.0012 104.756 41.7342C105.082 41.4358 105.323 40.996 105.416 40.3992H105.392C105.121 40.7369 104.718 40.9411 104.229 40.9411C103.337 40.9411 102.763 40.2578 102.763 39.4018C102.763 38.4516 103.445 37.6191 104.454 37.6191C105.47 37.6191 106.091 38.4516 106.091 39.7317C106.091 40.839 105.726 41.6086 105.237 42.0876C104.857 42.4646 104.33 42.7002 103.794 42.763C103.554 42.8023 103.337 42.8101 103.174 42.8023V42.2447ZM103.414 39.3547C103.414 39.983 103.787 40.4227 104.368 40.4227C104.818 40.4227 105.168 40.195 105.346 39.8966C105.385 39.8338 105.408 39.7552 105.408 39.6531C105.408 38.7971 105.098 38.1375 104.392 38.1375C103.818 38.1296 103.414 38.6401 103.414 39.3547Z" fill="#61A9FF"/>
<path d="M107.092 42.2447C107.239 42.2604 107.402 42.2447 107.635 42.2211C108.023 42.1662 108.387 42.0012 108.674 41.7342C109 41.4358 109.241 40.996 109.334 40.3992H109.31C109.039 40.7369 108.636 40.9411 108.147 40.9411C107.255 40.9411 106.681 40.2578 106.681 39.4018C106.681 38.4516 107.363 37.6191 108.372 37.6191C109.38 37.6191 110.009 38.4516 110.009 39.7317C110.009 40.839 109.644 41.6086 109.155 42.0876C108.775 42.4646 108.248 42.7002 107.712 42.763C107.472 42.8023 107.255 42.8101 107.092 42.8023V42.2447ZM107.332 39.3547C107.332 39.983 107.705 40.4227 108.286 40.4227C108.736 40.4227 109.085 40.195 109.264 39.8966C109.303 39.8338 109.326 39.7552 109.326 39.6531C109.326 38.7971 109.016 38.1375 108.31 38.1375C107.736 38.1296 107.332 38.6401 107.332 39.3547Z" fill="#61A9FF"/>
<path d="M142.055 57.4942L139.557 65.2532L139.37 65.8265L138.215 69.4311L138.207 69.4547L134.476 69.3683L120.163 69.0384L119.116 66.0071L118.937 65.4966L116.168 57.4863C124.763 60.5098 131.846 53.921 142.055 57.4942Z" fill="#2CC5BD"/>
<path d="M139.37 65.8273L138.214 69.4319L134.475 69.3769L120.162 69.0471L119.115 66.0157C124.033 65.9215 132.505 65.8037 139.37 65.8273Z" fill="#2CC5BD"/>
<path d="M155.366 109.631C154.629 112.011 153.171 114.006 151.293 115.403C149.408 116.809 147.089 117.61 144.63 117.61H112.211C107.526 117.61 103.414 114.437 102.166 109.859C101.444 107.213 101.064 104.527 101.002 101.857C100.994 101.597 100.994 101.338 100.994 101.087C100.994 100.781 101.002 100.474 101.01 100.176C101.273 90.493 105.951 81.4775 113.453 75.4619L121.21 69.2422L138.959 69.6584L148.718 79.1137C150.091 80.4409 151.317 81.933 152.294 83.5743C153.473 85.5455 154.42 87.6344 155.141 89.7862C157.259 96.1238 157.398 103.074 155.366 109.631Z" fill="#2CC5BD"/>
<path d="M126.5 108.932V105.461C124.08 105.351 121.73 104.691 120.356 103.89L121.442 99.6104C122.963 100.451 125.088 101.22 127.439 101.22C129.495 101.22 130.907 100.419 130.907 98.9507C130.907 97.5607 129.751 96.6811 127.074 95.7701C123.211 94.4508 120.574 92.6288 120.574 89.0792C120.574 85.8593 122.816 83.3384 126.679 82.5688V79.0898H130.216V82.3097C132.636 82.4196 134.266 82.9301 135.452 83.5191L134.405 87.6499C133.467 87.2494 131.806 86.4012 129.2 86.4012C126.849 86.4012 126.097 87.4221 126.097 88.4509C126.097 89.6603 127.361 90.4221 130.433 91.5922C134.731 93.1314 136.469 95.1419 136.469 98.4324C136.469 101.684 134.196 104.464 130.038 105.202V108.932H126.5Z" fill="white"/>
<path d="M141.884 72.6041H116.773C115.733 72.6041 114.888 71.7403 114.888 70.6958V69.879C114.888 68.8267 115.741 67.9707 116.773 67.9707H141.884C142.923 67.9707 143.769 68.8346 143.769 69.879V70.6958C143.769 71.7403 142.923 72.6041 141.884 72.6041Z" fill="white"/>
<path opacity="0.4" d="M155.366 109.632C154.629 112.012 153.171 114.007 151.293 115.404C149.408 116.81 147.089 117.611 144.63 117.611H112.211C107.526 117.611 103.415 114.438 102.166 109.86C101.444 107.213 101.064 104.528 101.002 101.858C106.362 107.033 112.685 113.802 127.463 114.014C145.809 114.274 153.714 105.564 155.133 89.7793C157.259 96.1247 157.398 103.075 155.366 109.632Z" fill="#2CC5BD"/>
<path d="M219 117.203H0V117.619H219V117.203Z" fill="#E5EAF2"/>
</svg>
