<svg width="607" height="537" viewBox="0 0 607 537" fill="none" xmlns="http://www.w3.org/2000/svg">
<ellipse cx="301.865" cy="261.813" rx="262.223" ry="261.813" fill="#E6EEFF"/>
<path d="M331.863 386.88L271.018 395.248L223.609 386.88C228.933 468.528 152.622 505.802 152.622 505.802H277.863H402.85C402.85 505.802 326.539 468.528 331.863 386.88Z" fill="#E5EAF2"/>
<path d="M271.018 394.994L223.609 386.627C225.13 409.194 220.313 428.211 212.707 444.186L353.413 462.189C339.976 443.425 329.835 418.322 331.863 386.627L271.018 394.994Z" fill="#94A4C4"/>
<path d="M544.57 523.551C544.57 530.905 538.486 536.99 531.134 536.99H26.6201C19.2679 536.99 13.1833 530.905 13.1833 523.551C13.1833 516.198 19.2679 510.113 26.6201 510.113H531.387C538.739 510.113 544.57 516.198 544.57 523.551Z" fill="#E5EAF2"/>
<path d="M415.526 510.113C415.526 517.466 409.442 523.551 402.09 523.551H156.678C149.326 523.551 143.241 517.466 143.241 510.113C143.241 502.759 149.326 496.674 156.678 496.674H402.09C409.695 496.674 415.526 502.759 415.526 510.113Z" fill="white"/>
<path d="M572.711 435.818C569.923 458.385 549.387 474.106 526.824 471.317L36.0005 408.687C13.4368 405.898 -2.28172 385.359 0.50705 362.792L34.4793 96.8028C37.2681 74.4891 57.8036 58.5146 80.3672 61.3038L571.19 123.934C593.501 126.723 609.473 147.262 606.684 169.829L572.711 435.818Z" fill="white"/>
<path d="M571.19 123.934L80.1137 61.3038C57.8035 58.5146 37.2681 74.2356 34.2258 96.8028L0.25352 362.538C0.25352 363.045 0.253524 363.806 0 364.313L571.951 437.34C571.951 436.832 572.204 436.325 572.204 435.565L606.177 169.829C609.473 147.516 593.501 126.977 571.19 123.934Z" fill="#61A9FF"/>
<path d="M56.1304 94.8163L23.9634 347.107L553.866 414.69L586.033 162.4L56.1304 94.8163Z" fill="#283252"/>
<g opacity="0.1">
<path opacity="0.1" d="M23.8313 180.479L6.08463 318.671L301.948 89.703L163.777 72.207L23.8313 180.479Z" fill="white"/>
<path opacity="0.1" d="M583.36 127.484C579.557 125.709 575.5 124.441 571.19 123.934L374.709 98.8313L4.30994 385.612C10.141 397.784 21.8031 406.658 36.0005 408.433L194.2 428.718L583.36 127.484Z" fill="white"/>
<path opacity="0.1" d="M597.811 239.052L601.106 212.682L303.722 442.664L330.089 445.961L597.811 239.052Z" fill="white"/>
</g>
<g clip-path="url(#clip0_1736:7604)">
<path d="M159.447 243.264C155.195 246.454 149.028 245.816 145.839 241.563C142.65 237.311 143.287 231.145 147.54 227.955L225.574 167.358C229.827 164.168 235.993 164.806 239.182 169.059C242.372 173.311 241.734 179.477 237.481 182.667L159.447 243.264Z" fill="#E6EEFF"/>
<path d="M230.464 238.374C233.653 242.626 233.016 248.792 228.763 251.982C224.51 255.171 218.344 254.533 215.155 250.281L154.556 172.248C151.367 167.996 152.005 161.83 156.257 158.64C160.51 155.451 166.676 156.089 169.865 160.341L230.464 238.374Z" fill="#E6EEFF"/>
<path d="M387.17 272.394C382.918 275.583 376.752 274.945 373.562 270.693C370.373 266.44 371.011 260.274 375.263 257.085L453.51 196.487C457.763 193.298 463.929 193.936 467.118 198.188C470.308 202.441 469.67 208.607 465.417 211.796L387.17 272.394Z" fill="#E6EEFF"/>
<path d="M458.188 267.503C461.377 271.756 460.739 277.922 456.487 281.111C452.234 284.301 446.068 283.663 442.879 279.41L382.28 201.165C379.091 196.912 379.728 190.746 383.981 187.557C388.234 184.368 394.4 185.006 397.589 189.258L458.188 267.503Z" fill="#E6EEFF"/>
<path d="M336.565 341.496C330.611 340.646 326.359 335.33 326.997 329.164C329.336 310.241 315.94 293.018 297.229 290.679C278.305 288.34 261.082 301.736 258.743 320.446C257.893 326.4 252.577 330.652 246.411 330.014C240.457 329.164 236.205 323.848 237.055 317.682C240.883 286.852 269.162 264.952 299.993 268.992C330.824 273.032 352.725 301.098 348.685 331.928C348.047 338.094 342.731 342.347 336.565 341.496Z" fill="#E6EEFF"/>
</g>
<defs>
<clipPath id="clip0_1736:7604">
<rect width="325.32" height="185.195" fill="white" transform="translate(143.712 156.514)"/>
</clipPath>
</defs>
</svg>
