<svg width="238" height="227" viewBox="0 0 238 227" fill="none" xmlns="http://www.w3.org/2000/svg">
<path d="M171.077 43.0299L172.62 43.9332L173.455 44.3848L175.769 45.7397C175.769 45.7397 218.955 24.0618 213.428 4.25499C211.757 -1.87417 202.889 -3.42258 194.02 13.739C185.73 29.6748 171.077 43.0299 171.077 43.0299Z" fill="#A0CCFF"/>
<path d="M172.619 43.9335L173.455 44.3851C182.516 38.256 190.228 30.2558 195.241 24.4493C201.217 17.5459 204.816 12.0619 204.881 11.9974C205.009 11.8038 204.945 11.5458 204.752 11.4167C204.559 11.2877 204.302 11.3522 204.174 11.5458C204.109 11.6103 200.575 17.0298 194.598 23.9331C189.521 29.7397 181.745 37.7398 172.619 43.9335Z" fill="#E5EAF2"/>
<path d="M163.172 48.1277L164.586 50.1278L165.357 51.1601L167.542 54.1279C167.542 54.1279 234.121 50.2568 237.913 22.1272C239.07 13.4819 228.723 6.57854 208.094 23.5466C189.007 39.2243 163.172 48.1277 163.172 48.1277Z" fill="#E5EAF2"/>
<path d="M164.65 50.1273L165.422 51.1596C180.267 48.3209 194.405 42.4498 203.917 37.8045C215.228 32.3206 222.811 27.2882 222.875 27.2882C223.132 27.0946 223.197 26.7721 223.068 26.4495C222.875 26.1914 222.554 26.1269 222.233 26.2559C222.168 26.3204 214.649 31.2883 203.338 36.7077C193.763 41.4175 179.56 47.3531 164.65 50.1273Z" fill="#A0CCFF"/>
<path d="M82.5827 189.098L81.0403 190.001L80.2049 190.453L77.8913 191.807C77.8913 191.807 34.8332 169.871 40.4886 150.065C42.2238 144 51.0282 142.452 59.8326 159.678C68.0586 175.678 82.5827 189.098 82.5827 189.098Z" fill="#A0CCFF"/>
<path d="M81.0398 190L80.2044 190.452C71.1429 184.258 63.4952 176.258 58.5468 170.387C52.6343 163.419 49.0354 157.935 48.9712 157.87C48.8426 157.677 48.9069 157.419 49.0997 157.29C49.2925 157.161 49.5496 157.225 49.6781 157.419C49.7424 157.483 53.277 162.967 59.1894 169.871C64.2022 175.742 71.9141 183.806 81.0398 190Z" fill="#E5EAF2"/>
<path d="M90.4225 194.324L88.9443 196.324L88.1732 197.356L85.9881 200.324C85.9881 200.324 19.4087 196.065 15.8098 167.871C14.7173 159.226 25.0641 152.387 45.6292 169.484C64.7161 185.227 90.4225 194.324 90.4225 194.324Z" fill="#E5EAF2"/>
<path d="M89.0087 196.259L88.2375 197.291C73.3921 194.323 59.3178 188.387 49.8065 183.742C38.4957 178.194 30.9766 173.161 30.9123 173.097C30.6553 172.903 30.591 172.581 30.7195 172.258C30.9123 172 31.2337 171.935 31.555 172.065C31.6193 172.129 39.1384 177.097 50.3849 182.645C59.8962 187.42 74.099 193.42 89.0087 196.259Z" fill="#A0CCFF"/>
<path d="M171.848 161.613C180.267 150.709 188.429 138.903 192.927 130.386C198.776 119.289 201.153 110.386 199.868 103.934C199.804 103.483 199.354 103.225 198.968 103.289C198.519 103.354 198.262 103.805 198.326 104.192C200.447 115.483 190.678 135.161 170.049 161.29L171.848 161.613Z" fill="#A0CCFF"/>
<path d="M197.298 120.064C197.298 120.064 202.76 123.742 208.801 113.871C208.801 113.935 198.904 110.645 197.298 120.064Z" fill="#E5EAF2"/>
<path d="M194.406 125.354C194.406 125.354 198.39 120.128 188.879 113.482C188.943 113.482 185.151 123.225 194.406 125.354Z" fill="#E5EAF2"/>
<path d="M199.29 109.031C199.29 109.031 204.753 105.418 198.069 95.998C198.069 95.998 191.257 103.934 199.29 109.031Z" fill="#E5EAF2"/>
<path d="M189.007 136.062C189.007 136.062 192.863 141.353 201.924 134.127C201.924 134.127 193.698 127.74 189.007 136.062Z" fill="#E5EAF2"/>
<path d="M185.279 140.966C185.279 140.966 190.099 136.45 181.873 128.32C181.873 128.32 176.475 137.288 185.279 140.966Z" fill="#E5EAF2"/>
<path d="M180.846 148.193C180.846 148.193 184.637 153.548 193.763 146.516C193.763 146.516 185.666 139.935 180.846 148.193Z" fill="#E5EAF2"/>
<path d="M78.3405 93.8687C67.2225 85.8041 56.0403 76.7716 49.3566 69.8683C40.6165 60.9003 35.8608 53.0292 35.2181 46.513C35.1539 46.0613 35.4752 45.6742 35.9251 45.6742C36.3749 45.6097 36.7605 45.9323 36.7605 46.3839C37.8531 57.8035 52.827 73.9329 79.9472 93.159L78.3405 93.8687Z" fill="#A0CCFF"/>
<path d="M42.2235 61.2878C42.2235 61.2878 38.0462 66.3847 29.4346 58.6426C29.4988 58.5781 38.0462 52.6425 42.2235 61.2878Z" fill="#E5EAF2"/>
<path d="M46.4651 65.4817C46.4651 65.4817 41.1953 61.5461 48.3931 52.5137C48.3931 52.5137 54.8197 60.8364 46.4651 65.4817Z" fill="#E5EAF2"/>
<path d="M37.2113 51.2237C37.2113 51.2237 30.9133 49.2882 34.7692 38.3848C34.705 38.3848 43.5094 44.0623 37.2113 51.2237Z" fill="#E5EAF2"/>
<path d="M54.6909 74.1916C54.6909 74.1916 52.4416 80.3852 41.7734 75.998C41.7734 76.0626 47.8787 67.5463 54.6909 74.1916Z" fill="#E5EAF2"/>
<path d="M59.6395 77.8685C59.6395 77.8685 53.7913 74.9007 59.3181 64.7715C59.3181 64.7715 67.03 71.8039 59.6395 77.8685Z" fill="#E5EAF2"/>
<path d="M65.9381 83.5474C65.9381 83.5474 63.8174 89.8055 53.085 85.6119C53.085 85.6119 58.9974 76.9666 65.9381 83.5474Z" fill="#E5EAF2"/>
<path d="M184.7 26.4499V210.518C184.7 216.26 180.072 220.97 174.288 220.97H82.9667C80.0748 220.97 77.4399 219.809 75.5762 217.873C73.7124 216.002 72.5557 213.357 72.5557 210.518V26.4499C72.5557 20.7078 77.1828 15.998 82.9667 15.998H174.288C175.959 15.998 177.566 16.3852 178.98 17.1594C182.386 18.8368 184.7 22.3853 184.7 26.4499Z" fill="#283252"/>
<path d="M180.779 26.4499V210.518C180.779 216.26 176.152 220.97 170.368 220.97H79.1103C76.2183 220.97 73.5834 219.809 71.7197 217.873C69.856 216.002 68.6992 213.357 68.6992 210.518V26.4499C68.6992 20.7078 73.3264 15.998 79.1103 15.998H170.432C172.103 15.998 173.71 16.3852 175.123 17.1594C178.465 18.8368 180.779 22.3853 180.779 26.4499Z" fill="#283252"/>
<path d="M182.771 61.29H184.184C185.534 61.29 186.626 60.1932 186.626 58.8384V47.0962C186.626 45.7413 185.534 44.6445 184.184 44.6445H182.771V61.29Z" fill="#283252"/>
<path d="M68.699 61.29H67.5422C66.514 61.29 65.6143 60.4513 65.6143 59.3545V46.5801C65.6143 45.5478 66.4497 44.6445 67.5422 44.6445H68.699V61.29Z" fill="#283252"/>
<path d="M68.699 83.0967H67.5422C66.514 83.0967 65.6143 82.2579 65.6143 81.1611V68.3867C65.6143 67.3544 66.4497 66.4512 67.5422 66.4512H68.699V83.0967Z" fill="#283252"/>
<path d="M175.637 25.8053V211.164C175.637 213.68 173.581 215.745 171.074 215.745H78.5314C76.6677 215.745 74.9968 214.583 74.2899 212.97C74.0328 212.39 73.9043 211.809 73.9043 211.164V25.8053C73.9043 23.2892 75.9608 21.2246 78.4672 21.2246H171.01C171.331 21.2246 171.588 21.2246 171.91 21.2891C172.231 21.3536 172.552 21.4182 172.809 21.5472C174.223 22.1924 175.252 23.4827 175.509 25.0311C175.573 25.2892 175.637 25.5473 175.637 25.8053Z" fill="#F9F9F9"/>
<path d="M120.498 78.3867H74.1621V160.646H120.498V78.3867Z" fill="#E9E2E8"/>
<path d="M134.893 71.9347V157.42C134.893 161.356 132.323 164.711 128.788 165.937C127.888 166.259 126.924 166.388 125.96 166.388C121.076 166.388 117.027 162.324 117.027 157.42V71.9347C117.027 67.0314 121.076 62.9668 125.96 62.9668C126.924 62.9668 127.888 63.1604 128.788 63.4184C130.138 63.87 131.294 64.6442 132.258 65.612C133.929 67.2249 134.893 69.4831 134.893 71.9347Z" fill="#283252"/>
<path d="M134.893 71.9343V157.42C134.893 161.355 132.323 164.71 128.788 165.936C125.253 164.775 122.683 161.355 122.683 157.42V71.9343C122.683 67.9987 125.253 64.6438 128.788 63.418C130.137 63.8696 131.294 64.6438 132.258 65.6116C133.929 67.2245 134.893 69.4826 134.893 71.9343Z" fill="#283252"/>
<path d="M175.638 25.8053V44.838H73.8408V25.8053C73.8408 23.2892 75.8973 21.2246 78.4037 21.2246H170.946C171.268 21.2246 171.525 21.2246 171.846 21.2891C172.168 21.3536 172.489 21.4182 172.746 21.5472C174.16 22.1924 175.188 23.4827 175.445 25.0311C175.574 25.2892 175.638 25.5473 175.638 25.8053Z" fill="#E9E2E8"/>
<path d="M71.2705 45.4833V51.8705C71.2705 54.5157 70.178 56.9028 68.5071 58.6448C66.7719 60.3868 64.3941 61.4191 61.7592 61.4191C56.875 61.4191 52.8263 57.6771 52.2479 52.9028C52.1836 52.5802 52.1836 52.1931 52.1836 51.806V45.5478L75.4478 22.1925C76.1547 21.4828 77.0545 21.0957 78.0185 21.0957H95.0489L71.2705 45.4833Z" fill="#61A9FF"/>
<path d="M71.2061 45.5469V51.9341C71.2061 54.5793 70.1136 56.9665 68.4427 58.7084C66.7075 60.4504 64.3296 61.4827 61.6947 61.4827C56.8105 61.4827 52.7618 57.7407 52.1834 52.9664L52.1191 45.6759L71.2061 45.5469Z" fill="#61A9FF"/>
<path d="M133.224 21.2246L109.381 45.1606V51.9349C109.381 54.5801 108.289 56.9672 106.618 58.7092C104.882 60.4512 102.505 61.4835 99.8697 61.4835C94.5999 61.4835 90.3584 57.2253 90.3584 51.9349V45.3541L114.201 21.2246H133.224Z" fill="#61A9FF"/>
<path d="M109.38 45.1602V51.87C109.38 54.5152 108.288 56.9023 106.617 58.6443C104.881 60.3863 102.504 61.4185 99.8688 61.4185C94.599 61.4185 90.3574 57.1604 90.3574 51.87V45.2892L109.38 45.1602Z" fill="#61A9FF"/>
<path d="M148.132 44.838V51.8704C148.132 54.5156 147.04 56.9027 145.369 58.6447C143.634 60.3867 141.256 61.4189 138.621 61.4189C133.351 61.4189 128.467 57.1608 128.467 51.8704L128.531 45.096L128.66 44.967L152.309 21.2246H171.975L148.132 44.838Z" fill="#61A9FF"/>
<path d="M148.132 51.9348C148.132 54.58 147.04 56.9672 145.369 58.7091C143.634 60.4511 141.256 61.4834 138.621 61.4834C133.351 61.4834 128.467 57.2252 128.467 51.9348L128.531 45.1605L128.66 45.0314L148.196 44.8379L148.132 51.9348Z" fill="#61A9FF"/>
<path d="M167.22 44.7089V51.9348C167.22 54.58 166.127 56.9672 164.392 58.7091C162.657 60.4511 160.279 61.4834 157.644 61.4834C152.374 61.4834 148.133 57.2252 148.133 51.9348V44.8379L171.911 21.2891C172.232 21.3536 172.554 21.4181 172.811 21.5471C174.225 22.1923 175.253 23.4827 175.51 25.0311C175.574 25.2891 175.574 25.5472 175.574 25.8053V36.4506L167.22 44.7089Z" fill="#F9F9F9"/>
<path d="M167.219 51.9349C167.219 54.5801 166.126 56.9673 164.456 58.7093C162.72 60.4512 160.343 61.4835 157.708 61.4835C152.438 61.4835 148.196 57.2254 148.196 51.9349V44.838L167.283 44.709L167.219 51.9349Z" fill="#E9E2E8"/>
<path d="M114.136 21.2247L90.2932 45.3542V51.9349C90.2932 54.5802 89.2007 56.9673 87.5298 58.7093C85.7946 60.4512 83.4167 61.4835 80.7818 61.4835C75.512 61.4835 71.2705 57.2254 71.2705 51.9349V45.5477V45.4832L95.1131 21.1602H114.136V21.2247Z" fill="#F9F9F9"/>
<path d="M90.2932 45.3535V51.9343C90.2932 54.5795 89.2007 56.9666 87.5298 58.7086C85.7946 60.4506 83.4167 61.4829 80.7818 61.4829C75.512 61.4829 71.2705 57.2247 71.2705 51.9343V45.5471V45.4825L90.2932 45.3535Z" fill="#E9E2E8"/>
<path d="M152.31 21.2247L128.467 45.1606V51.9349C128.467 54.5802 127.374 56.9673 125.704 58.7093C123.968 60.4512 121.591 61.4835 118.956 61.4835C113.686 61.4835 109.444 57.2254 109.444 51.9349V45.0961L133.287 21.1602H152.31V21.2247Z" fill="#F9F9F9"/>
<path d="M128.596 45.0312L128.467 45.1603V51.9346C128.467 54.5798 127.375 56.967 125.704 58.7089C123.968 60.4509 121.591 61.4832 118.956 61.4832C113.686 61.4832 109.444 57.225 109.444 51.9346V45.1603L128.596 45.0312Z" fill="#E9E2E8"/>
<path d="M131.167 79.4171V150.193C131.167 153.354 128.596 155.935 125.447 155.935H5.71966C4.30581 155.935 2.95623 155.419 1.99224 154.515C0.77119 153.483 0 151.87 0 150.128V79.4171C0 76.2557 2.57063 73.675 5.71966 73.675H125.447C128.596 73.6105 131.167 76.1912 131.167 79.4171Z" fill="#61A9FF"/>
<path d="M131.167 88.1934H0V103.871H131.167V88.1934Z" fill="#283252"/>
<path d="M118.956 145.29H93.5712C92.0931 145.29 90.8721 144.064 90.8721 142.58V137.225C90.8721 135.741 92.0931 134.516 93.5712 134.516H118.956C120.434 134.516 121.655 135.741 121.655 137.225V142.58C121.72 144.064 120.499 145.29 118.956 145.29Z" fill="#F9F9F9"/>
<path d="M16.9658 122.451H8.28993C7.90434 122.451 7.58301 122.129 7.58301 121.742V117.225C7.58301 116.838 7.90434 116.516 8.28993 116.516H16.9658C17.3514 116.516 17.6727 116.838 17.6727 117.225V121.742C17.6085 122.129 17.3514 122.451 16.9658 122.451Z" fill="#F9F9F9"/>
<path d="M34.5744 122.451H25.9628C25.5772 122.451 25.2559 122.129 25.2559 121.742V117.225C25.2559 116.838 25.5772 116.516 25.9628 116.516H34.6387C35.0243 116.516 35.3456 116.838 35.3456 117.225V121.742C35.2813 122.129 34.96 122.451 34.5744 122.451Z" fill="#F9F9F9"/>
<path d="M52.2473 122.451H43.6356C43.25 122.451 42.9287 122.129 42.9287 121.742V117.225C42.9287 116.838 43.25 116.516 43.6356 116.516H52.3115C52.6971 116.516 53.0184 116.838 53.0184 117.225V121.742C52.9542 122.129 52.6329 122.451 52.2473 122.451Z" fill="#F9F9F9"/>
<path d="M69.9209 122.451H61.245C60.8594 122.451 60.5381 122.129 60.5381 121.742V117.225C60.5381 116.838 60.8594 116.516 61.245 116.516H69.9209C70.3065 116.516 70.6278 116.838 70.6278 117.225V121.742C70.6278 122.129 70.3065 122.451 69.9209 122.451Z" fill="#F9F9F9"/>
<path d="M87.5937 122.451H78.9179C78.5323 122.451 78.2109 122.129 78.2109 121.742V117.225C78.2109 116.838 78.5323 116.516 78.9179 116.516H87.5937C87.9793 116.516 88.3007 116.838 88.3007 117.225V121.742C88.2364 122.129 87.9151 122.451 87.5937 122.451Z" fill="#F9F9F9"/>
<path d="M105.202 122.451H96.5263C96.1407 122.451 95.8193 122.129 95.8193 121.742V117.225C95.8193 116.838 96.1407 116.516 96.5263 116.516H105.202C105.588 116.516 105.909 116.838 105.909 117.225V121.742C105.909 122.129 105.588 122.451 105.202 122.451Z" fill="#F9F9F9"/>
<path d="M122.876 122.451H114.2C113.814 122.451 113.493 122.129 113.493 121.742V117.225C113.493 116.838 113.814 116.516 114.2 116.516H122.876C123.262 116.516 123.583 116.838 123.583 117.225V121.742C123.583 122.129 123.262 122.451 122.876 122.451Z" fill="#F9F9F9"/>
<path d="M131.167 79.8691H0V82.9015H131.167V79.8691Z" fill="#61A9FF"/>
<path d="M20.822 146.838H12.0818C9.6397 146.838 7.64746 144.838 7.64746 142.386V133.547C7.64746 131.096 9.6397 129.096 12.0818 129.096H20.822C23.2641 129.096 25.2563 131.096 25.2563 133.547V142.322C25.2563 144.838 23.2641 146.838 20.822 146.838Z" fill="#61A9FF"/>
<path d="M85.0878 142.323H30.976C30.1405 142.323 29.4336 141.614 29.4336 140.775V138.968C29.4336 138.13 30.1405 137.42 30.976 137.42H85.0878C85.9232 137.42 86.6302 138.13 86.6302 138.968V140.775C86.6302 141.614 85.9232 142.323 85.0878 142.323Z" fill="#F9F9F9"/>
<path opacity="0.09" d="M82.5816 73.6113L1.99224 154.516C0.77119 153.484 0 151.871 0 150.129V125.29L51.4769 73.6113H82.5816Z" fill="#F9F9F9"/>
<path d="M192.09 82.3845V101.546C192.09 102.772 191.126 103.74 189.905 103.74H170.818C169.725 103.74 167.99 102.965 167.219 101.224C167.155 101.159 167.155 101.094 167.09 100.965C167.026 100.836 167.026 100.707 166.962 100.643C166.962 100.643 166.962 100.643 166.962 100.578V100.514L166.897 85.4168V80.9651C166.897 79.8038 167.733 78.9005 168.89 78.7715C168.954 78.7715 169.018 78.7715 169.147 78.7715L188.619 78.836C188.684 78.836 188.812 78.836 188.876 78.836C190.869 79.0941 192.09 81.2231 192.09 82.3845Z" fill="#2CC5BD"/>
<path d="M190.419 81.0296V100.191C190.419 101.417 189.455 102.385 188.234 102.385H169.147C168.311 102.385 167.604 101.933 167.219 101.224C167.155 101.159 167.155 101.094 167.09 100.965C167.026 100.836 167.026 100.707 166.962 100.643C166.962 100.643 166.962 100.643 166.962 100.578V100.514C166.962 100.385 166.897 100.256 166.897 100.127V80.9651C166.897 79.8038 167.733 78.9005 168.89 78.7715C168.954 78.7715 169.018 78.7715 169.147 78.7715H188.234C188.491 78.7715 188.684 78.7715 188.876 78.9005C189.776 79.1586 190.419 79.9973 190.419 81.0296Z" fill="#2CC5BD"/>
<path d="M180.072 97.0942V99.0298H177.63V97.2233C175.895 97.0942 174.288 96.6426 173.26 95.9974L174.609 93.0296C175.766 93.7393 177.244 94.1264 178.53 94.1909C179.686 94.1909 180.072 93.9329 180.072 93.5458C180.072 92.0619 173.453 93.2232 173.453 88.707C173.453 86.7714 174.866 85.1585 177.694 84.7714V82.9004H180.136V84.7714C181.422 84.9004 182.643 85.223 183.607 85.8037L182.385 88.707C181.229 88.1263 180.072 87.8037 179.044 87.8037C177.887 87.8037 177.501 88.1263 177.501 88.5779C177.501 89.9973 184.121 88.9005 184.121 93.2877C184.121 95.0297 182.771 96.6426 180.072 97.0942Z" fill="#F9F9F9"/>
<path d="M203.401 176.193L162.721 176.064V226.775L203.401 226.904V176.193Z" fill="#61A9FF"/>
<path d="M173.197 182.451C173.582 182.451 173.968 182.193 173.968 181.742C174.225 179.161 175.318 170.645 179.495 167.612C180.652 166.774 181.873 166.451 183.351 166.58C190.677 167.29 191.77 178.838 191.962 181.871C191.962 182.258 192.348 182.58 192.734 182.58C193.183 182.58 193.505 182.193 193.505 181.742C193.312 178.387 192.155 166.064 183.544 165.225C181.68 165.032 180.009 165.483 178.531 166.58C173.904 169.999 172.747 178.838 172.49 181.613C172.361 182.064 172.747 182.451 173.197 182.451Z" fill="#61A9FF"/>
<path d="M199.867 176.193L159.187 176.064V226.775L199.867 226.904V176.193Z" fill="#61A9FF"/>
<path d="M171.333 182.193C171.333 183.032 170.691 183.677 169.855 183.677C169.02 183.677 168.377 183.032 168.377 182.193C168.377 181.354 169.02 180.709 169.855 180.709C170.691 180.709 171.333 181.354 171.333 182.193Z" fill="#61A9FF"/>
<path d="M190.87 182.193C190.87 183.032 190.228 183.677 189.392 183.677C188.557 183.677 187.914 183.032 187.914 182.193C187.914 181.354 188.557 180.709 189.392 180.709C190.228 180.709 190.87 181.354 190.87 182.193Z" fill="#61A9FF"/>
<path d="M169.918 182.58C170.304 182.58 170.689 182.322 170.689 181.871C170.947 179.29 172.039 170.774 176.216 167.741C177.373 166.903 178.594 166.58 180.072 166.709C187.399 167.419 188.491 178.967 188.684 182C188.684 182.387 189.069 182.709 189.455 182.709C189.905 182.709 190.226 182.322 190.226 181.871C190.033 178.516 188.877 166.193 180.265 165.354C178.401 165.161 176.73 165.612 175.252 166.709C170.625 170.128 169.468 178.967 169.211 181.742C169.147 182.129 169.468 182.516 169.918 182.58Z" fill="#283252"/>
</svg>
