<svg width="364" height="191" viewBox="0 0 364 191" fill="none" xmlns="http://www.w3.org/2000/svg">
<path d="M48.8104 129.41C48.8104 129.828 49.0807 130.22 49.5969 130.589C52.571 132.823 63.8284 134.492 77.2734 134.492C81.034 134.492 84.6226 134.37 87.9162 134.124C98.3625 133.363 105.736 131.546 105.736 129.41C105.736 127.274 98.3871 125.457 87.99 124.696C84.6718 124.451 81.0586 124.328 77.2734 124.328C61.5671 124.328 48.8104 126.611 48.8104 129.41Z" fill="#E5EAF2"/>
<path d="M75.5542 59.2403C78.2826 60.8361 79.6098 60.4433 80.2243 59.3876C80.8634 58.3073 80.5438 56.9815 77.8155 55.3857C72.8505 52.4641 69.3111 53.0042 69.3111 53.0042C69.3111 53.0042 70.5155 56.2695 75.5542 59.2403Z" fill="#C6D3ED"/>
<path d="M75.7011 79.7173C77.7657 82.1233 79.1422 82.1724 80.0762 81.3622C81.0102 80.552 81.1577 79.1771 79.093 76.7956C75.3324 72.4254 71.8175 71.7871 71.8175 71.7871C71.8175 71.7871 71.8913 75.298 75.7011 79.7173Z" fill="#C6D3ED"/>
<path d="M76.9554 133.044L77.5453 132.995C77.5453 132.896 76.7834 123.64 79.9049 110.088C82.7807 97.5668 89.6384 78.7358 105.935 60.0276L105.492 59.6348C89.0976 78.4412 82.2154 97.3949 79.315 109.965C76.1934 123.64 76.9554 132.97 76.9554 133.044Z" fill="#C6D3ED"/>
<path d="M89.4428 83.2534L89.959 82.9343C78.2345 64.6434 85.2888 42.3998 85.3626 42.1788L84.7973 41.9824C84.6989 42.2279 77.5463 64.7171 89.4428 83.2534Z" fill="#C6D3ED"/>
<path d="M98.4619 73.5541C104.558 73.5541 109.154 70.5097 109.203 70.4852L108.859 69.9941C108.81 70.0432 102.911 73.9224 95.709 72.7439L95.6107 73.3332C96.5939 73.4805 97.5279 73.5541 98.4619 73.5541Z" fill="#C6D3ED"/>
<path d="M77.9628 119.565C90.2771 118.166 100.232 112.175 107.606 101.741C107.851 101.372 108.097 101.029 108.171 100.98C108.171 100.98 108.146 101.004 108.097 101.004L107.901 100.439C107.728 100.489 107.63 100.636 107.089 101.397C99.8385 111.684 90.0067 117.576 77.8644 118.951L77.9628 119.565Z" fill="#C6D3ED"/>
<path d="M95.3654 113.131L95.9553 112.983C93.8415 105.152 99.0522 93.6124 99.126 93.4897L98.5852 93.2441C98.5607 93.2687 97.2334 96.2149 96.1519 100.119C95.1687 103.728 94.2347 108.908 95.3654 113.131Z" fill="#C6D3ED"/>
<path d="M106.352 56.7115C103.181 59.5595 102.911 61.1554 103.747 62.0883C104.582 62.9967 106.205 62.8985 109.375 60.0505C115.152 54.8456 116.43 50.6719 116.43 50.6719C116.43 50.6719 112.202 51.433 106.352 56.7115Z" fill="#C6D3ED"/>
<path d="M107.581 68.5223C103.698 70.29 102.96 71.7385 103.477 72.8679C103.993 73.9973 105.566 74.3901 109.449 72.6224C116.528 69.4061 119.011 65.7971 119.011 65.7971C119.011 65.7971 114.759 65.2569 107.581 68.5223Z" fill="#C6D3ED"/>
<path d="M97.332 91.5271C95.8818 94.326 96.3488 95.6272 97.4549 96.1919C98.561 96.7566 99.8883 96.3883 101.338 93.5648C103.968 88.4336 103.256 84.9473 103.256 84.9473C103.256 84.9473 100.011 86.3467 97.332 91.5271Z" fill="#C6D3ED"/>
<path d="M92.3172 64.0046C91.6044 67.0736 92.3664 68.2275 93.5707 68.5221C94.7751 68.8167 95.9795 68.1293 96.6923 65.0358C98.0196 59.4381 96.4465 56.1973 96.4465 56.1973C96.4465 56.1973 93.6691 58.3332 92.3172 64.0046Z" fill="#C6D3ED"/>
<path d="M87.4509 109.964C87.6229 113.132 88.6798 114.015 89.9088 113.942C91.1377 113.868 92.0964 112.886 91.9243 109.719C91.6048 103.974 89.2206 101.322 89.2206 101.322C89.2206 101.322 87.1313 104.121 87.4509 109.964Z" fill="#C6D3ED"/>
<path d="M104.903 101.225C102.887 103.656 103.059 105.03 104.018 105.816C104.976 106.602 106.353 106.528 108.368 104.098C112.055 99.6537 112.104 96.0938 112.104 96.0938C112.104 96.0938 108.639 96.7075 104.903 101.225Z" fill="#C6D3ED"/>
<path d="M83.5185 39.5755C82.5353 43.7247 83.199 45.1978 84.4034 45.4679C85.6078 45.7625 86.886 44.7559 87.8691 40.6067C89.688 33.0449 88.3607 28.8711 88.3607 28.8711C88.3607 28.8711 85.362 31.9155 83.5185 39.5755Z" fill="#C6D3ED"/>
<path d="M76.5356 133.853C76.5356 133.853 92.1435 75.6658 107.801 80.5024C123.458 85.3145 88.7024 117.182 84.696 134.246L76.5356 133.853Z" fill="#A0CCFF"/>
<path d="M78.8216 131.227C78.8216 131.227 102.713 84.5301 117.608 91.5027C132.503 98.4754 93.3235 119.221 86.8837 133.044L78.8216 131.227Z" fill="#A0CCFF"/>
<path d="M83.4179 132.332C91.5783 113.943 113.11 97.9112 113.331 97.7393L112.938 97.1992C112.717 97.3711 91.0375 113.501 82.8034 132.038L83.4179 132.332Z" fill="white"/>
<path d="M29.4167 91.0603C29.5641 91.3794 29.6871 91.7232 29.8345 92.0423C30.8177 94.2274 32.1204 96.3634 33.546 98.2047C35.1683 100.267 35.4878 102.526 35.3649 104.809C35.3649 104.883 35.3649 104.932 35.3649 105.005C35.1437 108.394 33.9885 111.782 34.6275 114.654C34.6767 114.851 34.7258 115.047 34.7996 115.268C35.3157 116.839 36.4464 118.239 38.7323 119.368C46.3765 123.1 47.6054 122.805 48.2937 126.071C48.3428 126.267 48.3674 126.464 48.4166 126.684C48.5149 127.298 48.6132 128.035 48.7607 128.943C48.7607 128.943 48.6132 129.95 49.5963 130.588C52.2509 132.577 61.4682 134.124 72.9222 134.418C73.1434 134.418 73.34 134.418 73.5613 134.443C74.7902 134.467 76.0192 134.492 77.2973 134.492C81.058 134.492 84.6466 134.369 87.9402 134.124C88.7513 132.012 89.5379 128.575 88.014 124.72C87.4486 123.296 86.5884 121.848 85.3102 120.375C78.4526 112.567 72.9468 113.942 74.2495 100.095C74.2741 99.9479 74.2741 99.7761 74.2986 99.6287C74.3232 99.506 74.3232 99.3587 74.3478 99.2359C75.9455 84.4805 55.987 90.8639 50.9728 85.8799C45.9832 80.896 42.5912 75.2982 33.5952 77.5078C27.2291 79.0055 27.0325 85.0943 29.4167 91.0603Z" fill="#A0CCFF"/>
<path d="M30.8426 79.1763C38.3639 85.7561 44.6071 92.1149 49.7688 98.0318C49.9408 98.2282 50.1129 98.4246 50.2604 98.5965C57.8309 107.312 63.0417 115.046 66.5565 121.135C66.6549 121.307 66.7532 121.478 66.8515 121.65C70.6613 128.304 72.3819 132.87 72.898 134.417C73.1193 134.417 73.3159 134.417 73.5371 134.442C72.8243 132.281 68.9653 121.749 57.9046 107.091C57.7817 106.919 57.6588 106.772 57.5359 106.6C51.2681 98.351 42.7391 88.825 31.2359 78.7344L30.8426 79.1763Z" fill="white"/>
<path d="M62.5261 102.942C70.711 102.647 74.3242 99.9955 74.4717 99.8973L74.103 99.4062C74.0784 99.4308 70.4652 102.058 62.4769 102.328L62.5261 102.942Z" fill="white"/>
<path d="M57.5613 107.239C60.8058 106.036 63.485 102.599 65.2793 97.3205C66.6311 93.3677 67.0244 89.7095 67.0244 89.685L66.4345 89.6113C66.4099 89.7586 64.8369 103.9 57.3647 106.675L57.5613 107.239Z" fill="white"/>
<path d="M48.9097 98.6464C49.8437 98.6464 50.409 98.5973 50.4336 98.5973L50.3844 98.0081C50.2615 98.0081 38.6109 99.0883 29.4919 90.9863L29.0987 91.4283C36.4479 97.9344 45.3948 98.6464 48.9097 98.6464Z" fill="white"/>
<path d="M35.4388 105.422C39.5682 104.833 42.1736 102.967 43.6238 101.494C45.1969 99.8983 45.8114 98.4743 45.8359 98.4007L45.2706 98.1797C45.246 98.2288 42.911 103.728 35.3651 104.833L35.4388 105.422Z" fill="white"/>
<path d="M51.7124 126.953C60.6347 126.953 67.0991 121.478 67.1729 121.405L66.7796 120.963C66.7058 121.037 58.693 127.813 48.2713 126.07L48.1729 126.659C49.3773 126.855 50.5572 126.953 51.7124 126.953Z" fill="white"/>
<path d="M60.56 124.94L61.0762 124.621C59.3065 121.773 55.1525 117.943 45.4928 115.905C39.7412 114.678 34.6779 114.678 34.6287 114.678V115.267C34.8008 115.267 54.5872 115.39 60.56 124.94Z" fill="white"/>
<g opacity="0.5">
<path d="M174.279 190.999C78.0274 190.999 0.000152588 183.515 0.000152588 174.283C0.000152588 165.051 78.0274 157.566 174.279 157.566C270.53 157.566 348.558 165.051 348.558 174.283C348.558 183.515 270.53 190.999 174.279 190.999Z" fill="#ECEFF5"/>
</g>
<path d="M272.732 117.134C272.732 117.134 294.731 20.377 325.308 26.2448C355.885 32.1126 293.699 88.4091 288.34 116.742L272.732 117.134Z" fill="#A0CCFF"/>
<path d="M281.483 116.987C284.826 97.3461 295.199 77.3366 303.285 64.0051C312.06 49.5443 320.171 39.6255 320.245 39.5273L319.631 39.0117C319.557 39.1099 311.421 49.0778 302.597 63.5877C294.461 76.9929 284.04 97.1005 280.697 116.84L281.483 116.987Z" fill="white"/>
<path d="M348.94 96.4136C337.241 106.75 350.759 125.654 333.504 130.417C316.225 135.18 316.938 133.511 313.349 144.191C313.349 144.191 314.775 153.177 308.655 156.589C289.409 167.269 286.435 148.021 263.797 143.773C257.456 142.595 251.434 141.22 245.977 139.796C245.264 135.991 245.068 129.926 248.853 123.911C250.229 121.702 252.171 119.492 254.801 117.43C269.106 106.185 278.029 110.654 280.02 85.2673C282.011 59.8811 313.644 76.9443 323.624 70.119C333.627 63.2937 341.124 54.9462 355.552 61.4769C369.956 67.983 360.64 86.0775 348.94 96.4136Z" fill="#A0CCFF"/>
<path d="M270.753 145.197L269.844 144.731C270.041 144.338 291.031 103.853 359.165 63.5391L359.682 64.4229C291.818 104.589 270.975 144.804 270.753 145.197Z" fill="white"/>
<path d="M298.749 94.4747C285.034 91.3812 279.799 85.7834 279.577 85.5625L280.339 84.875C280.388 84.9241 285.624 90.4728 298.995 93.4926L298.749 94.4747Z" fill="white"/>
<path d="M305.754 103.263C300.666 100.194 297.25 93.5648 295.898 84.0879C294.89 76.9925 295.382 70.7319 295.382 70.6582L296.414 70.7319C296.389 70.9774 294.595 95.3079 306.295 102.354L305.754 103.263Z" fill="white"/>
<path d="M323.059 91.5039C321.461 91.2092 320.551 90.9392 320.502 90.9392L320.797 89.9571C320.994 90.0062 340.313 95.4812 358.232 84.7031L358.772 85.587C344.32 94.2782 328.982 92.6332 323.059 91.5039Z" fill="white"/>
<path d="M343.632 107.191C336.873 104.883 333.088 100.93 331.097 98.0087C328.934 94.817 328.393 92.2145 328.369 92.1163L329.376 91.9199C329.401 92.0181 331.589 102.035 343.977 106.258L343.632 107.191Z" fill="white"/>
<path d="M241.811 21.3848C243.728 22.5879 244.687 22.3423 245.154 21.5812C245.621 20.8202 245.449 19.8626 243.532 18.6596C240.041 16.4745 237.51 16.7691 237.51 16.7691C237.51 16.7691 238.296 19.1507 241.811 21.3848Z" fill="#C6D3ED"/>
<path d="M246.998 39.8466C248.595 40.264 249.21 39.8712 249.382 39.2574C249.554 38.619 249.21 38.0053 247.588 37.5879C244.663 36.8268 242.967 37.6124 242.967 37.6124C242.967 37.6124 244.024 39.0855 246.998 39.8466Z" fill="#C6D3ED"/>
<path d="M241.148 74.17L241.566 74.1454C241.566 74.0718 241.222 67.4429 243.754 57.8187C246.089 48.931 251.423 35.6241 263.491 22.6364L263.172 22.3418C251.029 35.4032 245.671 48.7837 243.336 57.7205C240.829 67.4183 241.148 74.0963 241.148 74.17Z" fill="#C6D3ED"/>
<path d="M251.201 38.8658L251.569 38.6448C243.606 25.3134 249.161 9.57588 249.21 9.42857L248.816 9.28125C248.743 9.42856 243.114 25.3379 251.201 38.8658Z" fill="#C6D3ED"/>
<path d="M257.862 32.1136C262.213 32.2609 265.555 30.1741 265.604 30.1495L265.383 29.7812C265.334 29.8058 261.033 32.4574 255.92 31.4508L255.846 31.8681C256.535 32.04 257.198 32.1136 257.862 32.1136Z" fill="#C6D3ED"/>
<path d="M242.18 64.5463C251.004 63.8343 258.28 59.7588 263.761 52.4915C263.957 52.246 264.13 52.0005 264.179 51.9514C264.179 51.9514 264.154 51.976 264.13 51.976L264.007 51.5586C263.884 51.5831 263.81 51.7059 263.417 52.2215C257.985 59.3905 250.832 63.3924 242.131 64.1044L242.18 64.5463Z" fill="#C6D3ED"/>
<path d="M254.765 60.3467L255.183 60.2485C253.831 54.6017 257.838 46.4751 257.887 46.4015L257.493 46.2051C257.493 46.2296 256.461 48.2919 255.601 51.0663C254.814 53.6196 254.052 57.3023 254.765 60.3467Z" fill="#C6D3ED"/>
<path d="M263.883 20.2798C261.548 22.2439 261.327 23.3733 261.892 24.0607C262.458 24.7481 263.613 24.6991 265.948 22.7349C270.2 19.1504 271.208 16.1797 271.208 16.1797C271.208 16.1797 268.185 16.6216 263.883 20.2798Z" fill="#C6D3ED"/>
<path d="M264.498 28.7506C261.672 29.9291 261.131 30.9357 261.475 31.7459C261.819 32.5561 262.925 32.8753 265.752 31.6968C270.889 29.5608 272.732 27.032 272.732 27.032C272.732 27.032 269.709 26.5655 264.498 28.7506Z" fill="#C6D3ED"/>
<path d="M256.658 44.9533C255.552 46.9174 255.871 47.8749 256.633 48.2923C257.395 48.7097 258.354 48.4887 259.46 46.5001C261.475 42.891 261.033 40.3867 261.033 40.3867C261.033 40.3867 258.673 41.2951 256.658 44.9533Z" fill="#C6D3ED"/>
<path d="M253.709 25.1644C253.119 27.3495 253.635 28.1843 254.496 28.4052C255.356 28.6262 256.216 28.1597 256.806 25.9992C257.863 22.0218 256.831 19.6895 256.831 19.6895C256.831 19.6895 254.791 21.138 253.709 25.1644Z" fill="#C6D3ED"/>
<path d="M249.161 57.8918C249.21 60.1505 249.947 60.8134 250.832 60.7889C251.717 60.7643 252.43 60.0769 252.38 57.8181C252.282 53.6935 250.635 51.7539 250.635 51.7539C250.635 51.7539 249.062 53.718 249.161 57.8918Z" fill="#C6D3ED"/>
<path d="M261.844 52.0499C260.344 53.744 260.443 54.726 261.106 55.3153C261.77 55.9045 262.753 55.88 264.252 54.1859C266.981 51.0924 267.104 48.5391 267.104 48.5391C267.104 48.5391 264.621 48.9073 261.844 52.0499Z" fill="#C6D3ED"/>
<path d="M247.957 7.51277C247.146 10.4589 247.613 11.5147 248.473 11.7602C249.333 12.0057 250.267 11.3182 251.078 8.37207C252.553 3.01984 251.693 0 251.693 0C251.693 0 249.432 2.08689 247.957 7.51277Z" fill="#C6D3ED"/>
<path d="M242.157 180.356C242.231 180.307 244.074 179.079 244.344 177.533C244.443 176.968 244.32 176.428 243.951 175.937C243.681 175.569 243.312 175.372 242.894 175.372C241.542 175.397 239.871 177.385 239.158 178.294C239.257 177.361 239.306 175.569 238.47 174.857C238.077 174.513 237.536 174.464 236.848 174.685C236.16 174.906 235.693 175.348 235.447 175.961C234.734 177.655 235.963 180.16 236.012 180.282L236.282 180.16C236.282 180.135 235.078 177.655 235.742 176.084C235.963 175.569 236.381 175.2 236.971 174.979C237.536 174.783 237.978 174.832 238.298 175.102C239.306 175.961 238.814 178.809 238.79 178.834L238.667 179.497L239.06 178.932C239.084 178.908 241.346 175.667 242.919 175.667C243.263 175.667 243.509 175.814 243.73 176.109C244.049 176.526 244.148 176.993 244.074 177.484C243.828 178.883 242.034 180.086 242.009 180.111L242.157 180.356Z" fill="#E5EAF2"/>
<path d="M363.505 187.155C363.529 186.861 363.456 186.615 363.259 186.419C362.816 185.977 361.907 185.854 361.17 185.83C362.055 185.51 363.234 184.995 363.48 184.307C363.578 184.037 363.529 183.767 363.333 183.522C362.251 182.073 358.638 184.406 358.466 184.504L358.638 184.749C359.621 184.111 362.325 182.662 363.087 183.694C363.21 183.865 363.234 184.037 363.185 184.209C362.915 184.995 360.801 185.658 360.014 185.854L360.064 186.149C360.088 186.149 362.349 185.928 363.038 186.615C363.185 186.763 363.234 186.91 363.21 187.106L363.505 187.155Z" fill="#E5EAF2"/>
<path d="M270.176 179.619L270.471 179.595C270.446 179.399 270.496 179.227 270.643 179.104C271.208 178.539 272.978 178.564 273.617 178.637L273.666 178.343C272.88 178.146 270.791 177.483 270.496 176.698C270.446 176.526 270.471 176.354 270.594 176.182C271.356 175.151 274.06 176.6 275.043 177.238L275.215 176.992C275.067 176.894 271.43 174.537 270.348 176.01C270.151 176.256 270.102 176.526 270.201 176.796C270.446 177.459 271.602 177.999 272.511 178.318C271.774 178.343 270.84 178.466 270.422 178.907C270.225 179.079 270.151 179.325 270.176 179.619Z" fill="#E5EAF2"/>
<path d="M125.65 120.439C126.266 121.893 132.135 123.236 140.84 124.419C142.381 124.629 143.996 124.838 145.698 125.035C175.351 128.523 256.543 130.47 261.549 129.447C268.466 128.03 282.226 58.5109 282.226 58.5109C282.226 58.5109 241.698 57.8084 209.517 57.4633C198.506 57.3524 160.21 57.0566 153.108 57.0566C142.122 57.0566 124.663 118.097 125.65 120.439Z" fill="#F2F7FC"/>
<path d="M136.87 111.516C136.87 111.516 149.311 63.8841 150.211 59.8788C150.606 58.0919 151.839 57.451 153.084 57.2785C150.902 57.069 149.311 57.0566 149.311 57.0566C145.008 57.0566 141.186 59.9528 139.805 64.2538C136.796 73.6446 130.804 91.6745 125.182 109.298C125.465 109.298 136.87 111.516 136.87 111.516Z" fill="#ECEFF5"/>
<path d="M61.4601 153.947C63.4452 165.901 76.4161 173.505 89.72 173.505H116.081L114.034 104.478C114.034 104.478 88.8692 96.2831 82.5564 103.493C77.0203 109.815 62.0149 134.845 61.2258 149.646C61.1518 151.137 61.2381 152.566 61.4601 153.947Z" fill="#ECEFF5"/>
<path d="M131.433 111.233C131.433 111.233 95.8735 94.1767 89.1414 105.317C85.5658 111.233 75.7267 134.833 74.9992 149.647C74.2964 164.041 87.5632 173.506 101.212 173.506H125.453L131.433 111.233Z" fill="#C6D3ED"/>
<path d="M84.5789 161.626C84.9735 161.946 85.3803 162.254 85.7872 162.55C90.9288 166.334 97.6238 169.341 105.281 171.214C111.076 172.619 117.413 173.383 124.047 173.321H135.575H135.735L190.295 173.334L221.563 173.346H222.019V173.334L223.104 167.665L233.005 110.457C233.005 110.457 95.9716 107.376 84.8255 113.735C79.647 116.681 76.7125 128.918 75.085 142.388C74.2342 149.549 77.8962 156.277 84.5789 161.626Z" fill="#F2F7FC"/>
<path opacity="0.5" d="M84.5787 161.625C84.9733 161.945 85.3801 162.253 85.787 162.549C90.9285 166.332 97.6236 169.34 105.28 171.213C111.075 172.618 117.413 173.382 124.046 173.32H135.575H135.735L190.294 173.332L221.563 173.345L222.031 173.332L223.116 167.663C203.943 163.966 177.422 160.195 149.754 160.491C123.331 160.762 101.199 160.725 84.5787 161.625Z" fill="#C6D3ED"/>
<path d="M160.272 58.0675C160.544 57.9813 160.926 57.7594 161.259 57.5623H154.046C154.046 57.5623 156.82 55.9971 158.62 55.1961C160.42 54.395 164.834 55.1961 164.834 55.1961C164.834 55.1961 181.159 52.7683 190.32 52.9901C192.774 53.0517 210.245 50.2049 215.276 51.2155C217.927 51.7454 220.331 52.1644 221.872 52.4232C222.821 52.5711 223.697 51.8933 223.771 50.9443V50.932C224.054 47.6292 224.474 45.7806 224.474 45.7806L230.614 42.8105C231.884 43.4884 233.068 44.1169 233.696 44.4496C233.672 44.7947 233.647 45.1274 233.635 45.4479C233.573 47.1362 233.758 48.6398 234.054 49.9584C234.609 52.3862 236.495 54.2964 238.912 54.9373L238.937 54.9496C234.338 58.9179 210.899 65.8193 210.504 63.7982C209.974 61.0746 164.834 57.5623 164.834 57.5623C164.834 57.5623 163.577 58.0429 163.269 58.4866C162.96 58.9302 160.433 58.8686 159.964 58.9425C159.483 59.0042 159.718 58.2401 160.272 58.0675Z" fill="#FFB8B8"/>
<path d="M144.255 158.225C144.255 158.225 139.496 166.802 137.388 167.776C135.711 168.54 131.173 169.304 128.658 171.251C125.724 173.506 130.804 173.383 131.913 173.383C131.913 173.383 137.585 172.705 140.273 172.767C141.826 172.804 146.438 173.383 146.438 173.383C150.075 173.383 152.849 170.08 152.159 166.506C152.146 166.469 152.146 166.445 152.134 166.408C151.481 163.093 150.963 158.816 150.963 158.816L144.255 158.225Z" fill="#283252"/>
<path d="M203.586 56.2808C203.685 58.5114 204.313 60.9639 206.299 62.2456C209.443 64.279 208.641 69.5906 208.629 71.6857L222.068 52.4481C222.068 52.4481 218.345 51.4991 213.881 51.0062C211.169 50.7104 204.03 51.5238 204.03 51.5238C204.03 51.5238 203.463 53.7667 203.586 56.2808Z" fill="#C6D3ED"/>
<path d="M165.044 161.576C165.044 161.576 160.297 166.801 158.188 167.762C156.684 168.452 152.627 168.859 150.211 170.609C147.659 172.458 149.619 173.37 151.099 173.37C151.099 173.37 157.88 173.912 162.195 172.692C163.367 172.359 166.597 173.024 167.744 173.271C168.089 173.345 170.308 173.53 170.666 173.48C173.305 173.148 173.415 170.621 173.169 167.91C173.12 167.405 173.058 166.899 172.959 166.394C172.306 163.079 171.899 159.998 171.899 159.998L165.044 161.576Z" fill="#283252"/>
<path d="M141.665 159.431C141.665 159.431 143.379 160.627 144.883 161.132C147.251 161.921 151.677 161.551 151.677 161.551C151.677 161.551 162.971 139.651 165.351 134.118C167.607 128.868 169.506 117.358 169.506 117.358C171.232 117.259 184.129 119.095 195.46 117.863C201.489 117.21 206.594 115.718 208.32 112.674C213.301 103.912 197.396 94.127 197.396 94.127C197.396 94.127 166.288 99.7343 159.457 104.689C152.972 109.409 141.665 159.431 141.665 159.431Z" fill="#3D496D"/>
<path d="M163.354 161.317C163.354 161.317 165.77 162.586 167.336 162.845C170.184 163.326 173.242 162.377 173.242 162.377C173.242 162.377 174.981 151.889 182.095 135.104C183.883 130.889 183.612 122.263 183.846 122.152C183.846 122.152 222.759 122.484 227.271 113.747C227.999 112.329 228.825 108.336 228.726 107.042C228.258 100.141 219.282 97.4668 219.282 97.4668C219.282 97.4668 178.717 104.639 171.763 109.421C164.809 114.203 163.354 161.317 163.354 161.317Z" fill="#3D496D"/>
<path d="M194.117 93.696C196.484 97.9108 198.938 101.251 207.988 102.816C219.393 104.788 225.632 107.203 228.8 108.152C231.217 108.879 238.159 100.043 241.463 92.1432C244.669 84.5024 247.394 72.5975 247.418 71.6732C247.702 57.4884 236.913 54.087 236.913 54.05C236.913 54.05 228.899 59.4971 224.534 57.5993C220.231 55.7384 222.007 52.5218 222.056 52.4355L210.491 63.7859C210.491 63.7859 207.889 73.7436 204.745 80.9777C199.998 91.9337 193.475 92.5375 194.117 93.696Z" fill="#C6D3ED"/>
<path d="M224.461 45.7806C224.461 45.7806 224.054 47.6292 223.758 50.932C228.974 50.7595 233.104 45.3616 233.129 45.0165C232.5 44.6838 231.871 43.4884 230.601 42.8105L224.461 45.7806Z" fill="#F0A3A3"/>
<path d="M223.24 49.0952C223.24 49.0952 234.214 48.7871 233.906 41.9597C233.61 35.1323 234.818 30.4985 227.802 30.4122C220.787 30.3259 219.542 32.9879 219.085 35.2925C218.641 37.5847 220.38 48.9966 223.24 49.0952Z" fill="#FFB8B8"/>
<path d="M233.325 44.7206C233.325 44.7206 233.757 42.453 232.536 40.9495C232.536 40.9495 233.338 38.7312 232.487 38.2259C231.636 37.7206 231.18 39.6185 230.81 39.2611C230.44 38.9037 228.788 37.2154 228.282 34.9847C227.777 32.7664 220.169 34.3193 219.269 34.5904C219.121 34.6397 218.924 34.6274 218.702 34.5657C216.791 34.0728 216.224 31.608 217.704 30.3017C217.79 30.2277 217.876 30.1415 217.95 30.0675C218.752 29.2541 224.362 23.7946 230.761 26.4443C237.16 29.0939 237.641 32.3967 236.889 35.0587C236.124 37.7207 236.174 44.1784 233.325 44.7206Z" fill="#283252"/>
<path d="M244.706 61.9252C244.706 61.9252 246.592 65.6716 244.829 72.5237C241.352 86.0307 227.395 97.0113 225.373 95.9884C223.363 94.9779 218.061 95.1258 220.922 88.9885C223.782 82.8388 235.372 60.1875 235.372 60.1875L244.706 61.9252Z" fill="#FFB8B8"/>
<path d="M227.74 75.1123C231.39 77.1458 234.078 78.7849 239.676 78.7602C243.893 78.7479 247.357 77.9345 247.357 77.9345C247.357 77.9345 251.685 60.3483 243.597 56.7251C240.81 55.4804 236.902 54.0508 236.902 54.0508C236.902 54.0508 221.193 71.4645 227.74 75.1123Z" fill="#C6D3ED"/>
<path d="M199.025 90.4915C199.025 90.4915 218.531 88.4087 221.157 88.5073C223.771 88.6059 226.434 95.6428 226.064 96.0126C225.694 96.3823 217.84 96.7643 212.994 96.4193C207.668 96.0495 200.874 94.3242 200.874 94.3242L199.025 90.4915Z" fill="#FFB8B8"/>
<path d="M194.98 154.316C197.113 165.901 208.851 173.246 220.873 173.246H245.101L243.202 103.603C243.202 103.603 220.071 96.0119 214.264 103.234C209.172 109.556 195.375 134.586 194.647 149.387C194.573 151.112 194.684 152.751 194.98 154.316Z" fill="#ECEFF5"/>
<path d="M275.309 173.506C281.387 173.469 287.922 172.162 292.866 168.453C297.675 164.842 300.523 159.358 302.261 153.714C305.96 141.661 305.862 128.45 305.455 115.965C305.023 102.458 303.803 88.9392 302.237 75.5184C301.719 71.0818 301.571 65.3512 299.278 61.3583C297.477 58.2403 290.745 57.2051 287.503 57.2791C284.802 57.353 282.189 59.6822 279.908 61.0132C278.379 61.9128 276.85 62.8125 275.321 63.7121C273.829 64.5871 273.78 66.1153 273.262 67.742C268.897 81.3969 264.606 95.0765 260.192 108.719C255.001 106.538 249.724 104.578 244.287 103.087C239.182 101.694 233.338 100.326 228.036 101.436C222.525 102.582 220.848 107.893 218.838 112.527C216.175 118.664 213.869 124.962 211.97 131.383C210.121 137.619 208.271 144.384 208.419 150.953C208.555 156.869 211.268 162.353 215.657 166.272C221.255 171.287 228.616 173.493 235.989 173.493C249.095 173.506 262.202 173.506 275.309 173.506Z" fill="#C6D3ED"/>
<path d="M271.437 111.516C271.437 111.516 283.877 63.8841 284.778 59.8788C285.172 58.0919 286.405 57.451 287.65 57.2785C285.468 57.069 283.877 57.0566 283.877 57.0566C279.574 57.0566 275.752 59.9528 274.371 64.2538C271.363 73.6446 265.814 90.9474 260.192 108.583C260.463 108.571 271.437 111.516 271.437 111.516Z" fill="#ECEFF5"/>
<path d="M198.884 97.3009H226.905C226.905 96.0725 225.908 95.0625 224.666 95.0625H198.884V97.3009Z" fill="#283252"/>
<path d="M155.009 66.8086L165.401 97.3006H208.989L198.324 66.8086H155.009Z" fill="#283252"/>
<path d="M178.359 81.7679C178.632 82.9281 179.793 83.8835 180.954 83.8835C182.115 83.8835 182.852 82.9418 182.579 81.7679C182.306 80.6078 181.145 79.6523 179.984 79.6523C178.824 79.666 178.086 80.6078 178.359 81.7679Z" fill="#61A9FF"/>
<path d="M136.909 2.8125H175.415C178.485 2.8125 181 5.32596 181 8.39453V25.2794C181 28.1013 178.686 30.3988 175.878 30.3988H174.891L176.742 38.2322L165.079 30.3988H136.569C133.499 30.3988 131 27.8854 131 24.8322V8.71835C131 5.46474 133.654 2.8125 136.909 2.8125Z" fill="#699DEE"/>
<path d="M137.372 17.7536H172.469C172.947 17.7536 173.348 17.3526 173.348 16.8746V16.8438C173.348 16.3658 172.947 15.9648 172.469 15.9648H137.372C136.893 15.9648 136.492 16.3658 136.492 16.8438V16.8746C136.492 17.3526 136.893 17.7536 137.372 17.7536Z" fill="#F9F9F9"/>
<path d="M137.094 21.7631H152.783C153.107 21.7631 153.385 21.501 153.385 21.1617V20.5604C153.385 20.2365 153.123 19.959 152.783 19.959H137.094C136.77 19.959 136.492 20.2211 136.492 20.5604V21.1617C136.492 21.501 136.77 21.7631 137.094 21.7631Z" fill="#F9F9F9"/>
<path d="M155.607 21.7633H169.276C169.584 21.7633 169.831 21.5166 169.831 21.2082V20.5297C169.831 20.2213 169.584 19.9746 169.276 19.9746H155.607C155.299 19.9746 155.052 20.2213 155.052 20.5297V21.2082C155.052 21.5166 155.299 21.7633 155.607 21.7633Z" fill="#F9F9F9"/>
<path d="M148.016 10.5215H160.605C161.083 10.5215 161.484 10.1206 161.484 9.64261C161.484 9.16459 161.083 8.76367 160.605 8.76367H148.016C147.538 8.76367 147.137 9.16459 147.137 9.64261C147.137 10.1206 147.522 10.5215 148.016 10.5215Z" fill="#F9F9F9"/>
<path d="M137.186 10.5215H144.761C145.147 10.5215 145.455 10.2131 145.455 9.82765V9.45757C145.455 9.07207 145.147 8.76367 144.761 8.76367H137.186C136.801 8.76367 136.492 9.07207 136.492 9.45757V9.82765C136.492 10.2131 136.801 10.5215 137.186 10.5215Z" fill="#F9F9F9"/>
</svg>
