<svg width="194" height="143" viewBox="0 0 194 143" fill="none" xmlns="http://www.w3.org/2000/svg">
<path d="M13.1015 136.426C-12.0712 110.621 -1.18828 70.5373 47.6429 61.3821C96.4742 52.227 106.979 -2.51403 151.362 8.91802C195.745 20.3501 212.59 104.454 167.024 136.426H13.1015Z" fill="rgba(242, 249, 254, .04)"/>
<path d="M130.212 136.426C130.212 137.565 140.101 138.466 152.261 138.466C164.422 138.466 174.311 137.565 174.311 136.426C174.311 135.288 164.422 134.387 152.261 134.387C140.101 134.387 130.212 135.335 130.212 136.426Z" fill="rgba(242, 249, 254, .15)"/>
<path d="M70.4969 142.83C46.8209 142.83 27.6277 140.94 27.6277 138.609C27.6277 136.277 46.8209 134.387 70.4969 134.387C94.173 134.387 113.366 136.277 113.366 138.609C113.366 140.94 94.173 142.83 70.4969 142.83Z" fill="rgba(242, 249, 254, .15)"/>
<path d="M49.772 95.1564C49.7247 101.797 50.3398 108.154 52.0906 113.846C56.9169 129.832 70.2603 140.837 101.537 139.841C143.98 138.465 151.693 98.9039 155.242 61.9039C158.128 31.8769 149.138 9.81923 122.12 2.56154C115.827 0.853847 108.587 0 100.259 0C62.0745 0 49.914 69.8731 49.772 95.1564Z" fill="#2499EF"/>
<path d="M52.0911 113.894C56.9174 129.88 70.2608 140.885 101.537 139.889C143.981 138.513 151.693 98.9517 155.242 61.9517C158.129 31.9248 149.138 9.86707 122.12 2.60938C145.306 16.7927 151.078 42.5978 141.615 81.9222C132.152 121.199 108.209 132.631 92.7364 132.679C77.2164 132.679 57.7691 127.603 52.0911 113.894Z" fill="#2b9ff5"/>
<path d="M111.001 37.0952C141.284 42.5029 128.082 85.8593 121.363 97.9555C114.691 110.099 111.805 124.472 96.3796 125.089C80.9069 125.705 61.1757 118.685 59.2357 113.609C57.343 108.486 66.0494 81.8747 66.0494 81.8747C66.0494 81.8747 67.2796 54.9311 75.6547 47.8632C84.0772 40.7952 100.969 35.2927 111.001 37.0952Z" fill="#38a5f5"/>
<path opacity="0.05" d="M70.4974 110.193C76.0335 120.534 94.8657 124.187 101.348 122.574C105.133 121.625 109.723 118.163 113.84 113.182C116.49 108.486 118.619 103.078 121.411 98.0024C122.452 96.1049 123.682 93.4485 124.817 90.2703C127.136 79.1229 127.041 65.9357 122.735 61.4293C116.868 55.3101 111.143 51.0408 110.717 47.2459C110.386 44.2575 113.745 40.3677 113.083 37.569C112.42 37.3793 111.758 37.237 111.048 37.1421C102.768 35.6716 89.85 39.087 80.8598 44.3049C80.0081 47.578 79.9135 51.9895 77.8788 53.4126C74.7559 55.5947 69.9296 69.3036 68.6993 75.7075C67.4218 82.1113 70.4974 110.193 70.4974 110.193Z" fill="#283252"/>
<path d="M154.532 110.999C160.399 108.817 163.617 109.671 165.415 107.299C165.415 107.299 160.636 106.446 157.986 107.299L154.532 110.999Z" fill="#27CE88"/>
<path d="M157.986 107.252C165.131 103.505 167.213 99.2828 169.058 96.3418C170.856 93.4008 171.897 90.9815 172.607 90.7918C173.317 90.6021 169.673 91.3136 166.266 94.729C162.86 98.1444 161.44 98.6662 158.696 101.417C155.999 104.121 153.538 108.153 153.254 111H154.532L157.986 107.252Z" fill="#27CE88"/>
<path d="M155.951 106.258C159.784 100.328 156.329 96.9126 160.967 90.1767C166.408 82.3024 164.705 74.428 163.9 69.4473C163.9 69.4473 165.13 75.187 160.351 80.8319C155.62 86.4293 150.983 88.6114 150.557 96.9601C150.131 105.309 151.787 110.954 151.787 110.954H154.484L155.951 106.258Z" fill="#27CE88"/>
<path d="M152.45 111C153.727 105.45 151.22 95.963 151.03 86.5707C150.841 77.1784 156.046 70.2053 148.333 61.4297C148.333 61.4297 149.942 63.0425 147.718 69.4938C145.494 75.9451 140.573 82.7284 142.986 91.4092C145.4 100.09 150.605 107.205 150.557 111H152.45Z" fill="#27CE88"/>
<path d="M150.557 111.001C151.362 104.312 144.595 93.924 138.822 91.5996C138.822 91.5996 138.207 96.7227 141.945 100.85C145.683 105.024 148.428 110.953 148.428 110.953H150.557V111.001Z" fill="#27CE88"/>
<path d="M148.475 111C148.239 106.589 144.406 105.023 140.479 103.885C140.479 103.885 145.21 108.676 146.015 111H148.475Z" fill="#27CE88"/>
<path opacity="0.36" d="M146.63 111.474C145.967 108.106 144.453 107.062 144.737 106.872C145.021 106.683 146.724 109.529 147.576 110.952C147.576 110.952 148.712 107.11 147.008 103.836C145.305 100.516 143.649 98.0493 143.649 98.0493C143.649 98.0493 149.185 104.453 149.469 107.726C149.469 107.726 150.037 104.453 149.09 100.231C148.144 96.0095 145.636 91.9775 146.535 86.9967C147.434 82.0159 148.428 76.7031 148.428 76.7031C148.428 76.7031 148.002 81.7788 147.529 86.1429C147.056 90.5544 148.333 92.8313 149.611 97.5275C150.888 102.224 150.179 108.912 150.699 108.865C151.267 108.817 152.119 110.098 152.119 110.098C152.119 110.098 152.686 102.888 153.538 96.7685C154.39 90.6493 154.295 89.7954 158.033 86.1429C161.771 82.4903 162.244 80.2608 162.244 80.2608C162.244 80.2608 159.737 85.289 157.655 88.5621C155.573 91.8352 154.91 93.2582 154.91 98.998C154.91 104.738 154.626 107.963 154.153 108.912C153.68 109.813 157.702 103.457 160.872 101.275C164.043 99.0929 166.598 96.1518 166.882 95.63C167.165 95.1557 163.806 101.18 161.345 102.84C158.838 104.453 154.532 110.051 154.532 110.051L161.629 108.153L153.585 111.521H146.63V111.474Z" fill="#0D6942"/>
<path d="M140.289 112.802L144.075 134.623C144.122 134.907 144.217 135.145 144.359 135.334C144.737 135.998 145.447 136.425 146.251 136.425H159.831C160.92 136.425 161.819 135.619 162.008 134.575L165.557 112.755C165.793 111.427 164.752 110.193 163.38 110.193H142.466C141.094 110.193 140.053 111.427 140.289 112.802Z" fill="#3A3852"/>
<path opacity="0.54" d="M144.311 135.334C144.69 135.998 145.4 136.425 146.204 136.425H159.831C160.92 136.425 161.819 135.619 162.008 134.575L165.557 112.755C165.793 111.427 164.752 110.193 163.38 110.193H156.188C162.86 120.582 151.74 132.678 144.311 135.334Z" fill="#232433"/>
<path d="M29.3783 126.655C29.1417 130.545 17.8803 125.564 16.4134 123.43C16.4134 123.43 22.5646 141.171 25.7822 141.171C28.9998 141.171 37.7534 131.921 37.7534 131.921L36.7125 126.655H29.3783Z" fill="#AF2F48"/>
<path d="M25.7826 141.17C29.2841 142.688 20.5304 120.583 16.4138 121.105C12.2499 121.579 21.2402 139.225 25.7826 141.17Z" fill="#D35473"/>
<path d="M28.0538 101.087C28.2904 112.519 31.224 126.655 31.224 126.655H38.5109C38.5109 126.655 43.006 117.026 45.0879 107.349C45.6084 104.93 45.987 102.463 46.1289 100.186C46.1289 100.186 57.4377 103.601 68.3206 101.562C72.8631 100.708 78.0206 99.2847 82.4684 97.8616C88.7143 95.9167 93.6353 94.0193 93.6353 94.0193L93.2567 93.5449L85.3075 83.4411L63.8728 80.2154L61.365 79.8359L46.1289 84.5795C32.5962 86.0026 27.8172 89.6552 28.0538 101.087Z" fill="#113867"/>
<path opacity="0.54" d="M45.0878 107.301C45.6083 104.882 45.9868 102.415 46.1288 100.138C46.1288 100.138 57.4376 103.553 68.3205 101.514C72.8629 100.66 78.0205 99.2368 82.4683 97.8137L93.2566 93.497L94.2029 93.1176L96.001 85.6227L72.9576 77.5586L63.8727 80.1676L48.6366 84.5317C52.3273 91.1727 44.8985 99.0471 43.2898 101.371C41.681 103.743 37.0439 99.9009 34.1103 101.371C31.1293 102.842 42.7693 102.178 45.0878 107.301Z" fill="#022A53"/>
<path d="M40.7817 133.011C37.4222 140.316 32.4539 143.779 29.8042 142.64L30.9398 130.544L35.7188 128.457L40.7817 133.011Z" fill="#AF2F48"/>
<path d="M29.8043 142.64C35.7189 143.637 34.5833 132.204 34.2521 126.654C33.9209 121.104 29.2838 121.579 28.8106 125.896C28.3375 130.212 25.877 141.976 29.8043 142.64Z" fill="#D35473"/>
<path d="M35.7666 128.458L40.7822 133.012C61.2705 127.082 73.3363 108.345 73.3363 108.345C84.7397 121.579 97.468 124.568 107.736 108.345C107.736 108.345 107.073 101.135 98.7929 95.5846C97.1841 94.4936 95.2915 93.4974 93.0202 92.5962C84.1246 89.0859 72.2953 88.3744 65.0085 88.3269C60.608 88.2795 56.4915 90.4615 53.9363 94.0667C49.6305 100.138 45.5612 107.681 42.3436 114.132C38.369 122.149 35.7666 128.458 35.7666 128.458Z" fill="#113867"/>
<path opacity="0.54" d="M35.7666 128.457L40.7822 133.01C61.2705 127.081 73.3363 108.344 73.3363 108.344C84.7397 121.578 97.468 124.567 107.736 108.344C107.736 108.344 107.073 101.134 98.7929 95.5835L90.2285 93.9707C100.26 113.704 76.1753 109.103 71.8222 105.498C67.469 101.892 63.3524 98.2874 61.4124 98.0976C59.4724 97.9079 69.6929 105.498 62.5007 114.131C55.2612 122.764 38.6056 128.172 42.391 114.131C38.369 122.148 35.7666 128.457 35.7666 128.457Z" fill="#022A53"/>
<path d="M85.7332 30.2175H86.0171C86.0171 30.2175 89.0454 41.8867 94.2503 46.2034C95.1966 46.9623 96.1903 47.5316 97.2312 47.7213C104.234 49.0021 110.291 41.0328 111.426 35.5777C112.089 32.5418 110.953 30.6444 109.818 29.6008C108.919 28.7469 108.067 28.4149 108.067 28.4149C108.067 28.4149 107.594 19.7816 104.613 19.9239C101.726 20.0662 102.2 21.2046 102.247 21.2995C102.058 21.0623 95.8117 12.7136 91.4586 13.6149C87.0581 14.5636 90.1337 21.0149 90.1337 21.0149C90.1337 21.0149 84.5976 15.4175 82.7522 18.6431C80.9068 21.8687 86.3483 25.8059 86.3483 25.8059C86.3483 25.8059 81.6639 25.7111 81.1908 27.4187C80.8122 29.079 81.4747 30.6918 85.7332 30.2175Z" fill="#09315C"/>
<path d="M94.2503 46.2041C95.1966 46.9631 96.1903 47.5323 97.2312 47.7221C104.234 49.0028 110.291 41.0336 111.426 35.5785C112.089 32.5426 110.953 30.6452 109.818 29.6016C108.777 30.9298 107.404 33.6811 104.234 30.2182H102.767L94.2503 46.2041Z" fill="#0B2B4E"/>
<path d="M75.7021 80.8313L107.594 110.479C109.155 109.103 110.48 107.633 111.663 106.115C113.84 103.316 115.401 100.327 116.489 97.1967C117.341 94.8723 117.909 92.4531 118.287 89.9864C119.139 84.389 119.045 78.5069 118.666 72.6723C117.814 59.0108 113.745 49.9031 97.3733 49.6659C97.3733 49.6659 89.8972 47.5787 84.3138 50.5672C79.9606 52.939 77.1216 70.3005 76.0806 77.6531C75.844 79.598 75.7021 80.8313 75.7021 80.8313Z" fill="#8C8DFF"/>
<path opacity="0.36" d="M82.4684 67.3592C99.266 73.6681 106.222 61.4297 106.222 61.4297L111.663 80.9733L100.07 84.5784L79.866 82.4912L82.4684 67.3592Z" fill="#4142B5"/>
<path opacity="0.36" d="M75.7022 80.8325L107.594 110.48C109.155 109.104 110.48 107.634 111.663 106.116C106.127 105.689 94.2032 92.4069 97.3261 91.6953C100.118 91.0787 109.771 97.6722 116.49 97.1979C117.341 94.8735 117.909 92.4543 118.288 89.9876L108.067 81.0222L76.1754 77.6543C75.8442 79.5992 75.7022 80.8325 75.7022 80.8325Z" fill="#4142B5"/>
<path d="M93.6352 76.894C89.8972 74.3799 85.544 76.4671 83.9825 77.6056C82.4211 78.744 83.9825 81.6851 83.9825 81.6851C83.9825 81.6851 85.686 80.6889 86.2538 80.5466C86.8216 80.4043 89.5186 82.5389 94.9128 81.6851C100.307 80.8312 93.6352 76.894 93.6352 76.894Z" fill="#F4B8AB"/>
<path d="M115.543 59.1999C108.209 53.6973 104.045 58.5357 104.376 68.0229C104.755 77.5101 104.755 77.5101 104.755 77.5101C104.755 77.5101 95.3859 74.5216 93.1146 74.5216C93.1146 74.5216 92.9254 81.0204 93.1146 83.3447C93.1146 83.3447 104.423 94.3498 111.9 95.1563C119.376 96.0101 117.861 81.1627 118.524 74.3319C119.186 67.5011 118.098 61.0973 115.543 59.1999Z" fill="#8C8DFF"/>
<path d="M85.3071 82.1129L79.7237 59.486C79.1559 57.1616 77.074 55.5488 74.7081 55.5488H42.7218C40.6398 55.5488 39.0784 57.5411 39.5989 59.5809L46.034 83.2514L85.3071 82.1129Z" fill="#C5E5FC"/>
<path d="M83.0366 82.1129L77.4532 59.486C76.8854 57.1616 74.8035 55.5488 72.4376 55.5488H40.4513C38.3693 55.5488 36.8079 57.5411 37.3283 59.5809L43.7635 83.2514L83.0366 82.1129Z" fill="#EAF6FF"/>
<path d="M53.0848 84.3902H93.7301C94.3452 84.3902 94.8657 83.8684 94.8657 83.2517C94.8657 82.6351 94.3452 82.1133 93.7301 82.1133H53.0848C52.4696 82.1133 51.9491 82.6351 51.9491 83.2517C51.9491 83.8684 52.4696 84.3902 53.0848 84.3902Z" fill="#C5E5FC"/>
<path d="M43.5262 84.3902H84.1715C84.7866 84.3902 85.3071 83.8684 85.3071 83.2517C85.3071 82.6351 84.7866 82.1133 84.1715 82.1133H43.5262C42.911 82.1133 42.3905 82.6351 42.3905 83.2517C42.3905 83.8684 42.8637 84.3902 43.5262 84.3902Z" fill="#EAF6FF"/>
<path d="M57.1063 69.352C57.6268 72.293 58.9517 74.5225 60.0873 74.3328C61.2229 74.143 61.6487 71.5815 61.1283 68.6405C60.6078 65.6994 59.2829 63.47 58.1473 63.6597C57.0117 63.8494 56.5858 66.411 57.1063 69.352Z" fill="#C5E5FC"/>
<path d="M83.8877 32.0674C83.1779 42.5033 84.834 47.1045 90.7487 47.6738V50.093C90.7487 51.8956 92.2155 53.3661 94.0135 53.3661C95.8116 53.3661 97.2784 51.8956 97.2784 50.093V47.6738C97.2784 47.6738 102.01 45.6815 102.956 42.693C103.903 39.752 102.956 42.2186 102.956 42.2186L103.382 30.1699H83.7457L83.8877 32.0674Z" fill="#F4B8AB"/>
<path d="M102.578 37.7125C104.045 35.0086 105.796 36.1471 106.174 37.7125C106.505 39.2779 103.383 43.1202 102.578 41.792C101.821 40.4637 102.578 37.7125 102.578 37.7125Z" fill="#F4B8AB"/>
<path d="M105.843 28.8424C102.673 32.7322 93.7301 34.7245 90.4652 33.7758C87.2003 32.8745 91.8374 29.8386 91.8374 29.8386C91.8374 29.8386 85.8281 34.0129 83.0838 32.5899C80.3394 31.2142 87.7681 27.7988 87.7681 27.7988L105.843 28.8424Z" fill="#09315C"/>
<path opacity="0.53" d="M90.7487 47.7207C93.3511 47.9579 96.3794 47.863 96.3794 47.863L90.7487 50.1399V47.7207Z" fill="#DD6595"/>
<path opacity="0.53" d="M102.767 38.4707C104.092 37.095 104.755 37.6643 104.66 39.0873C104.565 40.5578 102.815 41.554 102.247 41.1745C101.679 40.7476 102.767 38.4707 102.767 38.4707Z" fill="#DD6595"/>
</svg>
