<svg width="178" height="166" viewBox="0 0 178 166" fill="none" xmlns="http://www.w3.org/2000/svg">
<path opacity="0.1" d="M81.2159 58.9379C81.2159 58.9379 69.2455 84.4287 43.6267 83.4225C8.72235 82.0808 -16.6728 135.857 34.0056 165.261H143.417C143.417 165.261 190.404 127.919 161.429 74.1429C140.956 36.3541 88.8232 44.292 81.2159 58.9379Z" fill="#61A9FF"/>
<path d="M25.1387 34.0478C32.8967 30.9869 36.7029 22.2205 33.64 14.4674C30.5772 6.71434 21.8052 2.91057 14.0471 5.97145C6.28912 9.03234 2.48292 17.7988 5.54576 25.5519C8.60859 33.3049 17.3806 37.1087 25.1387 34.0478Z" fill="#FF6B93"/>
<path d="M17.1266 24.9508C19.5878 24.9508 22.049 25.0626 24.3983 24.839C25.0695 24.839 25.7408 23.6092 24.8458 23.2738C25.1814 23.0502 25.6289 22.9384 25.7408 22.4912C25.8527 22.1558 25.7408 21.5968 25.2933 21.485C26.1883 21.7086 26.5239 20.367 25.8527 19.9198C26.1883 19.5844 26.5239 19.249 26.5239 18.8018C26.6358 18.3545 26.412 17.7955 25.9645 17.5719C25.7408 17.4601 25.4052 17.4601 25.0695 17.4601C24.0627 17.4601 23.0558 17.4601 21.9371 17.4601C22.1609 15.8949 22.2727 14.1061 21.4896 12.6527C21.2659 12.2055 20.5946 11.7583 20.0353 12.0937C19.5878 12.4291 19.6997 13.2117 19.6997 13.6589C19.8115 15.6713 18.6928 17.6837 16.9028 18.5782C17.0147 18.5782 17.1266 22.8266 17.1266 24.9508Z" fill="#FDFDFD"/>
<path d="M16.2314 18.5781H12.5396V24.9508H16.2314V18.5781Z" fill="#FDFDFD"/>
<path d="M175.525 48.3174H135.586C134.467 48.3174 133.572 47.423 133.572 46.305V6.72727C133.572 5.60926 134.467 4.71484 135.586 4.71484H175.525C176.643 4.71484 177.538 5.60926 177.538 6.72727V46.1932C177.538 47.423 176.643 48.3174 175.525 48.3174Z" fill="#FF9777"/>
<path fill-rule="evenodd" clip-rule="evenodd" d="M163.218 19.0259H148.563L147.892 16.119C147.78 15.56 147.221 15.2246 146.661 15.2246H144.536C143.976 15.2246 143.529 15.6718 143.529 16.2308C143.529 16.7898 143.976 17.237 144.536 17.237H146.214L149.122 28.9762C149.346 29.8706 150.241 30.6532 151.248 30.6532H160.757C161.764 30.6532 162.659 29.9824 162.883 28.9762L164.896 21.1501C165.008 20.0321 164.225 19.0259 163.218 19.0259ZM160.869 28.3054C160.869 28.4172 160.757 28.529 160.645 28.529H151.136C151.024 28.529 150.912 28.4172 150.912 28.3054L149.011 20.9265H162.771L160.869 28.3054Z" fill="white"/>
<path fill-rule="evenodd" clip-rule="evenodd" d="M151.136 32.3301C150.129 32.3301 149.234 33.2245 149.234 34.2307C149.234 35.2369 150.129 36.1313 151.136 36.1313C152.143 36.1313 153.038 35.2369 153.038 34.2307C153.038 33.2245 152.143 32.3301 151.136 32.3301Z" fill="white"/>
<path fill-rule="evenodd" clip-rule="evenodd" d="M160.646 32.3301C159.639 32.3301 158.744 33.2245 158.744 34.2307C158.744 35.2369 159.639 36.1313 160.646 36.1313C161.652 36.1313 162.547 35.2369 162.547 34.2307C162.547 33.2245 161.652 32.3301 160.646 32.3301Z" fill="white"/>
<path d="M39.2633 90.914H3.91149C3.01651 90.914 2.2334 90.1313 2.2334 89.2369V62.6282C2.2334 61.7338 3.01651 60.9512 3.91149 60.9512H39.2633C40.1583 60.9512 40.9414 61.7338 40.9414 62.6282V89.2369C40.8295 90.2431 40.1583 90.914 39.2633 90.914Z" fill="#7EB9FF"/>
<path d="M20.5806 84.318C25.3998 84.318 29.3066 80.4137 29.3066 75.5975C29.3066 70.7813 25.3998 66.877 20.5806 66.877C15.7613 66.877 11.8545 70.7813 11.8545 75.5975C11.8545 80.4137 15.7613 84.318 20.5806 84.318Z" fill="#7EB9FF" stroke="white" stroke-width="1.2043" stroke-miterlimit="10" stroke-linecap="round" stroke-linejoin="round"/>
<path d="M17.1123 76.2676L19.7973 78.1682L23.9365 73.0254" fill="#7EB9FF"/>
<path d="M17.1123 76.2676L19.7973 78.1682L23.9365 73.0254" stroke="white" stroke-width="1.2043" stroke-miterlimit="10" stroke-linecap="round" stroke-linejoin="round"/>
<path d="M124.167 144.463H145.647C151.241 144.463 155.827 149.047 155.827 154.637C155.827 160.227 151.241 164.811 145.647 164.811H120.476L124.167 144.463Z" fill="#E3AF9A"/>
<path d="M153.142 147.928L136.473 122.102L120.364 129.033L123.272 154.636L153.142 147.928Z" fill="#E3AF9A"/>
<path d="M125.398 144.463H145.535" stroke="#6F7994" stroke-width="0.6565" stroke-miterlimit="10" stroke-linecap="round" stroke-linejoin="round"/>
<path d="M88.8155 88.2246C88.8155 88.2246 67.4478 88.2246 51.7856 103.653V146.92C51.7856 146.92 126.964 148.038 126.964 146.92C126.964 145.802 126.964 101.753 126.964 101.753C126.964 101.753 111.526 88.2246 88.8155 88.2246Z" fill="#C6D3ED"/>
<path d="M88.8157 88.2255C88.8157 88.2255 81.5439 88.0019 73.8247 90.7969C73.8247 90.7969 75.8384 98.2876 88.7038 98.2876C104.03 98.2876 104.03 90.0143 104.03 90.0143C104.03 90.0143 94.2974 87.3311 88.8157 88.2255Z" fill="#E3AF9A"/>
<path d="M57.0437 144.463H35.676C30.0824 144.463 25.4956 149.047 25.4956 154.637C25.4956 160.227 30.0824 164.811 35.676 164.811H60.8474L57.0437 144.463Z" fill="#E3AF9A"/>
<path d="M27.8452 148.153L41.1581 126.352L60.8477 129.035L57.939 154.637L27.8452 148.153Z" fill="#E3AF9A"/>
<path d="M51.7855 144.463H35.6758" stroke="#6F7994" stroke-width="0.6565" stroke-miterlimit="10" stroke-linecap="round" stroke-linejoin="round"/>
<path d="M54.9183 100.748C54.9183 100.748 42.3885 110.139 30.0825 130.711C30.0825 130.711 33.6624 142.674 56.4845 144.462L54.9183 100.748Z" fill="#C6D3ED"/>
<path d="M126.964 101.754C126.964 101.754 138.599 110.139 150.793 130.71C150.793 130.71 148.108 142.673 125.398 144.462L126.964 101.754Z" fill="#C6D3ED"/>
<path d="M123.496 164.809H55.1418C53.24 164.809 51.7856 163.244 51.7856 161.455V118.299C51.7856 116.399 53.3519 114.945 55.1418 114.945H123.496C125.398 114.945 126.852 116.511 126.852 118.299V161.455C126.964 163.355 125.398 164.809 123.496 164.809Z" fill="#ECEFF5"/>
<path d="M93.9617 139.877C93.9617 142.448 91.9479 144.461 89.3749 144.461C86.8018 144.461 84.7881 142.448 84.7881 139.877C84.7881 137.305 86.8018 135.293 89.3749 135.293C91.9479 135.293 93.9617 137.305 93.9617 139.877Z" fill="#283252"/>
<path d="M76.8452 58.5981C76.9571 62.1758 74.1603 65.1944 70.5804 65.3062C67.0004 65.418 63.9799 62.623 63.868 59.0453C63.7561 55.4677 66.5529 52.449 70.1329 52.3372C73.7128 52.2254 76.7334 55.0205 76.8452 58.5981Z" fill="#E3AF9A"/>
<path d="M66.6646 57.815C66.6646 57.815 69.2376 56.5852 71.6988 61.0573" stroke="#283252" stroke-width="0.4726" stroke-miterlimit="10" stroke-linecap="round" stroke-linejoin="round"/>
<path d="M76.3978 30.1992C76.3978 30.1992 69.126 31.0936 68.1192 38.5843C66.7767 48.8701 71.4753 56.3608 71.4753 56.3608L71.6991 39.7023L76.3978 30.1992Z" fill="#283252"/>
<path d="M107.051 65.3049C110.634 65.3049 113.539 62.4017 113.539 58.8204C113.539 55.2391 110.634 52.3359 107.051 52.3359C103.467 52.3359 100.562 55.2391 100.562 58.8204C100.562 62.4017 103.467 65.3049 107.051 65.3049Z" fill="#E3AF9A"/>
<path d="M110.743 57.814C110.743 57.814 108.17 56.5842 105.82 61.1681" stroke="#283252" stroke-width="0.4726" stroke-miterlimit="10" stroke-linecap="round" stroke-linejoin="round"/>
<path d="M97.0944 72.685C97.0944 72.685 93.4026 75.2565 90.0464 75.9273C86.6903 76.5981 83.446 74.5856 83.446 74.5856L79.5304 72.3496L78.8592 91.6913L78.2998 92.0267C84.0053 96.7223 92.172 96.7223 97.8775 92.1385L97.7657 91.4677L97.0944 72.685Z" fill="#E3AF9A"/>
<path d="M78.4116 72.2363C78.4116 72.2363 81.0966 82.9693 89.2633 82.7457C96.1994 82.6339 97.9894 72.2363 97.9894 72.2363H78.4116Z" fill="#283252"/>
<path d="M106.268 47.5299C106.268 54.9088 105.261 61.1697 104.254 65.7535C103.247 70.1138 100.338 73.2442 96.3108 75.7039L95.5277 76.1511C91.2765 78.8343 85.6829 78.8343 81.208 76.3747C76.7331 73.8032 73.7125 70.561 72.7057 65.7535C70.9157 57.1448 70.6919 47.6417 70.6919 47.6417C70.6919 47.6417 68.2307 27.7411 87.361 28.0765C106.491 28.3001 106.268 47.5299 106.268 47.5299Z" fill="#E3AF9A"/>
<path d="M95.7515 47.4162C95.7515 47.4162 91.836 46.6336 91.6122 48.7579C91.6122 48.7579 91.5004 50.2113 94.9684 50.7703C98.4365 51.3293 99.779 51.2175 100.226 49.8759C100.674 48.6461 97.6534 47.6399 95.7515 47.4162Z" fill="#283252"/>
<path d="M78.8586 47.5276C78.8586 47.5276 74.8312 47.7512 75.1668 49.7636C75.1668 49.7636 75.3906 51.217 78.8586 50.9934C82.3267 50.7698 83.6692 50.3226 83.781 48.981C83.781 47.5276 80.6486 47.304 78.8586 47.5276Z" fill="#283252"/>
<path d="M80.3128 58.148C81.1778 58.148 81.879 57.4473 81.879 56.5828C81.879 55.7184 81.1778 55.0176 80.3128 55.0176C79.4478 55.0176 78.7466 55.7184 78.7466 56.5828C78.7466 57.4473 79.4478 58.148 80.3128 58.148Z" fill="#283252"/>
<path d="M95.4158 58.148C96.2808 58.148 96.982 57.4473 96.982 56.5828C96.982 55.7184 96.2808 55.0176 95.4158 55.0176C94.5508 55.0176 93.8496 55.7184 93.8496 56.5828C93.8496 57.4473 94.5508 58.148 95.4158 58.148Z" fill="#283252"/>
<path d="M88.1439 62.3974H86.4658V58.4844" stroke="#283252" stroke-width="0.4726" stroke-miterlimit="10" stroke-linecap="round" stroke-linejoin="round"/>
<path d="M82.7739 65.752C82.7739 65.752 84.3401 67.988 91.5 66.9818" stroke="#283252" stroke-width="0.4726" stroke-miterlimit="10" stroke-linecap="round" stroke-linejoin="round"/>
<path d="M71.475 57.0327C71.475 57.0327 75.6143 34.337 72.9293 31.3184C72.9293 31.3184 63.3083 40.0389 71.475 57.0327Z" fill="#283252"/>
<path d="M105.485 56.1376C105.485 56.1376 98.6603 36.5723 103.135 33.3301C103.247 33.3301 112.533 38.0257 105.485 56.1376Z" fill="#283252"/>
<path d="M98.3247 30.0889C98.3247 30.0889 108.393 27.2939 109.4 37.8032C110.183 45.2939 105.373 56.2505 105.373 56.2505L105.149 39.5921L98.3247 30.0889Z" fill="#283252"/>
<path d="M95.9755 30.7598C95.9755 30.7598 95.7518 44.0641 105.82 44.1759C105.82 44.1759 107.722 32.325 95.9755 30.7598Z" fill="#283252"/>
<path d="M100.115 36.0132C100.115 36.0132 93.0668 35.3424 85.4594 38.8083C77.9639 42.1623 65.6579 43.9511 63.7561 35.1188C61.8542 25.8393 72.0347 17.7896 90.7174 23.9387C105.485 28.7461 101.122 34.2244 101.122 34.2244L100.115 36.0132Z" fill="#283252"/>
<path d="M98.3247 31.0941C98.3247 31.0941 105.932 26.063 108.617 35.4543L102.8 37.4667L98.3247 31.0941Z" fill="#283252"/>
<path d="M101.681 31.9887C101.681 31.9887 101.345 23.6036 89.487 18.6843C88.4801 18.2371 87.3614 18.3489 86.4664 19.0197C85.012 20.026 84.5645 22.0384 85.6833 23.4918L87.9207 26.6222L101.681 31.9887Z" fill="#283252"/>
</svg>
