<svg width="152" height="115" viewBox="0 0 152 115" fill="none" xmlns="http://www.w3.org/2000/svg">
<path d="M152 101.049H0V101.142H152V101.049Z" fill="#EBEBEB"/>
<path d="M39.6416 104.012H15.96V104.105H39.6416V104.012Z" fill="#EBEBEB"/>
<path d="M136.77 106.358H125.248V106.451H136.77V106.358Z" fill="#EBEBEB"/>
<path d="M45.7825 106.883H39.9457V106.976H45.7825V106.883Z" fill="#EBEBEB"/>
<path d="M74.6016 103.179H61.4688V103.272H74.6016V103.179Z" fill="#EBEBEB"/>
<path d="M79.2226 103.179H77.3074V103.272H79.2226V103.179Z" fill="#EBEBEB"/>
<path d="M112.754 105.062H99.6207V105.154H112.754V105.062Z" fill="#EBEBEB"/>
<path d="M72.048 87.2839H13.3456C12.4032 87.2839 11.6128 86.4815 11.6128 85.5247V1.75926C11.6128 0.802469 12.4032 0 13.3456 0H72.048C72.9904 0 73.7808 0.802469 73.7808 1.75926V85.5247C73.7808 86.5123 73.0208 87.2839 72.048 87.2839ZM13.3456 0.0925926C12.4336 0.0925926 11.6736 0.833333 11.6736 1.79012V85.5556C11.6736 86.4815 12.4032 87.2531 13.3456 87.2531H72.048C72.96 87.2531 73.72 86.5123 73.72 85.5556V1.75926C73.72 0.833333 72.9904 0.0617284 72.048 0.0617284H13.3456V0.0925926Z" fill="#EBEBEB"/>
<path d="M137.803 87.2839H79.1007C78.1583 87.2839 77.3679 86.4815 77.3679 85.5247V1.75926C77.3679 0.802469 78.1583 0 79.1007 0H137.803C138.745 0 139.536 0.802469 139.536 1.75926V85.5247C139.536 86.5123 138.776 87.2839 137.803 87.2839ZM79.1007 0.0925926C78.1887 0.0925926 77.4287 0.833333 77.4287 1.79012V85.5556C77.4287 86.4815 78.1583 87.2531 79.1007 87.2531H137.803C138.715 87.2531 139.475 86.5123 139.475 85.5556V1.75926C139.475 0.833333 138.745 0.0617284 137.803 0.0617284H79.1007V0.0925926Z" fill="#EBEBEB"/>
<path d="M40.4018 94.0122H25.445C24.7762 94.0122 24.229 93.5183 24.1074 92.8393L20.3682 66.8825C20.2466 66.0492 20.885 65.3085 21.7058 65.3085H36.6322C37.301 65.3085 37.8482 65.8023 37.9698 66.4813L41.709 92.4381C41.8306 93.2714 41.2226 94.0122 40.4018 94.0122Z" fill="#F0F0F0"/>
<path d="M27.2385 94.0122H20.1857C19.5169 94.0122 18.9697 93.5183 18.8481 92.8393L15.1089 66.8825C14.9873 66.0492 15.6257 65.3085 16.4465 65.3085H23.4993C24.1681 65.3085 24.7153 65.8023 24.8369 66.4813L28.5761 92.4381C28.6673 93.2714 28.0593 94.0122 27.2385 94.0122Z" fill="#FAFAFA"/>
<path d="M116.371 58.7654H43.7761C41.9217 58.7654 40.3105 60.1543 40.1585 61.9135L38.3345 81.9444C38.1825 83.6728 39.5505 85.0925 41.3745 85.0925H113.97C115.824 85.0925 117.435 83.7037 117.587 81.9444L119.411 61.9135C119.594 60.1543 118.226 58.7654 116.371 58.7654Z" fill="#E0E0E0"/>
<path d="M111.447 58.7654H38.8513C36.9969 58.7654 35.3857 60.1543 35.2337 61.9135L33.4097 81.9444C33.2577 83.6728 34.6257 85.0925 36.4497 85.0925H109.045C110.899 85.0925 112.511 83.7037 112.663 81.9444L114.487 61.9135C114.669 60.1543 113.301 58.7654 111.447 58.7654Z" fill="#E6E6E6"/>
<path d="M29.701 91.79V84.6603C29.701 83.4258 30.6739 82.4381 31.8899 82.4381H59.2195C60.4355 82.4381 61.4083 83.4258 61.4083 84.6603V91.79C61.4083 93.0245 60.4355 94.0122 59.2195 94.0122H31.8899C30.6739 94.0122 29.701 93.0245 29.701 91.79Z" fill="#EBEBEB"/>
<path d="M69.2209 91.9751V84.4751C69.2209 83.364 70.1025 82.4381 71.2274 82.4381H103.147C104.242 82.4381 105.154 83.3332 105.154 84.4751V91.9751C105.154 93.0862 104.272 94.0122 103.147 94.0122H71.2274C70.1329 94.0122 69.2209 93.0862 69.2209 91.9751Z" fill="#E0E0E0"/>
<path d="M61.408 91.9751V84.4751C61.408 83.364 62.2896 82.4381 63.4144 82.4381H95.3344C96.4288 82.4381 97.3408 83.3332 97.3408 84.4751V91.9751C97.3408 93.0862 96.4592 94.0122 95.3344 94.0122H63.4144C62.2896 94.0122 61.408 93.0862 61.408 91.9751Z" fill="#EBEBEB"/>
<path d="M116.189 94.0122H105.063C104.242 94.0122 103.695 93.2714 103.938 92.4381L110.93 66.4813C111.112 65.8023 111.751 65.3085 112.389 65.3085H123.515C124.336 65.3085 124.883 66.0492 124.64 66.8825L117.648 92.8393C117.466 93.5183 116.858 94.0122 116.189 94.0122Z" fill="#F0F0F0"/>
<path d="M106.856 94.0122H99.8033C98.9825 94.0122 98.4353 93.2714 98.6785 92.4381L105.671 66.4813C105.853 65.8023 106.491 65.3085 107.13 65.3085H114.183C115.003 65.3085 115.551 66.0492 115.307 66.8825L108.315 92.8393C108.133 93.5183 107.495 94.0122 106.856 94.0122Z" fill="#FAFAFA"/>
<path d="M100.958 101.049H99.8944L97.3104 94.0123H99.9552L100.958 101.049Z" fill="#E0E0E0"/>
<path d="M114.517 101.049H113.453L110.899 94.0123H113.544L114.517 101.049Z" fill="#E0E0E0"/>
<path d="M37.4224 101.049H38.4864L41.04 94.0123H38.3952L37.4224 101.049Z" fill="#E0E0E0"/>
<path d="M23.864 101.049H24.928L27.4816 94.0123H24.8368L23.864 101.049Z" fill="#E0E0E0"/>
<path d="M116.554 13.1791H35.4771V42.5309H116.554V13.1791Z" fill="#E0E0E0"/>
<path d="M115.794 13.1791H34.717V42.5309H115.794V13.1791Z" fill="#F0F0F0"/>
<path d="M113.369 40.0659V15.6523L37.1566 15.6523V40.0659L113.369 40.0659Z" fill="#FAFAFA"/>
<path d="M75.2706 35.185C79.2497 35.185 82.4754 31.9101 82.4754 27.8702C82.4754 23.8304 79.2497 20.5554 75.2706 20.5554C71.2915 20.5554 68.0658 23.8304 68.0658 27.8702C68.0658 31.9101 71.2915 35.185 75.2706 35.185Z" fill="#F0F0F0"/>
<path d="M49.5219 40.0616L54.5683 15.648H65.7251L60.6787 40.0616H49.5219Z" fill="white"/>
<path d="M65.3907 40.0616L70.4371 15.648H76.0003L70.9539 40.0616H65.3907Z" fill="white"/>
<path d="M99.4083 40.0616L104.455 15.648H110.018L104.972 40.0616H99.4083Z" fill="white"/>
<path d="M134.459 60.7407C132.575 69.074 137.195 77.6542 135.311 85.9876C134.672 85.9567 134.064 85.9258 133.426 85.895C132.787 85.8641 132.179 85.8333 131.541 85.8024C134.703 77.5616 131.298 69.0123 134.459 60.7407Z" fill="#F0F0F0"/>
<path d="M129.596 64.3519C131.146 72.3149 126.16 80.2779 127.711 88.21C128.349 88.21 128.957 88.21 129.596 88.21C130.234 88.21 130.842 88.21 131.48 88.21C128.684 80.2779 132.392 72.3149 129.596 64.3519Z" fill="#F0F0F0"/>
<path d="M133.061 57.7469C130.568 66.2346 135.189 75.4013 132.696 83.8581C132.027 83.7963 131.328 83.7346 130.659 83.6729C129.991 83.6111 129.291 83.5494 128.623 83.4877C132.483 75.1235 129.231 66.0803 133.061 57.7469Z" fill="#E6E6E6"/>
<path d="M136.709 69.9693C137.499 74.5681 133.061 78.1792 133.851 82.7471C134.368 82.8397 134.855 82.9323 135.371 83.0248C135.888 83.1174 136.375 83.21 136.891 83.3026C135.067 78.5187 138.533 74.7224 136.709 69.9693Z" fill="#E6E6E6"/>
<path d="M132.24 103.395C137.898 103.395 142.485 98.1858 142.485 91.7595C142.485 85.3332 137.898 80.1237 132.24 80.1237C126.582 80.1237 121.995 85.3332 121.995 91.7595C121.995 98.1858 126.582 103.395 132.24 103.395Z" fill="#E0E0E0"/>
<path d="M75.9999 115C108.555 115 134.945 113.438 134.945 111.512C134.945 109.586 108.555 108.024 75.9999 108.024C43.4452 108.024 17.0543 109.586 17.0543 111.512C17.0543 113.438 43.4452 115 75.9999 115Z" fill="#F5F5F5"/>
<path d="M116.675 67.7776H50.9805C50.2813 67.7776 49.7341 67.1912 49.7645 66.4813L51.9837 25.5862C52.0141 24.8763 52.6221 24.2899 53.3517 24.2899H119.046C119.745 24.2899 120.293 24.8763 120.262 25.5862L118.043 66.4813C117.982 67.1912 117.374 67.7776 116.675 67.7776Z" fill="#263238"/>
<path d="M89.0416 31.2345H82.688C80.56 31.2345 78.9184 29.4753 79.04 27.3456L79.1008 26.1419C79.2224 24.074 80.9856 22.3456 83.0224 22.3456H89.376C91.504 22.3456 93.1456 24.1049 93.024 26.2654L92.9632 27.4691C92.872 29.537 91.0784 31.2345 89.0416 31.2345Z" fill="#263238"/>
<path d="M94.8175 110.216H92.7807L87.1871 23.2715H89.2239L94.8175 110.216Z" fill="#263238"/>
<path d="M79.5566 110.216H81.5934L87.187 23.2715H85.1502L79.5566 110.216Z" fill="#263238"/>
<path d="M116.31 67.7776H50.6159C49.9167 67.7776 49.3695 67.1912 49.3999 66.4813L51.6191 25.5862C51.6495 24.8763 52.2575 24.2899 52.9871 24.2899H118.681C119.381 24.2899 119.928 24.8763 119.897 25.5862L117.678 66.4813C117.648 67.1912 117.04 67.7776 116.31 67.7776Z" fill="#407BFF"/>
<path opacity="0.4" d="M51.68 66.5434C51.1024 66.5434 50.6768 66.0805 50.7072 65.4941L52.8048 26.5743C52.8352 25.9879 53.3216 25.5249 53.8992 25.5249H117.648C118.226 25.5249 118.651 25.9879 118.621 26.5743L116.523 65.4941C116.493 66.0805 116.006 66.5434 115.429 66.5434H51.68Z" fill="#263238"/>
<path opacity="0.1" d="M115.824 45.9256H96.6414C96.155 45.9256 95.7902 45.5244 95.8206 45.0306L96.7934 27.3145C96.7934 27.2528 96.7326 27.191 96.6718 27.191C96.611 27.191 96.5502 27.2528 96.5502 27.3145L95.5774 45.0306C95.547 45.5244 95.1518 45.9256 94.6654 45.9256H74.723C74.2366 45.9256 73.8718 45.5244 73.9022 45.0306L74.875 27.3145C74.875 27.2528 74.8142 27.191 74.7534 27.191C74.6926 27.191 74.6318 27.2528 74.6318 27.3145L73.659 45.0306C73.6286 45.5244 73.2334 45.9256 72.747 45.9256H53.5038C53.443 45.9256 53.3822 45.9873 53.3822 46.0491C53.3822 46.1108 53.443 46.1725 53.5038 46.1725H72.6862C73.1726 46.1725 73.5374 46.5738 73.507 47.0676L72.5342 64.7836C72.5342 64.8454 72.595 64.9071 72.6558 64.9071C72.7166 64.9071 72.7774 64.8454 72.7774 64.7836L73.7502 47.0676C73.7806 46.5738 74.1758 46.1725 74.6622 46.1725H94.6046C95.091 46.1725 95.4558 46.5738 95.4254 47.0676L94.4526 64.7836C94.4526 64.8454 94.5134 64.9071 94.5742 64.9071C94.635 64.9071 94.6958 64.8454 94.6958 64.7836L95.6686 47.0676C95.699 46.5738 96.0942 46.1725 96.5806 46.1725H115.763C115.824 46.1725 115.885 46.1108 115.885 46.0491C115.945 45.9565 115.885 45.9256 115.824 45.9256Z" fill="white"/>
<path opacity="0.4" d="M84.5422 30.4008H76.8206L76.395 38.3638L84.0862 38.5798L84.5422 30.4008Z" fill="#263238"/>
<path d="M83.6911 38.2096C81.1071 38.0862 78.5231 37.9627 75.9695 37.8393C76.3951 35.1232 76.6687 32.438 76.7599 29.722C79.3439 29.8454 81.9583 29.9689 84.5423 30.0924C84.4207 32.8084 84.1471 35.5245 83.6911 38.2096Z" fill="white"/>
<path opacity="0.4" d="M93.8141 35.7094L86.0925 36.3266L86.2749 44.2587L93.9965 43.8575L93.8141 35.7094Z" fill="#263238"/>
<path d="M93.571 43.549C90.987 43.6108 88.403 43.7034 85.7886 43.7651C86.0014 41.049 86.0926 38.333 85.971 35.6478C88.5854 35.5861 91.1694 35.4935 93.7838 35.4318C93.9054 38.1169 93.8142 40.833 93.571 43.549Z" fill="#407BFF"/>
<path opacity="0.4" d="M71.2879 50.1853L57.0607 49.6298L55.7839 62.5001L69.9807 63.3643L71.2879 50.1853Z" fill="#263238"/>
<path d="M69.2511 62.8086C64.5087 62.4074 59.7359 62.037 54.9935 61.6358C55.9359 57.2839 56.6047 52.9321 56.9695 48.5494C61.7423 48.9506 66.5455 49.321 71.3183 49.7222C70.9231 54.0741 70.2543 58.4568 69.2511 62.8086Z" fill="white"/>
<g opacity="0.3">
<path opacity="0.3" d="M56.6352 32.1913C56.1792 32.1913 55.8448 31.8209 55.8752 31.3888C55.9056 30.9259 56.2704 30.5864 56.7264 30.5864C57.1824 30.5864 57.5168 30.9567 57.4864 31.3888C57.456 31.8209 57.0912 32.1913 56.6352 32.1913Z" fill="#263238"/>
<path opacity="0.8" d="M69.2208 32.1913H59.3408C58.8848 32.1913 58.5504 31.8209 58.5808 31.3888C58.6112 30.9259 58.976 30.5864 59.432 30.5864H69.312C69.768 30.5864 70.1024 30.9567 70.072 31.3888C70.0416 31.8209 69.6464 32.1913 69.2208 32.1913Z" fill="#263238"/>
<path opacity="0.3" d="M56.4527 35.7407C55.9967 35.7407 55.6623 35.3703 55.6927 34.9382C55.7231 34.4752 56.0879 34.1357 56.5439 34.1357C56.9999 34.1357 57.3343 34.5061 57.3039 34.9382C57.2735 35.3703 56.8783 35.7407 56.4527 35.7407Z" fill="#263238"/>
<path opacity="0.8" d="M70.7711 35.7407H59.1583C58.7023 35.7407 58.3679 35.3703 58.3983 34.9382C58.4287 34.4752 58.7935 34.1357 59.2495 34.1357H70.8623C71.3183 34.1357 71.6527 34.5061 71.6223 34.9382C71.5919 35.3703 71.1967 35.7407 70.7711 35.7407Z" fill="#263238"/>
<path opacity="0.3" d="M56.2399 39.2901C55.7839 39.2901 55.4495 38.9197 55.4799 38.4876C55.5103 38.0247 55.8751 37.6852 56.3311 37.6852C56.7871 37.6852 57.1215 38.0555 57.0911 38.4876C57.0607 38.9197 56.6959 39.2901 56.2399 39.2901Z" fill="#263238"/>
<path opacity="0.8" d="M64.5999 39.2901H58.9455C58.4895 39.2901 58.1551 38.9197 58.1855 38.4876C58.2159 38.0247 58.5807 37.6852 59.0367 37.6852H64.6911C65.1471 37.6852 65.4815 38.0555 65.4511 38.4876C65.4207 38.9197 65.0559 39.2901 64.5999 39.2901Z" fill="#263238"/>
<path opacity="0.8" d="M69.8592 42.8395H64.2048C63.7488 42.8395 63.4144 42.4691 63.4448 42.037C63.4752 41.5741 63.84 41.2346 64.296 41.2346H69.92C70.376 41.2346 70.7104 41.6049 70.68 42.037C70.68 42.5 70.2848 42.8395 69.8592 42.8395Z" fill="#263238"/>
<path opacity="0.3" d="M56.0575 42.8395C55.6015 42.8395 55.2671 42.4691 55.2975 42.037C55.3279 41.5741 55.6927 41.2346 56.1487 41.2346C56.6047 41.2346 56.9391 41.6049 56.9087 42.037C56.8783 42.5 56.5135 42.8395 56.0575 42.8395Z" fill="#263238"/>
<path opacity="0.8" d="M61.3774 42.8395H58.763C58.307 42.8395 57.9726 42.4691 58.003 42.037C58.0334 41.5741 58.3982 41.2346 58.8542 41.2346H61.4686C61.9246 41.2346 62.259 41.6049 62.2286 42.037C62.1982 42.5 61.803 42.8395 61.3774 42.8395Z" fill="#263238"/>
</g>
<path d="M80.5904 53.4258H76.7904L76.2432 63.148H80.0736L80.5904 53.4258Z" fill="#407BFF"/>
<path d="M86.3969 55.4321H82.5969L82.1713 63.1481H86.0017L86.3969 55.4321Z" fill="#407BFF"/>
<path d="M92.5982 50.247H88.7678L88.0686 63.1482H91.899L92.5982 50.247Z" fill="#407BFF"/>
<path d="M77.6416 58.92C77.2768 58.92 76.8816 58.92 76.4864 58.8891C75.8176 58.8583 74.936 58.7657 74.176 58.4262C74.0544 58.3644 73.9936 58.2101 74.0544 58.0867C74.1152 57.9632 74.2672 57.9015 74.3888 57.9632C75.088 58.2719 75.9088 58.3644 76.5168 58.3953C81.1072 58.6422 85.12 57.4077 89.1935 54.5682C90.1663 53.8891 91.5951 52.6237 92.4767 51.3274C92.5679 51.204 92.7199 51.1731 92.8111 51.2657C92.9327 51.3583 92.9631 51.5126 92.8719 51.6052C91.9599 52.9632 90.5007 54.2287 89.4671 54.9694C85.6368 57.6546 81.8672 58.92 77.6416 58.92Z" fill="white"/>
<path d="M93.4494 53.2408C93.419 53.2408 93.3886 53.2408 93.3582 53.2099C93.2366 53.1482 93.1758 53.0247 93.2366 52.8704C93.6014 52.0062 93.6622 51.0494 93.4494 50.1852C92.4766 50.8334 91.4734 51.3889 90.379 51.821C90.2574 51.8828 90.1054 51.821 90.0446 51.6976C89.9838 51.5741 90.0446 51.4198 90.1662 51.3581C91.291 50.8951 92.3854 50.2778 93.419 49.5679C93.4798 49.5371 93.571 49.5062 93.6318 49.5371C93.6926 49.5679 93.7534 49.6297 93.7838 49.6914C94.1486 50.7716 94.0878 51.9753 93.6622 53.0556C93.6318 53.1791 93.5406 53.2408 93.4494 53.2408Z" fill="white"/>
<path d="M113.605 43.6417H99.3774C99.1342 43.6417 98.9214 43.5491 98.739 43.3639C98.587 43.1788 98.4958 42.9627 98.4958 42.7158L99.1647 30.4936C99.1951 29.9997 99.6206 29.5985 100.107 29.5985H114.334C114.577 29.5985 114.79 29.6911 114.973 29.8763C115.125 30.0615 115.216 30.2775 115.216 30.5244L114.547 42.7467C114.517 43.2405 114.091 43.6417 113.605 43.6417ZM100.107 29.8454C99.7422 29.8454 99.4382 30.1541 99.4078 30.5244L98.739 42.7467C98.739 42.9318 98.7998 43.0862 98.891 43.2096C99.0126 43.3331 99.1646 43.3948 99.347 43.3948H113.574C113.939 43.3948 114.243 43.0862 114.273 42.7158L114.942 30.4936C114.942 30.3084 114.881 30.1541 114.79 30.0306C114.669 29.9072 114.517 29.8454 114.334 29.8454H100.107Z" fill="#407BFF"/>
<path d="M114.942 33.1173H99.134C99.0732 33.1173 99.0125 33.0555 99.0125 32.9938C99.0125 32.9321 99.0732 32.8704 99.134 32.8704H114.942C115.003 32.8704 115.064 32.9321 115.064 32.9938C115.064 33.0555 115.003 33.1173 114.942 33.1173Z" fill="#407BFF"/>
<path d="M102.296 43.6417C102.235 43.6417 102.174 43.58 102.174 43.5182L102.752 32.9627C102.752 32.901 102.813 32.8392 102.873 32.8392C102.934 32.8392 102.995 32.901 102.995 32.9627L102.417 43.5182C102.417 43.58 102.387 43.6417 102.296 43.6417Z" fill="#407BFF"/>
<path d="M113.149 34.3518H104.576C104.515 34.3518 104.454 34.2901 104.454 34.2283C104.454 34.1666 104.515 34.1049 104.576 34.1049H113.149C113.209 34.1049 113.27 34.1666 113.27 34.2283C113.27 34.2901 113.209 34.3518 113.149 34.3518Z" fill="#407BFF"/>
<path d="M111.841 35.8949H104.485C104.424 35.8949 104.363 35.8331 104.363 35.7714C104.363 35.7097 104.424 35.6479 104.485 35.6479H111.841C111.902 35.6479 111.963 35.7097 111.963 35.7714C111.963 35.8331 111.902 35.8949 111.841 35.8949Z" fill="#407BFF"/>
<path d="M108.68 37.4691H104.394C104.333 37.4691 104.272 37.4074 104.272 37.3456C104.272 37.2839 104.333 37.2222 104.394 37.2222H108.68C108.741 37.2222 108.802 37.2839 108.802 37.3456C108.802 37.4074 108.741 37.4691 108.68 37.4691Z" fill="#407BFF"/>
<path d="M109.471 40.5862H104.242C104.181 40.5862 104.12 40.5245 104.12 40.4628C104.12 40.401 104.181 40.3393 104.242 40.3393H109.471C109.531 40.3393 109.592 40.401 109.592 40.4628C109.592 40.5245 109.531 40.5862 109.471 40.5862Z" fill="#407BFF"/>
<path d="M108.437 42.1604H104.15C104.089 42.1604 104.029 42.0987 104.029 42.037C104.029 41.9752 104.089 41.9135 104.15 41.9135H108.437C108.497 41.9135 108.558 41.9752 108.558 42.037C108.558 42.0987 108.497 42.1604 108.437 42.1604Z" fill="#407BFF"/>
<path d="M110.93 42.1604H109.562C109.501 42.1604 109.44 42.0987 109.44 42.037C109.44 41.9752 109.501 41.9135 109.562 41.9135H110.93C110.99 41.9135 111.051 41.9752 111.051 42.037C111.051 42.0987 110.99 42.1604 110.93 42.1604Z" fill="#407BFF"/>
<path d="M112.328 39.0127H104.302C104.241 39.0127 104.181 38.9509 104.181 38.8892C104.181 38.8275 104.241 38.7657 104.302 38.7657H112.328C112.389 38.7657 112.449 38.8275 112.449 38.8892C112.449 38.9509 112.419 39.0127 112.328 39.0127Z" fill="#407BFF"/>
<path d="M104.849 61.4197C102.995 61.4197 101.475 60.8641 100.533 59.8147C99.5295 58.7036 99.1039 56.9752 99.3775 55.0308C99.5599 53.858 99.9247 52.8703 100.502 52.0678C101.08 51.2962 101.931 50.6481 102.995 50.1543C105.366 49.074 108.133 49.1049 110.352 50.2468C111.355 50.7715 111.993 51.3888 112.206 52.1604C112.237 52.2839 112.176 52.4382 112.054 52.4691C111.933 52.4999 111.781 52.4382 111.75 52.3147C111.568 51.6975 111.021 51.1419 110.139 50.7098C108.041 49.6296 105.427 49.5987 103.208 50.6172C102.205 51.0802 101.445 51.6666 100.897 52.3765C100.381 53.0864 100.016 54.0123 99.8639 55.0925C99.6207 56.8826 99.9855 58.4567 100.897 59.4752C102.174 60.8641 104.241 60.9567 105.397 60.895C107.494 60.7715 109.318 60.0308 110.504 58.7962C111.902 57.3456 112.267 55.1851 111.416 53.7654C111.233 53.4876 110.899 53.0246 110.352 52.9629C110.23 52.9629 110.109 52.8394 110.139 52.6851C110.139 52.5617 110.261 52.4382 110.413 52.4691C110.96 52.5308 111.477 52.9012 111.841 53.5184C112.814 55.1234 112.419 57.5617 110.869 59.1666C109.592 60.4938 107.677 61.2962 105.427 61.4197C105.214 61.4197 105.032 61.4197 104.849 61.4197Z" fill="white"/>
<path d="M41.7393 35.3086L40.8577 36.8518L40.0065 38.4259C39.4289 39.4753 38.9121 40.5555 38.3953 41.6358C38.1521 42.1604 37.9089 42.716 37.6961 43.2407L37.6657 43.3333V43.3642C37.6657 43.395 37.6353 43.395 37.6353 43.395C37.6049 43.4259 37.6049 43.4567 37.6049 43.4876C37.5745 43.5493 37.6049 43.6728 37.6353 43.8271C37.7265 44.1358 38.0305 44.5679 38.3649 44.9691C38.6993 45.3703 39.1553 45.7716 39.5505 46.1111L38.8513 47.6543C38.4865 47.5617 38.1825 47.4382 37.8785 47.3148C37.5745 47.1913 37.2705 47.0061 36.9361 46.8209C36.3281 46.4506 35.7201 45.9876 35.2337 45.216C34.9905 44.8456 34.7777 44.3518 34.6865 43.7962C34.6561 43.5185 34.6257 43.2407 34.6561 42.9629C34.6865 42.8086 34.6865 42.6851 34.7169 42.5617L34.7777 42.3456L34.8081 42.2222C34.9905 41.6049 35.2033 40.9567 35.4465 40.3703C35.9025 39.1666 36.4193 37.9938 36.9969 36.8518C37.2705 36.2963 37.5745 35.7098 37.8785 35.1543C38.1825 34.5987 38.4865 34.0432 38.8513 33.4876L41.7393 35.3086Z" fill="#FFC3BD"/>
<path d="M38.7903 45.926L40.4015 45.4939L40.4927 48.1173C40.4927 48.1173 39.2463 48.3025 38.4863 47.5309L38.7903 45.926Z" fill="#FFC3BD"/>
<path d="M42.6512 45.0616L42.2864 47.3765L40.4928 48.1481L40.4016 45.5246L42.6512 45.0616Z" fill="#FFC3BD"/>
<path d="M49.248 22.9629C49.2784 23.1481 49.4 23.2715 49.5216 23.2406C49.6432 23.2098 49.704 23.0555 49.6736 22.8703C49.6432 22.6851 49.5216 22.5616 49.4 22.5925C49.2784 22.6234 49.2176 22.7777 49.248 22.9629Z" fill="#263238"/>
<path d="M49.4 23.2717C49.4 23.2717 50.008 24.2285 50.5552 24.6297C50.312 25.0001 49.7344 24.9692 49.7344 24.9692L49.4 23.2717Z" fill="#ED847E"/>
<path d="M48.4272 22.0986C48.3968 22.0986 48.3664 22.0986 48.3664 22.0678C48.336 22.0369 48.336 21.9443 48.3664 21.9135C48.7616 21.4814 49.248 21.5431 49.2784 21.5431C49.3392 21.5431 49.3696 21.6048 49.3696 21.6665C49.3696 21.7283 49.3088 21.7591 49.248 21.7591C49.2176 21.7591 48.8528 21.6974 48.5488 22.0369C48.4576 22.0986 48.4272 22.0986 48.4272 22.0986Z" fill="#263238"/>
<path d="M44.232 25.494C44.5664 27.1606 44.8704 30.1853 43.7152 31.2964C43.7152 31.2964 44.1712 32.994 47.2112 32.994C50.5552 32.994 48.792 31.2964 48.792 31.2964C46.968 30.8643 47.0288 29.4754 47.3328 28.1791L44.232 25.494Z" fill="#FFC3BD"/>
<path d="M43.0769 31.6047C42.8337 31.1417 42.5601 30.617 43.1073 30.4627C43.7153 30.2775 47.6369 29.938 48.7921 30.2775C48.4273 30.9256 49.0353 31.6973 49.0353 31.6973L43.0769 31.6047Z" fill="#263238"/>
<path d="M33.1663 108.92C33.3791 108.982 33.6223 108.982 33.7135 108.889C33.7439 108.858 33.8047 108.766 33.7743 108.642C33.7439 108.58 33.7135 108.519 33.6527 108.488C33.3487 108.333 32.6495 108.642 32.6191 108.642C32.5887 108.642 32.5887 108.673 32.5887 108.704C32.5887 108.735 32.5887 108.735 32.6191 108.766C32.7407 108.796 32.9535 108.889 33.1663 108.92ZM33.5311 108.58C33.5615 108.58 33.5615 108.58 33.5919 108.611C33.6223 108.642 33.6527 108.673 33.6831 108.704C33.7135 108.796 33.6831 108.827 33.6527 108.827C33.5311 108.92 33.0751 108.827 32.7711 108.704C32.9839 108.611 33.3487 108.519 33.5311 108.58Z" fill="#407BFF"/>
<path d="M32.6191 108.735C32.6495 108.735 32.6495 108.735 32.6191 108.735C32.8927 108.673 33.4399 108.272 33.4399 108.025C33.4399 107.963 33.4399 107.901 33.3183 107.84C33.2271 107.809 33.1663 107.809 33.0751 107.87C32.7711 108.025 32.5887 108.642 32.5887 108.673C32.5887 108.704 32.5887 108.704 32.6191 108.735ZM33.2575 107.932C33.2879 107.932 33.2879 107.963 33.2575 107.932C33.3487 107.963 33.3487 107.994 33.3487 107.994C33.3487 108.148 32.9839 108.457 32.7407 108.58C32.8015 108.395 32.9535 108.056 33.1359 107.932C33.1663 107.932 33.2271 107.932 33.2575 107.932Z" fill="#407BFF"/>
<path d="M49.6736 109.321C49.9472 109.321 50.2512 109.29 50.3424 109.136C50.3728 109.105 50.4032 109.013 50.3424 108.889C50.312 108.827 50.2512 108.796 50.16 108.766C49.7952 108.673 49.0048 109.105 48.9744 109.136C48.944 109.136 48.944 109.167 48.944 109.198C48.944 109.229 48.9744 109.229 48.9744 109.229C49.1264 109.259 49.4 109.321 49.6736 109.321ZM50.008 108.858C50.0384 108.858 50.0688 108.858 50.0992 108.858C50.16 108.858 50.1904 108.889 50.1904 108.92C50.2208 108.982 50.2208 109.013 50.1904 109.043C50.0992 109.198 49.5216 109.198 49.096 109.136C49.3696 109.043 49.7648 108.858 50.008 108.858Z" fill="#407BFF"/>
<path d="M49.0049 109.259C49.3089 109.136 49.8257 108.642 49.7953 108.395C49.7953 108.333 49.7345 108.271 49.6129 108.241C49.4913 108.241 49.4001 108.271 49.3089 108.333C49.0353 108.58 48.9745 109.167 48.9745 109.197C48.9745 109.228 48.9745 109.228 49.0049 109.259C48.9745 109.228 48.9745 109.259 49.0049 109.259ZM49.5217 108.333H49.5521C49.6433 108.333 49.6433 108.395 49.6433 108.395C49.6737 108.549 49.3089 108.92 49.0353 109.105C49.0657 108.92 49.1569 108.549 49.3393 108.395C49.4001 108.364 49.4609 108.333 49.5217 108.333Z" fill="#407BFF"/>
<path d="M46.5425 109.197H48.7617L49.0049 103.95H46.7553L46.5425 109.197Z" fill="#FFC3BD"/>
<path d="M30.1567 108.148L32.3151 108.611L34.5039 103.734L32.3455 103.24L30.1567 108.148Z" fill="#FFC3BD"/>
<path d="M32.528 108.395L30.0656 107.87C29.9744 107.839 29.8832 107.901 29.8528 107.994L29.0016 109.876C28.9104 110.062 29.032 110.308 29.2448 110.339C30.096 110.524 30.5216 110.555 31.616 110.802C32.2848 110.957 33.7744 111.327 34.6864 111.512C35.568 111.697 35.9328 110.833 35.568 110.648C33.9568 109.907 33.288 109.259 32.8624 108.642C32.7712 108.518 32.68 108.426 32.528 108.395Z" fill="#263238"/>
<path d="M48.7616 108.92H46.3296C46.2384 108.92 46.1472 108.982 46.1472 109.074L45.6912 111.08C45.6304 111.296 45.8128 111.482 46.0256 111.482C46.9072 111.482 48.184 111.42 49.2784 111.42C50.5856 111.42 51.68 111.482 53.2 111.482C54.112 111.482 54.3856 110.556 53.9904 110.463C52.2576 110.062 50.8288 110.031 49.3088 109.074C49.1264 109.012 48.944 108.92 48.7616 108.92Z" fill="#263238"/>
<path d="M39.7327 31.7898C37.6351 32.2836 35.9023 37.7157 35.9023 37.7157L40.0975 40.9565C40.0975 40.9565 41.6479 39.475 42.3167 36.7589C43.0463 33.9194 41.8607 31.296 39.7327 31.7898Z" fill="#407BFF"/>
<path opacity="0.2" d="M39.7327 31.7898C37.6351 32.2836 35.9023 37.7157 35.9023 37.7157L40.0975 40.9565C40.0975 40.9565 41.6479 39.475 42.3167 36.7589C43.0463 33.9194 41.8607 31.296 39.7327 31.7898Z" fill="#FAFAFA"/>
<path opacity="0.2" d="M41.5262 35.8025C40.4014 36.9445 40.0062 39.0124 39.915 40.8334L40.0974 40.9877C40.0974 40.9877 41.6478 39.5062 42.3166 36.7901C42.347 36.6358 42.4078 36.4506 42.4382 36.2963L41.5262 35.8025Z" fill="black"/>
<path d="M52.2271 31.9137C52.2271 31.9137 54.5983 34.6297 52.3487 51.5125C48.7615 51.5125 42.1647 51.5125 40.4015 51.5125C40.3103 49.6606 41.4655 40.5557 39.7023 31.7902C39.7023 31.7902 41.7391 31.3581 43.7151 31.2656C45.2351 31.2038 47.4543 31.1421 48.7919 31.2656C50.5855 31.4507 52.2271 31.9137 52.2271 31.9137Z" fill="#407BFF"/>
<path opacity="0.2" d="M52.2271 31.9137C52.2271 31.9137 54.5983 34.6297 52.3487 51.5125C48.7615 51.5125 42.1647 51.5125 40.4015 51.5125C40.3103 49.6606 41.4655 40.5557 39.7023 31.7902C39.7023 31.7902 41.7391 31.3581 43.7151 31.2656C45.2351 31.2038 47.4543 31.1421 48.7919 31.2656C50.5855 31.4507 52.2271 31.9137 52.2271 31.9137Z" fill="#FAFAFA"/>
<path opacity="0.2" d="M53.2912 37.0679L53.2304 37.037L50.5248 37.6851C50.3728 39.537 52.2576 41.7901 53.2304 42.8086C53.352 40.432 53.352 38.5493 53.2912 37.0679Z" fill="black"/>
<path opacity="0.2" d="M49.005 103.95L48.8834 106.636H46.6338L46.7554 103.95H49.005Z" fill="black"/>
<path opacity="0.2" d="M32.3456 103.24L34.504 103.734L33.3792 106.265L31.1904 105.771L32.3456 103.24Z" fill="black"/>
<path d="M43.2897 23.7962C43.8673 25.9567 44.0801 27.2839 45.4177 28.179C47.3937 29.537 49.8865 27.9629 49.9473 25.679C50.0081 23.6111 49.0657 20.4012 46.7553 19.9691C44.5057 19.537 42.7121 21.6357 43.2897 23.7962Z" fill="#FFC3BD"/>
<path d="M44.2624 27.3457C45.1744 27.8704 48.488 26.1111 47.8192 23.4259C47.8192 23.4259 49.096 21.8827 48.944 20.1852C48.792 18.4877 47.6368 17.8395 46.4208 18.2099C45.3264 18.5185 45.3872 19.1358 45.3872 19.1358C45.3872 19.1358 40.28 19.7531 41.3744 21.8519C39.2768 24.1358 43.1376 26.6976 44.2624 27.3457Z" fill="#263238"/>
<path d="M41.4959 22.0061C41.4959 22.0061 40.8879 20.9259 40.0063 21.5432C40.4319 21.5432 41.1007 21.6049 41.4959 22.0061Z" fill="#263238"/>
<path d="M48.792 21.2963C48.792 21.2963 49.9168 18.7345 48.184 17.9321C48.7616 18.7654 49.0656 20.0926 48.792 21.2963Z" fill="#263238"/>
<path d="M46.9376 23.8889C47.0896 24.4444 47.4544 24.9382 47.8496 25.2469C48.4272 25.679 48.8528 25.2469 48.8224 24.5987C48.792 24.0123 48.4272 23.0555 47.7888 22.8703C47.1504 22.6851 46.7552 23.2407 46.9376 23.8889Z" fill="#FFC3BD"/>
<path d="M48.1231 51.5123C48.1231 51.5123 45.5999 68.8271 44.2015 75.3395C42.6815 82.4383 34.5039 105.957 34.5039 105.957L30.4911 105.093C30.4911 105.093 36.2063 85.9259 37.4831 75.9876C38.4559 68.3642 40.4015 51.5123 40.4015 51.5123H48.1231Z" fill="#263238"/>
<path d="M35.4767 104.599C35.5071 104.599 34.7167 106.08 34.7167 106.08L30.2175 105.093L30.5823 103.735L35.4767 104.599Z" fill="#407BFF"/>
<path opacity="0.3" d="M46.5424 57.6851C43.624 58.2715 43.928 69.3517 44.2624 75.0616C45.1136 71.0184 46.3296 63.2715 47.1808 57.7468C46.9984 57.6851 46.7856 57.6542 46.5424 57.6851Z" fill="black"/>
<path d="M52.3792 51.5123C52.3792 51.5123 52.6832 68.4567 52.44 75.3703C52.1968 82.5616 49.704 106.111 49.704 106.111H45.9344C45.9344 106.111 45.7824 82.9937 45.6304 75.9258C45.448 68.2407 44.536 51.5123 44.536 51.5123H52.3792Z" fill="#263238"/>
<path opacity="0.4" d="M73.3856 39.5681H65.664L65.2384 47.531L72.9296 47.7471L73.3856 39.5681Z" fill="#263238"/>
<path d="M69.3119 44.6912C66.7279 44.3825 64.1743 44.043 61.5903 43.7344C62.2287 41.08 62.6847 38.3949 62.9887 35.7405C65.5727 36.0492 68.1567 36.3887 70.7407 36.6973C70.4367 39.3517 69.9503 42.0368 69.3119 44.6912Z" fill="#407BFF"/>
<path d="M50.4335 104.599C50.4639 104.599 50.2207 106.204 50.2207 106.204H45.6303L45.5087 104.784L50.4335 104.599Z" fill="#407BFF"/>
<path d="M53.3521 33.9814C53.6865 34.537 54.0817 35.1234 54.4769 35.7098C54.8721 36.2654 55.2673 36.8518 55.6929 37.4074C56.5137 38.4876 57.3953 39.537 58.3681 40.4321C58.6113 40.6481 58.8545 40.8642 59.0977 41.0494L59.2801 41.2037C59.2497 41.2037 59.2193 41.1728 59.1585 41.1728C59.0673 41.1728 59.0369 41.1728 59.0673 41.1728C59.1281 41.2037 59.3409 41.1728 59.5537 41.0494C59.7969 40.9568 60.0705 40.8024 60.3137 40.6481C61.3777 39.9691 62.4721 39.0432 63.5361 38.1173L64.8433 39.1975C64.0225 40.5247 63.1409 41.7284 61.9249 42.8086C61.6209 43.0864 61.2865 43.3642 60.8913 43.5802C60.4961 43.8271 60.0401 44.0432 59.3713 44.1666C59.0369 44.1975 58.6417 44.1975 58.2161 44.074C58.0033 44.0123 57.7905 43.8889 57.6385 43.7963L57.3649 43.6419C57.0305 43.4259 56.6961 43.179 56.3617 42.9321C55.1153 41.9136 54.0513 40.7716 53.0785 39.5987C52.5921 39.0123 52.1361 38.395 51.7105 37.7777C51.2849 37.1296 50.8593 36.5432 50.4641 35.8333L53.3521 33.9814Z" fill="#FFC3BD"/>
<path d="M48.944 35.3393C48.2448 38.364 53.656 41.3579 53.656 41.3579L57.1824 37.1603C57.1824 37.1603 55.5712 34.6912 53.5952 32.7467C51.1328 30.3702 49.4912 33.0245 48.944 35.3393Z" fill="#407BFF"/>
<path opacity="0.2" d="M48.944 35.3393C48.2448 38.364 53.656 41.3579 53.656 41.3579L57.1824 37.1603C57.1824 37.1603 55.5712 34.6912 53.5952 32.7467C51.1328 30.3702 49.4912 33.0245 48.944 35.3393Z" fill="#FAFAFA"/>
<path d="M63.171 38.7037L63.9918 35.9877L66.1806 37.0988C66.1806 37.0988 65.8766 39.0741 64.2654 39.4136L63.171 38.7037Z" fill="#FFC3BD"/>
<path d="M64.8737 35.2469L66.8497 35.8024L66.1809 37.0987L63.9921 36.0185L64.8737 35.2469Z" fill="#FFC3BD"/>
</svg>
