<svg width="144" height="97" viewBox="0 0 144 97" fill="none" xmlns="http://www.w3.org/2000/svg">
<path d="M144 65.8789C144 63.3617 134.526 61.321 122.838 61.321C111.151 61.321 101.677 63.3617 101.677 65.8789C101.677 67.4922 105.572 68.9087 111.444 69.7187V94.6913C111.444 95.2526 111.667 95.7908 112.063 96.1877C112.46 96.5845 112.999 96.8075 113.56 96.8075C114.121 96.8075 114.659 96.5845 115.056 96.1877C115.453 95.7908 115.676 95.2526 115.676 94.6913V70.1686C117.913 70.3419 120.324 70.4368 122.838 70.4368C125.353 70.4368 127.763 70.3419 130.001 70.1686V94.6913C130.001 95.2526 130.224 95.7908 130.621 96.1877C131.017 96.5845 131.556 96.8075 132.117 96.8075C132.678 96.8075 133.216 96.5845 133.613 96.1877C134.01 95.7908 134.233 95.2526 134.233 94.6913V69.7187C140.105 68.9087 144 67.4923 144 65.8789Z" fill="#CCCCCC"/>
<path d="M125.178 24.1604C130.213 24.1604 134.294 20.0791 134.294 15.0446C134.294 10.0101 130.213 5.92883 125.178 5.92883C120.144 5.92883 116.062 10.0101 116.062 15.0446C116.062 20.0791 120.144 24.1604 125.178 24.1604Z" fill="#2F2E41"/>
<path d="M102.493 93.0387H98.5012L96.6025 77.6434H102.493L102.493 93.0387Z" fill="#A0616A"/>
<path d="M95.6503 91.8979H103.348V96.7446H90.8037C90.8037 96.1081 90.9291 95.4779 91.1726 94.8899C91.4162 94.3018 91.7732 93.7675 92.2233 93.3175C92.6733 92.8674 93.2076 92.5104 93.7956 92.2669C94.3836 92.0233 95.0139 91.8979 95.6503 91.8979Z" fill="#2F2E41"/>
<path d="M96.2625 90.8112L92.4541 89.6161L95.2513 74.3585L100.872 76.1221L96.2625 90.8112Z" fill="#A0616A"/>
<path d="M90.0755 87.6744L97.4199 89.9792L95.9687 94.6034L84 90.8475C84.1906 90.2402 84.4989 89.6764 84.9073 89.1883C85.3158 88.7002 85.8164 88.2973 86.3806 88.0027C86.9447 87.708 87.5614 87.5274 88.1954 87.471C88.8293 87.4147 89.4682 87.4838 90.0755 87.6744Z" fill="#2F2E41"/>
<path d="M97.561 84.6685C97.3862 84.6685 97.2128 84.6369 97.0492 84.5753L94.1129 83.4743C93.7832 83.3496 93.5094 83.1105 93.3412 82.8008C93.173 82.491 93.1218 82.1311 93.1967 81.7867C93.936 78.4627 96.4555 67.1459 97.8351 61.0759C99.4714 53.876 123.341 52.5381 124.356 52.4847L124.439 52.4803L127.124 55.8545C128.095 58.9731 127.787 61.4056 126.21 63.0846C121.609 67.9833 107.872 64.9436 106.234 64.5589L98.9327 83.7252C98.8263 84.0027 98.6383 84.2414 98.3933 84.4098C98.1484 84.5783 97.8582 84.6684 97.561 84.6685Z" fill="#2F2E41"/>
<path d="M101.793 86.9474C101.619 86.9474 101.445 86.9159 101.282 86.8543L98.3453 85.7533C98.0156 85.6285 97.7418 85.3895 97.5736 85.0797C97.4055 84.7699 97.3542 84.4101 97.4291 84.0657C98.1684 80.7417 100.688 69.4248 102.068 63.3549C103.704 56.1549 127.573 54.8171 128.588 54.7637L128.672 54.7592L131.357 58.1334C132.327 61.2521 132.02 63.6846 130.443 65.3636C125.842 70.262 112.105 67.2225 110.467 66.8378L103.165 86.0041C103.059 86.2816 102.871 86.5204 102.626 86.6888C102.381 86.8572 102.091 86.9474 101.793 86.9474Z" fill="#2F2E41"/>
<path d="M93.2975 40.0598C93.4054 40.2041 93.5017 40.3566 93.5856 40.5161L109.643 42.2078L111.954 39.0387L117.192 41.9019L112.653 49.5922L92.9601 44.5711C92.4633 45.0555 91.8308 45.3772 91.1467 45.4933C90.4626 45.6094 89.7594 45.5146 89.1305 45.2213C88.5017 44.928 87.977 44.4503 87.6263 43.8515C87.2756 43.2528 87.1155 42.5615 87.1672 41.8696C87.219 41.1776 87.4802 40.5179 87.916 39.978C88.3519 39.4381 88.9418 39.0437 89.6073 38.8472C90.2727 38.6508 90.9823 38.6616 91.6414 38.8782C92.3006 39.0948 92.8783 39.5069 93.2975 40.0598L93.2975 40.0598Z" fill="#A0616A"/>
<path d="M130.612 59.425C130.379 59.4242 130.151 59.3683 129.944 59.2618C126.734 57.6293 120.481 54.8019 114.684 54.2102C114.485 54.1907 114.293 54.13 114.12 54.0319C113.946 53.9338 113.795 53.8004 113.676 53.6405C113.555 53.4788 113.468 53.2939 113.421 53.0973C113.374 52.9006 113.369 52.6964 113.404 52.4975C113.928 49.6014 115.128 42.227 114.973 36.3166C114.928 34.4993 115.502 32.7206 116.601 31.2729C117.701 29.8252 119.26 28.7947 121.023 28.3508C122.084 28.0708 123.162 27.8584 124.25 27.7146C125.501 27.5562 126.771 27.6929 127.959 28.1138C129.148 28.5346 130.221 29.2279 131.093 30.1381C131.965 31.0484 132.612 32.1502 132.982 33.3554C133.352 34.5606 133.434 35.8357 133.222 37.0784C132.188 43.2034 131.146 51.758 132.052 57.7297C132.094 57.9974 132.06 58.2713 131.956 58.5212C131.851 58.7711 131.68 58.9872 131.46 59.1455C131.214 59.3261 130.917 59.424 130.612 59.425Z" fill="#61A9FF"/>
<path d="M115.27 43.8461C115.07 43.8458 114.872 43.8045 114.689 43.7246L110.506 41.914C110.15 41.7593 109.869 41.4696 109.726 41.1084C109.584 40.7473 109.59 40.3443 109.743 39.9876L112.977 32.5184C113.172 32.0669 113.454 31.6583 113.807 31.3159C114.16 30.9735 114.577 30.704 115.035 30.5229C115.492 30.3417 115.98 30.2524 116.472 30.2601C116.964 30.2678 117.449 30.3723 117.901 30.5677C118.352 30.763 118.761 31.0454 119.103 31.3987C119.445 31.752 119.714 32.1692 119.895 32.6266C120.076 33.084 120.165 33.5725 120.157 34.0643C120.149 34.5561 120.044 35.0414 119.849 35.4927L116.615 42.9619C116.502 43.2242 116.314 43.4476 116.075 43.6047C115.836 43.7617 115.556 43.8456 115.27 43.8461V43.8461Z" fill="#61A9FF"/>
<path d="M124.845 25.1736C129.261 25.1736 132.841 21.5936 132.841 17.1775C132.841 12.7613 129.261 9.18127 124.845 9.18127C120.429 9.18127 116.849 12.7613 116.849 17.1775C116.849 21.5936 120.429 25.1736 124.845 25.1736Z" fill="#FFB8B8"/>
<path d="M116.705 13.2488C120.493 15.5609 124.763 16.9678 129.183 17.3601L127.867 15.7842C128.825 16.1383 129.833 16.3384 130.853 16.3771C131.872 16.3612 132.94 15.9688 133.518 15.1296C133.776 14.7124 133.93 14.2391 133.965 13.7498C134 13.2606 133.917 12.7701 133.722 12.3201C133.321 11.4225 132.697 10.6424 131.91 10.0541C130.514 8.94988 128.866 8.20816 127.114 7.89503C125.362 7.5819 123.56 7.70709 121.868 8.25946C120.707 8.60632 119.668 9.27308 118.869 10.1834C118.111 11.1185 116.651 11.9517 117.039 13.0912L116.705 13.2488Z" fill="#2F2E41"/>
<path d="M126.189 6.7959C123.667 4.23842 120.615 2.26485 117.248 1.01415C115.087 0.21345 112.735 -0.281249 110.475 0.173463C108.215 0.628174 106.078 2.19133 105.448 4.40832C104.933 6.22118 105.465 8.17307 106.265 9.8796C107.065 11.5861 108.133 13.1686 108.78 14.9388C109.44 16.745 109.638 18.6875 109.357 20.5899C109.076 22.4923 108.324 24.2944 107.17 25.8326C106.016 27.3708 104.496 28.5964 102.748 29.398C101 30.1997 99.0794 30.5522 97.1606 30.4233C99.3808 30.721 101.427 31.7644 103.597 32.3197C105.767 32.875 108.329 32.8374 109.941 31.2827C111.648 29.6378 111.682 26.9634 111.599 24.5948C111.477 21.0739 111.354 17.5529 111.231 14.0319C111.169 12.2363 111.115 10.3831 111.763 8.70717C112.41 7.03121 113.949 5.56362 115.746 5.57887C117.108 5.59043 118.313 6.41533 119.405 7.22883C120.497 8.04233 121.653 8.91028 123.009 9.03128C124.366 9.15228 125.914 8.14854 125.813 6.7906" fill="#2F2E41"/>
<path d="M111.401 57.0506C110.872 57.05 110.348 56.9319 109.87 56.7047C109.391 56.4776 108.969 56.1472 108.633 55.7371C108.297 55.3271 108.057 54.8478 107.929 54.3336C107.801 53.8195 107.788 53.2833 107.893 52.7638C107.997 52.2443 108.215 51.7544 108.531 51.3293C108.847 50.9042 109.254 50.5546 109.722 50.3056C110.189 50.0566 110.706 49.9144 111.236 49.8893C111.765 49.8642 112.293 49.9568 112.782 50.1605H112.782C112.93 50.2226 113.072 50.2949 113.209 50.3768L127.775 43.8373L128.185 39.8868L134.463 39.7188L134.422 46.2957C134.414 47.0575 134.161 47.7966 133.7 48.4032C133.239 49.0098 132.594 49.4515 131.863 49.6629L114.828 54.5115C114.795 54.6241 114.756 54.7348 114.711 54.8433C114.438 55.4961 113.978 56.0538 113.389 56.4464C112.801 56.839 112.109 57.0492 111.401 57.0505V57.0506Z" fill="#FFB8B8"/>
<path d="M133.932 43.2631C133.753 43.3535 133.558 43.4062 133.358 43.4182L128.809 43.6979C128.421 43.7212 128.04 43.5899 127.749 43.3326C127.458 43.0754 127.281 42.7132 127.257 42.3256L126.757 34.2019C126.726 33.7107 126.793 33.2182 126.952 32.7526C127.111 32.2869 127.361 31.8573 127.687 31.4883C128.013 31.1193 128.408 30.8181 128.85 30.602C129.292 30.3859 129.773 30.2591 130.264 30.2289C130.755 30.1986 131.248 30.2656 131.713 30.4258C132.178 30.5861 132.608 30.8366 132.976 31.1629C133.344 31.4892 133.645 31.885 133.86 32.3275C134.076 32.7701 134.202 33.2508 134.231 33.7421L134.731 41.8658C134.748 42.1511 134.682 42.4354 134.54 42.6836C134.398 42.9318 134.187 43.1332 133.932 43.2631L133.932 43.2631Z" fill="#61A9FF"/>
<path d="M124.045 58.1923H98.3251C98.0229 58.1923 97.7331 58.0722 97.5194 57.8585C97.3057 57.6448 97.1856 57.355 97.1856 57.0528C97.1856 56.7506 97.3057 56.4608 97.5194 56.2471C97.7331 56.0334 98.0229 55.9133 98.3251 55.9133H124.045C124.347 55.9133 124.637 56.0334 124.85 56.2471C125.064 56.4608 125.184 56.7506 125.184 57.0528C125.184 57.355 125.064 57.6448 124.85 57.8585C124.637 58.0722 124.347 58.1923 124.045 58.1923Z" fill="#3F3D56"/>
<path d="M87.0928 56.0761V40.1235C87.0934 39.5624 87.3166 39.0246 87.7133 38.6278C88.11 38.2311 88.6479 38.008 89.2089 38.0073H118.184C118.745 38.008 119.283 38.2311 119.68 38.6278C120.076 39.0246 120.3 39.5624 120.3 40.1235V56.0761C120.3 56.6372 120.076 57.175 119.68 57.5718C119.283 57.9685 118.745 58.1916 118.184 58.1923H89.2089C88.6479 58.1916 88.11 57.9685 87.7133 57.5718C87.3166 57.175 87.0934 56.6372 87.0928 56.0761Z" fill="#3F3D56"/>
<path d="M103.697 50.0532C104.775 50.0532 105.65 49.1786 105.65 48.0998C105.65 47.021 104.775 46.1464 103.697 46.1464C102.618 46.1464 101.743 47.021 101.743 48.0998C101.743 49.1786 102.618 50.0532 103.697 50.0532Z" fill="white"/>
<path d="M69.0167 61.0667H23.9833C23.4575 61.0661 22.9534 60.8569 22.5816 60.4851C22.2098 60.1133 22.0006 59.6092 22 59.0833V28.9833C22.0006 28.4575 22.2098 27.9534 22.5816 27.5816C22.9534 27.2098 23.4575 27.0006 23.9833 27H69.0167C69.5425 27.0006 70.0466 27.2098 70.4184 27.5816C70.7902 27.9534 70.9994 28.4575 71 28.9833V59.0833C70.9994 59.6092 70.7902 60.1133 70.4184 60.4851C70.0466 60.8569 69.5425 61.066 69.0167 61.0667Z" fill="#7EB9FF"/>
<path d="M31.3916 39.8333C31.0224 39.8333 30.6615 39.7238 30.3545 39.5187C30.0475 39.3136 29.8083 39.0221 29.667 38.681C29.5257 38.3399 29.4887 37.9646 29.5608 37.6025C29.6328 37.2404 29.8106 36.9078 30.0716 36.6467C30.3327 36.3856 30.6653 36.2079 31.0274 36.1358C31.3895 36.0638 31.7648 36.1008 32.1059 36.2421C32.447 36.3833 32.7385 36.6226 32.9436 36.9296C33.1488 37.2365 33.2582 37.5974 33.2582 37.9666C33.2577 38.4615 33.0608 38.936 32.7109 39.2859C32.3609 39.6359 31.8865 39.8327 31.3916 39.8333Z" fill="white"/>
<path d="M31.3916 45.9001C31.0224 45.9001 30.6615 45.7907 30.3545 45.5855C30.0475 45.3804 29.8083 45.0889 29.667 44.7478C29.5257 44.4067 29.4887 44.0314 29.5608 43.6693C29.6328 43.3072 29.8106 42.9746 30.0716 42.7135C30.3327 42.4525 30.6653 42.2747 31.0274 42.2027C31.3895 42.1307 31.7648 42.1676 32.1059 42.3089C32.447 42.4502 32.7385 42.6894 32.9436 42.9964C33.1488 43.3034 33.2582 43.6643 33.2582 44.0335C33.2577 44.5284 33.0608 45.0028 32.7109 45.3528C32.3609 45.7027 31.8865 45.8996 31.3916 45.9001Z" fill="white"/>
<path d="M31.3916 51.9669C31.0224 51.9669 30.6615 51.8574 30.3545 51.6523C30.0475 51.4472 29.8083 51.1557 29.667 50.8146C29.5257 50.4735 29.4887 50.0982 29.5608 49.7361C29.6328 49.374 29.8106 49.0414 30.0716 48.7803C30.3327 48.5193 30.6653 48.3415 31.0274 48.2695C31.3895 48.1974 31.7648 48.2344 32.1059 48.3757C32.447 48.5169 32.7385 48.7562 32.9436 49.0632C33.1488 49.3701 33.2582 49.7311 33.2582 50.1002C33.2577 50.5951 33.0608 51.0696 32.7109 51.4196C32.3609 51.7695 31.8865 51.9663 31.3916 51.9669Z" fill="white"/>
<path d="M40.2584 36.45C39.8561 36.45 39.4704 36.6098 39.1859 36.8942C38.9015 37.1787 38.7417 37.5644 38.7417 37.9667C38.7417 38.3689 38.9015 38.7547 39.1859 39.0391C39.4704 39.3236 39.8561 39.4833 40.2584 39.4833H61.9584C62.3606 39.4833 62.7464 39.3236 63.0308 39.0391C63.3152 38.7547 63.475 38.3689 63.475 37.9667C63.475 37.5644 63.3152 37.1787 63.0308 36.8942C62.7464 36.6098 62.3606 36.45 61.9584 36.45H40.2584Z" fill="white"/>
<path d="M40.2584 42.5164C39.8561 42.5164 39.4704 42.6762 39.1859 42.9606C38.9015 43.2451 38.7417 43.6308 38.7417 44.0331C38.7417 44.4353 38.9015 44.8211 39.1859 45.1055C39.4704 45.39 39.8561 45.5498 40.2584 45.5498H61.9584C62.3606 45.5498 62.7464 45.39 63.0308 45.1055C63.3152 44.8211 63.475 44.4353 63.475 44.0331C63.475 43.6308 63.3152 43.2451 63.0308 42.9606C62.7464 42.6762 62.3606 42.5164 61.9584 42.5164H40.2584Z" fill="white"/>
<path d="M40.2584 48.5832C39.8561 48.5832 39.4704 48.743 39.1859 49.0274C38.9015 49.3118 38.7417 49.6976 38.7417 50.0999C38.7417 50.5021 38.9015 50.8879 39.1859 51.1723C39.4704 51.4567 39.8561 51.6165 40.2584 51.6165H61.9584C62.3606 51.6165 62.7464 51.4567 63.0308 51.1723C63.3152 50.8879 63.475 50.5021 63.475 50.0999C63.475 49.6976 63.3152 49.3118 63.0308 49.0274C62.7464 48.743 62.3606 48.5832 61.9584 48.5832H40.2584Z" fill="white"/>
<path d="M24.4291 20.0068C23.857 16.2908 23.857 12.5092 24.4291 8.79319C24.4654 8.57202 24.579 8.3709 24.7496 8.22564C24.9203 8.08039 25.137 8.00043 25.3611 8H34.1323C34.2744 7.99955 34.4148 8.03154 34.5427 8.09353C34.6706 8.15553 34.7827 8.2459 34.8704 8.35775C34.96 8.47113 35.0226 8.60346 35.0534 8.74468C35.0842 8.8859 35.0823 9.03228 35.048 9.17268C34.2275 12.6092 34.2275 16.1907 35.0479 19.6273C35.0823 19.7677 35.0841 19.914 35.0534 20.0553C35.0226 20.1965 34.96 20.3288 34.8704 20.4422C34.7827 20.5541 34.6706 20.6444 34.5427 20.7064C34.4148 20.7684 34.2744 20.8004 34.1323 20.7999H25.3611C25.137 20.7995 24.9203 20.7196 24.7496 20.5743C24.579 20.4291 24.4654 20.2279 24.4291 20.0068Z" fill="#61A9FF"/>
<path d="M0.429061 20.1593C-0.14302 16.4434 -0.14302 12.6617 0.429061 8.94577C0.46536 8.72461 0.578962 8.52351 0.749646 8.37826C0.92033 8.23301 1.13702 8.15304 1.36114 8.15259H10.1323C10.2744 8.15214 10.4148 8.18413 10.5427 8.24612C10.6706 8.30812 10.7827 8.39848 10.8704 8.51033C10.96 8.62371 11.0226 8.75605 11.0534 8.89727C11.0842 9.03849 11.0823 9.18487 11.048 9.32527C10.2275 12.7618 10.2275 16.3433 11.0479 19.7799C11.0823 19.9203 11.0842 20.0666 11.0534 20.2079C11.0226 20.3491 10.96 20.4814 10.8704 20.5948C10.7827 20.7066 10.6706 20.797 10.5427 20.859C10.4148 20.921 10.2744 20.953 10.1323 20.9525H1.36114C1.13702 20.9521 0.92033 20.8721 0.749646 20.7269C0.578962 20.5816 0.46536 20.3805 0.429061 20.1593Z" fill="#FF6584"/>
<path d="M0.208201 40.6467C0.117081 40.5315 0.0534599 40.3969 0.0221762 40.2534C-0.00910752 40.1098 -0.00722635 39.961 0.0276744 39.8183C0.861664 36.3253 0.861642 32.6849 0.0276072 29.1919C-0.00726434 29.0492 -0.00912656 28.9004 0.0221695 28.7568C0.0534655 28.6133 0.117092 28.4788 0.208208 28.3635C0.297381 28.2498 0.411303 28.158 0.541306 28.095C0.671309 28.0321 0.813964 27.9996 0.958422 28H9.87362C10.1014 28.0004 10.3217 28.0817 10.4952 28.2293C10.6687 28.377 10.7841 28.5814 10.821 28.8062C11.4026 32.5832 11.4026 36.427 10.821 40.204C10.7841 40.4288 10.6687 40.6332 10.4952 40.7809C10.3217 40.9285 10.1014 41.0098 9.87362 41.0102H0.958422C0.813963 41.0107 0.671302 40.9782 0.5413 40.9152C0.411297 40.8522 0.297373 40.7604 0.208201 40.6467Z" fill="#61A9FF"/>
<path d="M8.15326 32.8003H3.45682C3.28185 32.8001 3.1141 32.7305 2.99038 32.6068C2.86666 32.4831 2.79707 32.3153 2.79688 32.1404V31.8601C2.79707 31.6852 2.86666 31.5174 2.99038 31.3937C3.1141 31.27 3.28185 31.2004 3.45682 31.2002H8.15326C8.32822 31.2004 8.49597 31.27 8.61969 31.3937C8.74341 31.5174 8.81301 31.6852 8.8132 31.8601V32.1404C8.81301 32.3153 8.74341 32.4831 8.61969 32.6068C8.49597 32.7305 8.32822 32.8001 8.15326 32.8003Z" fill="white"/>
<path d="M8.15326 35.5601H3.45682C3.28185 35.5599 3.1141 35.4903 2.99038 35.3666C2.86666 35.2429 2.79707 35.0751 2.79688 34.9001V34.6199C2.79707 34.4449 2.86666 34.2772 2.99038 34.1535C3.1141 34.0297 3.28185 33.9602 3.45682 33.96H8.15326C8.32822 33.9602 8.49597 34.0297 8.61969 34.1535C8.74341 34.2772 8.81301 34.4449 8.8132 34.6199V34.9001C8.81301 35.0751 8.74341 35.2429 8.61969 35.3666C8.49597 35.4903 8.32822 35.5599 8.15326 35.5601Z" fill="white"/>
<path d="M7.43313 13.581H2.83035C2.65538 13.5808 2.48763 13.5112 2.36391 13.3875C2.24019 13.2637 2.1706 13.096 2.17041 12.921V12.6632C2.1706 12.4883 2.24019 12.3205 2.36391 12.1968C2.48763 12.0731 2.65538 12.0035 2.83035 12.0033H7.43313C7.6081 12.0035 7.77585 12.0731 7.89957 12.1968C8.02329 12.3205 8.09288 12.4883 8.09307 12.6632V12.921C8.09288 13.096 8.02329 13.2637 7.89957 13.3875C7.77585 13.5112 7.6081 13.5808 7.43313 13.581Z" fill="white"/>
<path d="M7.43313 16.2967H2.83035C2.65538 16.2965 2.48763 16.2269 2.36391 16.1032C2.24019 15.9795 2.1706 15.8117 2.17041 15.6368V15.3789C2.1706 15.2039 2.24019 15.0362 2.36391 14.9124C2.48763 14.7887 2.65538 14.7191 2.83035 14.7189H7.43313C7.6081 14.7191 7.77585 14.7887 7.89957 14.9124C8.02329 15.0362 8.09288 15.2039 8.09307 15.3789V15.6368C8.09288 15.8117 8.02329 15.9795 7.89957 16.1032C7.77585 16.2269 7.6081 16.2965 7.43313 16.2967Z" fill="white"/>
<path d="M23.3105 2.57778H18.7078C18.5328 2.57759 18.3651 2.508 18.2414 2.38428C18.1176 2.26055 18.048 2.09281 18.0479 1.91784V1.65994C18.048 1.48497 18.1176 1.31722 18.2414 1.1935C18.3651 1.06978 18.5328 1.00019 18.7078 1H23.3105C23.4855 1.00019 23.6532 1.06978 23.777 1.1935C23.9007 1.31722 23.9703 1.48497 23.9705 1.65994V1.91784C23.9703 2.09281 23.9007 2.26055 23.777 2.38428C23.6532 2.508 23.4855 2.57759 23.3105 2.57778Z" fill="white"/>
<path d="M31.5933 13.6998H26.9905C26.8155 13.6997 26.6478 13.6301 26.5241 13.5063C26.4003 13.3826 26.3308 13.2149 26.3306 13.0399V12.782C26.3308 12.607 26.4003 12.4393 26.5241 12.3156C26.6478 12.1919 26.8155 12.1223 26.9905 12.1221H31.5933C31.7683 12.1223 31.936 12.1919 32.0597 12.3156C32.1834 12.4393 32.253 12.607 32.2532 12.782V13.0399C32.253 13.2149 32.1834 13.3826 32.0597 13.5063C31.936 13.6301 31.7683 13.6997 31.5933 13.6998Z" fill="white"/>
</svg>
