<svg width="20" height="20" viewBox="0 0 20 20" fill="none" xmlns="http://www.w3.org/2000/svg">
<path fill-rule="evenodd" clip-rule="evenodd" d="M0.560547 5.01098V14.2417C0.560547 17.011 2.86824 19.2527 5.57153 19.1868H14.7364C17.5056 19.1868 19.7473 16.945 19.7473 14.1758V5.01098C19.7473 2.24176 17.5056 0 14.7364 0H5.57153C2.8023 0 0.560547 2.24176 0.560547 5.01098ZM4.7144 9.62624C4.7144 6.65921 7.15396 4.21965 10.121 4.21965C13.088 4.21965 15.5276 6.65921 15.5276 9.62624C15.5276 12.5933 13.088 15.0328 10.121 15.0328C7.15396 15.0328 4.7144 12.5933 4.7144 9.62624ZM14.6704 9.5603C14.6704 8.50536 14.2748 7.58228 13.6814 6.79108C13.6591 6.8134 13.6301 6.84496 13.5938 6.88433C13.309 7.19387 12.5798 7.98636 11.1759 8.57129C11.2089 8.67019 11.2583 8.78558 11.3078 8.90096C11.3573 9.01635 11.4067 9.13173 11.4397 9.23063C11.4397 9.2636 11.4562 9.29657 11.4726 9.32954C11.4891 9.3625 11.5056 9.39547 11.5056 9.42844C11.9012 9.3625 12.2309 9.3625 12.5605 9.3625C13.6155 9.3625 14.4726 9.49437 14.6704 9.5603ZM13.1539 6.19767C12.3627 5.53833 11.3078 5.07679 10.121 5.07679C9.72539 5.07679 9.39571 5.14273 9.06604 5.20866L9.06606 5.20868C9.26389 5.47245 10.0551 6.52738 10.7803 7.84602C12.3627 7.25261 13.0221 6.39547 13.1539 6.19767ZM8.21948 5.6508C8.18502 5.60042 8.15908 5.56249 8.14297 5.53833C6.89023 6.13174 5.90121 7.25261 5.57154 8.70316H5.63748C6.09902 8.70316 7.8133 8.70316 9.79132 8.17569C9.15463 7.01808 8.46713 6.01289 8.21948 5.6508ZM5.50561 9.49437V9.62624C5.50561 10.813 5.96715 11.868 6.62649 12.6592C6.82429 12.3295 8.07703 10.3515 10.3847 9.62624C10.3847 9.5603 10.4507 9.5603 10.5166 9.5603C10.4677 9.3647 10.3825 9.20537 10.288 9.0285C10.2551 8.9669 10.221 8.90316 10.1869 8.83503C8.2089 9.42844 6.23088 9.49437 5.63748 9.49437H5.50561ZM7.35176 13.3185C8.07703 13.9119 9.06605 14.2416 10.121 14.2416C10.7144 14.2416 11.3078 14.1097 11.9012 13.9119C11.8353 13.5163 11.5715 12.1317 10.9122 10.4834C8.4067 11.3405 7.48362 13.0548 7.35176 13.3185ZM11.8353 10.1537C12.3627 11.7361 12.6265 13.0548 12.6924 13.3845C13.6814 12.7251 14.4067 11.6702 14.6704 10.3515C14.4726 10.2856 13.7474 10.0878 12.7583 10.0878C12.4946 10.0878 12.1649 10.0878 11.8353 10.1537Z" fill="#FF6B93"/>
</svg>
