<svg width="20" height="20" viewBox="0 0 20 20" fill="none" xmlns="http://www.w3.org/2000/svg">
<path fill-rule="evenodd" clip-rule="evenodd" d="M0.373535 5.01098V14.1758C0.373535 16.945 2.61529 19.2527 5.38452 19.1868H14.5493C17.3186 19.1868 19.5603 16.945 19.5603 14.1758V5.01098C19.5603 2.24176 17.3186 0 14.5493 0H5.38452C2.61529 0 0.373535 2.24176 0.373535 5.01098ZM12.3736 6.59335C12.3736 6.26368 12.6373 5.93401 13.0329 5.93401C13.3626 5.93401 13.6923 6.26368 13.6923 6.59335C13.6923 6.98895 13.4285 7.25269 13.0329 7.25269C12.7033 7.25269 12.3736 6.98895 12.3736 6.59335ZM10.0658 6.79134C8.5493 6.79134 7.29655 8.04409 7.29655 9.56057C7.29655 11.077 8.5493 12.3298 10.0658 12.3298C11.5823 12.3298 12.835 11.077 12.835 9.56057C12.835 8.04409 11.5823 6.79134 10.0658 6.79134ZM10.0658 11.3408C9.07677 11.3408 8.28556 10.5496 8.28556 9.56057C8.28556 8.57156 9.07677 7.78035 10.0658 7.78035C11.0548 7.78035 11.846 8.57156 11.846 9.56057C11.846 10.5496 11.0548 11.3408 10.0658 11.3408ZM7.75827 15.2308H12.2418C14.1539 15.2308 15.6703 13.7143 15.6044 11.8681V7.38461C15.6044 5.53846 14.0879 4.02198 12.2418 4.02198H7.75827C5.91212 4.02198 4.39564 5.53846 4.39564 7.38461V11.8681C4.39564 13.7143 5.91212 15.2308 7.75827 15.2308ZM5.45058 7.31868C5.45058 6.06593 6.43959 5.01099 7.75827 5.01099H12.2418C13.4945 5.01099 14.5495 6 14.5495 7.31868V11.8022C14.5495 13.0549 13.5605 14.1099 12.2418 14.1099H7.75827C6.50553 14.1099 5.45058 13.1209 5.45058 11.8022V7.31868Z" fill="#FF9777"/>
</svg>
