<svg width="20" height="20" viewBox="0 0 20 20" fill="none" xmlns="http://www.w3.org/2000/svg">
<path fill-rule="evenodd" clip-rule="evenodd" d="M0.186523 5.01098V14.1758C0.186523 16.945 2.42828 19.2527 5.1975 19.1868H14.3623C17.1316 19.1868 19.3733 16.945 19.3733 14.1758V5.01098C19.3733 2.24176 17.1316 0 14.3623 0H5.1975C2.42828 0 0.186523 2.24176 0.186523 5.01098ZM14.1798 6.57611C14.4918 6.5061 14.8505 6.38491 15.1534 6.26372C15.1534 6.32965 15.1534 6.39558 15.2853 6.32965C15.0216 6.65932 14.7578 6.92306 14.4282 7.18679C14.3622 7.18679 14.2963 7.25273 14.2963 7.31866C14.2963 9.09888 13.8348 10.8132 12.582 12.0659C10.9337 13.6483 8.56005 14.1099 6.38423 13.5165C5.98863 13.4505 5.59302 13.2527 5.19742 13.0549L4.80181 12.8571V12.7912H4.93368C5.52708 12.8571 6.12049 12.7912 6.7139 12.5934C7.04357 12.5274 7.70291 12.2637 7.90071 12H7.63698C7.04357 11.8022 6.25236 11.5384 5.92269 10.5494C5.92269 10.4835 5.92269 10.4835 5.98863 10.4835C6.45016 10.5494 6.58203 10.5494 6.77983 10.4835C6.7139 10.4835 6.58203 10.4835 6.5161 10.4176C5.79082 10.1538 5.19742 9.42855 5.13148 8.63734V8.3736C5.13148 8.30767 5.13148 8.30767 5.19742 8.30767C5.59302 8.50547 5.98863 8.57141 6.05456 8.57141C6.00859 8.47946 5.93057 8.41957 5.86519 8.36939C5.83679 8.3476 5.81079 8.32763 5.79082 8.30767C5.13148 7.71426 4.86775 6.52745 5.39522 5.73624C5.42819 5.70328 5.44467 5.68679 5.46115 5.68679C5.47764 5.68679 5.49412 5.70328 5.52709 5.73624C6.7139 7.05492 8.16444 7.64833 9.87873 7.91207C9.94466 7.91207 9.94466 7.91207 9.94466 7.84613C9.87873 7.51646 9.87873 7.25273 9.94466 6.92306C10.0106 6.59339 10.1425 6.32965 10.3403 6.06591C10.5381 5.80218 10.8018 5.60438 11.0655 5.47251C11.3293 5.34064 11.593 5.20877 11.9227 5.20877C12.2524 5.14284 12.582 5.20877 12.8458 5.34064L13.4392 5.73624L13.571 5.86811H13.637C14.0985 5.80218 14.4941 5.60438 14.8897 5.40657H14.9556V5.47251C14.8897 5.73624 14.7578 5.93404 14.626 6.13184L14.626 6.13185C14.5915 6.16631 14.5526 6.21428 14.5103 6.26634C14.4129 6.38615 14.298 6.52765 14.1798 6.57611Z" fill="#61A9FF"/>
</svg>
