<svg width="206" height="156" viewBox="0 0 206 156" fill="none" xmlns="http://www.w3.org/2000/svg">
<mask id="mask0_1945:8003" style="mask-type:alpha" maskUnits="userSpaceOnUse" x="0" y="0" width="206" height="156">
<rect width="206" height="156" rx="8" fill="#C4C4C4"/>
</mask>
<g mask="url(#mask0_1945:8003)">
<rect x="-4" y="19" width="225" height="137" fill="#ECEFF5"/>
<path d="M0 23.0859L-8.78013e-07 2.99933C-9.74578e-07 0.790195 1.79086 -1.00066 4 -1.00066L283.969 -1.00068L283.969 23.0859L0 23.0859Z" fill="#94A4C4"/>
<circle cx="12.0977" cy="11.0958" r="3.78716" fill="white"/>
<circle cx="24.7168" cy="11.0958" r="3.78716" fill="white"/>
<circle cx="37.3438" cy="11.0958" r="3.78716" fill="white"/>
<path d="M92.1686 77.0273H89.0853V81H83.3634V77.0273H72.394V73.2028L81.7032 60.2471H87.7808L79.3314 72.3727H83.5413V68.8447H89.0853V72.3727H92.1686V77.0273ZM102.521 81.4151C100.742 81.4151 99.1612 80.9901 97.7777 80.1402C96.3941 79.2904 95.3071 78.0551 94.5165 76.4344C93.7457 74.7939 93.3603 72.8569 93.3603 70.6235C93.3603 68.3901 93.7457 66.4631 94.5165 64.8424C95.3071 63.2019 96.3941 61.9567 97.7777 61.1068C99.1612 60.2569 100.742 59.832 102.521 59.832C104.28 59.832 105.852 60.2569 107.235 61.1068C108.619 61.9567 109.696 63.2019 110.467 64.8424C111.257 66.4631 111.652 68.3901 111.652 70.6235C111.652 72.8569 111.257 74.7939 110.467 76.4344C109.696 78.0551 108.619 79.2904 107.235 80.1402C105.852 80.9901 104.28 81.4151 102.521 81.4151ZM102.521 76.6122C103.509 76.6122 104.29 76.1379 104.863 75.1892C105.456 74.2207 105.753 72.6988 105.753 70.6235C105.753 68.5482 105.456 67.0362 104.863 66.0875C104.29 65.1191 103.509 64.6348 102.521 64.6348C101.513 64.6348 100.713 65.1191 100.12 66.0875C99.5466 67.0362 99.26 68.5482 99.26 70.6235C99.26 72.6988 99.5466 74.2207 100.12 75.1892C100.713 76.1379 101.513 76.6122 102.521 76.6122ZM133.223 77.0273H130.14V81H124.418V77.0273H113.448V73.2028L122.757 60.2471H128.835L120.386 72.3727H124.596V68.8447H130.14V72.3727H133.223V77.0273Z" fill="#94A4C4"/>
<path d="M87.4305 105.934V108.824H75.379V93.2595H87.1414V96.1501H78.9588V99.5299H86.1853V102.332H78.9588V105.934H87.4305ZM93.3651 98.4403C93.7801 97.8622 94.336 97.4249 95.0327 97.1285C95.7442 96.832 96.5595 96.6837 97.4786 96.6837V99.8856C97.0932 99.856 96.8338 99.8412 96.7004 99.8412C95.7072 99.8412 94.9289 100.123 94.3656 100.686C93.8024 101.235 93.5207 102.065 93.5207 103.176V108.824H90.052V96.8616H93.3651V98.4403ZM102.854 98.4403C103.269 97.8622 103.825 97.4249 104.522 97.1285C105.233 96.832 106.049 96.6837 106.968 96.6837V99.8856C106.582 99.856 106.323 99.8412 106.189 99.8412C105.196 99.8412 104.418 100.123 103.855 100.686C103.291 101.235 103.01 102.065 103.01 103.176V108.824H99.5411V96.8616H102.854V98.4403ZM114.614 109.002C113.354 109.002 112.22 108.743 111.212 108.224C110.219 107.69 109.44 106.956 108.877 106.023C108.314 105.089 108.032 104.029 108.032 102.843C108.032 101.657 108.314 100.597 108.877 99.6633C109.44 98.7294 110.219 98.003 111.212 97.4842C112.22 96.9506 113.354 96.6837 114.614 96.6837C115.874 96.6837 117 96.9506 117.994 97.4842C118.987 98.003 119.765 98.7294 120.328 99.6633C120.892 100.597 121.173 101.657 121.173 102.843C121.173 104.029 120.892 105.089 120.328 106.023C119.765 106.956 118.987 107.69 117.994 108.224C117 108.743 115.874 109.002 114.614 109.002ZM114.614 106.156C115.503 106.156 116.23 105.86 116.793 105.267C117.371 104.659 117.66 103.851 117.66 102.843C117.66 101.835 117.371 101.034 116.793 100.442C116.23 99.8337 115.503 99.5299 114.614 99.5299C113.724 99.5299 112.991 99.8337 112.413 100.442C111.834 101.034 111.545 101.835 111.545 102.843C111.545 103.851 111.834 104.659 112.413 105.267C112.991 105.86 113.724 106.156 114.614 106.156ZM126.805 98.4403C127.22 97.8622 127.776 97.4249 128.473 97.1285C129.184 96.832 129.999 96.6837 130.918 96.6837V99.8856C130.533 99.856 130.274 99.8412 130.14 99.8412C129.147 99.8412 128.369 100.123 127.805 100.686C127.242 101.235 126.961 102.065 126.961 103.176V108.824H123.492V96.8616H126.805V98.4403Z" fill="#94A4C4"/>
</g>
</svg>
