<svg width="206" height="156" viewBox="0 0 206 156" fill="none" xmlns="http://www.w3.org/2000/svg">
<mask id="mask0_1945:8081" style="mask-type:alpha" maskUnits="userSpaceOnUse" x="0" y="0" width="206" height="156">
<rect width="206" height="156" rx="8" fill="#C4C4C4"/>
</mask>
<g mask="url(#mask0_1945:8081)">
<path d="M0 23.0859H65.9213V159.999H2C0.895435 159.999 0 159.104 0 157.999V23.0859Z" fill="#E5E9F2"/>
<rect x="50.8965" y="22.8906" width="163.077" height="137.11" fill="#ECEFF5"/>
<path d="M0 23.0859L-8.78013e-07 2.99933C-9.74578e-07 0.790195 1.79086 -1.00066 4 -1.00066L283.969 -1.00068L283.969 23.0859L0 23.0859Z" fill="#94A4C4"/>
<circle cx="12.0977" cy="11.0958" r="3.78716" fill="white"/>
<circle cx="24.7168" cy="11.0958" r="3.78716" fill="white"/>
<circle cx="37.3438" cy="11.0958" r="3.78716" fill="white"/>
<path d="M20.6774 34.3164C22.6214 34.3164 23.2383 36.0674 23.3038 36.9428V43.0548C23.3038 44.7239 23.4412 47.1539 25.9547 47.1539C28.4682 47.1539 29.113 45.1412 29.1212 44.1348C29.1338 42.5829 29.5068 40.9296 31.9867 40.9296C34.5886 40.9296 34.9549 44.2248 34.5704 46.0248C34.1449 48.2831 31.8261 52.7995 25.9547 52.7995C20.0833 52.7995 17.6582 48.2831 17.6582 44.5521V37.1637C17.6582 35.9855 18.2473 34.3164 20.6774 34.3164Z" fill="white"/>
<circle cx="31.9651" cy="37.0901" r="2.77369" fill="white"/>
<rect x="7.27148" y="65.4766" width="36.469" height="3.6469" rx="1.82345" fill="#94A4C4"/>
<rect x="7.27148" y="80.0664" width="36.469" height="3.6469" rx="1.82345" fill="#94A4C4"/>
<rect x="7.27148" y="94.6562" width="36.469" height="3.6469" rx="1.82345" fill="#94A4C4"/>
<rect x="7.27148" y="109.236" width="36.469" height="3.6469" rx="1.82345" fill="#94A4C4"/>
</g>
</svg>
