<svg width="206" height="156" viewBox="0 0 206 156" fill="none" xmlns="http://www.w3.org/2000/svg">
<mask id="mask0_2040:7816" style="mask-type:alpha" maskUnits="userSpaceOnUse" x="0" y="0" width="206" height="156">
<rect width="206" height="156" rx="8" fill="#C4C4C4"/>
</mask>
<g mask="url(#mask0_2040:7816)">
<rect y="22" width="206" height="139" fill="#ECEFF5"/>
<rect x="43" y="41" width="144" height="13" rx="6.5" fill="white"/>
<rect x="17" y="41" width="20" height="13" rx="6.5" fill="white"/>
<rect x="43" y="89" width="144" height="13" rx="6.5" fill="white"/>
<rect x="17" y="89" width="20" height="13" rx="6.5" fill="white"/>
<rect x="43" y="65" width="144" height="13" rx="6.5" fill="white"/>
<rect x="17" y="65" width="20" height="13" rx="6.5" fill="white"/>
<rect x="43" y="113" width="144" height="13" rx="6.5" fill="white"/>
<rect x="17" y="113" width="20" height="13" rx="6.5" fill="white"/>
<path d="M30.9641 50.5798C30.4666 49.6801 29.6698 49.0052 28.7271 48.6851C29.1787 48.4029 29.5297 47.9728 29.726 47.4609C29.9223 46.9491 29.9532 46.3837 29.8138 45.8516C29.6745 45.3195 29.3726 44.8502 28.9546 44.5157C28.5366 44.1812 28.0255 44 27.5 44C26.9744 44 26.4634 44.1812 26.0454 44.5157C25.6274 44.8502 25.3255 45.3195 25.1861 45.8516C25.0468 46.3837 25.0776 46.9491 25.274 47.4609C25.4703 47.9728 25.8212 48.4029 26.2729 48.6851C25.3301 49.0052 24.5334 49.68 24.0358 50.5798C24.0124 50.6223 24 50.6706 24 50.7198C24 50.7689 24.0123 50.8172 24.0357 50.8598C24.0591 50.9024 24.0927 50.9378 24.1333 50.9624C24.1738 50.987 24.2198 50.9999 24.2666 50.9999L30.7334 51C30.7802 51 30.8262 50.9871 30.8667 50.9625C30.9073 50.9379 30.9409 50.9025 30.9643 50.8599C30.9877 50.8173 31 50.769 31 50.7198C31 50.6707 30.9876 50.6224 30.9641 50.5798L30.9641 50.5798Z" fill="#94A4C4"/>
<path d="M30.9641 74.5798C30.4666 73.6801 29.6698 73.0052 28.7271 72.6851C29.1787 72.4029 29.5297 71.9728 29.726 71.4609C29.9223 70.9491 29.9532 70.3837 29.8138 69.8516C29.6745 69.3195 29.3726 68.8502 28.9546 68.5157C28.5366 68.1812 28.0255 68 27.5 68C26.9744 68 26.4634 68.1812 26.0454 68.5157C25.6274 68.8502 25.3255 69.3195 25.1861 69.8516C25.0468 70.3837 25.0776 70.9491 25.274 71.4609C25.4703 71.9728 25.8212 72.4029 26.2729 72.6851C25.3301 73.0052 24.5334 73.68 24.0358 74.5798C24.0124 74.6223 24 74.6706 24 74.7198C24 74.7689 24.0123 74.8172 24.0357 74.8598C24.0591 74.9024 24.0927 74.9378 24.1333 74.9624C24.1738 74.987 24.2198 74.9999 24.2666 74.9999L30.7334 75C30.7802 75 30.8262 74.9871 30.8667 74.9625C30.9073 74.9379 30.9409 74.9025 30.9643 74.8599C30.9877 74.8173 31 74.769 31 74.7198C31 74.6707 30.9876 74.6224 30.9641 74.5798L30.9641 74.5798Z" fill="#94A4C4"/>
<path d="M30.9641 98.5798C30.4666 97.6801 29.6698 97.0052 28.7271 96.6851C29.1787 96.4029 29.5297 95.9728 29.726 95.4609C29.9223 94.9491 29.9532 94.3837 29.8138 93.8516C29.6745 93.3195 29.3726 92.8502 28.9546 92.5157C28.5366 92.1812 28.0255 92 27.5 92C26.9744 92 26.4634 92.1812 26.0454 92.5157C25.6274 92.8502 25.3255 93.3195 25.1861 93.8516C25.0468 94.3837 25.0776 94.9491 25.274 95.4609C25.4703 95.9728 25.8212 96.4029 26.2729 96.6851C25.3301 97.0052 24.5334 97.68 24.0358 98.5798C24.0124 98.6223 24 98.6706 24 98.7198C24 98.7689 24.0123 98.8172 24.0357 98.8598C24.0591 98.9024 24.0927 98.9378 24.1333 98.9624C24.1738 98.987 24.2198 98.9999 24.2666 98.9999L30.7334 99C30.7802 99 30.8262 98.9871 30.8667 98.9625C30.9073 98.9379 30.9409 98.9025 30.9643 98.8599C30.9877 98.8173 31 98.769 31 98.7198C31 98.6707 30.9876 98.6224 30.9641 98.5798L30.9641 98.5798Z" fill="#94A4C4"/>
<path d="M30.9641 122.58C30.4666 121.68 29.6698 121.005 28.7271 120.685C29.1787 120.403 29.5297 119.973 29.726 119.461C29.9223 118.949 29.9532 118.384 29.8138 117.852C29.6745 117.319 29.3726 116.85 28.9546 116.516C28.5366 116.181 28.0255 116 27.5 116C26.9744 116 26.4634 116.181 26.0454 116.516C25.6274 116.85 25.3255 117.319 25.1861 117.852C25.0468 118.384 25.0776 118.949 25.274 119.461C25.4703 119.973 25.8212 120.403 26.2729 120.685C25.3301 121.005 24.5334 121.68 24.0358 122.58C24.0124 122.622 24 122.671 24 122.72C24 122.769 24.0123 122.817 24.0357 122.86C24.0591 122.902 24.0927 122.938 24.1333 122.962C24.1738 122.987 24.2198 123 24.2666 123L30.7334 123C30.7802 123 30.8262 122.987 30.8667 122.962C30.9073 122.938 30.9409 122.903 30.9643 122.86C30.9877 122.817 31 122.769 31 122.72C31 122.671 30.9876 122.622 30.9641 122.58L30.9641 122.58Z" fill="#94A4C4"/>
<path d="M0 23.0859L-8.78013e-07 2.99933C-9.74578e-07 0.790195 1.79086 -1.00066 4 -1.00066L283.969 -1.00068L283.969 23.0859L0 23.0859Z" fill="#94A4C4"/>
<circle cx="12.0977" cy="11.0958" r="3.78716" fill="white"/>
<circle cx="24.7168" cy="11.0958" r="3.78716" fill="white"/>
<circle cx="37.3438" cy="11.0958" r="3.78716" fill="white"/>
</g>
</svg>
