<svg width="206" height="156" viewBox="0 0 206 156" fill="none" xmlns="http://www.w3.org/2000/svg">
<mask id="mask0_3168:12971" style="mask-type:alpha" maskUnits="userSpaceOnUse" x="0" y="0" width="206" height="156">
<rect width="206" height="156" rx="8" fill="#C4C4C4"/>
</mask>
<g mask="url(#mask0_3168:12971)">
<rect y="23" width="206" height="137" fill="#ECEFF5"/>
<path d="M0 23.0859L-8.78013e-07 2.99933C-9.74578e-07 0.790195 1.79086 -1.00066 4 -1.00066L283.969 -1.00068L283.969 23.0859L0 23.0859Z" fill="#94A4C4"/>
<circle cx="12.0977" cy="11.0958" r="3.78716" fill="white"/>
<circle cx="24.7168" cy="11.0958" r="3.78716" fill="white"/>
<circle cx="37.3438" cy="11.0958" r="3.78716" fill="white"/>
</g>
<rect x="52" y="32" width="104" height="111" rx="8" fill="white"/>
<rect x="59" y="75" width="44" height="13" rx="6.5" fill="#ECEFF5"/>
<rect x="59" y="95" width="92" height="13" rx="6.5" fill="#ECEFF5"/>
<rect x="59" y="115" width="92" height="13" rx="6.5" fill="#ECEFF5"/>
<rect x="107" y="75" width="44" height="13" rx="6.5" fill="#ECEFF5"/>
<path d="M116 55C116 61.6274 110.627 67 104 67C97.3726 67 92 61.6274 92 55C92 48.3726 97.3726 43 104 43C110.627 43 116 48.3726 116 55Z" fill="#94A4C4"/>
<path d="M108.949 59.3998C108.238 58.1144 107.1 57.1503 105.753 56.693C106.398 56.2898 106.9 55.6755 107.18 54.9442C107.46 54.2129 107.505 53.4052 107.305 52.6451C107.106 51.885 106.675 51.2145 106.078 50.7367C105.481 50.2588 104.751 50 104 50C103.249 50 102.519 50.2588 101.922 50.7367C101.325 51.2145 100.894 51.885 100.694 52.6451C100.495 53.4052 100.539 54.2129 100.82 54.9442C101.1 55.6755 101.602 56.2898 102.247 56.693C100.9 57.1503 99.762 58.1144 99.0512 59.3997C99.0177 59.4605 99 59.5294 99 59.5997C99 59.6699 99.0175 59.7389 99.0509 59.7998C99.0844 59.8606 99.1325 59.9111 99.1904 59.9463C99.2483 59.9814 99.314 59.9999 99.3809 59.9999L108.619 60C108.686 60 108.752 59.9815 108.81 59.9464C108.868 59.9112 108.916 59.8607 108.949 59.7999C108.982 59.739 109 59.67 109 59.5998C109 59.5295 108.982 59.4605 108.949 59.3998L108.949 59.3998Z" fill="#ECEFF5"/>
</svg>
