<svg width="206" height="156" viewBox="0 0 206 156" fill="none" xmlns="http://www.w3.org/2000/svg">
<mask id="mask0_3168:12970" style="mask-type:alpha" maskUnits="userSpaceOnUse" x="0" y="0" width="206" height="156">
<rect width="206" height="156" rx="8" fill="#C4C4C4"/>
</mask>
<g mask="url(#mask0_3168:12970)">
<rect y="23" width="206" height="137" fill="#ECEFF5"/>
<path d="M0 23.0859L-8.78013e-07 2.99933C-9.74578e-07 0.790195 1.79086 -1.00066 4 -1.00066L283.969 -1.00068L283.969 23.0859L0 23.0859Z" fill="#94A4C4"/>
<circle cx="12.0977" cy="11.0958" r="3.78716" fill="white"/>
<circle cx="24.7168" cy="11.0958" r="3.78716" fill="white"/>
<circle cx="37.3438" cy="11.0958" r="3.78716" fill="white"/>
</g>
<rect x="20" y="44" width="55" height="86" rx="8" fill="white"/>
<rect x="83" y="44" width="51" height="14" rx="7" fill="white"/>
<rect x="83" y="68" width="110" height="14" rx="7" fill="white"/>
<rect x="83" y="92" width="110" height="14" rx="7" fill="white"/>
<rect x="83" y="116" width="110" height="14" rx="7" fill="white"/>
<rect x="142" y="44" width="51" height="14" rx="7" fill="white"/>
<path d="M60 66C60 72.6274 54.6274 78 48 78C41.3726 78 36 72.6274 36 66C36 59.3726 41.3726 54 48 54C54.6274 54 60 59.3726 60 66Z" fill="#94A4C4"/>
<path d="M52.9488 70.3998C52.238 69.1144 51.0998 68.1503 49.7529 67.693C50.3982 67.2898 50.8995 66.6755 51.18 65.9442C51.4605 65.2129 51.5045 64.4052 51.3054 63.6451C51.1064 62.885 50.6751 62.2145 50.078 61.7367C49.4808 61.2588 48.7508 61 48 61C47.2492 61 46.5191 61.2588 45.922 61.7367C45.3248 62.2145 44.8936 62.885 44.6945 63.6451C44.4954 64.4052 44.5395 65.2129 44.8199 65.9442C45.1004 66.6755 45.6018 67.2898 46.247 67.693C44.9002 68.1503 43.762 69.1144 43.0512 70.3997C43.0177 70.4605 43 70.5294 43 70.5997C43 70.6699 43.0175 70.7389 43.0509 70.7998C43.0844 70.8606 43.1325 70.9111 43.1904 70.9463C43.2483 70.9814 43.314 70.9999 43.3809 70.9999L52.6191 71C52.686 71 52.7517 70.9815 52.8096 70.9464C52.8675 70.9112 52.9156 70.8607 52.9491 70.7999C52.9825 70.739 53 70.67 53 70.5998C53 70.5295 52.9823 70.4605 52.9488 70.3998L52.9488 70.3998Z" fill="#ECEFF5"/>
</svg>
